<svg width="111" height="23" viewBox="0 0 111 23" fill="none" xmlns="http://www.w3.org/2000/svg">
<path fill-rule="evenodd" clip-rule="evenodd" d="M94.2155 2.94665C94.9244 2.79313 95.7002 2.71875 96.5593 2.71875H105.031V20.6882H96.3218C95.5167 20.6882 94.7306 20.5872 93.9732 20.3859C93.2076 20.1846 92.5239 19.8755 91.9289 19.4538C91.3387 19.0363 90.8597 18.4945 90.5076 17.8265C90.1596 17.1666 89.9849 16.3826 89.9849 15.471C89.9849 14.3472 90.2517 13.3878 90.7976 12.5868C91.3408 11.7912 92.1596 11.231 93.2656 10.913C92.4537 10.5288 91.8457 10.0341 91.4322 9.43094C91.0214 8.82707 90.816 8.07172 90.816 7.16693C90.816 6.33038 90.9539 5.62348 91.2275 5.0585C91.5079 4.48533 91.8996 4.03021 92.4004 3.68836C92.9088 3.34582 93.5106 3.09608 94.2155 2.94665ZM95.7432 17.5153C96.0919 17.5931 96.4624 17.6279 96.8527 17.6279H101.075V12.6796H96.7736C95.922 12.6796 95.2294 12.8754 94.7102 13.2691C94.1923 13.6683 93.9316 14.3261 93.9316 15.252C93.9316 15.7249 94.008 16.1158 94.1677 16.4167C94.3274 16.7211 94.5464 16.9599 94.8111 17.1339C95.0759 17.3154 95.3898 17.4375 95.7432 17.5153ZM95.3304 9.47461C95.7903 9.81237 96.3703 9.97886 97.0711 9.97886H101.075V5.77973H97.3733C97.0233 5.77973 96.6814 5.8043 96.356 5.86844C96.0237 5.92507 95.7378 6.03083 95.4846 6.18368C95.2294 6.33038 95.0274 6.54054 94.8753 6.8087C94.7279 7.07686 94.6542 7.42281 94.6542 7.8404C94.6542 8.59371 94.8753 9.14299 95.3304 9.47461Z" fill="white"/>
<path fill-rule="evenodd" clip-rule="evenodd" d="M82.0336 18.3539C83.036 18.3539 83.8098 18.0905 84.3447 17.5679C84.8817 17.0452 85.2297 16.0715 85.2297 15.0432H75.8407C75.7731 14.0333 75.8557 13.0692 76.0891 12.146C76.3252 11.2221 76.7025 10.3978 77.2327 9.67658C77.7635 8.95467 78.4384 8.37809 79.262 7.95299C80.0883 7.52107 81.0524 7.30954 82.153 7.30954C83.1499 7.30954 84.0499 7.48627 84.8667 7.83904C85.6828 8.19249 86.3835 8.67627 86.9751 9.2897C87.5647 9.89971 88.013 10.6271 88.3378 11.4698C88.6551 12.3097 88.8181 13.2186 88.8181 14.1916C88.8181 15.1981 88.6612 16.1268 88.3507 16.9653C88.0369 17.808 87.5967 18.5259 87.0297 19.1331C86.4477 19.7377 85.7558 20.2017 84.9281 20.5326C84.1004 20.8588 83.1779 21.0253 82.153 21.0253C80.6826 21.0253 79.4203 20.6882 78.3858 20.012C77.3384 19.3392 76.5708 18.2209 76.0652 16.6549H79.2121C79.3343 17.0575 79.6495 17.4457 80.1674 17.808C80.6901 18.1717 81.3131 18.3539 82.0336 18.3539ZM82.2602 10.0075C81.3827 10.0075 80.6635 10.262 80.2384 10.7322C79.8119 11.2057 79.5001 11.8792 79.4148 12.7908H85.2297C85.2126 12.537 85.1581 12.2497 85.0666 11.9331C84.9752 11.6083 84.8176 11.3046 84.5869 11.0167C84.3556 10.7335 84.052 10.4927 83.6822 10.2996C83.3041 10.1037 82.8313 10.0075 82.2602 10.0075Z" fill="white"/>
<path d="M70.7648 2.71875V9.4944H70.6829C70.2291 8.74041 69.6553 8.19249 68.9497 7.85268C68.2456 7.51015 67.5584 7.34093 66.8891 7.34093C65.9345 7.34093 65.1525 7.46648 64.5418 7.72509C63.9304 7.98847 63.4467 8.34465 63.0925 8.80796C62.7452 9.26922 62.4996 9.83215 62.3556 10.4954C62.2144 11.1573 62.1413 11.8874 62.1413 12.6925V20.6882H65.7325V13.3414C65.7325 12.2702 65.8997 11.465 66.2327 10.9382C66.5663 10.4108 67.1586 10.146 68.0129 10.146C68.9791 10.146 69.6778 10.4388 70.1104 11.0167C70.5512 11.5946 70.7648 12.5458 70.7648 13.8696V20.6882H74.3546V2.71875H70.7648Z" fill="white"/>
<path fill-rule="evenodd" clip-rule="evenodd" d="M58.1872 8.24435C58.7576 8.57938 59.2264 9.02768 59.5901 9.58106C59.9654 10.1344 60.1728 10.8311 60.2246 11.6752H56.6396C56.568 10.9683 56.336 10.462 55.9327 10.1542C55.5404 9.85536 54.987 9.69978 54.2876 9.69978C53.973 9.69978 53.6783 9.7223 53.3999 9.76256C53.1263 9.80691 52.8888 9.89016 52.678 10.0171C52.4726 10.144 52.3047 10.318 52.1805 10.5438C52.057 10.7731 51.9888 11.0802 51.9888 11.465C51.9731 11.8376 52.0843 12.1173 52.3156 12.3097C52.551 12.5015 52.8717 12.653 53.2723 12.7526C53.6783 12.8549 54.1327 12.9279 54.6574 12.9791C55.1808 13.031 55.7048 13.0978 56.2432 13.1804C56.7734 13.263 57.3083 13.3803 57.8351 13.5223C58.3666 13.6628 58.8361 13.8784 59.2448 14.165C59.6604 14.4496 59.9926 14.8337 60.2485 15.3114C60.5112 15.789 60.6443 16.399 60.6443 17.14C60.6443 17.8115 60.5283 18.3928 60.3031 18.8814C60.0766 19.3672 59.7661 19.7684 59.3622 20.0918C58.9603 20.4091 58.4888 20.6439 57.9579 20.7953C57.4189 20.9468 56.843 21.0253 56.2248 21.0253C55.4182 21.0253 54.6329 20.9072 53.8625 20.6746C53.086 20.4385 52.4193 20.025 51.851 19.4368C51.8346 19.6558 51.8052 19.8694 51.7629 20.0768C51.7213 20.289 51.6326 20.5326 51.5255 20.6882L47.875 20.6971C48.0483 20.431 48.2318 20.025 48.3028 19.4839C48.3656 18.9476 48.401 18.3873 48.401 17.7978V11.0167C48.401 10.2252 48.5805 9.58651 48.9346 9.11502C49.284 8.63124 49.735 8.26073 50.2884 7.98984C50.8425 7.72031 51.4532 7.53949 52.1212 7.44737C52.8001 7.35458 53.4592 7.30954 54.1109 7.30954C54.8355 7.30954 55.5492 7.37846 56.263 7.52516C56.9794 7.66777 57.6167 7.90591 58.1872 8.24435ZM53.2784 14.8337C53.0246 14.7798 52.7783 14.7177 52.5558 14.644C52.3259 14.569 52.1437 14.4632 51.9888 14.3261V15.6628C51.9888 15.8654 52.0099 16.1356 52.057 16.4707C52.0932 16.8036 52.2044 17.1339 52.3886 17.4614C52.5695 17.7889 52.8588 18.0701 53.2429 18.3055C53.6291 18.5395 54.1709 18.6562 54.8737 18.6562C55.1569 18.6562 55.4333 18.6364 55.7007 18.5832C55.9641 18.5341 56.2009 18.4453 56.4029 18.3191C56.6055 18.1929 56.7597 18.0223 56.8778 17.8039C56.9924 17.5836 57.0538 17.3154 57.0538 16.9974C57.0538 16.6644 56.9924 16.3826 56.8778 16.1656C56.7597 15.9493 56.6055 15.7692 56.4117 15.6252C56.2248 15.4833 55.9975 15.3707 55.7383 15.2861C55.4837 15.2008 55.2163 15.1353 54.9488 15.0828C54.6683 15.0323 54.379 14.9934 54.0979 14.9593C53.8141 14.9238 53.5404 14.8835 53.2784 14.8337Z" fill="white"/>
<path d="M43.0413 7.68073V9.49439H42.9614C42.509 8.74041 41.9256 8.19249 41.201 7.85268C40.4825 7.51015 39.738 7.34093 38.9834 7.34093C38.0247 7.34093 37.2379 7.46648 36.63 7.72508C36.0111 7.98847 35.53 8.34465 35.1814 8.80796C34.8238 9.26922 34.5782 9.83215 34.4349 10.4954C34.2902 11.1573 34.2186 11.8874 34.2186 12.6925V20.6882H37.8111V13.3414C37.8111 12.2702 37.9796 11.465 38.3147 10.9382C38.6545 10.4108 39.2406 10.0723 40.1011 10.0723C41.0734 10.0723 41.7817 10.4388 42.217 11.0167C42.6551 11.5946 42.872 12.5458 42.872 13.8696V20.6882H46.4257V7.68073H43.0413Z" fill="white"/>
<path d="M27.6968 10.3978C27.3153 10.1344 26.8411 10.0075 26.2666 10.0075C24.7388 10.0075 23.8586 10.7485 23.6266 12.2333H20.1221C20.1774 11.3988 20.3766 10.6687 20.7253 10.0594C21.0781 9.45005 21.5386 8.93897 22.1009 8.52888C22.6618 8.11607 23.3011 7.80833 24.0121 7.60909C24.7286 7.41394 25.4703 7.30954 26.2427 7.30954C27.2983 7.30954 28.2385 7.48627 29.0614 7.83904C29.8878 8.19249 30.5865 8.68378 31.1576 9.31562C31.7342 9.94338 32.1668 10.6919 32.4595 11.5557C32.7536 12.423 32.9017 13.3612 32.9017 14.3684C32.9017 15.3407 32.742 16.2366 32.4247 17.0527C32.0999 17.8674 31.6564 18.5682 31.0846 19.1577C30.5128 19.7459 29.8188 20.2017 29.0014 20.5326C28.1826 20.8588 27.2949 21.0253 26.3178 21.0253C24.5887 21.0253 23.1688 20.5674 22.06 19.6647C20.9552 18.7558 20.2838 17.4375 20.047 15.7119H23.4983C23.6184 16.5171 23.903 17.1598 24.3628 17.6381C24.8248 18.1137 25.4839 18.3539 26.3444 18.3539C26.8991 18.3539 27.3665 18.2277 27.7507 17.9745C28.1369 17.72 28.4426 17.398 28.6725 17.0063C28.8991 16.6064 29.0594 16.1677 29.1638 15.6819C29.2614 15.1933 29.316 14.715 29.316 14.2428C29.316 13.7543 29.2614 13.263 29.1638 12.7669C29.0594 12.2702 28.8909 11.8164 28.6473 11.4063C28.4044 10.9935 28.0864 10.6605 27.6968 10.3978Z" fill="white"/>
<path d="M85.9605 3.92445H78.6765V5.69785H85.9605V3.92445Z" fill="white"/>
<path fill-rule="evenodd" clip-rule="evenodd" d="M12.3161 18.3539C13.326 18.3539 14.1366 18.0905 14.6736 17.5679C15.212 17.0452 15.5552 16.0715 15.5552 15.0432H6.12524C6.05905 14.0333 6.14776 13.0692 6.37839 12.146C6.61243 11.2221 6.99386 10.3978 7.52404 9.67658C8.0508 8.95467 8.72906 8.37809 9.55469 7.95299C10.3728 7.52107 11.3411 7.30954 12.4403 7.30954C13.4317 7.30954 14.3393 7.48627 15.1567 7.83904C15.9707 8.19249 16.6654 8.67627 17.2597 9.2897C17.8458 9.89971 18.3037 10.6271 18.6257 11.4698C18.9437 12.3097 19.1034 13.2186 19.1034 14.1916C19.1034 15.1981 18.9492 16.1268 18.6387 16.9653C18.3262 17.808 17.8867 18.5259 17.3136 19.1331C16.7343 19.7377 16.0417 20.2017 15.2154 20.5326C14.3938 20.8588 13.4679 21.0253 12.4403 21.0253C10.9644 21.0253 9.70753 20.6882 8.66901 20.012C7.62844 19.3392 6.85603 18.2209 6.35314 16.6549H9.5001C9.61473 17.0575 9.9368 17.4457 10.4561 17.808C10.9753 18.1717 11.5969 18.3539 12.3161 18.3539ZM12.5447 10.0075C11.6781 10.0075 10.9535 10.262 10.5229 10.7322C10.0965 11.2057 9.79214 11.8792 9.69661 12.7908H15.5552C15.5395 12.537 15.4801 12.2497 15.3955 11.9331C15.3007 11.6083 15.1376 11.3046 14.9104 11.0167C14.6832 10.7335 14.3447 10.4927 13.9742 10.2996C13.5894 10.1037 13.1151 10.0075 12.5447 10.0075Z" fill="white"/>
</svg>
