<svg width="130" height="130" viewBox="0 0 130 130" fill="none" xmlns="http://www.w3.org/2000/svg">
<path d="M119.601 72.8757C118.861 66.9255 116.167 61.3891 111.942 57.1349C107.717 52.8803 102.199 50.1482 96.2552 49.3667C93.692 42.1891 88.6876 36.1417 82.1172 32.2796C75.5467 28.4175 67.828 26.9863 60.3097 28.2383C52.7917 29.4902 45.9528 33.3455 40.9884 39.1285C36.024 44.9114 33.2499 52.2551 33.151 59.8762C27.4047 59.8762 21.8937 62.1577 17.8304 66.2208C13.7671 70.2844 11.4844 75.7964 11.4844 81.5429C11.4844 87.2889 13.7671 92.7998 17.8304 96.8629C21.8937 100.926 27.4047 103.21 33.151 103.21H65.651" stroke="#290293" stroke-width="7" stroke-linecap="round" stroke-linejoin="round"/>
<path d="M101.719 124.583V81.25" stroke="#290293" stroke-width="6" stroke-linecap="round" stroke-linejoin="round"/>
<path d="M84.3906 98.5833L101.724 81.25L119.057 98.5833" stroke="#290293" stroke-width="7" stroke-linecap="round" stroke-linejoin="round"/>
</svg>
