<svg width="130" height="130" viewBox="0 0 130 130" fill="none" xmlns="http://www.w3.org/2000/svg">
<path d="M64.8391 37.7506C64.0784 38.5123 63.651 39.5449 63.651 40.6214C63.651 41.698 64.0784 42.7305 64.8391 43.4923L78.2183 56.8714L64.8391 70.2506C64.44 70.6225 64.1199 71.071 63.8978 71.5693C63.6758 72.0677 63.5564 72.6056 63.5468 73.1511C63.5371 73.6966 63.6375 74.2384 63.8418 74.7442C64.0461 75.2501 64.3502 75.7096 64.736 76.0954C65.1218 76.4811 65.5813 76.7853 66.0871 76.9896C66.593 77.1939 67.1348 77.2943 67.6803 77.2846C68.2258 77.275 68.7637 77.1556 69.262 76.9336C69.7604 76.7115 70.2089 76.3914 70.5808 75.9923L86.8308 59.7423C87.5916 58.9805 88.0189 57.948 88.0189 56.8714C88.0189 55.7949 87.5916 54.7623 86.8308 54.0006L70.5808 37.7506C69.8191 36.9898 68.7865 36.5625 67.71 36.5625C66.6334 36.5625 65.6009 36.9898 64.8391 37.7506ZM48.9141 43.4923C49.6317 42.7221 50.0224 41.7036 50.0038 40.6511C49.9853 39.5986 49.5589 38.5945 48.8146 37.8501C48.0703 37.1058 47.0661 36.6795 46.0136 36.6609C44.9612 36.6423 43.9426 37.033 43.1725 37.7506L26.9225 54.0006C26.1617 54.7623 25.7344 55.7949 25.7344 56.8714C25.7344 57.948 26.1617 58.9805 26.9225 59.7423L43.1725 75.9923C43.9426 76.7099 44.9612 77.1005 46.0136 77.082C47.0661 77.0634 48.0703 76.637 48.8146 75.8927C49.5589 75.1484 49.9853 74.1442 50.0038 73.0918C50.0224 72.0393 49.6317 71.0207 48.9141 70.2506L35.535 56.8714L48.9141 43.4923Z" fill="#290293"/>
<path fill-rule="evenodd" clip-rule="evenodd" d="M56.875 0C25.4638 0 0 25.4638 0 56.875C0 88.2862 25.4638 113.75 56.875 113.75C71.1208 113.75 84.1371 108.512 94.1146 99.8617L117.65 123.392C118.022 123.791 118.47 124.111 118.969 124.333C119.467 124.555 120.005 124.674 120.55 124.684C121.096 124.694 121.638 124.593 122.144 124.389C122.649 124.185 123.109 123.881 123.495 123.495C123.881 123.109 124.185 122.649 124.389 122.144C124.593 121.638 124.694 121.096 124.684 120.55C124.674 120.005 124.555 119.467 124.333 118.969C124.111 118.47 123.791 118.022 123.392 117.65L99.8617 94.1146C108.836 83.7859 113.77 70.5581 113.75 56.875C113.75 25.4638 88.2862 0 56.875 0ZM8.125 56.875C8.125 50.4731 9.38595 44.1338 11.8359 38.2192C14.2858 32.3046 17.8767 26.9304 22.4035 22.4035C26.9304 17.8767 32.3046 14.2858 38.2192 11.8359C44.1338 9.38595 50.4731 8.125 56.875 8.125C63.2769 8.125 69.6162 9.38595 75.5308 11.8359C81.4454 14.2858 86.8196 17.8767 91.3465 22.4035C95.8733 26.9304 99.4642 32.3046 101.914 38.2192C104.364 44.1338 105.625 50.4731 105.625 56.875C105.625 69.8043 100.489 82.204 91.3465 91.3465C82.204 100.489 69.8043 105.625 56.875 105.625C43.9457 105.625 31.5459 100.489 22.4035 91.3465C13.2611 82.204 8.125 69.8043 8.125 56.875Z" fill="#290293"/>
</svg>
