<svg width="106" height="32" viewBox="0 0 106 32" fill="none" xmlns="http://www.w3.org/2000/svg">
<path d="M6.48906 20.8147C5.932 20.2551 5.49133 19.5917 5.19226 18.8624C4.8932 18.1331 4.74162 17.3523 4.74622 16.5646C4.7442 15.777 4.89997 14.9968 5.20442 14.2698C5.50888 13.5427 5.95591 12.8834 6.51938 12.3303C6.76075 12.1168 6.95579 11.8565 7.09256 11.5653C7.22933 11.2741 7.30494 10.9582 7.31478 10.637C7.32462 10.3157 7.26847 9.99579 7.14978 9.69687C7.03108 9.39795 6.85233 9.12629 6.62448 8.89852C6.39662 8.67075 6.12446 8.49166 5.82464 8.37223C5.52483 8.2528 5.20368 8.19553 4.88086 8.20393C4.55803 8.21233 4.24033 8.28623 3.94719 8.4211C3.65406 8.55596 3.39167 8.74896 3.17609 8.98827C1.15114 10.9918 0.00870256 13.7139 4.95128e-05 16.5558C-0.00860353 19.3976 1.11724 22.1265 3.12995 24.1423C3.34483 24.3812 3.60636 24.5742 3.89859 24.7093C4.19082 24.8444 4.50763 24.9188 4.82972 24.9281C5.1518 24.9373 5.4724 24.8812 5.77198 24.7631C6.07156 24.645 6.34384 24.4675 6.57222 24.2412C6.8006 24.015 6.98029 23.7448 7.10035 23.4472C7.2204 23.1496 7.27831 22.8308 7.27053 22.5102C7.26274 22.1895 7.18944 21.8739 7.05509 21.5824C6.92074 21.2909 6.72815 21.0297 6.48906 20.8147Z" fill="#FFDA00"/>
<path d="M6.52232 12.3242C7.65789 11.2053 9.19286 10.5801 10.7908 10.5858C12.3886 10.5915 13.9191 11.2274 15.0467 12.3544C15.2608 12.5959 15.5223 12.7912 15.815 12.9284C16.1078 13.0656 16.4257 13.1418 16.7491 13.1522C17.0726 13.1626 17.3947 13.1071 17.6958 12.989C17.9969 12.8709 18.2705 12.6928 18.4999 12.4656C18.7293 12.2384 18.9095 11.9669 19.0296 11.6678C19.1496 11.3687 19.2069 11.0483 19.198 10.7263C19.189 10.4043 19.114 10.0876 18.9776 9.79556C18.8411 9.50351 18.6461 9.24233 18.4044 9.02807C17.4115 8.02706 16.2297 7.23115 14.9269 6.68605C13.624 6.14094 12.2258 5.85738 10.8125 5.85165C9.39925 5.84592 7.99877 6.11813 6.6915 6.65265C5.38423 7.18718 4.19593 7.97348 3.19485 8.9664C2.95261 9.17884 2.75647 9.43824 2.61843 9.72874C2.4804 10.0192 2.40338 10.3347 2.39208 10.6559C2.38078 10.977 2.43544 11.2971 2.55272 11.5965C2.67 11.8959 2.84743 12.1683 3.07415 12.3971C3.30086 12.6258 3.5721 12.8062 3.87127 12.927C4.17043 13.0479 4.49122 13.1067 4.814 13.0998C5.13679 13.093 5.45478 13.0207 5.74852 12.8873C6.04226 12.754 6.30556 12.5623 6.52232 12.3242Z" fill="#67B3FF"/>
<path d="M15.0317 20.8386C14.4697 21.3941 13.8032 21.8339 13.0702 22.1327C12.3373 22.4314 11.5523 22.5834 10.7603 22.5798C9.96843 22.581 9.18432 22.4249 8.45382 22.1207C7.72333 21.8166 7.06114 21.3704 6.50601 20.8084C6.29147 20.5682 6.02992 20.374 5.73738 20.2379C5.44484 20.1018 5.12746 20.0265 4.80467 20.0167C4.48189 20.0069 4.16049 20.0628 3.86016 20.181C3.55983 20.2991 3.28689 20.477 3.05805 20.7038C2.8292 20.9306 2.64927 21.2015 2.52928 21.4999C2.40928 21.7983 2.35174 22.1179 2.36019 22.4392C2.36863 22.7605 2.44287 23.0768 2.57837 23.3685C2.71387 23.6603 2.90778 23.9214 3.14822 24.136C4.14285 25.1369 5.32616 25.9327 6.63034 26.4776C7.93452 27.0225 9.33392 27.3058 10.7483 27.3115C12.1628 27.3171 13.5644 27.0448 14.8729 26.5102C16.1814 25.9757 17.371 25.1894 18.3736 24.1964C18.5952 23.978 18.7713 23.7183 18.892 23.4321C19.0126 23.1459 19.0755 22.8389 19.077 22.5286C19.0784 22.2183 19.0185 21.9107 18.9005 21.6234C18.7826 21.3361 18.6089 21.0748 18.3895 20.8543C18.17 20.6338 17.9091 20.4585 17.6216 20.3384C17.3341 20.2183 17.0256 20.1557 16.7138 20.1543C16.402 20.1528 16.093 20.2125 15.8044 20.3299C15.5157 20.4473 15.2532 20.6202 15.0317 20.8386Z" fill="#EB5A68"/>
<path d="M6.51872 12.322C6.18612 12.6527 5.76234 12.8775 5.30115 12.9681C4.83995 13.0587 4.36211 13.0109 3.92824 12.8308C3.49438 12.6507 3.12404 12.3463 2.8642 11.9564C2.60436 11.5665 2.46673 11.1086 2.46877 10.6407C2.47081 10.1728 2.61243 9.71606 2.87565 9.32841C3.13888 8.94075 3.51186 8.63964 3.94728 8.46328C4.3827 8.28691 4.86093 8.24324 5.32132 8.3378C5.78172 8.43236 6.20352 8.66089 6.53323 8.9944C6.97247 9.43871 7.21744 10.0378 7.21472 10.6612C7.21201 11.2845 6.96183 11.8815 6.51872 12.322Z" fill="#47A1FF"/>
<path d="M6.47118 24.1352C6.13845 24.4657 5.71458 24.6904 5.25335 24.7808C4.79211 24.8712 4.3143 24.8232 3.8805 24.6429C3.44671 24.4626 3.07649 24.1582 2.81681 23.7681C2.55712 23.3781 2.41968 22.9201 2.4219 22.4523C2.42413 21.9844 2.56592 21.5277 2.8293 21.1401C3.09268 20.7526 3.46578 20.4516 3.90127 20.2754C4.33675 20.0992 4.81501 20.0557 5.27536 20.1505C5.73572 20.2452 6.15743 20.4739 6.487 20.8076C6.92608 21.252 7.17081 21.8513 7.16784 22.4746C7.16488 23.0979 6.91446 23.6948 6.47118 24.1352Z" fill="#D5465F"/>
<path d="M28.9617 18.8754C29.6459 18.361 29.7369 18.6484 30.3143 19.2231C30.6031 19.5105 31.3927 20.0104 30.8759 20.4329C29.7976 21.3094 28.8246 21.7031 27.4483 21.7031C24.3331 21.6886 22.1301 19.374 22.3068 16.3036C22.3819 14.9285 22.929 13.6268 24.0088 12.7345C24.9962 11.9026 26.2262 11.5405 27.5182 11.5707C28.1514 11.5688 28.7787 11.6919 29.3638 11.9328C29.7601 12.0752 30.1336 12.2741 30.4725 12.5233C31.1568 13.0481 30.8377 13.3552 30.3051 13.884C30.1838 14.0047 30.0625 14.1267 29.9558 14.2474C29.6829 14.5191 29.4996 14.7159 29.1357 14.4587C28.437 13.9745 27.5538 13.7173 26.7192 13.9338C24.0298 14.6135 24.1511 19.3779 27.4496 19.3937C27.9964 19.3865 28.5264 19.2049 28.9617 18.8754ZM103.72 21.7621C103.613 21.7626 103.506 21.7419 103.406 21.7011C103.306 21.6603 103.215 21.6002 103.139 21.5243C103.063 21.4484 103.002 21.3583 102.961 21.259C102.92 21.1597 102.899 21.0534 102.899 20.946L102.945 10.3897C102.945 10.2823 102.966 10.1759 103.007 10.0766C103.048 9.97726 103.108 9.88699 103.184 9.811C103.26 9.735 103.351 9.67478 103.451 9.63381C103.55 9.59283 103.657 9.57192 103.765 9.57226H104.647C104.755 9.57191 104.862 9.59287 104.962 9.63393C105.062 9.67499 105.152 9.73533 105.229 9.81146C105.305 9.8876 105.365 9.97802 105.406 10.0775C105.447 10.177 105.468 10.2835 105.467 10.391L105.421 20.9473C105.422 21.0546 105.401 21.161 105.36 21.2602C105.319 21.3595 105.258 21.4497 105.182 21.5255C105.106 21.6014 105.015 21.6615 104.915 21.7024C104.816 21.7432 104.709 21.764 104.601 21.7634L103.72 21.7621ZM99.1062 20.5379C98.1491 21.4301 97.2368 21.8986 95.8842 21.8986C93.15 21.8828 91.8422 19.6299 91.8422 17.104L91.8581 12.8093C91.8577 12.702 91.8787 12.5957 91.9199 12.4965C91.9611 12.3973 92.0216 12.3072 92.098 12.2314C92.1744 12.1557 92.2651 12.0957 92.3649 12.055C92.4646 12.0144 92.5715 11.9938 92.6794 11.9945H93.5613C93.6692 11.994 93.776 12.0147 93.8758 12.0556C93.9755 12.0964 94.0661 12.1565 94.1423 12.2324C94.2186 12.3083 94.279 12.3984 94.32 12.4977C94.361 12.597 94.3819 12.7033 94.3813 12.8106L94.3668 17.1053C94.3668 18.5119 95.1262 19.6154 96.6159 19.6154C98.1056 19.6154 99.0166 18.3755 99.0311 16.9911V15.4572C99.0191 15.3977 99.0142 15.3369 99.0166 15.2762L99.0311 12.8408C99.0306 12.7335 99.0514 12.6271 99.0924 12.5279C99.1335 12.4286 99.1938 12.3384 99.2701 12.2626C99.3464 12.1867 99.437 12.1266 99.5367 12.0857C99.6364 12.0449 99.7433 12.0241 99.8511 12.0247H100.721C100.829 12.0241 100.936 12.0449 101.036 12.0857C101.135 12.1266 101.226 12.1867 101.302 12.2626C101.378 12.3384 101.439 12.4286 101.48 12.5279C101.521 12.6271 101.542 12.7335 101.541 12.8408L101.512 20.9473C101.51 21.1618 101.423 21.3667 101.269 21.517C101.115 21.6673 100.908 21.7507 100.692 21.749H99.9473C99.7358 21.7424 99.5347 21.6558 99.3851 21.5069C99.2354 21.3579 99.1484 21.1578 99.1418 20.9473L99.1062 20.5379ZM88.6163 12.0247H90.3182C90.4261 12.0262 90.5327 12.049 90.6317 12.0917C90.7307 12.1344 90.8202 12.1962 90.8951 12.2736C90.97 12.3509 91.0288 12.4423 91.068 12.5423C91.1072 12.6424 91.1262 12.7492 91.1237 12.8566V13.4155C91.122 13.631 91.0354 13.8372 90.8826 13.9898C90.7298 14.1425 90.5229 14.2293 90.3064 14.2317H88.6004L88.5701 20.9014C88.5707 21.0087 88.5498 21.1152 88.5088 21.2145C88.4678 21.3138 88.4074 21.4041 88.3312 21.4801C88.255 21.5561 88.1644 21.6163 88.0646 21.6573C87.9649 21.6983 87.858 21.7192 87.7501 21.7188H86.8695C86.7615 21.7192 86.6546 21.6983 86.5548 21.6573C86.455 21.6163 86.3643 21.5561 86.2879 21.4802C86.2116 21.4042 86.1511 21.3139 86.11 21.2146C86.0688 21.1153 86.0478 21.0088 86.0482 20.9014L86.0785 11.6769C86.0785 9.66543 87.2333 8.07641 89.3005 7.89534C89.3611 7.89534 89.406 7.8809 89.4666 7.8809C89.5882 7.87303 89.7102 7.87303 89.8318 7.8809H90.6228C90.7306 7.88244 90.837 7.90518 90.9359 7.94782C91.0348 7.99046 91.1243 8.05216 91.1992 8.12936C91.2741 8.20656 91.3328 8.29774 91.3722 8.39765C91.4115 8.49756 91.4305 8.60422 91.4283 8.71149V9.22586C91.4269 9.44201 91.3401 9.64894 91.1867 9.80191C91.0332 9.95489 90.8254 10.0416 90.6083 10.0433H89.9702C88.9973 10.0433 88.5873 10.7834 88.5714 11.6914L88.6163 12.0247ZM82.5084 11.9945H84.3739C84.5894 11.9966 84.7952 12.0837 84.9463 12.2367C85.0973 12.3897 85.1811 12.5961 85.1794 12.8106V13.3696C85.1773 13.5841 85.0898 13.789 84.936 13.9393C84.7823 14.0896 84.5749 14.1731 84.3594 14.1713H82.4926L82.4781 18.2521C82.4781 19.0394 82.8578 19.4921 83.6475 19.4921H84.0272C84.2428 19.4945 84.4486 19.5819 84.5996 19.7352C84.7506 19.8884 84.8344 20.095 84.8327 20.3096V20.8764C84.8302 21.0908 84.7426 21.2955 84.5889 21.4457C84.4352 21.596 84.2281 21.6795 84.0127 21.6781H83.2981C83.1661 21.6808 83.034 21.6755 82.9026 21.6624C80.8816 21.5312 79.9851 20.2269 79.9851 18.26C80.001 15.6134 80.001 12.9825 80.0155 10.3359C80.0165 10.2296 80.0386 10.1245 80.0804 10.0267C80.1222 9.92888 80.183 9.84021 80.2593 9.76576C80.3356 9.69131 80.4258 9.63254 80.5249 9.59281C80.624 9.55309 80.73 9.53317 80.8368 9.53421H81.7029C81.9184 9.53629 82.1243 9.6234 82.2753 9.77643C82.4264 9.92945 82.5102 10.1359 82.5084 10.3504V11.9945ZM55.4826 11.8882H57.3481C57.5636 11.8903 57.7694 11.9774 57.9205 12.1304C58.0715 12.2834 58.1553 12.4899 58.1536 12.7044V13.266C58.1511 13.4803 58.0635 13.685 57.9098 13.8353C57.7562 13.9855 57.549 14.0691 57.3336 14.0677H55.4615V18.1498C55.4615 18.9371 55.8412 19.3898 56.6309 19.3898H57.0119C57.1185 19.3908 57.2239 19.4127 57.3221 19.4543C57.4202 19.4959 57.5091 19.5563 57.5838 19.6321C57.6585 19.7078 57.7174 19.7975 57.7573 19.896C57.7971 19.9945 57.8171 20.0998 57.8161 20.2059V20.7649C57.814 20.9794 57.7265 21.1843 57.5727 21.3346C57.419 21.4849 57.2116 21.5684 56.9961 21.5666H56.4345C54.2302 21.5522 52.9541 20.614 52.9541 18.155C52.9699 15.5084 52.9699 12.8763 52.9844 10.2296C52.9868 10.015 53.0746 9.81014 53.2286 9.65986C53.3825 9.50958 53.5901 9.42618 53.8057 9.42793H54.6719C54.8874 9.43035 55.0931 9.5178 55.2439 9.67107C55.3946 9.82434 55.4781 10.0309 55.476 10.2454L55.4826 11.8882ZM44.5128 13.0376C45.4092 12.2057 46.3822 11.6769 47.6425 11.6769C50.378 11.6914 51.7913 13.9076 51.7755 16.4702L51.761 20.7649C51.7613 20.8723 51.7403 20.9788 51.6992 21.0781C51.658 21.1775 51.5975 21.2677 51.5212 21.3437C51.4449 21.4197 51.3542 21.4799 51.2544 21.5208C51.1546 21.5618 51.0476 21.5827 50.9397 21.5824H50.059C49.951 21.5827 49.8441 21.5618 49.7443 21.5208C49.6445 21.4799 49.5538 21.4197 49.4775 21.3437C49.4011 21.2677 49.3406 21.1775 49.2995 21.0781C49.2583 20.9788 49.2373 20.8723 49.2377 20.7649L49.2535 16.5004C49.2535 15.0938 48.4941 13.9903 47.0044 13.9903C45.5147 13.9903 44.6037 15.2158 44.5892 16.6067L44.5734 20.7649C44.5713 20.9794 44.4838 21.1843 44.3301 21.3346C44.1763 21.4849 43.9689 21.5684 43.7534 21.5666H42.8873C42.6718 21.5645 42.4659 21.4774 42.3149 21.3244C42.1639 21.1714 42.08 20.965 42.0818 20.7505C42.0963 18.1642 42.0963 15.5635 42.1121 12.9773V12.6296C42.1128 12.4153 42.1988 12.2101 42.3513 12.0588C42.5037 11.9075 42.7102 11.8226 42.9255 11.8226H43.6704C43.882 11.8289 44.0833 11.9153 44.233 12.0644C44.3827 12.2134 44.4696 12.4137 44.4759 12.6243L44.5128 13.0376ZM71.59 13.1426C72.4865 12.312 73.4581 11.7819 74.7197 11.7819C77.4553 11.7977 78.8672 14.0204 78.8527 16.5765L78.8369 20.8764C78.8374 20.9838 78.8166 21.0902 78.7756 21.1896C78.7345 21.2889 78.6742 21.3792 78.598 21.4552C78.5217 21.5311 78.4311 21.5914 78.3314 21.6323C78.2317 21.6733 78.1248 21.6942 78.0169 21.6939H77.1362C77.0283 21.6942 76.9213 21.6733 76.8215 21.6324C76.7217 21.5914 76.631 21.5312 76.5547 21.4552C76.4784 21.3793 76.4179 21.289 76.3767 21.1897C76.3356 21.0903 76.3146 20.9839 76.3149 20.8764L76.3307 16.6119C76.3307 15.2053 75.5701 14.1018 74.0817 14.1018C72.5933 14.1018 71.681 15.326 71.6651 16.7182L71.6441 20.8764C71.6416 21.091 71.5538 21.2959 71.3998 21.4462C71.2459 21.5965 71.0384 21.6799 70.8227 21.6781H69.9566C69.7413 21.6757 69.5358 21.5885 69.3851 21.4355C69.2343 21.2825 69.1507 21.0763 69.1524 20.862L69.1827 12.7398C69.1831 12.633 69.2046 12.5274 69.2462 12.4289C69.2877 12.3305 69.3484 12.2412 69.4247 12.1662C69.501 12.0912 69.5915 12.032 69.691 11.9919C69.7904 11.9519 69.8968 11.9318 70.0041 11.9328H70.7489C70.9613 11.9398 71.163 12.0274 71.3125 12.1777C71.4621 12.3281 71.5482 12.5296 71.5531 12.7411L71.59 13.1426ZM36.2402 11.6008C33.2766 11.5851 31.1805 13.7173 31.1647 16.6513C31.1502 19.6154 33.216 21.7188 36.2099 21.7333C39.2039 21.7477 41.3 19.6614 41.3145 16.6775C41.3303 13.7633 39.188 11.6153 36.2402 11.6008ZM60.8403 17.6656C61.0526 19.0263 62.3604 19.5853 63.6365 19.601C64.2762 19.5954 64.9077 19.4564 65.4901 19.1929C65.5837 19.155 65.6749 19.1111 65.763 19.0617C66.0675 18.8951 66.3404 18.7901 66.6146 19.0617C66.7662 19.2126 66.9033 19.3648 67.0549 19.5C67.1981 19.636 67.3304 19.7829 67.4504 19.9395C67.8604 20.4526 67.5717 20.5746 67.1011 20.8922C66.0978 21.5574 64.7914 21.8894 63.5904 21.8894C60.3697 21.875 58.2419 19.9212 58.2419 16.688C58.2577 13.6321 60.3842 11.6061 63.4533 11.6205C66.5843 11.6363 68.3614 13.4667 68.4076 16.5818C68.4221 17.4281 68.4524 17.701 67.5717 17.701L60.8403 17.6656ZM36.2402 13.884C37.7748 13.884 38.7925 15.2158 38.7925 16.6828C38.7925 18.2101 37.8354 19.4383 36.2244 19.4383C34.6134 19.4383 33.6721 18.1983 33.6721 16.671C33.6721 15.1436 34.6451 13.884 36.2402 13.884ZM60.9076 15.5635L65.9528 15.578C65.7696 14.3222 64.7215 13.8236 63.5218 13.8236C62.3221 13.8236 61.2806 14.3839 60.9076 15.5635Z" fill="#29303A"/>
</svg>
