<svg width="130" height="130" viewBox="0 0 130 130" fill="none" xmlns="http://www.w3.org/2000/svg">
<g clip-path="url(#clip0_4137_5578)">
<path d="M98.9463 92.5667H84.8565V3.28924C84.8565 1.47226 83.3843 0 81.5673 0H6.4533C4.63633 0 3.16406 1.47226 3.16406 3.28924V112.634C3.16406 114.451 4.63633 115.923 6.4533 115.923H41.7021V126.711C41.7021 128.527 43.1744 130 44.9914 130H98.9459C100.763 130 102.235 128.527 102.235 126.711V95.8559C102.236 94.0394 100.763 92.5667 98.9463 92.5667ZM78.278 6.57848V23.1422H9.74254V6.57848H78.278ZM41.7021 95.8559V109.345H9.74254V29.7207H78.278V92.5671H44.9918C43.1748 92.5667 41.7021 94.0394 41.7021 95.8559ZM95.6571 123.422H48.2806V99.1452H95.6566L95.6571 123.422Z" fill="#290293"/>
<path d="M20.4654 20.1926C23.342 20.1926 25.6817 17.852 25.6817 14.9754C25.6817 12.098 23.3415 9.75781 20.4654 9.75781C17.5897 9.75781 15.25 12.0984 15.25 14.9754C15.25 17.852 17.5897 20.1926 20.4654 20.1926ZM20.4654 13.6141C21.2171 13.6141 21.8285 14.225 21.8285 14.9754C21.8285 15.7258 21.2167 16.3363 20.4654 16.3363C19.7146 16.3363 19.1032 15.7258 19.1032 14.9754C19.1032 14.2246 19.7146 13.6141 20.4654 13.6141Z" fill="#290293"/>
<path d="M58.4828 116.498C61.3598 116.498 63.6995 114.158 63.6995 111.281C63.6995 108.403 61.3593 106.062 58.4828 106.062C55.6062 106.062 53.2656 108.404 53.2656 111.281C53.2661 114.158 55.6062 116.498 58.4828 116.498ZM58.4828 109.92C59.2336 109.92 59.8441 110.531 59.8441 111.281C59.8441 112.031 59.2332 112.641 58.4828 112.641C57.7324 112.641 57.1211 112.03 57.1211 111.281C57.1215 110.53 57.732 109.92 58.4828 109.92Z" fill="#290293"/>
<path d="M123.555 0.296875H106.656C104.839 0.296875 103.367 1.76914 103.367 3.58612V86.6583C103.367 87.1684 103.486 87.6723 103.714 88.1284L112.163 105.039C112.72 106.153 113.859 106.858 115.105 106.858C116.351 106.858 117.49 106.154 118.047 105.039L126.498 88.1288C126.726 87.6723 126.844 87.1688 126.844 86.6583V3.58612C126.844 1.76914 125.372 0.296875 123.555 0.296875ZM115.105 25.8622C117.736 25.8622 119.913 23.9013 120.266 21.3647V83.3691H109.946V21.373C110.302 23.9057 112.477 25.8622 115.105 25.8622ZM113.743 20.6441C113.743 19.8937 114.354 19.2832 115.105 19.2832C115.856 19.2832 116.467 19.8937 116.467 20.6441C116.467 21.3945 115.856 22.005 115.105 22.005C114.354 22.005 113.743 21.3945 113.743 20.6441ZM120.266 6.87536V19.924C119.913 17.3873 117.736 15.4265 115.105 15.4265C112.476 15.4265 110.302 17.3829 109.945 19.9152V6.87536H120.266ZM115.105 96.2094L111.977 89.9475H118.235L115.105 96.2094Z" fill="#290293"/>
</g>
<defs>
<clipPath id="clip0_4137_5578">
<rect width="130" height="130" fill="white"/>
</clipPath>
</defs>
</svg>
