<svg width="130" height="130" viewBox="0 0 130 130" fill="none" xmlns="http://www.w3.org/2000/svg">
<g clip-path="url(#clip0_4137_5499)">
<path d="M130 59.493V0H0V59.493H40.7984V69.8778C40.7984 72.9402 38.3068 75.4315 35.2447 75.4315H27.3249C20.004 75.4315 14.0481 81.3876 14.0481 88.7082V101.186C14.0481 108.507 20.0043 114.462 27.3249 114.462H44.6598V106.739H27.3249C24.2625 106.739 21.7712 104.248 21.7712 101.186V88.7082C21.7712 85.6459 24.2628 83.1546 27.3249 83.1546H35.2447C42.5656 83.1546 48.5215 77.1984 48.5215 69.8778V59.493H81.4785V69.8778C81.4785 77.1987 87.4346 83.1546 94.7553 83.1546H102.675C105.737 83.1546 108.229 85.6461 108.229 88.7082V101.186C108.229 104.248 105.737 106.739 102.675 106.739H85.3402V114.462H102.675C109.996 114.462 115.952 108.506 115.952 101.186V88.7082C115.952 81.3874 109.996 75.4315 102.675 75.4315H94.7553C91.6929 75.4315 89.2016 72.9399 89.2016 69.8778V59.493H130ZM7.72307 51.77V7.72332H122.277V51.7702L7.72307 51.77Z" fill="#290293"/>
<path d="M22.616 38.4375H13.2969V46.1606H22.616V38.4375Z" fill="#290293"/>
<path d="M38.2957 38.4375H28.9766V46.1606H38.2957V38.4375Z" fill="#290293"/>
<path d="M85.3363 38.4375H44.6562V46.1606H85.3363V38.4375Z" fill="#290293"/>
<path d="M101.022 38.4375H91.7031V46.1606H101.022V38.4375Z" fill="#290293"/>
<path d="M116.702 38.4375H107.383V46.1606H116.702V38.4375Z" fill="#290293"/>
<path d="M22.616 25.8828H13.2969V33.6059H22.616V25.8828Z" fill="#290293"/>
<path d="M38.2957 25.8828H28.9766V33.6059H38.2957V25.8828Z" fill="#290293"/>
<path d="M53.9754 25.8828H44.6562V33.6059H53.9754V25.8828Z" fill="#290293"/>
<path d="M69.6629 25.8828H60.3438V33.6059H69.6629V25.8828Z" fill="#290293"/>
<path d="M85.3426 25.8828H76.0234V33.6059H85.3426V25.8828Z" fill="#290293"/>
<path d="M101.022 25.8828H91.7031V33.6059H101.022V25.8828Z" fill="#290293"/>
<path d="M116.702 25.8828H107.383V33.6059H116.702V25.8828Z" fill="#290293"/>
<path d="M22.616 13.3359H13.2969V21.059H22.616V13.3359Z" fill="#290293"/>
<path d="M38.2957 13.3359H28.9766V21.059H38.2957V13.3359Z" fill="#290293"/>
<path d="M53.9754 13.3359H44.6562V21.059H53.9754V13.3359Z" fill="#290293"/>
<path d="M69.6629 13.3359H60.3438V21.059H69.6629V13.3359Z" fill="#290293"/>
<path d="M85.3426 13.3359H76.0234V21.059H85.3426V13.3359Z" fill="#290293"/>
<path d="M101.022 13.3359H91.7031V21.059H101.022V13.3359Z" fill="#290293"/>
<path d="M116.702 13.3359H107.383V21.059H116.702V13.3359Z" fill="#290293"/>
<path d="M65.004 75.5938C54.4392 75.5938 45.8438 84.189 45.8438 94.754C45.8438 99.8129 47.7976 104.585 51.3449 108.191L51.5815 108.431C52.7497 109.667 53.5694 111.171 53.9703 112.813V118.428V118.97C53.9703 125.054 58.9199 130.003 65.0038 130.003C71.0876 130.003 76.0373 125.053 76.0373 118.97V118.428V112.813C76.4379 111.173 77.2558 109.671 78.4222 108.436L78.6629 108.191C82.2105 104.585 84.164 99.8134 84.164 94.7543C84.1643 84.1892 75.5688 75.5938 65.004 75.5938ZM68.315 118.97H68.3147C68.3147 120.795 66.8296 122.28 65.0043 122.28C63.1789 122.28 61.6938 120.795 61.6938 118.97V118.428H68.315V118.97ZM73.2339 102.696L73.1839 102.746C70.9622 104.96 69.391 107.696 68.6047 110.705H61.4036C60.6173 107.696 59.0461 104.96 56.8244 102.746L56.7754 102.697C54.7058 100.554 53.5673 97.7374 53.5673 94.754C53.5673 88.4475 58.698 83.3168 65.0045 83.3168C71.3111 83.3168 76.4417 88.4475 76.4417 94.754C76.4412 97.7374 75.303 100.553 73.2339 102.696Z" fill="#290293"/>
</g>
<defs>
<clipPath id="clip0_4137_5499">
<rect width="130" height="130" fill="white"/>
</clipPath>
</defs>
</svg>
