<svg width="160" height="160" viewBox="0 0 160 160" fill="none" xmlns="http://www.w3.org/2000/svg">
<path fill-rule="evenodd" clip-rule="evenodd" d="M42.3185 96.5059C32.533 91.2884 28.7403 78.5091 29.1194 66.5615C50.6626 59.3022 69.854 48.8667 84.6458 30.7188C100.044 44.9349 106.416 60.2096 107.023 85.6927C80.398 82.1385 60.2962 88.4904 42.3185 96.5059Z" fill="#290293"/>
<path fill-rule="evenodd" clip-rule="evenodd" d="M30.1825 77.0781C30.1825 77.0781 19.4111 81.0859 22.8247 89.1013C26.238 97.1167 36.5544 91.3699 36.5544 91.3699C33.4443 87.1351 31.2444 82.22 30.1825 77.0781Z" fill="#290293"/>
<path fill-rule="evenodd" clip-rule="evenodd" d="M52.5547 92.0588C57.9402 101.889 61.4297 112.626 62.8708 123.667L82.0625 115.046C76.4489 106.275 71.9735 96.8983 68.7876 86.9922C63.2502 88.2778 57.7885 90.017 52.5547 92.0588Z" fill="#290293"/>
<path fill-rule="evenodd" clip-rule="evenodd" d="M87 36.2431C87 36.2431 107.784 27.925 114.839 45.5442C121.438 62.1042 101.412 71.4053 101.412 71.4053C99.8196 64.751 94.0546 44.9392 87 36.2431Z" fill="white"/>
<path fill-rule="evenodd" clip-rule="evenodd" d="M86.1661 34.2069L83.3594 35.341L85.2557 37.6852C92.1588 46.1545 97.6962 65.4369 99.2134 71.9399L99.8202 74.5868L102.323 73.4523C105.964 71.6376 109.302 69.2178 112.185 66.2687C115.067 63.6221 117.039 60.0679 117.874 56.2873C118.708 52.4308 118.329 48.423 116.888 44.7933C115.522 41.0123 113.019 37.6852 109.681 35.4166C106.344 33.148 102.399 32.0139 98.303 32.0895C94.207 32.0895 90.1107 32.7701 86.1661 34.2069ZM90.6416 37.3828C93.1448 36.7778 95.7239 36.4755 98.2271 36.4755C101.413 36.324 104.523 37.2316 107.102 39.0464C109.681 40.7855 111.729 43.3565 112.792 46.3056C113.929 49.1792 114.233 52.2793 113.55 55.304C112.867 58.3288 111.274 61.0512 108.999 63.0927C107.178 64.983 105.13 66.6469 102.854 68.0078C100.199 57.3458 96.0275 46.9862 90.6416 37.3828Z" fill="#290293"/>
<path fill-rule="evenodd" clip-rule="evenodd" d="M46.1854 88.7171C36.4002 83.4997 32.6072 70.72 32.9867 58.7724C54.5295 51.5132 73.7209 41.078 88.5127 22.9297C103.912 37.1458 110.284 52.4205 110.89 77.9037C84.2649 74.4254 64.1631 80.7773 46.1854 88.7171Z" fill="white"/>
<path fill-rule="evenodd" clip-rule="evenodd" d="M45.1214 90.7002L46.1074 91.2296L47.0937 90.7758C64.7679 82.9115 84.4902 76.6355 110.585 80.1138L113.164 80.4162V77.8452C112.557 51.6059 105.957 35.8774 90.1037 21.2833L88.3589 19.6953L86.8419 21.51C72.2775 39.356 53.4655 49.5644 32.3018 56.6722L30.8605 57.2016V58.714C30.4052 71.5689 34.7291 85.1045 45.2729 90.7002H45.1214ZM46.3351 86.2389C38.2942 81.3235 35.1083 70.6616 35.1842 60.3776C55.741 53.2695 73.8703 45.9383 88.3589 29C101.558 41.8549 106.165 51.1928 106.999 73.5C81.5876 70.7023 63.7819 78.6014 46.3351 86.2389Z" fill="#290293"/>
<path fill-rule="evenodd" clip-rule="evenodd" d="M33.667 69.4453C33.667 69.4453 22.8196 73.453 26.3088 81.4685C29.7224 89.4839 40.0388 83.7371 40.0388 83.7371C36.9288 79.5026 34.7288 74.5872 33.667 69.4453Z" fill="#290293"/>
<path fill-rule="evenodd" clip-rule="evenodd" d="M35.8666 68.9853L35.4113 66.4141L32.9081 67.3214C30.8599 68.1532 28.9636 69.2876 27.2949 70.7244C25.5503 72.0098 24.3363 73.9004 23.8054 75.9419C23.2744 78.0593 23.4262 80.2523 24.3363 82.2182C24.9434 83.8817 26.0812 85.2429 27.5981 86.2259C29.0394 87.2089 30.784 87.6627 32.5289 87.6627C35.4872 87.5871 38.4457 86.9065 41.1004 85.6209L43.4521 84.4868L41.859 82.3694C38.9008 78.3616 36.8526 73.8248 35.8666 68.9853ZM32.1495 72.6148C33.2116 76.0931 34.6527 79.4961 36.6249 82.5964C35.7907 82.8988 34.9562 83.05 34.1217 83.2011C32.984 83.5038 31.7703 83.4282 30.784 82.8988C29.7222 82.445 28.8877 81.6132 28.3567 80.5546C27.9017 79.4205 27.8258 78.2105 28.2049 77.0763C28.5085 75.9419 29.2671 74.9589 30.1772 74.2027C30.784 73.6733 31.4667 73.1442 32.1495 72.7659V72.6148Z" fill="#290293"/>
<path fill-rule="evenodd" clip-rule="evenodd" d="M56.7299 84.5663C62.1155 94.3964 65.6808 105.134 67.0463 116.175L86.0859 107.554C80.4727 98.858 75.9972 89.4058 72.8113 79.5C67.2736 80.7853 61.8881 82.4489 56.5781 84.5663H56.7299Z" fill="white"/>
<path fill-rule="evenodd" clip-rule="evenodd" d="M55.9711 82.5179L53.6953 83.4252L54.7575 85.5423C60.0672 95.0702 63.4807 105.505 64.8462 116.243L65.1497 119.419L89.5752 108.455L88.2098 106.337C82.6721 97.7926 78.2726 88.4915 75.1626 78.8125L74.5557 76.9219L72.5835 77.3757C66.8943 78.6613 61.3567 80.4005 55.9711 82.5179ZM59.8398 85.6938C63.7084 84.257 67.5771 83.047 71.5216 82.064C74.4039 90.6089 78.2726 98.8511 82.9757 106.489L68.8666 112.84C67.3494 103.388 64.2394 94.2384 59.8398 85.6938Z" fill="#290293"/>
<path fill-rule="evenodd" clip-rule="evenodd" d="M38.2969 56.5864C38.6004 67.7022 42.7723 78.3644 50.1305 86.7578C50.5855 87.2116 51.1164 87.4384 51.7233 87.4384C52.3304 87.4384 52.8613 87.2116 53.3164 86.7578C53.7714 86.304 53.9991 85.7748 53.9991 85.1698C53.9991 84.5648 53.7714 84.0357 53.3164 83.5819C49.001 75 45.501 65.5 42.7723 56.5108C42.7723 55.9057 42.545 55.3766 42.0896 54.9228C41.7105 54.5448 41.1036 54.2422 40.4968 54.2422C39.89 54.2422 39.3591 54.469 38.9037 54.9228C38.5246 55.3766 38.2969 55.9058 38.2969 56.5864Z" fill="#290293"/>
<path fill-rule="evenodd" clip-rule="evenodd" d="M104.368 133.032L95.2656 110.876L100.5 108.381L98.6033 103.617C109.071 102.71 129.401 101.273 132.056 107.247C134.71 113.221 122.498 130.31 114.533 139.233L109.299 130.688L104.368 133.032Z" fill="#290293"/>
<path fill-rule="evenodd" clip-rule="evenodd" d="M86.163 119.796C90.6384 116.166 95.7207 113.217 101.182 111.251L103.231 110.495L101.638 106.336L99.5894 107.168C93.6726 109.361 88.2111 112.461 83.3562 116.469L81.6875 117.905L84.4943 121.308L86.163 119.796Z" fill="#290293"/>
<path fill-rule="evenodd" clip-rule="evenodd" d="M89.884 124.877C94.0562 121.928 98.6831 119.66 103.462 118.072L105.51 117.315L103.993 113.156L101.945 113.912C96.7108 115.652 91.7044 118.147 87.229 121.323L85.4844 122.608L88.0635 126.163L89.884 124.877Z" fill="#290293"/>
<path fill-rule="evenodd" clip-rule="evenodd" d="M93.2168 130.237C97.2373 127.969 101.561 126.154 106.036 124.868L108.16 124.188L106.795 119.953L104.671 120.634C99.8164 121.995 95.1891 123.961 90.8654 126.456L88.9688 127.591L91.3205 131.371L93.2168 130.237Z" fill="#290293"/>
<path fill-rule="evenodd" clip-rule="evenodd" d="M107.556 126.451L98.4531 104.295L103.687 101.724L100.501 93.2549C110.969 92.3475 132.512 94.0867 135.395 100.59C138.277 107.093 125.382 123.653 117.341 132.5L112.638 124.031L107.632 126.3L107.556 126.451Z" fill="white"/>
<path fill-rule="evenodd" clip-rule="evenodd" d="M95.6406 103.318L106.412 129.482L111.646 127.062L116.88 136.59L118.928 134.246C125.755 126.911 131.596 118.744 136.223 109.821C137.892 106.797 138.272 103.318 137.361 99.9911C136.451 98.5543 135.313 97.2687 133.948 96.2101C132.582 95.2272 130.989 94.471 129.321 94.0927C119.914 91.5218 110.129 90.5389 100.344 91.295L97.3852 91.5974L100.951 100.898L95.6406 103.469V103.318ZM108.764 123.508L101.33 105.511L106.564 103.016L103.681 95.4539C111.874 95.076 119.99 96.059 127.879 98.2519C129.245 98.7055 130.534 99.2349 131.748 99.9911C132.431 100.369 132.962 100.974 133.341 101.655C133.72 102.789 133.72 104.074 133.341 105.209C132.734 107.326 131.824 109.292 130.762 111.182C127.121 117.459 122.873 123.357 118.094 128.801L113.694 121.315L108.764 123.508Z" fill="#290293"/>
<path fill-rule="evenodd" clip-rule="evenodd" d="M113.999 105.82C115.364 105.82 116.654 106.35 117.564 107.257C118.474 108.164 119.005 109.45 119.005 110.811C119.005 112.172 118.474 113.458 117.564 114.365C116.654 115.273 115.364 115.802 113.999 115.802C112.633 115.802 111.344 115.273 110.434 114.365C109.523 113.458 108.992 112.172 108.992 110.811C108.992 109.45 109.523 108.164 110.434 107.257C111.42 106.35 112.709 105.82 113.999 105.82Z" fill="white"/>
<path fill-rule="evenodd" clip-rule="evenodd" d="M114.004 103.617C112.563 103.617 111.121 103.995 109.984 104.827C108.77 105.583 107.86 106.718 107.253 108.079C106.722 109.44 106.57 110.876 106.798 112.238C107.101 113.674 107.784 114.96 108.77 115.943C109.756 116.926 111.121 117.682 112.487 117.909C113.928 118.211 115.37 118.06 116.735 117.531C118.1 117.002 119.238 116.019 119.996 114.884C120.831 113.674 121.21 112.313 121.21 110.876C121.21 108.986 120.452 107.171 119.086 105.81C117.721 104.373 115.9 103.617 114.004 103.617ZM114.004 108.003C114.383 108.003 114.763 108.079 115.066 108.23C115.37 108.381 115.673 108.608 115.976 108.835C116.204 109.062 116.431 109.364 116.583 109.742C116.735 110.045 116.811 110.423 116.735 110.801C116.735 111.33 116.583 111.859 116.28 112.313C115.976 112.767 115.521 113.069 115.066 113.296C114.535 113.523 114.004 113.523 113.473 113.447C112.942 113.372 112.487 113.069 112.108 112.691C111.728 112.313 111.501 111.859 111.349 111.33C111.273 110.801 111.273 110.271 111.501 109.742C111.728 109.213 112.032 108.835 112.487 108.532C112.942 108.23 113.473 108.003 114.004 108.003Z" fill="#290293"/>
<path fill-rule="evenodd" clip-rule="evenodd" d="M119.085 96.2003C124.395 100.359 127.732 109.963 127.884 116.239C127.884 116.844 128.112 117.373 128.567 117.827C128.946 118.205 129.553 118.507 130.16 118.507C130.767 118.507 131.298 118.28 131.753 117.827C132.132 117.449 132.435 116.844 132.435 116.239C132.435 108.828 128.188 97.6368 121.967 92.7973C121.74 92.6461 121.436 92.4949 121.209 92.4193C120.905 92.3438 120.602 92.3438 120.299 92.3438C119.995 92.3438 119.692 92.4949 119.464 92.6461C119.237 92.7973 119.009 93.0244 118.781 93.2511C118.478 93.7047 118.326 94.3097 118.402 94.8391C118.326 95.3685 118.63 95.8976 119.085 96.2003Z" fill="#290293"/>
</svg>
