<svg width="150" height="33" viewBox="0 0 150 33" fill="none" xmlns="http://www.w3.org/2000/svg">
<path fill-rule="evenodd" clip-rule="evenodd" d="M35.062 4.91341C32.8239 3.86625 30.4308 3.10521 27.9289 2.67188C27.6216 3.2274 27.2626 3.9746 27.0151 4.56899C24.3555 4.16901 21.7204 4.16901 19.1097 4.56899C18.8622 3.9746 18.4951 3.2274 18.1851 2.67188C15.6804 3.10521 13.2846 3.86904 11.0465 4.91896C6.53214 11.7407 5.30838 18.393 5.92026 24.9508C8.91439 27.1867 11.8161 28.545 14.6688 29.4338C15.3731 28.4644 16.0013 27.4339 16.5425 26.3479C15.5118 25.9563 14.5246 25.473 13.5919 24.9119C13.8393 24.7286 14.0814 24.5369 14.3152 24.3397C20.0044 27.0007 26.1857 27.0007 31.8069 24.3397C32.0435 24.5369 32.2855 24.7286 32.5302 24.9119C31.5947 25.4757 30.6048 25.959 29.5742 26.3507C30.1153 27.4339 30.7408 28.4672 31.4479 29.4366C34.3033 28.5477 37.2077 27.1895 40.2018 24.9508C40.9198 17.3486 38.9754 10.7574 35.062 4.91341ZM17.3175 20.9178C15.6097 20.9178 14.2092 19.3234 14.2092 17.3819C14.2092 15.4404 15.5798 13.8433 17.3175 13.8433C19.0553 13.8433 20.4558 15.4376 20.4259 17.3819C20.4286 19.3234 19.0553 20.9178 17.3175 20.9178ZM28.8046 20.9178C27.0968 20.9178 25.6962 19.3234 25.6962 17.3819C25.6962 15.4404 27.0668 13.8433 28.8046 13.8433C30.5423 13.8433 31.9428 15.4376 31.9129 17.3819C31.9129 19.3234 30.5423 20.9178 28.8046 20.9178Z" fill="#FF5C39"/>
<path fill-rule="evenodd" clip-rule="evenodd" d="M52.2352 9.49971H59.6591C61.4488 9.49971 62.9607 9.78579 64.2011 10.3552C65.4381 10.9246 66.3656 11.719 66.9803 12.7356C67.5946 13.7522 67.9046 14.916 67.9046 16.227C67.9046 17.5102 67.5837 18.674 66.942 19.7156C66.3002 20.76 65.3239 21.5849 64.0105 22.1932C62.6972 22.8015 61.0706 23.107 59.1264 23.107H52.2352V9.49971ZM59.0501 19.6489C60.2549 19.6489 61.1824 19.3406 61.8294 18.7268C62.4768 18.1102 62.8005 17.2713 62.8005 16.2075C62.8005 15.2215 62.5119 14.4354 61.9355 13.8466C61.3592 13.2577 60.4862 12.9606 59.3193 12.9606H56.9969V19.6489H59.0501Z" fill="#FF5C39"/>
<path d="M76.2399 21.9044C77.0637 22.4238 77.9912 22.8182 79.0192 23.0904C80.0472 23.3626 81.1075 23.4987 82.198 23.5015C84.0526 23.5015 85.483 23.1543 86.4921 22.4599C87.5012 21.7655 88.004 20.8294 88.004 19.649C88.004 18.5713 87.6998 17.7575 87.0902 17.2075C86.4812 16.6576 85.5541 16.2715 84.311 16.052L82.4075 15.7021C81.9151 15.5965 81.5753 15.4965 81.3904 15.3993C81.2056 15.3021 81.1132 15.1577 81.1132 14.9632C81.1132 14.5494 81.7084 14.3411 82.9023 14.3411C83.7294 14.3411 84.5313 14.4466 85.3119 14.6605C86.0949 14.8772 86.7803 15.1632 87.3789 15.5271V12.4745C86.794 12.1107 86.0599 11.8135 85.1707 11.5802C84.2811 11.3468 83.3047 11.2302 82.2388 11.2302C81.0449 11.2302 80.0065 11.3829 79.1168 11.6885C78.2277 11.9912 77.5424 12.4218 77.0613 12.98C76.5769 13.5384 76.3376 14.1911 76.3376 14.9438C76.3376 15.8382 76.6125 16.5603 77.1646 17.1103C77.7163 17.663 78.6438 18.0936 79.952 18.4046L82.2364 18.9296C82.6033 19.0212 82.8507 19.1296 82.9787 19.2601C83.1066 19.3907 83.1692 19.5518 83.1692 19.7462C83.1692 19.9157 83.0521 20.0629 82.818 20.1851C82.5843 20.3073 82.2388 20.3684 81.7819 20.3684C80.8032 20.3684 79.7913 20.2101 78.7443 19.8934C77.6973 19.574 76.8627 19.1685 76.2399 18.6769V21.9044Z" fill="#FF5C39"/>
<path d="M92.4974 22.682C91.4073 22.1376 90.5831 21.3988 90.0337 20.4655C89.4844 19.5322 89.2072 18.4823 89.2072 17.3157C89.2072 16.1492 89.4925 15.1048 90.0636 14.1854C90.6347 13.266 91.4722 12.5439 92.5765 12.0189C93.6804 11.494 94.9994 11.2329 96.536 11.2329C98.4394 11.2329 100.02 11.6412 101.276 12.4578V16.0158C100.833 15.7047 100.316 15.452 99.7257 15.2576C99.1356 15.0631 98.5048 14.9659 97.8303 14.9659C96.6502 14.9659 95.7283 15.1853 95.062 15.627C94.3956 16.0686 94.0614 16.6436 94.0614 17.3574C94.0614 18.0573 94.3847 18.6295 95.0321 19.0795C95.6795 19.5267 96.6175 19.7517 97.8493 19.7517C98.483 19.7517 99.1086 19.6572 99.7257 19.4711C100.34 19.2823 100.871 19.0517 101.314 18.7795V22.2209C99.9191 23.0764 98.301 23.5041 96.4597 23.5041C94.9098 23.4986 93.5879 23.2264 92.4974 22.682Z" fill="#FF5C39"/>
<path fill-rule="evenodd" clip-rule="evenodd" d="M103.511 20.4462C104.088 21.3933 104.925 22.1377 106.024 22.6821C107.12 23.2265 108.417 23.4959 109.916 23.4959C111.414 23.4959 112.711 23.2238 113.81 22.6793C114.908 22.1349 115.744 21.3905 116.315 20.4434C116.886 19.4963 117.171 18.4408 117.171 17.2742C117.171 16.0937 116.886 15.0522 116.315 14.1439C115.744 13.2356 114.911 12.5245 113.821 12.0051C112.73 11.4857 111.428 11.2274 109.918 11.2274C108.409 11.2274 107.106 11.4857 106.016 12.0051C104.923 12.5245 104.09 13.2412 103.511 14.155C102.932 15.0688 102.644 16.1104 102.644 17.277C102.644 18.4436 102.935 19.499 103.511 20.4462ZM112.505 17.3575C112.505 18.1353 112.271 18.7602 111.808 19.2324C111.346 19.7046 110.715 19.9406 109.916 19.9434C109.102 19.9434 108.464 19.7046 108.001 19.2324C107.539 18.7602 107.308 18.1353 107.308 17.3575C107.308 16.5798 107.539 15.9632 108.001 15.5021C108.466 15.041 109.102 14.8105 109.916 14.8105C110.715 14.8105 111.346 15.041 111.808 15.5021C112.273 15.9604 112.505 16.5798 112.505 17.3575Z" fill="#FF5C39"/>
<path d="M128.609 11.9495V16.1492C128.125 15.8242 127.5 15.6631 126.725 15.6631C125.71 15.6631 124.927 15.977 124.383 16.6047C123.836 17.2325 123.564 18.2102 123.564 19.5323V23.1098H118.901V11.7357H123.47V15.3521C123.722 14.0299 124.133 13.055 124.699 12.4245C125.262 11.7968 125.99 11.4829 126.877 11.4829C127.548 11.4829 128.125 11.6385 128.609 11.9495Z" fill="#FF5C39"/>
<path fill-rule="evenodd" clip-rule="evenodd" d="M144.105 23.1099V9.11092H139.44V14.1855C138.679 12.2162 137.189 11.2302 134.967 11.2302C133.887 11.2302 132.925 11.4969 132.082 12.0274C131.239 12.5579 130.584 13.2967 130.121 14.2439C129.656 15.191 129.43 16.2604 129.444 17.452C129.444 18.6075 129.659 19.6407 130.083 20.5545C130.51 21.4684 131.116 22.1877 131.902 22.7127C132.688 23.2377 133.607 23.4988 134.662 23.4988C135.843 23.4988 136.838 23.2488 137.643 22.7516C138.448 22.2516 139.046 21.5211 139.44 20.5629V23.1099H144.105ZM139.457 17.3187C139.457 18.0686 139.22 18.6824 138.745 19.1547C138.268 19.6268 137.637 19.8629 136.852 19.8657C136.077 19.8657 135.457 19.6324 134.986 19.1657C134.516 18.6991 134.282 18.0964 134.282 17.3575C134.282 16.6187 134.516 16.0216 134.986 15.5604C135.457 15.0994 136.085 14.8688 136.871 14.8688C137.667 14.8688 138.301 15.0966 138.764 15.5493C139.226 16.0021 139.457 16.5937 139.457 17.3187Z" fill="#FF5C39"/>
<path d="M71.8347 12.9466C73.1187 12.9466 74.1599 11.9915 74.1599 10.8134C74.1599 9.63527 73.1187 8.68024 71.8347 8.68024C70.5503 8.68024 69.5095 9.63527 69.5095 10.8134C69.5095 11.9915 70.5503 12.9466 71.8347 12.9466Z" fill="#FF5C39"/>
<path d="M74.1576 14.416C72.7001 15.0715 70.9323 15.0437 69.5075 14.416V23.1709H74.1576V14.416Z" fill="#FF5C39"/>
</svg>
