<svg width="108" height="24" viewBox="0 0 108 24" fill="none" xmlns="http://www.w3.org/2000/svg">
<path fill-rule="evenodd" clip-rule="evenodd" d="M25.7953 3.97915C24.2092 3.23705 22.5132 2.69772 20.7402 2.39062C20.5224 2.78431 20.268 3.31384 20.0926 3.73507C18.2078 3.45162 16.3403 3.45162 14.4902 3.73507C14.3148 3.31384 14.0546 2.78431 13.8349 2.39062C12.0599 2.69772 10.3621 3.23903 8.77594 3.98308C5.57674 8.8175 4.70949 13.5318 5.14311 18.1792C7.26499 19.7638 9.32135 20.7264 11.343 21.3562C11.8422 20.6693 12.2873 19.939 12.6709 19.1693C11.9404 18.8918 11.2409 18.5493 10.5798 18.1517C10.7552 18.0218 10.9267 17.8859 11.0925 17.7462C15.1242 19.6319 19.5048 19.6319 23.4884 17.7462C23.6561 17.8859 23.8276 18.0218 24.001 18.1517C23.3381 18.5512 22.6366 18.8937 21.9061 19.1713C22.2897 19.939 22.7329 20.6712 23.234 21.3582C25.2576 20.7283 27.3159 19.7658 29.4377 18.1792C29.9465 12.7917 28.5686 8.12067 25.7953 3.97915ZM13.2201 15.3211C12.0098 15.3211 11.0173 14.1912 11.0173 12.8153C11.0173 11.4394 11.9886 10.3076 13.2201 10.3076C14.4516 10.3076 15.4441 11.4374 15.4229 12.8153C15.4249 14.1912 14.4516 15.3211 13.2201 15.3211ZM21.3607 15.3211C20.1504 15.3211 19.1579 14.1912 19.1579 12.8153C19.1579 11.4394 20.1292 10.3076 21.3607 10.3076C22.5922 10.3076 23.5848 11.4374 23.5636 12.8153C23.5636 14.1912 22.5922 15.3211 21.3607 15.3211Z" fill="white"/>
<path fill-rule="evenodd" clip-rule="evenodd" d="M37.9655 7.22937H43.2267C44.495 7.22937 45.5665 7.43211 46.4455 7.83564C47.3221 8.23914 47.9795 8.80211 48.4151 9.52255C48.8504 10.243 49.0701 11.0677 49.0701 11.9968C49.0701 12.9062 48.8427 13.731 48.3879 14.4691C47.9331 15.2093 47.2412 15.7939 46.3105 16.225C45.3797 16.6561 44.227 16.8726 42.8492 16.8726H37.9655V7.22937ZM42.7951 14.4219C43.6489 14.4219 44.3062 14.2034 44.7647 13.7684C45.2235 13.3314 45.453 12.737 45.453 11.9831C45.453 11.2843 45.2484 10.7272 44.84 10.3099C44.4315 9.89259 43.8128 9.68199 42.9859 9.68199H41.34V14.4219H42.7951Z" fill="white"/>
<path d="M54.9772 16.0203C55.5609 16.3884 56.2183 16.6679 56.9468 16.8608C57.6753 17.0537 58.4267 17.1502 59.1996 17.1521C60.5139 17.1521 61.5276 16.9061 62.2427 16.414C62.9578 15.9219 63.3142 15.2585 63.3142 14.422C63.3142 13.6582 63.0985 13.0815 62.6666 12.6917C62.235 12.302 61.578 12.0284 60.6969 11.8729L59.348 11.6249C58.9991 11.5501 58.7582 11.4792 58.6272 11.4103C58.4962 11.3414 58.4307 11.2391 58.4307 11.1012C58.4307 10.808 58.8526 10.6603 59.6987 10.6603C60.2848 10.6603 60.8531 10.7351 61.4063 10.8867C61.9612 11.0402 62.4469 11.243 62.8711 11.5008V9.33755C62.4566 9.0797 61.9364 8.8691 61.3062 8.70374C60.6758 8.53838 59.9839 8.45572 59.2285 8.45572C58.3824 8.45572 57.6465 8.56398 57.016 8.78049C56.3859 8.99505 55.9002 9.30017 55.5593 9.69581C55.216 10.0915 55.0464 10.554 55.0464 11.0875C55.0464 11.7213 55.2412 12.2331 55.6325 12.6228C56.0235 13.0145 56.6808 13.3197 57.6078 13.5401L59.2268 13.9121C59.4868 13.9771 59.6621 14.0539 59.7528 14.1464C59.8435 14.2389 59.8878 14.3531 59.8878 14.4909C59.8878 14.6109 59.8048 14.7153 59.6389 14.8018C59.4733 14.8885 59.2285 14.9318 58.9047 14.9318C58.2111 14.9318 57.494 14.8196 56.752 14.5952C56.01 14.3688 55.4185 14.0814 54.9772 13.733V16.0203Z" fill="white"/>
<path d="M66.4985 16.5714C65.726 16.1856 65.1419 15.662 64.7526 15.0006C64.3633 14.3392 64.1668 13.5952 64.1668 12.7684C64.1668 11.9417 64.369 11.2016 64.7737 10.55C65.1785 9.89849 65.772 9.3867 66.5546 9.01468C67.3369 8.64265 68.2716 8.45761 69.3606 8.45761C70.7095 8.45761 71.8293 8.74698 72.7197 9.32567V11.8472C72.4057 11.6267 72.0392 11.4476 71.6211 11.3098C71.2029 11.1721 70.7558 11.1031 70.2779 11.1031C69.4415 11.1031 68.7882 11.2586 68.316 11.5716C67.8437 11.8846 67.6069 12.2921 67.6069 12.7979C67.6069 13.294 67.836 13.6995 68.2948 14.0184C68.7536 14.3353 69.4183 14.4947 70.2913 14.4947C70.7404 14.4947 71.1837 14.4278 71.6211 14.2959C72.0567 14.1621 72.4326 13.9987 72.7466 13.8058V16.2446C71.7581 16.8509 70.6114 17.154 69.3065 17.154C68.2081 17.1501 67.2714 16.9572 66.4985 16.5714Z" fill="white"/>
<path fill-rule="evenodd" clip-rule="evenodd" d="M74.3038 14.9869C74.7125 15.6581 75.306 16.1857 76.0846 16.5715C76.8612 16.9573 77.7805 17.1482 78.8426 17.1482C79.9043 17.1482 80.8236 16.9553 81.6022 16.5695C82.3808 16.1837 82.9726 15.6561 83.3773 14.9849C83.7821 14.3137 83.9843 13.5657 83.9843 12.739C83.9843 11.9024 83.7821 11.1643 83.3773 10.5206C82.9726 9.87693 82.3828 9.373 81.6099 9.00491C80.837 8.63681 79.914 8.45375 78.8442 8.45375C77.7748 8.45375 76.8514 8.63681 76.0789 9.00491C75.304 9.373 74.7142 9.88086 74.3038 10.5285C73.8933 11.1761 73.6891 11.9142 73.6891 12.7409C73.6891 13.5677 73.8953 14.3157 74.3038 14.9869ZM80.6772 12.798C80.6772 13.3492 80.5116 13.7921 80.1837 14.1267C79.8563 14.4613 79.4089 14.6286 78.8426 14.6306C78.2662 14.6306 77.8134 14.4613 77.4856 14.1267C77.1581 13.7921 76.9942 13.3492 76.9942 12.798C76.9942 12.2469 77.1581 11.8099 77.4856 11.4831C77.8151 11.1564 78.2662 10.993 78.8426 10.993C79.4089 10.993 79.8563 11.1564 80.1837 11.4831C80.5133 11.8079 80.6772 12.2469 80.6772 12.798Z" fill="white"/>
<path d="M92.0901 8.9655V11.9417C91.7472 11.7114 91.3038 11.5972 90.7547 11.5972C90.0355 11.5972 89.4807 11.8197 89.0951 12.2645C88.7078 12.7094 88.515 13.4023 88.515 14.3392V16.8746H85.2099V8.81395H88.4478V11.3768C88.6268 10.4398 88.9181 9.74895 89.3188 9.30209C89.7178 8.85724 90.234 8.63482 90.8625 8.63482C91.3384 8.63482 91.7472 8.74506 92.0901 8.9655Z" fill="white"/>
<path fill-rule="evenodd" clip-rule="evenodd" d="M103.071 16.8746V6.95384H99.766V10.5501C99.2266 9.15452 98.1706 8.45574 96.5959 8.45574C95.8308 8.45574 95.1486 8.64471 94.5511 9.02067C93.9536 9.39666 93.4894 9.92023 93.1615 10.5915C92.832 11.2627 92.6722 12.0205 92.6816 12.865C92.6816 13.6838 92.834 14.4161 93.1347 15.0637C93.4373 15.7113 93.8669 16.2211 94.4238 16.5931C94.981 16.9652 95.6323 17.1502 96.38 17.1502C97.2163 17.1502 97.9217 16.9731 98.4923 16.6207C99.0627 16.2664 99.4866 15.7487 99.766 15.0696V16.8746H103.071ZM99.7778 12.7705C99.7778 13.302 99.6102 13.737 99.2729 14.0716C98.9354 14.4062 98.4883 14.5736 97.9314 14.5755C97.3823 14.5755 96.9429 14.4102 96.6094 14.0795C96.2759 13.7488 96.1103 13.3217 96.1103 12.7981C96.1103 12.2744 96.2759 11.8513 96.6094 11.5245C96.9429 11.1977 97.388 11.0344 97.9449 11.0344C98.5095 11.0344 98.9586 11.1958 99.2864 11.5166C99.6139 11.8375 99.7778 12.2567 99.7778 12.7705Z" fill="white"/>
<path d="M51.8553 9.67209C52.7652 9.67209 53.5031 8.99525 53.5031 8.16034C53.5031 7.32543 52.7652 6.64863 51.8553 6.64863C50.945 6.64863 50.2074 7.32543 50.2074 8.16034C50.2074 8.99525 50.945 9.67209 51.8553 9.67209Z" fill="white"/>
<path d="M53.5014 10.7134C52.4686 11.178 51.2158 11.1583 50.2061 10.7134V16.9178H53.5014V10.7134Z" fill="white"/>
</svg>
