<svg width="105" height="24" viewBox="0 0 105 24" fill="none" xmlns="http://www.w3.org/2000/svg">
<path d="M18.5367 2.20312C20.3442 2.51618 22.073 3.06596 23.6898 3.82245C26.5169 8.04425 27.9216 12.8058 27.4029 18.2978C25.2399 19.9151 23.1417 20.8963 21.0789 21.5384C20.5681 20.8381 20.1163 20.0917 19.7253 19.3091C20.4699 19.0262 21.185 18.677 21.8608 18.2697C21.684 18.1373 21.5092 17.9988 21.3382 17.8563C17.2774 19.7786 12.8119 19.7786 8.702 17.8563C8.53306 17.9988 8.3582 18.1373 8.17944 18.2697C8.85327 18.675 9.56641 19.0242 10.311 19.3071C9.92004 20.0917 9.46622 20.8361 8.95739 21.5364C6.89655 20.8943 4.80033 19.9131 2.63732 18.2978C2.19529 13.5603 3.07935 8.75458 6.34057 3.82645C7.95743 3.06798 9.68823 2.51618 11.4976 2.20312C11.7216 2.60445 11.9868 3.14423 12.1656 3.57363C14.0516 3.28468 15.9553 3.28468 17.8766 3.57363C18.0554 3.14423 18.3147 2.60445 18.5367 2.20312ZM68.0996 8.38774C69.4746 8.38774 70.6162 8.68271 71.5239 9.27263V11.8431C71.2037 11.6183 70.8302 11.4357 70.4039 11.2953C69.9776 11.1548 69.5219 11.0845 69.0347 11.0845C68.1821 11.0845 67.5161 11.2431 67.0347 11.5621C66.5533 11.8812 66.3119 12.2965 66.3119 12.8122C66.3119 13.3179 66.5455 13.7312 67.0132 14.0563C67.4809 14.3793 68.1585 14.5419 69.0484 14.5419C69.5061 14.5419 69.9581 14.4736 70.4039 14.3392C70.848 14.2028 71.2311 14.0362 71.5513 13.8396V16.3257C70.5436 16.9437 69.3747 17.2527 68.0445 17.2527C66.9248 17.2487 65.9699 17.0521 65.182 16.6588C64.3945 16.2655 63.7991 15.7318 63.4023 15.0576C63.0054 14.3834 62.8051 13.6249 62.8051 12.7821C62.8051 11.9394 63.0113 11.1849 63.4238 10.5207C63.8364 9.85655 64.4414 9.33484 65.2392 8.9556C66.0367 8.57637 66.9895 8.38774 68.0996 8.38774ZM57.7712 8.38582C58.5413 8.38582 59.2466 8.47009 59.8893 8.63865C60.5316 8.80721 61.062 9.02189 61.4845 9.28475V11.49C61.0521 11.2271 60.557 11.0205 59.9913 10.8639C59.4274 10.7094 58.8481 10.6332 58.2506 10.6332C57.3881 10.6332 56.958 10.7837 56.958 11.0826C56.958 11.2231 57.0248 11.3274 57.1583 11.3977C57.2919 11.4679 57.5374 11.5401 57.8931 11.6164L59.2682 11.8692C60.1663 12.0277 60.836 12.3067 61.276 12.7039C61.7163 13.1013 61.9361 13.6892 61.9361 14.4677C61.9361 15.3205 61.5728 15.9967 60.8439 16.4984C60.1149 17 59.0816 17.2508 57.7418 17.2508C56.9539 17.2488 56.188 17.1505 55.4453 16.9539C54.7027 16.7572 54.0326 16.4723 53.4375 16.097V13.7654C53.8874 14.1206 54.4904 14.4136 55.2468 14.6443C56.0031 14.873 56.7341 14.9874 57.4412 14.9874C57.7712 14.9874 58.0208 14.9433 58.1896 14.855C58.3588 14.7667 58.4434 14.6604 58.4434 14.5379C58.4434 14.3975 58.3982 14.2811 58.3057 14.1868C58.2133 14.0925 58.0345 14.0142 57.7695 13.948L56.1192 13.5688C55.1742 13.344 54.5041 13.033 54.1056 12.6337C53.7067 12.2364 53.5081 11.7147 53.5081 11.0686C53.5081 10.5248 53.681 10.0533 54.0309 9.64995C54.3784 9.24664 54.8735 8.93561 55.5159 8.71689C56.1586 8.49618 56.9087 8.38582 57.7712 8.38582ZM102.464 6.8548V16.9679H99.0946V15.1279C98.8097 15.8201 98.3776 16.3479 97.7962 16.709C97.2145 17.0682 96.4954 17.2488 95.6429 17.2488C94.8807 17.2488 94.2168 17.0602 93.6488 16.681C93.0811 16.3017 92.6432 15.782 92.3347 15.1219C92.0282 14.4617 91.8728 13.7153 91.8728 12.8805C91.8632 12.0197 92.0262 11.2472 92.3621 10.5629C92.6962 9.8787 93.1694 9.34497 93.7785 8.9617C94.3877 8.57845 95.0831 8.38582 95.863 8.38582C97.4405 8.38582 98.5074 9.07379 99.0657 10.4478L99.0945 10.5206L99.0946 6.8548H102.464ZM77.7671 8.3838C78.8576 8.3838 79.7985 8.57041 80.5864 8.94564C81.3743 9.32087 81.9755 9.83457 82.3881 10.4907C82.8007 11.1469 83.0068 11.8993 83.0068 12.7521C83.0068 13.5949 82.8007 14.3574 82.3881 15.0416C81.9755 15.7258 81.3722 16.2636 80.5785 16.6569C79.7849 17.0502 78.8477 17.2468 77.7654 17.2468C76.6827 17.2468 75.7456 17.0522 74.954 16.6589C74.1603 16.2656 73.5553 15.7278 73.1386 15.0436C72.7223 14.3594 72.512 13.5969 72.512 12.7541C72.512 11.9114 72.7202 11.1589 73.1386 10.4987C73.557 9.83857 74.1583 9.32087 74.9482 8.94564C75.7357 8.57041 76.6769 8.3838 77.7671 8.3838ZM51.9331 10.6873V17.012H48.5738V10.6873C49.6031 11.1408 50.8802 11.1608 51.9331 10.6873ZM90.0184 8.56839C90.5035 8.56839 90.9202 8.68076 91.2698 8.90548V11.9394C90.9202 11.7046 90.4683 11.5882 89.9084 11.5882C89.1754 11.5882 88.6097 11.815 88.2167 12.2685C87.8219 12.722 87.6254 13.4283 87.6254 14.3834V16.9679H84.2562V8.75099H87.5569V11.3635C87.7394 10.4084 88.0362 9.70411 88.4447 9.24859C88.8515 8.79512 89.3777 8.56839 90.0184 8.56839ZM41.4592 7.1357C42.7521 7.1357 43.8443 7.34237 44.7404 7.75373C45.634 8.16505 46.3041 8.73894 46.7482 9.47334C47.1919 10.2077 47.4158 11.0485 47.4158 11.9956C47.4158 12.9226 47.184 13.7634 46.7204 14.5158C46.2568 15.2703 45.5515 15.8663 44.6027 16.3057C43.6539 16.7451 42.4788 16.9658 41.0743 16.9658H36.096V7.1357H41.4592ZM10.8709 10.2736C9.61554 10.2736 8.62537 11.4273 8.62537 12.8299C8.62537 14.2325 9.63715 15.3843 10.8709 15.3843C12.1263 15.3843 13.1184 14.2325 13.1164 12.8299C13.138 11.4253 12.1263 10.2736 10.8709 10.2736ZM19.1693 10.2736C17.9139 10.2736 16.9238 11.4273 16.9238 12.8299C16.9238 14.2325 17.9356 15.3843 19.1693 15.3843C20.4247 15.3843 21.4149 14.2325 21.4149 12.8299C21.4365 11.4253 20.4247 10.2736 19.1693 10.2736ZM77.7654 10.9723C77.1778 10.9723 76.718 11.1388 76.3821 11.4719C76.0483 11.805 75.8812 12.2505 75.8812 12.8123C75.8812 13.3741 76.0483 13.8256 76.3821 14.1667C76.7163 14.5078 77.1778 14.6804 77.7654 14.6804C78.3427 14.6784 78.7988 14.5078 79.1326 14.1667C79.4668 13.8256 79.6356 13.3741 79.6356 12.8123C79.6356 12.2505 79.4685 11.803 79.1326 11.4719C78.7988 11.1388 78.3427 10.9723 77.7654 10.9723ZM97.2381 11.0144C96.6704 11.0144 96.2167 11.181 95.8767 11.514C95.5367 11.8472 95.3679 12.2785 95.3679 12.8123C95.3679 13.3461 95.5367 13.7815 95.8767 14.1186C96.2167 14.4557 96.6646 14.6242 97.2244 14.6242C97.7921 14.6222 98.2478 14.4517 98.5919 14.1106C98.9357 13.7694 99.1066 13.326 99.1066 12.7842C99.1066 12.2605 98.9395 11.8331 98.6056 11.506C98.2715 11.179 97.8137 11.0144 97.2381 11.0144ZM41.2137 9.63587H39.536V14.4677H41.0192C41.8896 14.4677 42.5596 14.245 43.027 13.8015C43.4947 13.356 43.7286 12.7501 43.7286 11.9816C43.7286 11.2692 43.5201 10.7013 43.1037 10.2759C42.6874 9.85056 42.0567 9.63587 41.2137 9.63587ZM50.255 6.5437C51.1825 6.5437 51.9348 7.23363 51.9348 8.08472C51.9348 8.93581 51.1825 9.62577 50.255 9.62577C49.3271 9.62577 48.5752 8.93581 48.5752 8.08472C48.5752 7.23363 49.3271 6.5437 50.255 6.5437Z" fill="white"/>
</svg>
