<svg width="84" height="30" viewBox="0 0 84 30" fill="none" xmlns="http://www.w3.org/2000/svg">
<path d="M81.2881 22.9665C81.2881 21.7493 80.4249 20.858 79.2359 20.858C78.0488 20.858 77.1847 21.7493 77.1847 22.9665C77.1847 24.1817 78.0488 25.0715 79.2359 25.0715C80.4249 25.0715 81.2881 24.1803 81.2881 22.9665ZM78.6966 23.0747V24.4518H78.2517V21.415H79.3573C80.0052 21.415 80.3025 21.698 80.3025 22.2495C80.3025 22.5893 80.0728 22.8584 79.7771 22.8974V22.9102C80.0338 22.9512 80.1281 23.1803 80.181 23.5996C80.2215 23.8711 80.2753 24.3422 80.3721 24.4528H79.8457C79.7232 24.1674 79.7356 23.7635 79.6413 23.4252C79.5632 23.168 79.426 23.0742 79.1312 23.0742H78.6991V23.0756L78.6966 23.0747ZM79.2482 22.6821C79.6803 22.6821 79.8037 22.452 79.8037 22.249C79.8037 22.0091 79.6803 21.8194 79.2482 21.8194H78.6966V22.6831H79.2482V22.6821ZM76.6953 22.9665C76.6953 21.4669 77.8858 20.4531 79.2339 20.4531C80.5859 20.4531 81.7749 21.4669 81.7749 22.9665C81.7749 24.4632 80.5864 25.4779 79.2339 25.4779C77.8858 25.4779 76.6953 24.4632 76.6953 22.9665Z" fill="white"/>
<path d="M67.8957 25.035L64.969 21.7527L62.068 25.035H55.9638L61.9297 18.3322L55.9638 11.6276H62.2586L65.2149 14.8846L68.0597 11.6276H74.1343L68.1979 18.3041L74.2167 25.035H67.8957ZM44.2422 25.035V3.91406H55.9638V8.62186H49.2072V11.6276H55.9638V16.1576H49.2072V20.3153H55.9638V25.035H44.2422Z" fill="white"/>
<path d="M39.2962 3.91406V12.5579H39.2414C38.1467 11.2997 36.7784 10.8612 35.1918 10.8612C31.9407 10.8612 29.4915 13.0729 28.6318 15.9946C27.6512 12.7746 25.1225 10.801 21.3736 10.801C18.3284 10.801 15.9246 12.1673 14.6689 14.3943V11.6271H8.37558V8.62235H15.2442V3.91505H2.76562V25.035H8.37558V16.1576H13.9673C13.795 16.8402 13.7089 17.5418 13.711 18.2458C13.711 22.6495 17.0762 25.744 21.3726 25.744C24.9842 25.744 27.3663 24.0469 28.6249 20.9572H23.8169C23.1671 21.887 22.6733 22.1616 21.3731 22.1616C19.8661 22.1616 18.5654 20.8461 18.5654 19.2887H28.3553C28.78 22.7872 31.5057 25.8038 35.2467 25.8038C36.8604 25.8038 38.3378 25.0103 39.2409 23.6696H39.2952V25.0379H44.2415V3.91505H39.2962V3.91406ZM18.7215 16.2208C19.034 14.8787 20.0745 14.0017 21.3731 14.0017C22.8031 14.0017 23.7907 14.8515 24.05 16.2208H18.7215ZM36.2945 21.8209C34.4719 21.8209 33.3391 20.1227 33.3391 18.349C33.3391 16.4529 34.3247 14.6313 36.2945 14.6313C38.3383 14.6313 39.1525 16.4539 39.1525 18.349C39.1525 20.1454 38.2904 21.8209 36.2945 21.8209Z" fill="white"/>
</svg>
