<svg width="84" height="30" viewBox="0 0 84 30" fill="none" xmlns="http://www.w3.org/2000/svg">
<path d="M3.10236 22.9744C3.10236 21.7572 3.96555 20.8659 5.15465 20.8659C6.34177 20.8659 7.20595 21.7572 7.20595 22.9744C7.20595 24.1897 6.34177 25.0796 5.15465 25.0796C3.96555 25.0796 3.10236 24.1882 3.10236 22.9744ZM5.69389 23.0826V24.4598H6.13881V21.4229H5.03317C4.38529 21.4229 4.08801 21.7058 4.08801 22.2574C4.08801 22.5972 4.31764 22.8663 4.61343 22.9053V22.9181C4.35665 22.9591 4.26233 23.1883 4.20949 23.6075C4.169 23.8791 4.11518 24.3502 4.01839 24.4608H4.54479C4.66726 24.1754 4.65491 23.7715 4.74923 23.4332C4.82725 23.1759 4.96453 23.0821 5.25934 23.0821H5.69142V23.0836L5.69389 23.0826ZM5.14231 22.69C4.71022 22.69 4.58677 22.4599 4.58677 22.2569C4.58677 22.0169 4.71022 21.8273 5.14231 21.8273H5.69389V22.691H5.14231V22.69ZM7.69531 22.9744C7.69531 21.4747 6.50473 20.4609 5.15662 20.4609C3.80456 20.4609 2.61547 21.4747 2.61547 22.9744C2.61547 24.4712 3.80407 25.486 5.15662 25.486C6.50473 25.486 7.69531 24.4712 7.69531 22.9744Z" fill="white"/>
<path d="M16.4939 25.0437L19.4207 21.7613L22.3218 25.0437H28.4263L22.4601 18.3407L28.4263 11.6357H22.1312L19.1748 14.8929L16.3299 11.6357H10.255L16.1916 18.3125L10.1726 25.0437H16.4939ZM40.1484 25.0437V3.92188H28.4263V8.62988H35.1832V11.6357H28.4263V16.1659H35.1832V20.3238H28.4263V25.0437H40.1484Z" fill="white"/>
<path d="M45.0928 3.92188V12.5661H45.1476C46.2424 11.3078 47.6107 10.8693 49.1974 10.8693C52.4486 10.8693 54.8979 13.0811 55.7576 16.003C56.7384 12.7828 59.2672 10.8091 63.0162 10.8091C66.0615 10.8091 68.4654 12.1754 69.7212 14.4025V11.6352H76.0148V8.63037H69.1459V3.92286H81.625V25.0437H76.0148V16.1659H70.4229C70.5951 16.8486 70.6812 17.5502 70.6792 18.2543C70.6792 22.6581 67.3138 25.7528 63.0172 25.7528C59.4054 25.7528 57.0233 24.0556 55.7646 20.9658H60.5728C61.2227 21.8956 61.7165 22.1702 63.0167 22.1702C64.5238 22.1702 65.8245 20.8547 65.8245 19.2972H56.0342C55.6095 22.7959 52.8837 25.8126 49.1425 25.8126C47.5288 25.8126 46.0513 25.019 45.1481 23.6783H45.0938V25.0467H40.1473V3.92286H45.0928V3.92188ZM65.6685 16.2292C65.3559 14.887 64.3154 14.01 63.0167 14.01C61.5866 14.01 60.599 14.8598 60.3397 16.2292H65.6685ZM48.0947 21.8295C49.9173 21.8295 51.0501 20.1313 51.0501 18.3575C51.0501 16.4612 50.0645 14.6396 48.0947 14.6396C46.0508 14.6396 45.2365 16.4622 45.2365 18.3575C45.2365 20.154 46.0987 21.8295 48.0947 21.8295Z" fill="white"/>
</svg>
