<svg width="232" height="150" viewBox="0 0 232 150" fill="none" xmlns="http://www.w3.org/2000/svg">
<g filter="url(#filter0_d_4056_24482)">
<rect x="30" y="120" width="90" height="172" rx="4" transform="rotate(-90 30 120)" fill="white"/>
<path d="M172.572 86.7679C172.572 85.0075 171.324 83.7184 169.604 83.7184C167.887 83.7184 166.637 85.0075 166.637 86.7679C166.637 88.5254 167.887 89.8123 169.604 89.8123C171.324 89.8123 172.572 88.5232 172.572 86.7679ZM168.824 86.9242V88.916H168.181V84.524H169.78C170.717 84.524 171.147 84.9332 171.147 85.7309C171.147 86.2222 170.814 86.6114 170.387 86.6679V86.6864C170.758 86.7457 170.894 87.0771 170.971 87.6834C171.029 88.0762 171.107 88.7575 171.247 88.9174H170.486C170.309 88.5047 170.327 87.9205 170.19 87.4313C170.077 87.0592 169.879 86.9235 169.453 86.9235H168.828V86.9257L168.824 86.9242ZM169.622 86.3565C170.247 86.3565 170.425 86.0237 170.425 85.7302C170.425 85.3831 170.247 85.1089 169.622 85.1089H168.824V86.3579H169.622V86.3565ZM165.93 86.7679C165.93 84.599 167.652 83.1328 169.601 83.1328C171.556 83.1328 173.276 84.599 173.276 86.7679C173.276 88.9324 171.557 90.4 169.601 90.4C167.652 90.4 165.93 88.9324 165.93 86.7679Z" fill="#00193D"/>
<path d="M153.202 89.7652L148.969 85.0182L144.773 89.7652H135.945L144.573 80.0713L135.945 70.3745H145.049L149.324 75.0851L153.439 70.3745H162.224L153.639 80.0306L162.343 89.7652H153.202ZM118.992 89.7652V59.2188H135.945V66.0275H126.173V70.3745H135.945V76.9262H126.173V82.9393H135.945V89.7652H118.992Z" fill="#FF8D07"/>
<path d="M111.841 59.2188V71.72H111.762C110.178 69.9003 108.199 69.2662 105.905 69.2662C101.203 69.2662 97.6606 72.4648 96.4172 76.6905C94.9989 72.0335 91.3418 69.179 85.9199 69.179C81.5157 69.179 78.0393 71.1551 76.2232 74.3759V70.3738H67.1213V66.0282H77.0552V59.2202H59.0078V89.7652H67.1213V76.9262H75.2084C74.9592 77.9135 74.8347 78.9281 74.8377 79.9463C74.8377 86.3151 79.7047 90.7907 85.9185 90.7907C91.1418 90.7907 94.5869 88.3362 96.4072 83.8677H89.4536C88.5137 85.2125 87.7996 85.6095 85.9192 85.6095C83.7396 85.6095 81.8585 83.707 81.8585 81.4546H96.0173C96.6315 86.5144 100.574 90.8771 105.984 90.8771C108.318 90.8771 110.455 89.7295 111.761 87.7906H111.839V89.7695H118.993V59.2202H111.841V59.2188ZM82.0842 77.0176C82.5363 75.0765 84.041 73.8082 85.9192 73.8082C87.9874 73.8082 89.4157 75.0372 89.7906 77.0176H82.0842ZM107.499 85.1168C104.864 85.1168 103.225 82.6608 103.225 80.0956C103.225 77.3532 104.651 74.7187 107.499 74.7187C110.455 74.7187 111.633 77.3546 111.633 80.0956C111.633 82.6937 110.386 85.1168 107.499 85.1168Z" fill="#19338B"/>
</g>
<defs>
<filter id="filter0_d_4056_24482" x="0" y="0" width="232" height="150" filterUnits="userSpaceOnUse" color-interpolation-filters="sRGB">
<feFlood flood-opacity="0" result="BackgroundImageFix"/>
<feColorMatrix in="SourceAlpha" type="matrix" values="0 0 0 0 0 0 0 0 0 0 0 0 0 0 0 0 0 0 127 0" result="hardAlpha"/>
<feOffset/>
<feGaussianBlur stdDeviation="15"/>
<feColorMatrix type="matrix" values="0 0 0 0 0 0 0 0 0 0 0 0 0 0 0 0 0 0 0.16 0"/>
<feBlend mode="normal" in2="BackgroundImageFix" result="effect1_dropShadow_4056_24482"/>
<feBlend mode="normal" in="SourceGraphic" in2="effect1_dropShadow_4056_24482" result="shape"/>
</filter>
</defs>
</svg>
