<svg width="16" height="17" viewBox="0 0 16 17" fill="none" xmlns="http://www.w3.org/2000/svg">
<path d="M8.0026 15.1693C4.3207 15.1693 1.33594 12.1845 1.33594 8.5026C1.33594 4.8207 4.3207 1.83594 8.0026 1.83594C11.6845 1.83594 14.6693 4.8207 14.6693 8.5026C14.6693 12.1845 11.6845 15.1693 8.0026 15.1693ZM8.0026 13.8359C10.9481 13.8359 13.3359 11.4481 13.3359 8.5026C13.3359 5.55708 10.9481 3.16927 8.0026 3.16927C5.05708 3.16927 2.66927 5.55708 2.66927 8.5026C2.66927 11.4481 5.05708 13.8359 8.0026 13.8359ZM8.66927 8.5026H11.3359V9.83594H7.33594V5.16927H8.66927V8.5026Z" fill="black" fill-opacity="0.8"/>
</svg>
