<svg width="64" height="64" viewBox="0 0 64 64" fill="none" xmlns="http://www.w3.org/2000/svg">
<g filter="url(#filter0_d_4141_8575)">
<rect width="60" height="60" rx="30" transform="matrix(-1 0 0 1 62 1)" fill="white"/>
<path d="M31.1922 33.125C30.0206 31.9534 30.0206 30.0539 31.1922 28.8824L39.6775 20.397C40.6539 19.4207 40.6538 17.8378 39.6775 16.8615C38.7012 15.8852 37.1183 15.8852 36.142 16.8615L24.1212 28.8824C22.9496 30.0539 22.9496 31.9534 24.1212 33.125L36.142 45.1457C37.1183 46.122 38.7012 46.122 39.6775 45.1457C40.6538 44.1694 40.6538 42.5865 39.6775 41.6102L31.1922 33.125Z" fill="black"/>
</g>
<defs>
<filter id="filter0_d_4141_8575" x="0" y="0" width="64" height="64" filterUnits="userSpaceOnUse" color-interpolation-filters="sRGB">
<feFlood flood-opacity="0" result="BackgroundImageFix"/>
<feColorMatrix in="SourceAlpha" type="matrix" values="0 0 0 0 0 0 0 0 0 0 0 0 0 0 0 0 0 0 127 0" result="hardAlpha"/>
<feOffset dy="1"/>
<feGaussianBlur stdDeviation="1"/>
<feComposite in2="hardAlpha" operator="out"/>
<feColorMatrix type="matrix" values="0 0 0 0 0 0 0 0 0 0 0 0 0 0 0 0 0 0 0.25 0"/>
<feBlend mode="normal" in2="BackgroundImageFix" result="effect1_dropShadow_4141_8575"/>
<feBlend mode="normal" in="SourceGraphic" in2="effect1_dropShadow_4141_8575" result="shape"/>
</filter>
</defs>
</svg>
