<svg width="840" height="205" viewBox="0 0 840 205" fill="none" xmlns="http://www.w3.org/2000/svg">
<g clip-path="url(#clip0_4141_7607)">
<rect x="240.5" y="0.5" width="119" height="40" rx="3.5" stroke="white"/>
<rect x="480.5" y="0.5" width="119" height="40" rx="3.5" stroke="white"/>
<rect x="0.5" y="82.5" width="119" height="40" rx="3.5" stroke="white"/>
<rect x="120.5" y="41.5" width="119" height="40" rx="3.5" stroke="white"/>
<rect x="120.5" y="123.5" width="119" height="40" rx="3.5" stroke="white"/>
<rect x="240.5" y="82.5" width="119" height="40" rx="3.5" stroke="white"/>
<rect x="240.5" y="164.5" width="119" height="40" rx="3.5" stroke="white"/>
<rect x="360.5" y="41.5" width="119" height="40" rx="3.5" stroke="white"/>
<rect x="360.5" y="123.5" width="119" height="40" rx="3.5" stroke="white"/>
<rect x="480.5" y="82.5" width="119" height="40" rx="3.5" stroke="white"/>
<rect x="480.5" y="164.5" width="119" height="40" rx="3.5" stroke="white"/>
<rect x="600.5" y="41.5" width="119" height="40" rx="3.5" stroke="white"/>
<rect x="600.5" y="123.5" width="119" height="40" rx="3.5" stroke="white"/>
<rect x="720.5" y="82.5" width="119" height="40" rx="3.5" stroke="white"/>
<path d="M333.019 108.516C333.075 108.6 333.075 108.757 332.888 108.759H330.27C330.058 108.759 329.974 108.673 329.89 108.533L327.102 103.521H324.568C323.313 103.521 322.85 103.904 322.85 104.747V108.759H320.33C320.104 108.759 319.992 108.647 319.992 108.422V95.9586C319.992 95.296 320.358 95 321.331 95H327.216C330.639 95 332.71 95.9023 332.71 99.2377C332.71 101.814 331.468 102.828 329.935 103.223L333.019 108.516ZM329.823 99.2914C329.823 97.8967 329.429 97.2066 327.642 97.2066H322.852V101.375H327.642C329.429 101.375 329.823 100.702 329.823 99.2914Z" fill="white"/>
<path d="M314.912 95C315.028 95 315.07 95.0589 315.028 95.1702L314.281 97.0141C314.212 97.1699 314.114 97.2406 313.901 97.2406H306.054V100.69H312.602C312.714 100.69 312.756 100.746 312.714 100.858L311.996 102.632C311.927 102.789 311.828 102.859 311.616 102.859H307.772C306.518 102.859 306.054 103.241 306.054 104.084V106.521H314.91C315.025 106.521 315.067 106.576 315.025 106.689L314.279 108.533C314.209 108.689 314.111 108.759 313.899 108.759H304.223C303.478 108.759 303.195 108.504 303.195 107.94V95.9586C303.195 95.296 303.562 95 304.534 95H314.912Z" fill="white"/>
<path d="M295.632 101.507C297.18 101.914 297.884 103.309 297.884 104.954C297.884 107.7 295.942 108.757 293.223 108.757H286.012C285.267 108.757 284.984 108.505 284.984 107.941V95.9586C284.984 95.296 285.351 95 286.323 95H292.185C294.746 95 297.224 95.4492 297.224 98.4926C297.224 99.8021 296.758 100.914 295.632 101.507ZM294.998 104.688C294.998 103.423 294.549 102.802 292.927 102.802H289.561C288.309 102.802 287.843 103.183 287.843 104.027V106.546H292.927C294.549 106.546 294.998 105.954 294.998 104.688ZM294.339 98.9692C294.339 97.7828 293.913 97.2092 292.394 97.2092H287.843V100.729H292.394C293.916 100.729 294.339 100.157 294.339 98.9692Z" fill="white"/>
<path d="M279.46 95V103.179C279.46 107.49 276.714 108.996 272.73 108.996C268.746 108.996 266 107.488 266 103.179V95.3379C266 95.1139 266.111 95 266.338 95H268.914V103.054C268.914 105.63 270.053 106.7 272.73 106.7C275.407 106.7 276.546 105.63 276.546 103.054V95.3379C276.546 95.1139 276.659 95 276.884 95H279.46Z" fill="white"/>
<g clip-path="url(#clip1_4141_7607)">
<path d="M307.981 25.8383C304.327 28.5314 299.031 29.9683 294.471 29.9683C288.078 29.9683 282.322 27.6036 277.968 23.6706C277.626 23.3614 277.932 22.9398 278.343 23.1807C283.042 25.9149 288.853 27.5597 294.855 27.5597C298.902 27.5597 303.355 26.7223 307.45 24.9843C308.068 24.7215 308.586 25.3894 307.981 25.8383Z" fill="white"/>
<path d="M309.497 24.109C309.032 23.5124 306.41 23.8271 305.233 23.9667C304.875 24.0105 304.82 23.6985 305.143 23.474C307.231 22.0044 310.658 22.4285 311.057 22.9212C311.457 23.4166 310.953 26.8515 308.991 28.4909C308.69 28.7427 308.403 28.6085 308.537 28.2746C308.977 27.1744 309.965 24.7084 309.497 24.109Z" fill="white"/>
<path d="M305.317 13.0946V11.666C305.317 11.4497 305.481 11.3047 305.678 11.3047H312.075C312.28 11.3047 312.444 11.4525 312.444 11.666V12.8894C312.441 13.0946 312.269 13.3628 311.962 13.7871L308.648 18.5192C309.88 18.4891 311.18 18.6725 312.296 19.302C312.548 19.4443 312.617 19.6523 312.636 19.8576V21.382C312.636 21.59 312.406 21.8336 312.165 21.7077C310.197 20.6759 307.583 20.5637 305.407 21.7187C305.186 21.8391 304.953 21.5983 304.953 21.3902V19.9424C304.953 19.7098 304.956 19.3129 305.189 18.9599L309.028 13.4532H305.687C305.481 13.4532 305.317 13.3081 305.317 13.0946Z" fill="white"/>
<path d="M281.989 22.0125H280.043C279.857 21.9988 279.709 21.8592 279.695 21.6813V11.6943C279.695 11.4945 279.862 11.3357 280.07 11.3357H281.885C282.074 11.3439 282.224 11.489 282.238 11.6696V12.9752H282.273C282.747 11.7134 283.636 11.125 284.835 11.125C286.053 11.125 286.814 11.7134 287.361 12.9752C287.832 11.7134 288.902 11.125 290.049 11.125C290.865 11.125 291.757 11.4616 292.302 12.217C292.917 13.0573 292.792 14.2779 292.792 15.3481L292.789 21.6513C292.789 21.851 292.622 22.0125 292.414 22.0125H290.471C290.276 21.9988 290.12 21.8428 290.12 21.6513V16.358C290.12 15.9365 290.159 14.8855 290.066 14.4859C289.92 13.8154 289.485 13.6266 288.921 13.6266C288.451 13.6266 287.958 13.9413 287.758 14.4449C287.558 14.9485 287.578 15.7915 287.578 16.358V21.6513C287.578 21.851 287.411 22.0125 287.203 22.0125H285.259C285.062 21.9988 284.909 21.8428 284.909 21.6513L284.906 16.358C284.906 15.2441 285.09 13.6046 283.708 13.6046C282.309 13.6046 282.364 15.203 282.364 16.358V21.6513C282.364 21.851 282.197 22.0125 281.989 22.0125Z" fill="white"/>
<path d="M317.949 11.125C320.837 11.125 322.4 13.6046 322.4 16.7576C322.4 19.8038 320.673 22.2205 317.949 22.2205C315.114 22.2205 313.57 19.7408 313.57 16.6509C313.57 13.5417 315.133 11.125 317.949 11.125ZM317.966 13.164C316.532 13.164 316.441 15.1182 316.441 16.3361C316.441 17.5568 316.422 20.1623 317.949 20.1623C319.457 20.1623 319.529 18.0604 319.529 16.7795C319.529 15.9365 319.493 14.9293 319.238 14.1301C319.02 13.435 318.584 13.164 317.966 13.164Z" fill="white"/>
<path d="M326.15 22.0125H324.212C324.018 21.9988 323.862 21.8428 323.862 21.6513L323.859 11.6614C323.876 11.4781 324.037 11.3357 324.234 11.3357H326.038C326.208 11.3439 326.347 11.4589 326.386 11.6149V13.1421H326.421C326.966 11.7764 327.729 11.125 329.073 11.125C329.946 11.125 330.798 11.4397 331.345 12.3019C331.854 13.1011 331.854 14.4449 331.854 15.411V21.6977C331.832 21.8729 331.671 22.0125 331.479 22.0125H329.528C329.35 21.9988 329.202 21.8675 329.183 21.6977V16.2732C329.183 15.1811 329.309 13.5828 327.965 13.5828C327.491 13.5828 327.056 13.9002 326.84 14.3819C326.566 14.9923 326.531 15.5999 326.531 16.2732V21.6513C326.528 21.851 326.358 22.0125 326.15 22.0125Z" fill="white"/>
<path d="M274.71 17.2363V16.8148C273.304 16.8148 271.817 17.1158 271.817 18.7744C271.817 19.6146 272.253 20.1839 273 20.1839C273.547 20.1839 274.037 19.8473 274.346 19.2999C274.73 18.6266 274.71 17.9944 274.71 17.2363ZM276.673 21.9793C276.544 22.0943 276.358 22.1025 276.213 22.0259C275.567 21.4894 275.452 21.2404 275.096 20.7286C274.029 21.8178 273.274 22.1435 271.889 22.1435C270.252 22.1435 268.977 21.1336 268.977 19.1111C268.977 17.5318 269.833 16.4562 271.051 15.9307C272.108 15.4655 273.583 15.3834 274.71 15.2547V15.0029C274.71 14.5404 274.746 13.993 274.475 13.5934C274.237 13.2349 273.783 13.0871 273.383 13.0871C272.641 13.0871 271.979 13.4675 271.817 14.2557C271.785 14.4309 271.656 14.6033 271.481 14.6115L269.592 14.409C269.434 14.3734 269.258 14.2448 269.302 14.0012C269.737 11.7131 271.804 11.0234 273.654 11.0234C274.601 11.0234 275.838 11.2752 276.585 11.9923C277.532 12.8763 277.442 14.056 277.442 15.3396V18.3721C277.442 19.2835 277.82 19.6831 278.175 20.1757C278.301 20.3509 278.329 20.5616 278.17 20.693C277.773 21.0242 277.067 21.6399 276.678 21.9849L276.673 21.9793Z" fill="white"/>
<path d="M299.937 17.2363V16.8148C298.53 16.8148 297.044 17.1158 297.044 18.7744C297.044 19.6146 297.479 20.1839 298.226 20.1839C298.774 20.1839 299.264 19.8473 299.573 19.2999C299.956 18.6266 299.937 17.9944 299.937 17.2363ZM301.899 21.9793C301.771 22.0943 301.585 22.1025 301.44 22.0259C300.794 21.4894 300.679 21.2404 300.323 20.7286C299.255 21.8178 298.5 22.1435 297.115 22.1435C295.479 22.1435 294.203 21.1336 294.203 19.1111C294.203 17.5318 295.06 16.4562 296.278 15.9307C297.334 15.4655 298.809 15.3834 299.937 15.2547V15.0029C299.937 14.5404 299.973 13.993 299.702 13.5934C299.464 13.2349 299.009 13.0871 298.61 13.0871C297.868 13.0871 297.206 13.4675 297.044 14.2557C297.011 14.4309 296.883 14.6033 296.707 14.6115L294.819 14.409C294.66 14.3734 294.485 14.2448 294.529 14.0012C294.964 11.7131 297.03 11.0234 298.881 11.0234C299.828 11.0234 301.065 11.2752 301.812 11.9923C302.759 12.8763 302.668 14.056 302.668 15.3396V18.3721C302.668 19.2835 303.046 19.6831 303.402 20.1757C303.528 20.3509 303.555 20.5616 303.396 20.693C303 21.0242 302.293 21.6399 301.905 21.9849L301.899 21.9793Z" fill="white"/>
</g>
<g clip-path="url(#clip2_4141_7607)">
<path d="M389.895 132.5H381.5V152.576L389.895 132.5Z" fill="white"/>
<path d="M395.797 132.5H404.18V152.576L395.797 132.5Z" fill="white"/>
<path d="M392.849 139.898L398.192 152.575H394.687L393.09 148.539H389.18L392.849 139.898Z" fill="white"/>
<path d="M417.874 145.267L418.864 148.105C418.897 148.177 418.946 148.209 419.033 148.209H420.936C421.04 148.209 421.057 148.16 421.04 148.056L417.108 137.135C417.092 137.048 417.076 137.031 416.988 137.031H414.626C414.56 137.031 414.522 137.08 414.522 137.152C414.489 137.726 414.44 137.901 414.368 138.07L410.863 148.04C410.847 148.16 410.885 148.209 410.983 148.209H412.684C412.788 148.209 412.837 148.177 412.876 148.073L413.811 145.267H417.874ZM414.352 143.413C414.866 141.86 415.544 139.87 415.818 138.732H415.834C416.173 139.924 416.972 142.287 417.333 143.413H414.352Z" fill="white"/>
<path d="M426.095 148.377C427.118 148.377 428.206 148.191 429.311 147.715C429.399 147.682 429.415 147.644 429.415 147.562C429.382 147.255 429.344 146.812 429.344 146.473V136.192C429.344 136.127 429.344 136.094 429.262 136.094H427.408C427.337 136.094 427.304 136.127 427.304 136.214V139.698C427.014 139.665 426.812 139.648 426.571 139.648C423.58 139.648 421.742 141.623 421.742 144.089C421.742 146.949 423.629 148.377 426.095 148.377ZM427.304 146.473C426.998 146.572 426.659 146.61 426.314 146.61C424.958 146.61 423.848 145.845 423.848 143.985C423.848 142.339 424.991 141.366 426.506 141.366C426.812 141.366 427.08 141.398 427.304 141.486V146.473Z" fill="white"/>
<path d="M435.337 139.656C432.784 139.656 431.203 141.614 431.203 144.031C431.203 146.191 432.461 148.384 435.299 148.384C437.7 148.384 439.384 146.618 439.384 143.977C439.384 141.647 437.957 139.656 435.337 139.656ZM435.234 141.373C436.677 141.373 437.29 142.615 437.29 144.031C437.29 145.781 436.387 146.651 435.337 146.651C434.041 146.651 433.276 145.563 433.276 143.993C433.276 142.38 434.091 141.373 435.234 141.373Z" fill="white"/>
<path d="M441.292 136.094C441.221 136.094 441.172 136.127 441.172 136.214V147.852C441.172 147.901 441.221 147.988 441.292 148.005C442.107 148.256 442.96 148.377 443.841 148.377C446.362 148.377 448.812 146.812 448.812 143.663C448.812 141.382 447.248 139.648 444.798 139.648C444.234 139.648 443.709 139.736 443.25 139.889L443.228 136.23C443.228 136.11 443.195 136.094 443.075 136.094H441.292ZM446.717 143.87C446.717 145.757 445.427 146.643 444.032 146.643C443.742 146.643 443.485 146.627 443.25 146.555V141.59C443.518 141.486 443.841 141.398 444.437 141.398C445.782 141.398 446.717 142.252 446.717 143.87Z" fill="white"/>
<path d="M455.74 144.491C456.571 144.491 457.255 144.474 457.49 144.42C457.577 144.403 457.61 144.37 457.627 144.299C457.676 144.113 457.698 143.725 457.698 143.249C457.698 141.63 456.724 139.656 454.209 139.656C451.638 139.656 450.211 141.751 450.211 144.113C450.211 146.208 451.316 148.384 454.411 148.384C455.57 148.384 456.32 148.198 456.965 147.892C457.03 147.859 457.063 147.805 457.063 147.706V146.29C457.063 146.208 457.014 146.191 456.965 146.224C456.32 146.498 455.62 146.634 454.854 146.634C453.12 146.634 452.333 145.677 452.284 144.491H455.74ZM452.284 143.025C452.42 142.194 452.945 141.291 454.121 141.291C455.417 141.291 455.756 142.38 455.756 142.872C455.756 142.888 455.756 142.959 455.756 143.009C455.685 143.025 455.467 143.025 454.821 143.025H452.284Z" fill="white"/>
</g>
<g clip-path="url(#clip3_4141_7607)">
<path d="M517.748 95.2422C513.53 95.2422 510.016 97.0316 510.016 102.43C510.016 106.707 512.379 109.4 517.857 109.4C524.305 109.4 524.718 105.153 524.718 105.153H521.594C521.594 105.153 520.924 107.44 517.666 107.44C515.013 107.44 513.105 105.647 513.105 103.135H525.045V101.559C525.045 99.0734 523.467 95.2422 517.748 95.2422ZM517.639 97.257C520.165 97.257 521.887 98.8042 521.887 101.123H513.174C513.174 98.6613 515.421 97.257 517.639 97.257Z" fill="white"/>
<path d="M525.044 90.0156V106.69C525.044 107.636 524.977 108.965 524.977 108.965H527.956C527.956 108.965 528.063 108.011 528.063 107.139C528.063 107.139 529.536 109.442 533.539 109.442C537.754 109.442 540.618 106.515 540.618 102.322C540.618 98.4213 537.988 95.284 533.546 95.284C529.386 95.284 528.094 97.5302 528.094 97.5302V90.0156H525.044ZM532.777 97.3464C535.639 97.3464 537.46 99.471 537.46 102.322C537.46 105.379 535.357 107.38 532.797 107.38C529.742 107.38 528.094 104.994 528.094 102.349C528.094 99.8851 529.572 97.3464 532.777 97.3464Z" fill="white"/>
<path d="M548.029 95.2422C541.684 95.2422 541.277 98.7166 541.277 99.2718H544.435C544.435 99.2718 544.601 97.2434 547.811 97.2434C549.898 97.2434 551.514 98.1983 551.514 100.034V100.688H547.811C542.896 100.688 540.297 102.126 540.297 105.044C540.297 107.916 542.698 109.478 545.943 109.478C550.365 109.478 551.79 107.035 551.79 107.035C551.79 108.007 551.865 108.964 551.865 108.964H554.673C554.673 108.964 554.564 107.777 554.564 107.018V100.453C554.564 96.1481 551.092 95.2422 548.029 95.2422ZM551.514 102.648V103.519C551.514 104.655 550.813 107.481 546.685 107.481C544.424 107.481 543.455 106.352 543.455 105.044C543.455 102.663 546.719 102.648 551.514 102.648Z" fill="white"/>
<path d="M552.859 95.7891H556.412L561.512 106.005L566.599 95.7891H569.818L560.551 113.977H557.175L559.849 108.907L552.859 95.7891Z" fill="white"/>
</g>
<g clip-path="url(#clip4_4141_7607)">
<path d="M753.137 111.24C752.022 111.436 750.887 111.495 749.714 111.651L746.134 101.166V112.101C745.019 112.218 744.002 112.375 742.945 112.531V92.5H745.919L749.988 103.866V92.5H753.137V111.24ZM759.299 99.8357C760.512 99.8357 762.37 99.777 763.485 99.777V102.907C762.096 102.907 760.473 102.907 759.299 102.966V107.621C761.138 107.504 762.977 107.347 764.835 107.289V110.301L756.169 110.986V92.5H764.835V95.6299H759.299V99.8357ZM776.474 95.63H773.227V110.027C772.171 110.027 771.114 110.027 770.097 110.066V95.63H766.85V92.5H776.474L776.474 95.63ZM781.56 99.6206H785.844V102.75H781.56V109.851H778.489V92.5H787.233V95.6299H781.56V99.6206ZM792.319 107.113C794.1 107.152 795.899 107.289 797.64 107.387V110.477C794.843 110.301 792.046 110.125 789.19 110.066V92.5H792.319V107.113ZM800.281 110.693C801.279 110.751 802.335 110.81 803.352 110.927V92.5H800.281V110.693ZM817.065 92.5L813.094 102.027L817.065 112.531C815.891 112.375 814.718 112.16 813.544 111.964L811.294 106.174L809.006 111.495C807.871 111.299 806.776 111.24 805.641 111.084L809.671 101.909L806.032 92.5H809.397L811.451 97.7621L813.642 92.5H817.065Z" fill="white"/>
</g>
<g clip-path="url(#clip5_4141_7607)">
<path d="M535.013 20.9273C535.013 23.9217 532.67 26.1281 529.795 26.1281C526.921 26.1281 524.578 23.9217 524.578 20.9273C524.578 17.9119 526.921 15.7266 529.795 15.7266C532.67 15.7266 535.013 17.9119 535.013 20.9273ZM532.729 20.9273C532.729 19.0562 531.371 17.7759 529.795 17.7759C528.22 17.7759 526.862 19.0562 526.862 20.9273C526.862 22.7797 528.22 24.0788 529.795 24.0788C531.371 24.0788 532.729 22.7774 532.729 20.9273Z" fill="white"/>
<path d="M546.27 20.9273C546.27 23.9217 543.928 26.1281 541.053 26.1281C538.178 26.1281 535.836 23.9217 535.836 20.9273C535.836 17.9143 538.178 15.7266 541.053 15.7266C543.928 15.7266 546.27 17.9119 546.27 20.9273ZM543.986 20.9273C543.986 19.0562 542.629 17.7759 541.053 17.7759C539.477 17.7759 538.12 19.0562 538.12 20.9273C538.12 22.7797 539.477 24.0788 541.053 24.0788C542.629 24.0788 543.986 22.7774 543.986 20.9273Z" fill="white"/>
<path d="M557.056 16.0408V25.3778C557.056 29.2186 554.791 30.7873 552.113 30.7873C549.593 30.7873 548.075 29.1014 547.503 27.7226L549.492 26.8949C549.846 27.7414 550.713 28.7402 552.111 28.7402C553.825 28.7402 554.887 27.6827 554.887 25.692V24.944H554.807C554.296 25.5748 553.311 26.1258 552.069 26.1258C549.468 26.1258 547.086 23.8607 547.086 20.9461C547.086 18.0104 549.468 15.7266 552.069 15.7266C553.309 15.7266 554.294 16.2776 554.807 16.8896H554.887V16.0431H557.056V16.0408ZM555.049 20.9461C555.049 19.1148 553.827 17.7759 552.273 17.7759C550.697 17.7759 549.377 19.1148 549.377 20.9461C549.377 22.7586 550.697 24.0788 552.273 24.0788C553.827 24.0788 555.049 22.7586 555.049 20.9461Z" fill="white"/>
<path d="M560.634 10.5703V25.8116H558.406V10.5703H560.634Z" fill="white"/>
<path d="M569.315 22.6414L571.088 23.8232C570.516 24.6697 569.137 26.1281 566.755 26.1281C563.8 26.1281 561.594 23.8443 561.594 20.9273C561.594 17.8345 563.819 15.7266 566.499 15.7266C569.198 15.7266 570.518 17.8744 570.95 19.0351L571.186 19.626L564.234 22.5054C564.766 23.5488 565.594 24.0811 566.755 24.0811C567.918 24.0811 568.724 23.509 569.315 22.6414ZM563.859 20.7702L568.506 18.8405C568.251 18.191 567.482 17.7384 566.576 17.7384C565.416 17.7384 563.8 18.7631 563.859 20.7702Z" fill="white"/>
<path d="M516.151 19.5762V17.3697H523.587C523.659 17.7543 523.697 18.2092 523.697 18.7016C523.697 20.357 523.244 22.404 521.786 23.8625C520.367 25.3397 518.555 26.1276 516.154 26.1276C511.703 26.1276 507.961 22.5025 507.961 18.0521C507.961 13.6016 511.703 9.97656 516.154 9.97656C518.616 9.97656 520.37 10.9426 521.687 12.2018L520.13 13.7587C519.186 12.8724 517.905 12.183 516.151 12.183C512.901 12.183 510.36 14.8022 510.36 18.0521C510.36 21.302 512.901 23.9211 516.151 23.9211C518.259 23.9211 519.46 23.0747 520.229 22.3056C520.853 21.6818 521.263 20.7908 521.425 19.5739L516.151 19.5762Z" fill="white"/>
</g>
<g clip-path="url(#clip6_4141_7607)">
<path fill-rule="evenodd" clip-rule="evenodd" d="M439.138 59.7545C439.368 60.1526 439.444 60.6054 439.469 61.1145L439.502 61.793V66.5379L439.535 67.2172C439.602 68.3265 440.42 69.1468 441.538 69.2165L442.214 69.25V61.793L442.247 61.1145C442.275 60.6111 442.35 60.1497 442.584 59.7488C442.823 59.3377 443.165 58.9965 443.577 58.7597C443.99 58.5229 444.457 58.3986 444.932 58.3995C445.408 58.4004 445.875 58.5263 446.286 58.7646C446.697 59.003 447.039 59.3454 447.276 59.7574C447.507 60.1554 447.579 60.6168 447.606 61.1145L447.64 61.7909V66.5379L447.673 67.2172C447.743 68.3322 448.555 69.1525 449.676 69.2165L450.352 69.25V61.1145C450.352 59.6759 449.781 58.2962 448.764 57.2788C447.747 56.2614 446.367 55.6895 444.929 55.6889C444.159 55.6881 443.397 55.8516 442.696 56.1685C441.994 56.4854 441.368 56.9485 440.859 57.5266C440.351 56.9487 439.725 56.4858 439.023 56.1688C438.321 55.8518 437.56 55.6879 436.79 55.6882C435.664 55.6882 434.619 56.03 433.753 56.6202C433.224 56.0307 432.042 55.6882 431.364 55.6882V69.25L432.042 69.2165C433.177 69.1418 433.998 68.3436 434.042 67.2172L434.078 66.5379V61.793L434.112 61.1145C434.14 60.6026 434.211 60.1526 434.443 59.7517C434.682 59.3408 435.024 58.9997 435.436 58.7626C435.848 58.5255 436.315 58.4005 436.79 58.4003C437.266 58.4004 437.733 58.5256 438.145 58.7633C438.557 59.001 438.9 59.3428 439.138 59.7545ZM392.712 69.2172L393.391 69.25H403.562L403.528 68.5736C403.436 67.4586 402.647 66.644 401.528 66.5714L400.85 66.5379H394.748L402.883 58.3996L402.85 57.7239C402.797 56.5975 401.974 55.7836 400.85 55.7217L400.171 55.6911L390 55.6882L390.033 56.3668C390.122 57.4711 390.923 58.3027 392.033 58.3668L392.712 58.4003H398.814L390.679 66.5386L390.712 67.2172C390.779 68.3351 391.586 69.1446 392.712 69.2165V69.2172ZM428.702 57.6733C429.331 58.303 429.831 59.0505 430.172 59.8733C430.513 60.696 430.688 61.5778 430.688 62.4684C430.688 63.359 430.513 64.2408 430.172 65.0635C429.831 65.8863 429.331 66.6338 428.702 67.2635C427.429 68.5348 425.704 69.249 423.906 69.249C422.107 69.249 420.382 68.5348 419.109 67.2635C416.461 64.6155 416.461 60.3213 419.109 57.6733C419.739 57.0439 420.486 56.5445 421.308 56.2038C422.13 55.8631 423.011 55.6876 423.901 55.6875C424.793 55.6869 425.676 55.862 426.499 56.2029C427.323 56.5438 428.071 57.0437 428.702 57.674V57.6733ZM426.783 59.5936C427.546 60.3569 427.974 61.3918 427.974 62.4709C427.974 63.5499 427.546 64.5849 426.783 65.3481C426.02 66.1109 424.985 66.5393 423.906 66.5393C422.826 66.5393 421.792 66.1109 421.028 65.3481C420.266 64.5849 419.837 63.5499 419.837 62.4709C419.837 61.3918 420.266 60.3569 421.028 59.5936C421.792 58.8309 422.826 58.4025 423.906 58.4025C424.985 58.4025 426.02 58.8309 426.783 59.5936ZM409.669 55.6875C410.56 55.6877 411.441 55.8633 412.263 56.2041C413.085 56.545 413.832 57.0445 414.461 57.674C417.11 60.3213 417.11 64.6162 414.461 67.2635C413.189 68.5348 411.464 69.249 409.665 69.249C407.867 69.249 406.141 68.5348 404.869 67.2635C402.221 64.6155 402.221 60.3213 404.869 57.6733C405.498 57.0439 406.245 56.5445 407.067 56.2038C407.89 55.8631 408.771 55.6876 409.661 55.6875H409.669ZM412.542 59.5922C413.305 60.3555 413.734 61.3906 413.734 62.4698C413.734 63.5491 413.305 64.5841 412.542 65.3474C411.779 66.1102 410.744 66.5386 409.665 66.5386C408.586 66.5386 407.551 66.1102 406.788 65.3474C406.025 64.5841 405.597 63.5492 405.597 62.4702C405.597 61.3911 406.025 60.3562 406.788 59.5929C407.551 58.8302 408.586 58.4018 409.665 58.4018C410.744 58.4018 411.779 58.8302 412.542 59.5929V59.5922Z" fill="white"/>
</g>
<path d="M136.416 55.5432L135.586 58.5972L140.336 55.5258L137.229 67.1149L140.384 67.1175L144.973 50" fill="white"/>
<path d="M131.307 62.2473L130 67.1194H136.466L139.112 57.2082L131.307 62.2473ZM153.768 57.9579C153.61 58.5453 153.306 58.9768 152.852 59.2523C152.399 59.5273 151.763 59.6653 150.942 59.6653H148.334L149.249 56.2515H151.857C152.677 56.2515 153.24 56.3885 153.546 56.6677C153.852 56.9469 153.925 57.3737 153.768 57.9637V57.9579ZM156.469 57.89C156.801 56.6572 156.664 55.7089 156.057 55.0451C155.451 54.3866 154.387 54.0547 152.87 54.0547H147.05L143.546 67.1252H146.374L147.786 61.8569H149.64C150.057 61.8569 150.384 61.9254 150.623 62.0571C150.863 62.1941 151.004 62.4312 151.047 62.7736L151.552 67.1252H154.581L154.09 63.0686C153.99 62.1625 153.576 61.6304 152.847 61.4723C153.776 61.2037 154.554 60.7559 155.181 60.1342C155.804 59.5171 156.248 58.7437 156.469 57.8952V57.89ZM163.342 62.447C163.105 63.332 162.742 64.0011 162.25 64.47C161.758 64.9388 161.17 65.1706 160.484 65.1706C159.785 65.1706 159.312 64.9441 159.061 64.4858C158.811 64.0274 158.802 63.3636 159.035 62.4944C159.268 61.6251 159.639 60.9455 160.15 60.4556C160.662 59.9656 161.259 59.7207 161.945 59.7207C162.63 59.7207 163.099 59.9577 163.336 60.4282C163.578 60.9007 163.584 61.5767 163.346 62.4565L163.342 62.447ZM164.581 57.8215L164.227 59.1438C164.075 58.6697 163.778 58.2903 163.34 58.0059C162.9 57.7266 162.356 57.5844 161.708 57.5844C160.912 57.5844 160.148 57.7899 159.416 58.2008C158.684 58.6117 158.041 59.1912 157.493 59.9393C156.945 60.6874 156.545 61.5356 156.286 62.4891C156.033 63.4479 155.981 64.2856 156.134 65.0126C156.292 65.7449 156.624 66.3033 157.135 66.6932C157.651 67.0883 158.31 67.2832 159.116 67.2832C159.756 67.2864 160.39 67.1479 160.97 66.8775C161.544 66.6186 162.055 66.2374 162.467 65.7607L162.098 67.1388H164.832L167.329 57.8262H164.589L164.581 57.8215ZM177.155 57.8215H169.203L168.647 59.8971H173.274L167.157 65.1812L166.635 67.1304H174.843L175.399 65.0547H170.441L176.652 59.6917L177.155 57.8215ZM184.155 62.4312C183.909 63.3478 183.544 64.0369 183.062 64.4858C182.58 64.9388 181.996 65.1654 181.31 65.1654C179.877 65.1654 179.406 64.254 179.895 62.4312C180.137 61.525 180.504 60.8438 180.994 60.385C181.484 59.9245 182.078 59.6948 182.776 59.6948C183.461 59.6948 183.924 59.923 184.162 60.3824C184.4 60.8407 184.398 61.524 184.155 62.4301V62.4312ZM185.756 58.1718C185.126 57.7798 184.322 57.5839 183.342 57.5839C182.35 57.5839 181.432 57.7788 180.587 58.1686C179.745 58.5561 179.006 59.1344 178.427 59.8576C177.831 60.5899 177.403 61.4486 177.14 62.4285C176.882 63.4047 176.85 64.2619 177.051 64.9957C177.251 65.728 177.672 66.2917 178.304 66.6816C178.942 67.0746 179.753 67.27 180.749 67.27C181.729 67.27 182.641 67.073 183.478 66.681C184.316 66.287 185.033 65.7275 185.628 64.9899C186.223 64.2556 186.65 63.3989 186.914 62.419C187.177 61.4392 187.209 60.5836 187.008 59.8482C186.808 59.1159 186.392 58.5522 185.765 58.1597L185.756 58.1718ZM195.518 60.3091L196.218 57.7751C195.981 57.6539 195.67 57.5907 195.28 57.5907C194.653 57.5907 194.053 57.7456 193.473 58.0596C192.975 58.3262 192.551 58.7023 192.193 59.1733L192.556 57.8088L191.762 57.812H189.813L187.3 67.1209H190.073L191.377 62.2547C191.566 61.5472 191.908 60.9903 192.401 60.5952C192.89 60.1985 193.502 59.9999 194.239 59.9999C194.692 59.9999 195.114 60.1037 195.514 60.3107L195.518 60.3091ZM203.233 62.4759C202.996 63.3452 202.638 64.009 202.148 64.4673C201.658 64.9278 201.068 65.1575 200.383 65.1575C199.698 65.1575 199.229 64.9257 198.981 64.4621C198.728 63.9958 198.723 63.3241 198.96 62.4412C199.197 61.5587 199.561 60.8818 200.061 60.4129C200.562 59.9403 201.152 59.7043 201.837 59.7043C202.511 59.7043 202.964 59.9467 203.207 60.4366C203.449 60.9266 203.454 61.6062 203.221 62.4754L203.233 62.4759ZM205.16 58.1871C204.647 57.7762 203.991 57.5707 203.195 57.5707C202.498 57.5707 201.834 57.7287 201.204 58.048C200.574 58.3667 200.063 58.8014 199.67 59.3514L199.68 59.2881L200.145 57.8078H197.437L196.747 60.3839L196.726 60.4735L193.881 71.0858H196.657L198.09 65.7438C198.232 66.219 198.522 66.592 198.965 66.8617C199.407 67.1304 199.954 67.2637 200.603 67.2637C201.41 67.2637 202.179 67.0688 202.909 66.6789C203.641 66.288 204.273 65.7254 204.811 64.9984C205.348 64.2714 205.747 63.4284 206.001 62.4749C206.259 61.5198 206.312 60.6679 206.165 59.9224C206.014 59.1759 205.682 58.598 205.169 58.1892L205.16 58.1871ZM214.371 62.438C214.134 63.3178 213.77 63.9921 213.28 64.4557C212.79 64.9225 212.2 65.1548 211.515 65.1548C210.814 65.1548 210.34 64.9283 210.092 64.47C209.84 64.0116 209.834 63.3478 210.066 62.4786C210.298 61.6093 210.668 60.9297 211.179 60.4398C211.69 59.9498 212.288 59.7054 212.974 59.7054C213.659 59.7054 214.123 59.9425 214.365 60.4113C214.607 60.8818 214.609 61.5577 214.373 62.4396L214.371 62.438ZM215.609 57.8099L215.254 59.1322C215.101 58.6554 214.806 58.2761 214.369 57.9943C213.927 57.7129 213.384 57.5728 212.736 57.5728C211.94 57.5728 211.172 57.7783 210.439 58.1892C209.706 58.6001 209.063 59.1765 208.516 59.9224C207.968 60.6684 207.567 61.5187 207.309 62.4723C207.053 63.4295 207.003 64.2687 207.156 64.9989C207.311 65.7259 207.643 66.2875 208.157 66.6795C208.67 67.0693 209.332 67.2663 210.138 67.2663C210.786 67.2663 211.405 67.1315 211.993 66.8607C212.566 66.6006 213.075 66.2189 213.486 65.7422L213.117 67.1215H215.851L218.348 57.8125H215.613L215.609 57.8099ZM229.828 57.813L229.829 57.8104H228.148C228.095 57.8104 228.047 57.813 227.998 57.8141H227.126L226.679 58.4357L226.568 58.5833L226.52 58.657L222.977 63.5923L222.245 57.813H219.343L220.813 66.5952L217.567 71.089H220.46L221.245 69.9758C221.267 69.9431 221.287 69.9157 221.313 69.881L222.23 68.5797L222.256 68.5428L226.362 62.7214L229.824 57.822L229.829 57.8188H229.828V57.813Z" fill="white"/>
<g clip-path="url(#clip7_4141_7607)">
<path d="M106.168 101.279V99.6576H104.155V97.1376L104.087 97.1585L102.197 97.737L102.159 97.7483V99.6577H99.1752V98.594C99.1752 98.0987 99.2859 97.7197 99.5042 97.4669C99.7209 97.2172 100.031 97.0902 100.426 97.0902C100.711 97.0902 101.005 97.1572 101.301 97.2892L101.375 97.3224V95.6153L101.34 95.6025C101.064 95.5031 100.688 95.4531 100.222 95.4531C99.6354 95.4531 99.1019 95.5809 98.6367 95.8341C98.1712 96.0877 97.805 96.4497 97.5484 96.9099C97.2928 97.3696 97.1631 97.9006 97.1631 98.4882V99.6576H95.7615V101.279H97.1631V108.107H99.1752V101.279H102.159V105.618C102.159 107.405 103.002 108.311 104.665 108.311C104.938 108.311 105.226 108.279 105.519 108.216C105.818 108.152 106.022 108.088 106.142 108.019L106.168 108.003V106.367L106.086 106.422C105.977 106.494 105.841 106.554 105.682 106.598C105.521 106.643 105.388 106.666 105.284 106.666C104.895 106.666 104.606 106.561 104.428 106.354C104.247 106.145 104.155 105.779 104.155 105.268V101.279H106.168ZM91.2681 106.666C90.5378 106.666 89.962 106.424 89.5562 105.947C89.148 105.467 88.9411 104.784 88.9411 103.915C88.9411 103.019 89.148 102.318 89.5564 101.83C89.9624 101.346 90.5327 101.1 91.2517 101.1C91.9494 101.1 92.5048 101.334 92.9026 101.798C93.3024 102.264 93.5053 102.96 93.5053 103.866C93.5053 104.784 93.3145 105.489 92.9383 105.96C92.5646 106.428 92.0027 106.666 91.2681 106.666ZM91.3575 99.4541C89.9642 99.4541 88.8576 99.8623 88.0685 100.668C87.2799 101.473 86.8801 102.587 86.8801 103.98C86.8801 105.303 87.2704 106.367 88.0402 107.143C88.81 107.918 89.8577 108.311 91.1538 108.311C92.5044 108.311 93.5891 107.897 94.3778 107.081C95.1664 106.265 95.566 105.161 95.566 103.801C95.566 102.457 95.191 101.385 94.4513 100.615C93.7111 99.8446 92.6701 99.4541 91.3575 99.4541ZM83.636 99.4541C82.6882 99.4541 81.9042 99.6965 81.3054 100.174C80.7028 100.655 80.3972 101.286 80.3972 102.049C80.3972 102.446 80.4631 102.798 80.593 103.097C80.7236 103.397 80.9257 103.661 81.1943 103.882C81.4608 104.102 81.8722 104.332 82.4173 104.567C82.8756 104.755 83.2173 104.915 83.4344 105.04C83.6466 105.164 83.7972 105.288 83.8823 105.408C83.9649 105.526 84.0068 105.688 84.0068 105.887C84.0068 106.455 83.5817 106.731 82.707 106.731C82.3825 106.731 82.0124 106.663 81.607 106.53C81.2044 106.398 80.8245 106.206 80.4805 105.959L80.397 105.899V107.836L80.4277 107.85C80.7123 107.982 81.0713 108.092 81.4944 108.18C81.9166 108.267 82.3003 108.311 82.6336 108.311C83.6621 108.311 84.4903 108.068 85.0946 107.587C85.7028 107.103 86.011 106.457 86.011 105.668C86.011 105.098 85.8451 104.61 85.518 104.216C85.1932 103.825 84.6295 103.466 83.8431 103.149C83.2167 102.898 82.8154 102.689 82.6498 102.529C82.4902 102.374 82.4092 102.155 82.4092 101.878C82.4092 101.632 82.5092 101.435 82.7145 101.276C82.9215 101.116 83.2096 101.034 83.5708 101.034C83.9061 101.034 84.2491 101.087 84.5902 101.191C84.9311 101.295 85.2305 101.434 85.4804 101.604L85.5626 101.66V99.8224L85.5311 99.8088C85.3005 99.7099 84.9964 99.6253 84.6271 99.5567C84.2595 99.4885 83.9261 99.4541 83.636 99.4541ZM75.1517 106.666C74.4216 106.666 73.8456 106.424 73.4399 105.947C73.0316 105.467 72.8251 104.784 72.8251 103.915C72.8251 103.019 73.0318 102.318 73.4404 101.83C73.8461 101.346 74.4162 101.1 75.1356 101.1C75.833 101.1 76.3884 101.334 76.7863 101.798C77.1862 102.264 77.389 102.96 77.389 103.866C77.389 104.784 77.1982 105.489 76.8219 105.96C76.4482 106.428 75.8866 106.666 75.1517 106.666ZM75.2414 99.4541C73.8477 99.4541 72.741 99.8623 71.9524 100.668C71.1638 101.473 70.7638 102.587 70.7638 103.98C70.7638 105.304 71.1543 106.367 71.9241 107.143C72.6939 107.918 73.7415 108.311 75.0376 108.311C76.388 108.311 77.4729 107.897 78.2617 107.081C79.0501 106.265 79.4498 105.161 79.4498 103.801C79.4498 102.457 79.0748 101.385 78.3349 100.615C77.5946 99.8446 76.5537 99.4541 75.2414 99.4541ZM67.7095 101.121V99.6576H65.7219V108.107H67.7095V103.785C67.7095 103.05 67.8761 102.446 68.2049 101.99C68.5296 101.539 68.9622 101.311 69.4904 101.311C69.6694 101.311 69.8704 101.341 70.088 101.399C70.3034 101.457 70.4594 101.52 70.5515 101.586L70.635 101.647V99.6432L70.6028 99.6293C70.4177 99.5507 70.1559 99.511 69.8245 99.511C69.325 99.511 68.8781 99.6715 68.4952 99.9875C68.1592 100.265 67.9163 100.646 67.7306 101.121H67.7095ZM62.1625 99.4541C61.2506 99.4541 60.4373 99.6496 59.7455 100.035C59.0523 100.421 58.5161 100.973 58.1514 101.674C57.7882 102.374 57.6038 103.191 57.6038 104.103C57.6038 104.901 57.7826 105.634 58.136 106.279C58.4895 106.926 58.9899 107.432 59.6233 107.783C60.2558 108.133 60.9868 108.311 61.7962 108.311C62.7408 108.311 63.5472 108.122 64.1938 107.75L64.22 107.735V105.914L64.1364 105.975C63.8435 106.188 63.5162 106.359 63.164 106.481C62.8127 106.604 62.4925 106.666 62.2116 106.666C61.4317 106.666 60.8056 106.422 60.3512 105.941C59.8957 105.459 59.6648 104.783 59.6648 103.931C59.6648 103.075 59.9056 102.381 60.3802 101.869C60.8534 101.358 61.4807 101.1 62.2444 101.1C62.8977 101.1 63.5343 101.321 64.1366 101.758L64.22 101.818V99.8995L64.193 99.8843C63.9664 99.7575 63.6573 99.6527 63.2735 99.5733C62.8914 99.494 62.5176 99.4541 62.1625 99.4541ZM56.235 99.6577H54.2474V108.107H56.235V99.6577ZM55.2615 96.0582C54.9344 96.0582 54.6491 96.1695 54.4146 96.3902C54.1793 96.6115 54.0599 96.8901 54.0599 97.219C54.0599 97.5426 54.1778 97.8162 54.411 98.0316C54.6426 98.2464 54.9288 98.3552 55.2616 98.3552C55.5942 98.3552 55.8815 98.2464 56.1159 98.0319C56.3519 97.8162 56.4715 97.5427 56.4715 97.219C56.4715 96.9016 56.3551 96.6259 56.1256 96.3991C55.8964 96.1728 55.6056 96.0582 55.2615 96.0582ZM50.3024 99.0343V108.107H52.3308V96.3168H49.5234L45.955 105.074L42.492 96.3168H39.5703V108.107H41.4765V99.0334H41.5419L45.1987 108.107H46.6372L50.2369 99.0343H50.3024Z" fill="white"/>
<path d="M23.3502 101.733H14V92.3828H23.3502V101.733Z" fill="white"/>
<path d="M33.6703 101.733H24.3203V92.3828H33.6703V101.733Z" fill="white"/>
<path d="M23.3499 112.053H14V102.703H23.3499V112.053Z" fill="white"/>
<path d="M33.6703 112.053H24.3203V102.703H33.6703V112.053Z" fill="white"/>
</g>
</g>
<defs>
<clipPath id="clip0_4141_7607">
<rect width="840" height="205" fill="white"/>
</clipPath>
<clipPath id="clip1_4141_7607">
<rect width="62.9506" height="19" fill="white" transform="translate(268.938 11)"/>
</clipPath>
<clipPath id="clip2_4141_7607">
<rect width="77" height="21" fill="white" transform="translate(381.5 132.5)"/>
</clipPath>
<clipPath id="clip3_4141_7607">
<rect width="59.8384" height="24" fill="white" transform="translate(510 90)"/>
</clipPath>
<clipPath id="clip4_4141_7607">
<rect width="74.1199" height="20.05" fill="white" transform="translate(742.945 92.5)"/>
</clipPath>
<clipPath id="clip5_4141_7607">
<rect width="63.5625" height="27" fill="white" transform="translate(507.883 6.5)"/>
</clipPath>
<clipPath id="clip6_4141_7607">
<rect width="60.7083" height="31" fill="white" transform="translate(390 46)"/>
</clipPath>
<clipPath id="clip7_4141_7607">
<rect width="92.25" height="27" fill="white" transform="translate(14 89)"/>
</clipPath>
</defs>
</svg>
