<svg width="50" height="50" viewBox="0 0 50 50" fill="none" xmlns="http://www.w3.org/2000/svg">
<path d="M15.1149 38.5274L16.6247 39.4078C19.1471 40.8786 22.0138 41.6641 25.0053 41.6641C34.21 41.6641 41.6719 34.2022 41.6719 24.9974C41.6719 15.7926 34.21 8.33073 25.0053 8.33073C15.8005 8.33073 8.33854 15.7926 8.33854 24.9974C8.33854 27.9897 9.12444 30.8574 10.5962 33.3803L11.4762 34.8886L10.1147 39.892L15.1149 38.5274ZM4.18058 45.8307L6.99717 35.4797C5.20096 32.4007 4.17188 28.8193 4.17188 24.9974C4.17188 13.4915 13.4993 4.16406 25.0053 4.16406C36.5111 4.16406 45.8386 13.4915 45.8386 24.9974C45.8386 36.5032 36.5111 45.8307 25.0053 45.8307C21.1846 45.8307 17.6042 44.8024 14.5258 43.0072L4.18058 45.8307ZM17.4872 15.2231C17.7661 15.2035 18.0459 15.2005 18.3252 15.2141C18.4381 15.2215 18.5504 15.2346 18.6627 15.2475C18.9945 15.2859 19.3594 15.4879 19.482 15.766C20.1035 17.1752 20.7066 18.5925 21.2911 20.0175C21.42 20.332 21.3423 20.7398 21.0969 21.1343C20.9723 21.3366 20.7767 21.6203 20.55 21.9105C20.3144 22.212 19.8073 22.7664 19.8073 22.7664C19.8073 22.7664 19.6019 23.0126 19.6793 23.3191C19.7095 23.4349 19.8057 23.6036 19.8929 23.7455C19.9412 23.8241 19.9861 23.8943 20.0152 23.9428C20.5484 24.833 21.265 25.7355 22.1405 26.5841C22.3913 26.8272 22.6346 27.0753 22.8963 27.3057C23.8719 28.1659 24.9757 28.8689 26.1677 29.3895L26.1784 29.3943C26.3544 29.4701 26.4448 29.5116 26.7025 29.6209C26.8325 29.6759 26.9655 29.7234 27.1019 29.7595C27.1513 29.7724 27.2019 29.7797 27.2527 29.7832C27.5896 29.8034 27.7844 29.5874 27.8675 29.488C29.3748 27.662 29.5127 27.5428 29.5232 27.5436V27.547C29.7213 27.3382 30.0327 27.2657 30.3107 27.2828C30.4375 27.2905 30.5638 27.3149 30.6792 27.3676C31.7871 27.873 33.5986 28.6614 33.5986 28.6614L34.81 29.2059C35.013 29.3039 35.1982 29.5345 35.2071 29.7586C35.2125 29.898 35.2275 30.123 35.1777 30.5347C35.1125 31.0736 34.9486 31.7226 34.7857 32.0626C34.6711 32.3011 34.5227 32.5128 34.3503 32.692C34.1163 32.9349 33.9425 33.0824 33.6613 33.292C33.49 33.4195 33.4013 33.4795 33.4013 33.4795C33.1119 33.662 32.9488 33.7532 32.604 33.9368C32.0678 34.2224 31.4752 34.3866 30.8684 34.4178C30.4815 34.4376 30.0957 34.4655 29.7092 34.4447C29.6921 34.4436 28.5255 34.2645 28.5255 34.2645C25.5632 33.4853 22.8236 32.0257 20.5247 30.0016C20.0547 29.5878 19.6188 29.1401 19.1739 28.6972C17.3217 26.8532 15.9195 24.8649 15.0692 22.9841C14.6499 22.0566 14.3844 21.0632 14.3802 20.0411C14.3725 18.7767 14.7865 17.5457 15.5567 16.5429C15.7085 16.3453 15.8526 16.1402 16.1013 15.9054C16.3646 15.6568 16.5322 15.5233 16.7127 15.431C16.9533 15.3079 17.2176 15.242 17.4872 15.2231Z" fill="#009834"/>
</svg>
