<svg width="30" height="20" viewBox="0 0 30 20" fill="none" xmlns="http://www.w3.org/2000/svg">
<path d="M3.21646 13.0201C3.21646 14.1544 3.46543 15.0252 3.79084 15.5521C4.21749 16.2422 4.85385 16.5345 5.5026 16.5345C6.33937 16.5345 7.10486 16.3269 8.58005 14.2866C9.76186 12.6513 11.1544 10.3559 12.0914 8.91683L13.6782 6.47883C14.7804 4.78567 16.0562 2.90345 17.519 1.62763C18.7132 0.58632 20.0014 0.0078125 21.2979 0.0078125C23.4746 0.0078125 25.5479 1.26917 27.1346 3.63485C28.8712 6.22574 29.7142 9.48914 29.7142 12.8569C29.7142 14.8589 29.3195 16.33 28.6481 17.4922C27.9993 18.6161 26.7349 19.7391 24.6078 19.7391V16.5345C26.4291 16.5345 26.8836 14.861 26.8836 12.9457C26.8836 10.2164 26.2473 7.1875 24.8454 5.02327C23.8506 3.48816 22.5613 2.55015 21.143 2.55015C19.6089 2.55015 18.3744 3.70716 16.987 5.77016C16.2494 6.86623 15.4922 8.20196 14.642 9.70918L13.706 11.3672C11.8259 14.7009 11.3497 15.4602 10.4096 16.7133C8.76187 18.9074 7.35486 19.7391 5.5026 19.7391C3.30531 19.7391 1.91585 18.7876 1.05532 17.3537C0.352851 16.1854 0.0078125 14.6523 0.0078125 12.9054L3.21646 13.0201Z" fill="white"/>
<path d="M2.53906 3.86109C4.01012 1.59354 6.13304 0.0078125 8.56794 0.0078125C9.97805 0.0078125 11.3799 0.425164 12.8437 1.6204C14.445 2.92721 16.1516 5.07905 18.2807 8.62551L19.0441 9.89822C20.8871 12.9684 21.9356 14.548 22.5492 15.2928C23.3385 16.2494 23.8912 16.5345 24.6091 16.5345C26.4304 16.5345 26.8849 14.861 26.8849 12.9457L29.7155 12.8569C29.7155 14.8589 29.3209 16.33 28.6494 17.4922C28.0006 18.6161 26.7362 19.7391 24.6091 19.7391C23.2868 19.7391 22.1153 19.4519 20.8199 18.2298C19.824 17.2918 18.6598 15.6254 17.7641 14.1275L15.0999 9.67715C13.7631 7.4437 12.5369 5.77843 11.8272 5.0243C11.0638 4.21336 10.0824 3.23403 8.51629 3.23403C7.24873 3.23403 6.1723 4.12348 5.27148 5.48401L2.53906 3.86109Z" fill="url(#paint0_linear_4137_5828)"/>
<path d="M8.51497 3.23403C7.24742 3.23403 6.17098 4.12348 5.27016 5.48401C3.99642 7.40651 3.21646 10.2701 3.21646 13.0201C3.21646 14.1544 3.46543 15.0252 3.79084 15.5521L1.05532 17.3537C0.352851 16.1854 0.0078125 14.6523 0.0078125 12.9054C0.0078125 9.72881 0.879706 6.41788 2.53775 3.86109C4.00881 1.59354 6.13173 0.0078125 8.56662 0.0078125L8.51497 3.23403Z" fill="url(#paint1_linear_4137_5828)"/>
<defs>
<linearGradient id="paint0_linear_4137_5828" x1="6.31073" y1="12.0945" x2="26.7651" y2="13.1275" gradientUnits="userSpaceOnUse">
<stop stop-color="white"/>
<stop offset="0.4" stop-color="white"/>
<stop offset="0.83" stop-color="white"/>
<stop offset="1" stop-color="white"/>
</linearGradient>
<linearGradient id="paint1_linear_4137_5828" x1="4.65653" y1="14.3672" x2="4.65653" y2="6.82594" gradientUnits="userSpaceOnUse">
<stop stop-color="white"/>
<stop offset="1" stop-color="white"/>
</linearGradient>
</defs>
</svg>
