<svg width="31" height="20" viewBox="0 0 31 20" fill="none" xmlns="http://www.w3.org/2000/svg">
<path d="M27.2209 13.0207C27.2209 14.155 26.9719 15.0259 26.6465 15.5528C26.2198 16.2429 25.5834 16.5353 24.9347 16.5353C24.0979 16.5353 23.3323 16.3276 21.8571 14.2872C20.6752 12.6519 19.2826 10.3563 18.3456 8.91722L16.7587 6.47912C15.6564 4.78588 14.3806 2.90358 12.9177 1.62771C11.7234 0.586346 10.4352 0.0078125 9.13864 0.0078125C6.96191 0.0078125 4.88849 1.26922 3.30165 3.63501C1.56502 6.22601 0.722017 9.48956 0.722017 12.8574C0.722017 14.8596 1.11666 16.3307 1.78817 17.4929C2.43695 18.6169 3.70146 19.7399 5.8286 19.7399V16.5353C4.00726 16.5353 3.5527 14.8616 3.5527 12.9463C3.5527 10.2169 4.18908 7.18782 5.59099 5.02349C6.58586 3.48831 7.87517 2.55026 9.2936 2.55026C10.8277 2.55026 12.0623 3.70732 13.4497 5.77041C14.1874 6.86653 14.9446 8.20232 15.7949 9.70961L16.7309 11.3677C18.6111 14.7015 19.0873 15.4608 20.0275 16.714C21.6752 18.9083 23.0823 19.7399 24.9347 19.7399C27.132 19.7399 28.5216 18.7884 29.3821 17.3545C30.0846 16.1861 30.4297 14.653 30.4297 12.906L27.2209 13.0207Z" fill="white"/>
<path d="M27.8984 3.86126C26.4273 1.59361 24.3043 0.0078125 21.8693 0.0078125C20.4591 0.0078125 19.0572 0.425183 17.5933 1.62047C15.992 2.92734 14.2853 5.07927 12.1561 8.62589L11.3927 9.89866C9.54964 12.969 8.50105 14.5486 7.88739 15.2935C7.09811 16.2501 6.5454 16.5353 5.8274 16.5353C4.00605 16.5353 3.55149 14.8616 3.55149 12.9463L0.720812 12.8574C0.720812 14.8596 1.11546 16.3307 1.78697 17.4929C2.43575 18.6169 3.70026 19.7399 5.8274 19.7399C7.14976 19.7399 8.32129 19.4527 9.61679 18.2306C10.6127 17.2925 11.777 15.6261 12.6727 14.1282L15.337 9.67758C16.6739 7.44403 17.9001 5.77868 18.6099 5.02452C19.3733 4.21354 20.3548 3.23417 21.921 3.23417C23.1886 3.23417 24.265 4.12366 25.1659 5.48425L27.8984 3.86126Z" fill="url(#paint0_linear_4137_6142)"/>
<path d="M21.9222 3.23417C23.1898 3.23417 24.2662 4.12366 25.1671 5.48425C26.4409 7.40684 27.2209 10.2706 27.2209 13.0207C27.2209 14.155 26.9719 15.0259 26.6465 15.5528L29.3821 17.3545C30.0846 16.1861 30.4297 14.653 30.4297 12.906C30.4297 9.72923 29.5578 6.41817 27.8996 3.86126C26.4285 1.59361 24.3055 0.0078125 21.8705 0.0078125L21.9222 3.23417Z" fill="url(#paint1_linear_4137_6142)"/>
<defs>
<linearGradient id="paint0_linear_4137_6142" x1="24.1266" y1="12.095" x2="3.67133" y2="13.1281" gradientUnits="userSpaceOnUse">
<stop stop-color="white"/>
<stop offset="0.4" stop-color="white"/>
<stop offset="0.83" stop-color="white"/>
<stop offset="1" stop-color="white"/>
</linearGradient>
<linearGradient id="paint1_linear_4137_6142" x1="25.7808" y1="14.3678" x2="25.7808" y2="6.82624" gradientUnits="userSpaceOnUse">
<stop stop-color="white"/>
<stop offset="1" stop-color="white"/>
</linearGradient>
</defs>
</svg>
