<svg width="39" height="26" viewBox="0 0 39 26" fill="none" xmlns="http://www.w3.org/2000/svg">
<path d="M4.95623 16.8057C4.95623 18.2291 5.26866 19.322 5.67701 19.9831C6.21242 20.8491 7.01098 21.216 7.82511 21.216C8.87517 21.216 9.83579 20.9554 11.687 18.3951C13.1701 16.3429 14.9176 13.4624 16.0934 11.6565L18.0846 8.59706C19.4679 6.4723 21.0689 4.1103 22.9045 2.50928C24.4032 1.20253 26.0197 0.476562 27.6467 0.476562C30.3782 0.476562 32.98 2.05944 34.9712 5.02814C37.1504 8.27945 38.2083 12.3747 38.2083 16.6009C38.2083 19.1133 37.713 20.9593 36.8704 22.4177C36.0563 23.8282 34.4695 25.2373 31.8003 25.2373V21.216C34.0858 21.216 34.6562 19.1158 34.6562 16.7124C34.6562 13.2873 33.8576 9.48637 32.0984 6.77046C30.85 4.84405 29.2322 3.66694 27.4522 3.66694C25.5271 3.66694 23.9779 5.11888 22.2369 7.70774C21.3113 9.0832 20.3611 10.7594 19.2941 12.6508L18.1196 14.7315C15.7602 18.9149 15.1626 19.8677 13.9829 21.4403C11.9152 24.1938 10.1495 25.2373 7.82511 25.2373C5.06772 25.2373 3.32409 24.0434 2.24421 22.244C1.36268 20.7778 0.929688 18.854 0.929688 16.6618L4.95623 16.8057Z" fill="#67A5FF"/>
<path d="M4.10156 5.31204C5.9476 2.4665 8.61165 0.476562 11.6672 0.476562C13.4368 0.476562 15.1959 1.0003 17.0329 2.5002C19.0423 4.14012 21.1839 6.84047 23.8557 11.2909L24.8138 12.8881C27.1265 16.7409 28.4423 18.723 29.2124 19.6577C30.2028 20.8582 30.8963 21.216 31.7973 21.216C34.0828 21.216 34.6532 19.1158 34.6532 16.7124L38.2053 16.6009C38.2053 19.1133 37.7101 20.9593 36.8675 22.4177C36.0533 23.8282 34.4666 25.2373 31.7973 25.2373C30.138 25.2373 28.6679 24.8769 27.0422 23.3433C25.7925 22.1662 24.3315 20.0752 23.2075 18.1954L19.8642 12.6106C18.1867 9.80787 16.6479 7.71812 15.7573 6.77176C14.7993 5.75411 13.5677 4.52514 11.6024 4.52514C10.0117 4.52514 8.66092 5.64132 7.53048 7.34865L4.10156 5.31204Z" fill="#67A5FF"/>
<path d="M11.6053 4.52514C10.0147 4.52514 8.66386 5.64132 7.53342 7.34865C5.93499 9.7612 4.95623 13.3548 4.95623 16.8057C4.95623 18.2291 5.26866 19.322 5.67701 19.9831L2.24421 22.244C1.36268 20.7778 0.929688 18.854 0.929688 16.6618C0.929688 12.6755 2.02383 8.52057 4.10451 5.31204C5.95055 2.4665 8.6146 0.476562 11.6702 0.476562L11.6053 4.52514Z" fill="#67A5FF"/>
</svg>
