<svg width="232" height="150" viewBox="0 0 232 150" fill="none" xmlns="http://www.w3.org/2000/svg">
<g filter="url(#filter0_d_4056_24485)">
<rect x="30" y="120" width="90" height="172" rx="4" transform="rotate(-90 30 120)" fill="white"/>
<path fill-rule="evenodd" clip-rule="evenodd" d="M147.33 79.5987C150.235 79.5987 152.597 77.2832 152.597 74.4371C152.597 71.5909 150.235 69.2754 147.33 69.2754C144.426 69.2754 142.063 71.5909 142.063 74.4371C142.063 77.2832 144.426 79.5987 147.33 79.5987ZM152.597 61.6094H152.74H155.093V82.0616H152.597V80.0195C151.157 81.3275 149.3 82.0441 147.33 82.0441C143.051 82.0441 139.568 78.6315 139.568 74.4371C139.568 70.2424 143.051 66.83 147.33 66.83C149.3 66.83 151.157 67.5465 152.597 68.8546V61.6094ZM95.5826 79.5086C98.4867 79.5086 100.849 77.1932 100.849 74.347C100.849 71.5009 98.4867 69.1854 95.5826 69.1854C92.6783 69.1854 90.3155 71.5009 90.3155 74.347C90.3155 77.1932 92.6783 79.5086 95.5826 79.5086ZM90.3155 68.7648C91.7556 67.4566 93.6129 66.74 95.5826 66.74C99.8626 66.74 103.345 70.1525 103.345 74.347C103.345 78.5415 99.8626 81.954 95.5826 81.954C93.6129 81.954 91.7556 81.2376 90.3155 79.9293V87.1746H87.8203V66.7224H90.3155V68.7648ZM108.106 73.1593C108.667 70.8478 110.76 69.188 113.147 69.188C115.502 69.188 117.475 70.8123 118.001 73.1593H108.106ZM113.147 66.7224C108.931 66.7224 105.501 70.1631 105.501 74.392C105.501 78.621 108.931 82.0616 113.147 82.0616C115.507 82.0616 117.674 81.1749 119.092 79.629L119.829 78.8254L119.924 78.7217L119.821 78.6261L118.219 77.1482L118.116 77.0526L118.02 77.1564L117.283 77.9601C116.344 78.9844 114.797 79.5961 113.147 79.5961C110.76 79.5961 108.667 77.9364 108.106 75.6247H120.594V74.392C120.594 70.0913 117.323 66.7224 113.147 66.7224ZM169.847 74.392C169.847 77.2615 167.484 79.5961 164.58 79.5961C161.676 79.5961 159.313 77.2615 159.313 74.392C159.313 71.5224 161.676 69.1879 164.58 69.1879C167.484 69.1879 169.847 71.5224 169.847 74.392ZM164.58 66.7224C160.3 66.7224 156.818 70.163 156.818 74.392C156.818 78.621 160.3 82.0616 164.58 82.0616C168.86 82.0616 172.342 78.621 172.342 74.392C172.342 70.163 168.86 66.7224 164.58 66.7224ZM129.865 66.7224C128.131 66.7224 126.48 67.3827 125.179 68.5886V66.7224H122.75V82.0616H125.179V74.2337C125.179 71.441 127.282 69.1687 129.865 69.1687C132.449 69.1687 134.552 71.441 134.552 74.2337V82.0616H136.981V74.2337C136.981 70.092 133.789 66.7224 129.865 66.7224Z" fill="#1A2022"/>
<path fill-rule="evenodd" clip-rule="evenodd" d="M59.6484 76.2204H71.3875V87.6987L83.1267 76.2204V64.7422H71.3875L59.6484 76.2204Z" fill="#FF4876"/>
</g>
<defs>
<filter id="filter0_d_4056_24485" x="0" y="0" width="232" height="150" filterUnits="userSpaceOnUse" color-interpolation-filters="sRGB">
<feFlood flood-opacity="0" result="BackgroundImageFix"/>
<feColorMatrix in="SourceAlpha" type="matrix" values="0 0 0 0 0 0 0 0 0 0 0 0 0 0 0 0 0 0 127 0" result="hardAlpha"/>
<feOffset/>
<feGaussianBlur stdDeviation="15"/>
<feColorMatrix type="matrix" values="0 0 0 0 0 0 0 0 0 0 0 0 0 0 0 0 0 0 0.16 0"/>
<feBlend mode="normal" in2="BackgroundImageFix" result="effect1_dropShadow_4056_24485"/>
<feBlend mode="normal" in="SourceGraphic" in2="effect1_dropShadow_4056_24485" result="shape"/>
</filter>
</defs>
</svg>
