<svg width="1920" height="305" viewBox="0 0 1920 305" fill="none" xmlns="http://www.w3.org/2000/svg">
<path d="M1768.5 108L1864.2 228.75H1672.8L1768.5 108Z" fill="url(#paint0_linear_4056_24251)"/>
<path d="M1296.5 66L1451.95 228.75H1141.05L1296.5 66Z" fill="url(#paint1_linear_4056_24251)"/>
<rect y="224" width="1920" height="53" fill="url(#paint2_linear_4056_24251)"/>
<path d="M1293.14 228.25L1543 0.676325L1792.86 228.25H1293.14Z" fill="url(#paint3_linear_4056_24251)" stroke="#EAEAEA"/>
<path d="M1553.42 42.5776C1549.32 38.4771 1542.68 38.4771 1538.58 42.5776L1471.75 109.399C1467.65 113.5 1467.65 120.148 1471.75 124.248C1475.85 128.349 1482.5 128.349 1486.6 124.248L1546 64.8515L1605.4 124.248C1609.5 128.349 1616.15 128.349 1620.25 124.248C1624.35 120.148 1624.35 113.5 1620.25 109.399L1553.42 42.5776ZM1556.5 180.141V50.0022H1535.5V180.141H1556.5Z" fill="#B7BAC9"/>
<path d="M1550.42 40.5776C1546.32 36.4771 1539.68 36.4771 1535.58 40.5776L1468.75 107.399C1464.65 111.5 1464.65 118.148 1468.75 122.248C1472.85 126.349 1479.5 126.349 1483.6 122.248L1543 62.8515L1602.4 122.248C1606.5 126.349 1613.15 126.349 1617.25 122.248C1621.35 118.148 1621.35 111.5 1617.25 107.399L1550.42 40.5776ZM1553.5 178.141V48.0022H1532.5V178.141H1553.5Z" fill="#00BE9C"/>
<path d="M1606.53 183.241C1607.89 181.874 1610.11 181.874 1611.47 183.241L1633.75 205.514C1635.12 206.881 1635.12 209.097 1633.75 210.464C1632.38 211.831 1630.17 211.831 1628.8 210.464L1609 190.665L1589.2 210.464C1587.83 211.831 1585.62 211.831 1584.25 210.464C1582.88 209.097 1582.88 206.881 1584.25 205.514L1606.53 183.241ZM1605.5 229.094V185.716H1612.5V229.094H1605.5Z" fill="#B7BAC9"/>
<path d="M1607.53 182.569C1608.89 181.202 1611.11 181.202 1612.47 182.569L1634.75 204.842C1636.12 206.209 1636.12 208.425 1634.75 209.792C1633.38 211.159 1631.17 211.159 1629.8 209.792L1610 189.993L1590.2 209.792C1588.83 211.159 1586.62 211.159 1585.25 209.792C1583.88 208.425 1583.88 206.209 1585.25 204.842L1607.53 182.569ZM1606.5 228.422V185.044H1613.5V228.422H1606.5Z" fill="#00BE9C"/>
<path d="M1452.53 143.249C1453.89 141.882 1456.11 141.882 1457.47 143.249L1479.75 165.522C1481.12 166.889 1481.12 169.105 1479.75 170.472C1478.38 171.839 1476.17 171.839 1474.8 170.472L1455 150.673L1435.2 170.472C1433.83 171.839 1431.62 171.839 1430.25 170.472C1428.88 169.105 1428.88 166.889 1430.25 165.522L1452.53 143.249ZM1451.5 189.102V145.723H1458.5V189.102H1451.5Z" fill="#B7BAC9"/>
<path d="M1453.53 142.577C1454.89 141.21 1457.11 141.21 1458.47 142.577L1480.75 164.85C1482.12 166.217 1482.12 168.433 1480.75 169.8C1479.38 171.167 1477.17 171.167 1475.8 169.8L1456 150.001L1436.2 169.8C1434.83 171.167 1432.62 171.167 1431.25 169.8C1429.88 168.433 1429.88 166.217 1431.25 164.85L1453.53 142.577ZM1452.5 188.43V145.052H1459.5V188.43H1452.5Z" fill="#00BE9C"/>
<defs>
<linearGradient id="paint0_linear_4056_24251" x1="1764.13" y1="248.812" x2="1777.35" y2="52.0631" gradientUnits="userSpaceOnUse">
<stop stop-color="#02203D"/>
<stop offset="1" stop-color="#04121C"/>
</linearGradient>
<linearGradient id="paint1_linear_4056_24251" x1="1289.39" y1="255.79" x2="1304.2" y2="-9.76521" gradientUnits="userSpaceOnUse">
<stop stop-color="#02203D"/>
<stop offset="1" stop-color="#04121C"/>
</linearGradient>
<linearGradient id="paint2_linear_4056_24251" x1="922" y1="270.354" x2="922.166" y2="205.294" gradientUnits="userSpaceOnUse">
<stop stop-color="#02203D"/>
<stop offset="1" stop-color="#04121C"/>
</linearGradient>
<linearGradient id="paint3_linear_4056_24251" x1="1531.52" y1="266.756" x2="1549.64" y2="-106.772" gradientUnits="userSpaceOnUse">
<stop stop-color="#02203D"/>
<stop offset="1" stop-color="#04121C"/>
</linearGradient>
</defs>
</svg>
