<svg width="31" height="31" viewBox="0 0 31 31" fill="none" xmlns="http://www.w3.org/2000/svg">
<path d="M23.5739 30.0261L7.03594 30.0418C3.39759 30.0451 0.418286 27.0716 0.414151 23.4333L0.39844 6.89532C0.395133 3.25697 3.36865 0.277661 7.007 0.273526L23.5449 0.257815C27.1833 0.254508 30.1626 3.22803 30.1667 6.86637L30.1824 23.4043C30.1866 27.0435 27.2122 30.0228 23.5739 30.0261Z" fill="url(#paint0_radial_4079_28908)"/>
<path d="M23.573 29.1407H23.5731C26.7225 29.1378 29.3006 26.5553 29.297 23.4053V23.4052L29.2813 6.86738C29.2813 6.86733 29.2813 6.86727 29.2813 6.86722C29.2776 3.71783 26.6951 1.14039 23.5458 1.14323L23.573 29.1407ZM23.573 29.1407L7.03514 29.1564C7.03512 29.1564 7.03511 29.1564 7.0351 29.1564C3.8858 29.1592 1.30324 26.5818 1.29957 23.4324C1.29957 23.4324 1.29957 23.4323 1.29957 23.4322L1.28386 6.89451L23.573 29.1407ZM7.00801 1.15894L23.5457 1.14323L1.28386 6.89447C1.28101 3.74518 3.85845 1.16261 7.00784 1.15894C7.0079 1.15894 7.00795 1.15894 7.00801 1.15894Z" stroke="white" stroke-opacity="0.8" stroke-width="1.77083"/>
<path d="M23.5739 30.0261L7.03594 30.0418C3.39759 30.0451 0.418286 27.0716 0.414151 23.4333L0.39844 6.89532C0.395133 3.25697 3.36865 0.277661 7.007 0.273526L23.5449 0.257815C27.1833 0.254508 30.1626 3.22803 30.1667 6.86637L30.1824 23.4043C30.1866 27.0435 27.2122 30.0228 23.5739 30.0261Z" fill="url(#paint1_radial_4079_28908)"/>
<path d="M23.573 29.1407H23.5731C26.7225 29.1378 29.3006 26.5553 29.297 23.4053V23.4052L29.2813 6.86738C29.2813 6.86733 29.2813 6.86727 29.2813 6.86722C29.2776 3.71783 26.6951 1.14039 23.5458 1.14323L23.573 29.1407ZM23.573 29.1407L7.03514 29.1564C7.03512 29.1564 7.03511 29.1564 7.0351 29.1564C3.8858 29.1592 1.30324 26.5818 1.29957 23.4324C1.29957 23.4324 1.29957 23.4323 1.29957 23.4322L1.28386 6.89451L23.573 29.1407ZM7.00801 1.15894L23.5457 1.14323L1.28386 6.89447C1.28101 3.74518 3.85845 1.16261 7.00784 1.15894C7.0079 1.15894 7.00795 1.15894 7.00801 1.15894Z" stroke="white" stroke-opacity="0.8" stroke-width="1.77083"/>
<mask id="path-5-inside-1_4079_28908" fill="white">
<path d="M15.2883 20.9359C12.0973 20.9359 9.5 18.3395 9.5 15.1477C9.5 11.9558 12.0973 9.35938 15.2883 9.35938C18.4793 9.35938 21.0766 11.9558 21.0766 15.1477C21.0766 18.3395 18.4793 20.9359 15.2883 20.9359ZM15.2883 11.0132C13.0085 11.0132 11.1538 12.8679 11.1538 15.1477C11.1538 17.4274 13.0085 19.2821 15.2883 19.2821C17.568 19.2821 19.4228 17.4274 19.4228 15.1477C19.4228 12.8679 17.568 11.0132 15.2883 11.0132Z"/>
</mask>
<path d="M15.2883 20.9359C12.0973 20.9359 9.5 18.3395 9.5 15.1477C9.5 11.9558 12.0973 9.35938 15.2883 9.35938C18.4793 9.35938 21.0766 11.9558 21.0766 15.1477C21.0766 18.3395 18.4793 20.9359 15.2883 20.9359ZM15.2883 11.0132C13.0085 11.0132 11.1538 12.8679 11.1538 15.1477C11.1538 17.4274 13.0085 19.2821 15.2883 19.2821C17.568 19.2821 19.4228 17.4274 19.4228 15.1477C19.4228 12.8679 17.568 11.0132 15.2883 11.0132Z" fill="white"/>
<path d="M15.2883 19.1651C13.0751 19.1651 11.2708 17.3613 11.2708 15.1477H7.72917C7.72917 19.3176 11.1194 22.7068 15.2883 22.7068V19.1651ZM11.2708 15.1477C11.2708 12.934 13.0751 11.1302 15.2883 11.1302V7.58854C11.1194 7.58854 7.72917 10.9777 7.72917 15.1477H11.2708ZM15.2883 11.1302C17.5014 11.1302 19.3057 12.934 19.3057 15.1477H22.8474C22.8474 10.9777 19.4571 7.58854 15.2883 7.58854V11.1302ZM19.3057 15.1477C19.3057 17.3613 17.5014 19.1651 15.2883 19.1651V22.7068C19.4571 22.7068 22.8474 19.3176 22.8474 15.1477H19.3057ZM15.2883 9.24234C12.0305 9.24234 9.38296 11.8899 9.38296 15.1477H12.9246C12.9246 13.8459 13.9865 12.784 15.2883 12.784V9.24234ZM9.38296 15.1477C9.38296 18.4054 12.0305 21.053 15.2883 21.053V17.5113C13.9865 17.5113 12.9246 16.4494 12.9246 15.1477H9.38296ZM15.2883 21.053C18.546 21.053 21.1936 18.4054 21.1936 15.1477H17.6519C17.6519 16.4494 16.59 17.5113 15.2883 17.5113V21.053ZM21.1936 15.1477C21.1936 11.8899 18.546 9.24234 15.2883 9.24234V12.784C16.59 12.784 17.6519 13.8459 17.6519 15.1477H21.1936Z" fill="white" fill-opacity="0.8" mask="url(#path-5-inside-1_4079_28908)"/>
<path d="M21.4903 10.1916C22.1754 10.1916 22.7307 9.63631 22.7307 8.95128C22.7307 8.26626 22.1754 7.71094 21.4903 7.71094C20.8053 7.71094 20.25 8.26626 20.25 8.95128C20.25 9.63631 20.8053 10.1916 21.4903 10.1916Z" fill="white"/>
<path d="M21.8453 8.95128C21.8453 9.1473 21.6864 9.30621 21.4903 9.30621C21.2943 9.30621 21.1354 9.1473 21.1354 8.95128C21.1354 8.75526 21.2943 8.59635 21.4903 8.59635C21.6864 8.59635 21.8453 8.75526 21.8453 8.95128Z" stroke="white" stroke-opacity="0.8" stroke-width="1.77083"/>
<mask id="path-9-inside-2_4079_28908" fill="white">
<path d="M20.2501 25.8978H10.3273C7.13635 25.8978 4.53906 23.3013 4.53906 20.1095V10.1867C4.53906 6.99489 7.13635 4.39844 10.3273 4.39844H20.2501C23.4411 4.39844 26.0384 6.99489 26.0384 10.1867V20.1095C26.0384 23.3013 23.4411 25.8978 20.2501 25.8978ZM10.3273 6.05223C8.04759 6.05223 6.19286 7.90696 6.19286 10.1867V20.1095C6.19286 22.3892 8.04759 24.244 10.3273 24.244H20.2501C22.5299 24.244 24.3846 22.3892 24.3846 20.1095V10.1867C24.3846 7.90696 22.5299 6.05223 20.2501 6.05223H10.3273Z"/>
</mask>
<path d="M20.2501 25.8978H10.3273C7.13635 25.8978 4.53906 23.3013 4.53906 20.1095V10.1867C4.53906 6.99489 7.13635 4.39844 10.3273 4.39844H20.2501C23.4411 4.39844 26.0384 6.99489 26.0384 10.1867V20.1095C26.0384 23.3013 23.4411 25.8978 20.2501 25.8978ZM10.3273 6.05223C8.04759 6.05223 6.19286 7.90696 6.19286 10.1867V20.1095C6.19286 22.3892 8.04759 24.244 10.3273 24.244H20.2501C22.5299 24.244 24.3846 22.3892 24.3846 20.1095V10.1867C24.3846 7.90696 22.5299 6.05223 20.2501 6.05223H10.3273Z" fill="white"/>
<path d="M20.2501 24.1269H10.3273V27.6686H20.2501V24.1269ZM10.3273 24.1269C8.11418 24.1269 6.3099 22.3231 6.3099 20.1095H2.76823C2.76823 24.2795 6.15851 27.6686 10.3273 27.6686V24.1269ZM6.3099 20.1095V10.1867H2.76823V20.1095H6.3099ZM6.3099 10.1867C6.3099 7.97306 8.11418 6.16927 10.3273 6.16927V2.6276C6.15851 2.6276 2.76823 6.01672 2.76823 10.1867H6.3099ZM10.3273 6.16927H20.2501V2.6276H10.3273V6.16927ZM20.2501 6.16927C22.4633 6.16927 24.2675 7.97306 24.2675 10.1867H27.8092C27.8092 6.01672 24.4189 2.6276 20.2501 2.6276V6.16927ZM24.2675 10.1867V20.1095H27.8092V10.1867H24.2675ZM24.2675 20.1095C24.2675 22.3231 22.4633 24.1269 20.2501 24.1269V27.6686C24.4189 27.6686 27.8092 24.2795 27.8092 20.1095H24.2675ZM10.3273 4.2814C7.06958 4.2814 4.42202 6.92896 4.42202 10.1867H7.96369C7.96369 8.88496 9.02559 7.82306 10.3273 7.82306V4.2814ZM4.42202 10.1867V20.1095H7.96369V10.1867H4.42202ZM4.42202 20.1095C4.42202 23.3672 7.06958 26.0148 10.3273 26.0148V22.4731C9.02559 22.4731 7.96369 21.4112 7.96369 20.1095H4.42202ZM10.3273 26.0148H20.2501V22.4731H10.3273V26.0148ZM20.2501 26.0148C23.5079 26.0148 26.1554 23.3672 26.1554 20.1095H22.6138C22.6138 21.4112 21.5518 22.4731 20.2501 22.4731V26.0148ZM26.1554 20.1095V10.1867H22.6138V20.1095H26.1554ZM26.1554 10.1867C26.1554 6.92896 23.5079 4.2814 20.2501 4.2814V7.82306C21.5518 7.82306 22.6138 8.88496 22.6138 10.1867H26.1554ZM20.2501 4.2814H10.3273V7.82306H20.2501V4.2814Z" fill="white" fill-opacity="0.8" mask="url(#path-9-inside-2_4079_28908)"/>
<defs>
<radialGradient id="paint0_radial_4079_28908" cx="0" cy="0" r="1" gradientUnits="userSpaceOnUse" gradientTransform="translate(11.4706 30.0633) scale(37.1268 37.1268)">
<stop stop-color="#FFDD55"/>
<stop offset="0.328" stop-color="#FF543F"/>
<stop offset="0.348" stop-color="#FC5245"/>
<stop offset="0.504" stop-color="#E64771"/>
<stop offset="0.643" stop-color="#D53E91"/>
<stop offset="0.761" stop-color="#CC39A4"/>
<stop offset="0.841" stop-color="#C837AB"/>
</radialGradient>
<radialGradient id="paint1_radial_4079_28908" cx="0" cy="0" r="1" gradientUnits="userSpaceOnUse" gradientTransform="translate(5.19113 -0.114038) scale(24.6523 16.4258)">
<stop stop-color="#4168C9"/>
<stop offset="0.999" stop-color="#4168C9" stop-opacity="0"/>
</radialGradient>
</defs>
</svg>
