<svg width="130" height="130" viewBox="0 0 130 130" fill="none" xmlns="http://www.w3.org/2000/svg">
<path d="M118.261 24.5489L112.866 24.2755C98.2343 23.5247 85.5511 18.3366 78.0632 10.0316L68.9999 0L59.9344 10.0316C52.4467 18.3366 39.7608 23.5247 25.1317 24.2755L14 24.8442V72.3485C14 79.105 16.2152 85.475 19.7389 91.3006C31.905 111.573 59.5902 125.45 63.5301 127.36L68.9999 130L74.4675 127.36C79.5401 124.903 124 102.563 124 72.3485V24.8442L118.261 24.5489ZM25.7719 66.2964C25.7719 54.534 25.7719 35.1488 25.7719 35.1488C43.4557 34.24 59.1721 27.8926 69.0001 16.9945V66.2964H112.224V72.3485C112.224 96.8508 69.0001 117.713 69.0001 117.713V66.2964H25.7719Z" fill="#290293"/>
</svg>
