<svg width="64" height="64" viewBox="0 0 64 64" fill="none" xmlns="http://www.w3.org/2000/svg">
<g filter="url(#filter0_d_4137_6197)">
<rect width="60" height="60" rx="30" transform="matrix(-1 0 0 1 62 2)" fill="white" fill-opacity="0.8" shape-rendering="crispEdges"/>
<path d="M31.1922 34.125C30.0206 32.9534 30.0206 31.0539 31.1922 29.8824L39.6775 21.397C40.6539 20.4207 40.6538 18.8378 39.6775 17.8615C38.7012 16.8852 37.1183 16.8852 36.142 17.8615L24.1212 29.8824C22.9496 31.0539 22.9496 32.9534 24.1212 34.125L36.142 46.1457C37.1183 47.122 38.7012 47.122 39.6775 46.1457C40.6538 45.1694 40.6538 43.5865 39.6775 42.6102L31.1922 34.125Z" fill="black"/>
</g>
<defs>
<filter id="filter0_d_4137_6197" x="0" y="0" width="64" height="64" filterUnits="userSpaceOnUse" color-interpolation-filters="sRGB">
<feFlood flood-opacity="0" result="BackgroundImageFix"/>
<feColorMatrix in="SourceAlpha" type="matrix" values="0 0 0 0 0 0 0 0 0 0 0 0 0 0 0 0 0 0 127 0" result="hardAlpha"/>
<feOffset/>
<feGaussianBlur stdDeviation="1"/>
<feComposite in2="hardAlpha" operator="out"/>
<feColorMatrix type="matrix" values="0 0 0 0 0 0 0 0 0 0 0 0 0 0 0 0 0 0 0.25 0"/>
<feBlend mode="normal" in2="BackgroundImageFix" result="effect1_dropShadow_4137_6197"/>
<feBlend mode="normal" in="SourceGraphic" in2="effect1_dropShadow_4137_6197" result="shape"/>
</filter>
</defs>
</svg>
