<svg width="133" height="37" viewBox="0 0 133 37" fill="none" xmlns="http://www.w3.org/2000/svg">
<path d="M53.6201 20.673L60.2739 28.8557H55.0197L49.0981 21.3405V28.8557H44.7914V7.32231H49.0981V19.9839L54.5675 13.7823H60.0586L53.6201 20.673ZM36.3933 13.3517C34.4792 13.3803 32.7009 14.3459 31.6345 15.9357V13.7823H27.5647V28.8557H31.8713V21.8143C31.757 20.7812 32.077 19.747 32.7548 18.9589C33.4326 18.1709 34.4073 17.6998 35.4459 17.6583C37.9437 17.6583 38.3313 20.1131 38.3313 21.8143V28.8557H42.638V20.8668C42.638 16.1295 41.0661 13.3517 36.4795 13.3517H36.3933ZM74.9381 21.6635C74.9546 21.9792 74.9546 22.2954 74.9381 22.611H63.6331V22.7618C64.0121 24.6167 65.6822 25.9217 67.5737 25.841C69.0415 25.9048 70.472 25.3684 71.5359 24.3552L74.3998 26.5086C72.5643 28.3817 70.0219 29.3908 67.4014 29.2864C65.2301 29.4237 63.1058 28.6132 61.5777 27.0644C60.0496 25.5157 59.2677 23.3807 59.4341 21.2113C59.3895 19.0718 60.2363 17.01 61.7718 15.5194C63.3073 14.0288 65.3934 13.2436 67.5306 13.3517C71.5789 13.3517 74.9381 16.2156 74.9381 21.6635ZM70.9329 19.8117C70.9009 18.9497 70.5162 18.1387 69.8688 17.5686C69.2214 16.9986 68.3682 16.7196 67.5091 16.797C65.6156 16.5923 63.9008 17.926 63.6331 19.8117H70.9329ZM10.3379 7.32231H6.03125V28.8557H18.9513V24.549H10.3379V7.32231ZM87.8582 7.32231H92.1649V28.8557H88.095V27.3484C87.0471 28.6395 85.4497 29.3583 83.7884 29.2864C81.7654 29.2344 79.8535 28.3499 78.5043 26.8417C77.155 25.3335 76.488 23.3353 76.6608 21.319C76.4552 19.2991 77.1078 17.2857 78.4592 15.7704C79.8107 14.2552 81.7366 13.3775 83.7668 13.3517C85.2775 13.2855 86.7515 13.8286 87.8582 14.859V7.32231ZM88.1812 21.319C88.3182 20.3129 88.0129 19.2968 87.344 18.5329C86.675 17.7691 85.7081 17.3323 84.6928 17.3353C82.6327 17.4849 81.0718 19.2565 81.1828 21.319C81.0718 23.3815 82.6327 25.1531 84.6928 25.3027C85.7081 25.3058 86.675 24.869 87.344 24.1051C88.0129 23.3412 88.3182 22.3251 88.1812 21.319ZM23.258 6.89164C21.8212 6.91209 20.6453 8.04093 20.5663 9.47565C20.5663 10.9622 21.7714 12.1673 23.258 12.1673C24.7445 12.1673 25.9496 10.9622 25.9496 9.47565C25.8706 8.04093 24.6947 6.91209 23.258 6.89164ZM21.1046 28.8557H25.4113V13.7823H21.1046V28.8557ZM126.618 5.16897V31.009C126.618 32.1983 125.654 33.1624 124.465 33.1624H98.6249C97.4356 33.1624 96.4715 32.1983 96.4715 31.009V5.16897C96.4715 3.97971 97.4356 3.01562 98.6249 3.01562H124.465C125.654 3.01562 126.618 3.97971 126.618 5.16897ZM105.085 13.7823H100.778V28.8557H105.085V13.7823ZM105.623 9.47565C105.623 7.98907 104.418 6.78397 102.932 6.78397C101.445 6.78397 100.24 7.98907 100.24 9.47565C100.24 10.9622 101.445 12.1673 102.932 12.1673C104.418 12.1673 105.623 10.9622 105.623 9.47565ZM122.312 20.8668C122.312 16.1295 120.74 13.3517 116.153 13.3517C114.208 13.3519 112.392 14.3208 111.308 15.9357V13.7823H107.238V28.8557H111.545V21.8143C111.431 20.7812 111.751 19.747 112.428 18.9589C113.106 18.1709 114.081 17.6998 115.119 17.6583C117.617 17.6583 118.005 20.1131 118.005 21.8143V28.8557H122.312V20.8668Z" fill="#4A84D8"/>
</svg>
