<svg width="36" height="37" viewBox="0 0 36 37" fill="none" xmlns="http://www.w3.org/2000/svg">
<g filter="url(#filter0_d_4079_28906)">
<rect x="0.984375" y="1.70312" width="34" height="34" rx="17" fill="#3374B2"/>
<rect x="1.40938" y="2.12813" width="33.15" height="33.15" rx="16.575" stroke="white" stroke-opacity="0.8" stroke-width="0.85"/>
<path d="M11.9445 11.4302C11.9441 12.2761 11.4309 13.0374 10.6468 13.3549C9.86276 13.6725 8.96445 13.483 8.37546 12.8758C7.78647 12.2686 7.62443 11.365 7.96574 10.5909C8.30706 9.81693 9.08357 9.32712 9.92912 9.3525C11.0522 9.38621 11.945 10.3066 11.9445 11.4302ZM12.0068 15.0453H7.85144V28.0516H12.0068V15.0453ZM18.5723 15.0453H14.4377V28.0516H18.5307V21.2264C18.5307 17.4242 23.486 17.071 23.486 21.2264V28.0516H27.5894V19.8136C27.5894 13.404 20.2552 13.6429 18.5307 16.7906L18.5723 15.0453Z" fill="white"/>
</g>
<defs>
<filter id="filter0_d_4079_28906" x="0.134375" y="0.853125" width="35.7" height="35.7" filterUnits="userSpaceOnUse" color-interpolation-filters="sRGB">
<feFlood flood-opacity="0" result="BackgroundImageFix"/>
<feColorMatrix in="SourceAlpha" type="matrix" values="0 0 0 0 0 0 0 0 0 0 0 0 0 0 0 0 0 0 127 0" result="hardAlpha"/>
<feOffset/>
<feGaussianBlur stdDeviation="0.425"/>
<feComposite in2="hardAlpha" operator="out"/>
<feColorMatrix type="matrix" values="0 0 0 0 0 0 0 0 0 0 0 0 0 0 0 0 0 0 0.25 0"/>
<feBlend mode="normal" in2="BackgroundImageFix" result="effect1_dropShadow_4079_28906"/>
<feBlend mode="normal" in="SourceGraphic" in2="effect1_dropShadow_4079_28906" result="shape"/>
</filter>
</defs>
</svg>
