<svg width="128" height="20" viewBox="0 0 128 20" fill="none" xmlns="http://www.w3.org/2000/svg">
<path d="M72.3606 12.2591H64.2903L68.5576 5.39374L76.3895 17.8066H79.9539L70.4277 2.89611C70.0135 2.29366 69.3233 1.92969 68.5576 1.92969C67.8171 1.92969 67.1269 2.28111 66.7252 2.871L57.1614 17.8066H60.7258L62.4077 15.0329H70.5784L72.3606 12.2591ZM35.3352 15.0329V2.0803H38.36V16.3005C38.36 16.6896 38.2094 17.0661 37.9207 17.3548C37.6321 17.6435 37.243 17.8066 36.8163 17.8066H23.0227L21.2405 15.0329H35.3352ZM85.3759 12.711C82.439 12.711 80.0543 10.3388 80.0543 7.4019C80.0543 4.46498 82.439 2.0803 85.3759 2.0803H98.6084V17.8066H95.5849V4.85406H85.5768C84.171 4.85406 83.0414 5.99619 83.0414 7.4019C83.0414 8.80761 84.171 9.94975 85.5768 9.94975L94.1038 9.93719L85.0747 17.8066H80.6818L86.7565 12.711H85.3759ZM117.221 17.8066C121.563 17.8066 125.086 14.2924 125.086 9.94975C125.086 5.60711 121.563 2.0803 117.221 2.0803H108.081C103.738 2.0803 100.217 5.60711 100.217 9.94975C100.217 14.2924 103.738 17.8066 108.081 17.8066H117.221ZM108.284 15.0329C105.471 15.0329 103.193 12.7612 103.193 9.94975C103.193 7.13833 105.471 4.85406 108.284 4.85406H117.019C119.831 4.85406 122.11 7.13833 122.11 9.94975C122.11 12.7612 119.831 15.0329 117.019 15.0329H108.284ZM50.8483 17.8066C55.1909 17.8066 58.7177 14.2924 58.7177 9.94975C58.7177 5.60711 55.1909 2.0803 50.8483 2.0803H39.9917L41.7614 4.85406H50.6474C53.4589 4.85406 55.7431 7.13833 55.7431 9.94975C55.7431 12.7612 53.4589 15.0329 50.6474 15.0329H39.7407L41.5229 17.8066H50.8483ZM13.8606 15.0329C16.1825 15.0329 18.153 13.4766 18.7555 11.3303H5.82796L4.04575 8.55659H18.7555C18.153 6.42293 16.1825 4.85406 13.8606 4.85406H4.98703L3.19226 2.0803H14.0614C18.404 2.0803 21.9308 5.60711 21.9308 9.94975C21.9308 14.2924 18.404 17.8066 14.0614 17.8066H4.73602L2.95382 15.0329H13.8606Z" fill="white"/>
</svg>
