<svg width="128" height="20" viewBox="0 0 128 20" fill="none" xmlns="http://www.w3.org/2000/svg">
<path d="M56.0824 12.2587H64.1523L59.8852 5.39359L52.0537 17.8059H48.4894L58.0152 2.89606C58.4293 2.29364 59.1196 1.92969 59.8852 1.92969C60.6256 1.92969 61.3159 2.2811 61.7175 2.87096L71.2809 17.8059H67.7167L66.0349 15.0323H57.8645L56.0824 12.2587ZM93.1061 15.0323V2.08029H90.0815V16.2999C90.0815 16.689 90.2321 17.0655 90.5207 17.3541C90.8093 17.6428 91.1984 17.8059 91.6252 17.8059H105.418L107.2 15.0323H93.1061ZM43.0676 12.7105C46.0045 12.7105 48.389 10.3385 48.389 7.40166C48.389 4.46487 46.0045 2.08029 43.0676 2.08029H29.8357V17.8059H32.8591V4.85393H42.8668C44.2725 4.85393 45.402 5.99601 45.402 7.40166C45.402 8.80731 44.2725 9.9494 42.8668 9.9494L34.3401 9.93684L43.3688 17.8059H47.7615L41.6871 12.7105H43.0676ZM11.2235 17.8059C6.8823 17.8059 3.35938 14.2918 3.35938 9.9494C3.35938 5.60695 6.8823 2.08029 11.2235 2.08029H20.3639C24.7064 2.08029 28.2268 5.60695 28.2268 9.9494C28.2268 14.2918 24.7064 17.8059 20.3639 17.8059H11.2235ZM20.1606 15.0323C22.9732 15.0323 25.2511 12.7607 25.2511 9.9494C25.2511 7.1381 22.9732 4.85393 20.1606 4.85393H11.4255C8.61426 4.85393 6.33505 7.1381 6.33505 9.9494C6.33505 12.7607 8.61426 15.0323 11.4255 15.0323H20.1606ZM77.5938 17.8059C73.2513 17.8059 69.7247 14.2918 69.7247 9.9494C69.7247 5.60695 73.2513 2.08029 77.5938 2.08029H88.4499L86.6803 4.85393H77.7946C74.9833 4.85393 72.6992 7.1381 72.6992 9.9494C72.6992 12.7607 74.9833 15.0323 77.7946 15.0323H88.7009L86.9187 17.8059H77.5938ZM114.58 15.0323C112.258 15.0323 110.288 13.4761 109.685 11.3299H122.612L124.394 8.5563H109.685C110.288 6.42273 112.258 4.85393 114.58 4.85393H123.453L125.248 2.08029H114.379C110.037 2.08029 106.51 5.60695 106.51 9.9494C106.51 14.2918 110.037 17.8059 114.379 17.8059H123.704L125.486 15.0323H114.58Z" fill="white"/>
</svg>
