<svg width="71" height="36" viewBox="0 0 71 36" fill="none" xmlns="http://www.w3.org/2000/svg">
<path d="M27.4034 3.53329L18.7462 24.1871H13.0977L8.83708 7.70357C8.5791 6.69066 8.35448 6.31784 7.56831 5.88971C6.28349 5.19178 4.16183 4.53902 2.29688 4.13285L2.4227 3.53329H11.5161C12.6734 3.53329 13.7154 4.30385 13.9802 5.63807L16.2314 17.5907L21.7891 3.53329H27.4034ZM35.0393 3.53329L30.6212 24.1871H25.2775L29.6957 3.53329H35.0393ZM49.5341 17.4438C49.5565 11.9938 41.9983 11.6915 42.0477 9.25608C42.0659 8.51593 42.771 7.72764 44.3146 7.52624C45.0793 7.42744 47.1917 7.34848 49.5844 8.4509L50.5205 4.06867C49.2348 3.6038 47.5805 3.15625 45.5226 3.15625C40.2402 3.15625 36.5242 5.96191 36.4947 9.98272C36.4601 12.9569 39.1488 14.6145 41.1708 15.605C43.2536 16.6167 43.952 17.2669 43.9422 18.1709C43.9275 19.5566 42.2791 20.1701 40.7465 20.1929C38.059 20.2355 36.501 19.4667 35.2584 18.8878L34.2886 23.4153C35.5388 23.9882 37.8428 24.486 40.2292 24.5114C45.8448 24.5114 49.5177 21.7378 49.5341 17.4438ZM63.4831 24.1871H68.4235L64.1071 3.53329H59.5488C58.5207 3.53329 57.6568 4.12989 57.2735 5.04738L49.2555 24.1871H54.8668L55.9798 21.1019H62.8354L63.4831 24.1871ZM57.5183 16.8696L60.332 9.11337L61.9483 16.8696H57.5183ZM41.8779 29.8722H39.7068V31.893H42.1354V32.5005H38.9751V26.8943H42.0109V27.5019H39.7068V29.2731H41.8779V29.8722ZM43.2571 26.5952H43.9888V32.5004H43.2571V26.5952ZM45.8346 30.6205C45.8511 31.6106 46.4751 32.0181 47.2148 32.0181C47.7392 32.0181 48.0635 31.9264 48.3299 31.8103L48.4629 32.3343C48.2049 32.4504 47.7561 32.5919 47.1152 32.5919C45.8764 32.5919 45.1362 31.7685 45.1362 30.5542C45.1362 29.3399 45.8511 28.3916 47.024 28.3916C48.3464 28.3916 48.6875 29.5396 48.6875 30.2798C48.6875 30.4293 48.6791 30.5373 48.6622 30.6205H45.8346ZM47.9803 30.0965C47.9888 29.6393 47.7891 28.9156 46.9657 28.9156C46.2171 28.9156 45.9009 29.5895 45.8426 30.0965H47.9803ZM52.6697 32.359C52.4784 32.4506 52.0541 32.592 51.5136 32.592C50.2993 32.592 49.5094 31.7687 49.5094 30.5375C49.5094 29.2983 50.3572 28.3918 51.6716 28.3918C52.1039 28.3918 52.4864 28.4994 52.6862 28.608L52.5202 29.1653C52.345 29.0737 52.0706 28.9736 51.6716 28.9736C50.7482 28.9736 50.2495 29.6639 50.2495 30.4961C50.2495 31.4276 50.8482 32.0013 51.6466 32.0013C52.0625 32.0013 52.337 31.9017 52.5447 31.8101L52.6697 32.359ZM54.7227 27.51V28.4748H55.7702V29.0317H54.7227V31.2028C54.7227 31.7022 54.8641 31.9847 55.2715 31.9847C55.4708 31.9847 55.5878 31.9682 55.6959 31.9345L55.7292 32.4922C55.5878 32.542 55.3632 32.5919 55.0803 32.5919C54.7391 32.5919 54.4647 32.4753 54.2903 32.2845C54.0906 32.0594 54.0074 31.7022 54.0074 31.2281V29.0317H53.3834V28.4748H54.0074V27.7262L54.7227 27.51ZM56.7925 29.7308C56.7925 29.2567 56.7837 28.8492 56.7592 28.4747H57.3997L57.4331 29.2731H57.4575C57.6408 28.7327 58.0896 28.3915 58.5802 28.3915C58.6554 28.3915 58.7137 28.4 58.7804 28.408V29.0987C58.7052 29.0819 58.6309 29.0819 58.5304 29.0819C58.0153 29.0819 57.6488 29.4644 57.5492 30.0137C57.5327 30.1133 57.5243 30.2379 57.5243 30.3549V32.5006H56.7925V29.7308ZM63.2788 30.4543C63.2788 31.943 62.2389 32.592 61.2741 32.592C60.1928 32.592 59.345 31.7932 59.345 30.521C59.345 29.1817 60.2346 28.3917 61.3408 28.3917C62.4969 28.3917 63.2788 29.2315 63.2788 30.4543ZM60.0932 30.4961C60.0932 31.3777 60.5922 32.0431 61.3075 32.0431C62.0063 32.0431 62.5298 31.3857 62.5298 30.4792C62.5298 29.7973 62.1891 28.9402 61.324 28.9402C60.4677 28.9402 60.0932 29.739 60.0932 30.4961ZM64.4003 29.5642C64.4003 29.1403 64.3915 28.8076 64.367 28.4749H65.0155L65.0573 29.1403H65.0738C65.2735 28.7658 65.7392 28.3917 66.4046 28.3917C66.9615 28.3917 67.8267 28.7244 67.8267 30.1046V32.5003H67.095V30.1798C67.095 29.5313 66.8539 28.9904 66.1635 28.9904C65.6894 28.9904 65.3149 29.3316 65.1823 29.739C65.1485 29.8306 65.1321 29.9552 65.1321 30.0802V32.5003H64.4003V29.5642Z" fill="white"/>
</svg>
