<svg width="111" height="23" viewBox="0 0 111 23" fill="none" xmlns="http://www.w3.org/2000/svg">
<path fill-rule="evenodd" clip-rule="evenodd" d="M17.245 2.94664C16.5361 2.79312 15.7603 2.71875 14.9013 2.71875H6.42969V20.6874H15.1387C15.9438 20.6874 16.7299 20.5864 17.4872 20.3851C18.2528 20.1839 18.9364 19.8748 19.5314 19.4531C20.1216 19.0355 20.6006 18.4938 20.9527 17.8258C21.3007 17.166 21.4753 16.382 21.4753 15.4705C21.4753 14.3467 21.2085 13.3874 20.6627 12.5863C20.1196 11.7908 19.3008 11.2306 18.1948 10.9126C19.0067 10.5285 19.6147 10.0338 20.0281 9.43064C20.4389 8.8268 20.6443 8.07148 20.6443 7.16674C20.6443 6.33022 20.5064 5.62335 20.2328 5.05839C19.9524 4.48525 19.5608 4.03015 19.0599 3.68831C18.5516 3.34579 17.9498 3.09607 17.245 2.94664ZM15.7173 17.5147C15.3686 17.5924 14.9981 17.6272 14.6079 17.6272H10.3857V12.6791H14.687C15.5385 12.6791 16.2311 12.8749 16.7503 13.2686C17.2682 13.6678 17.5288 14.3255 17.5288 15.2514C17.5288 15.7243 17.4524 16.1152 17.2928 16.4161C17.1331 16.7205 16.9141 16.9593 16.6493 17.1333C16.3846 17.3147 16.0707 17.4369 15.7173 17.5147ZM16.1301 9.47431C15.6702 9.81206 15.0903 9.97854 14.3895 9.97854H10.3857V5.7796H14.0873C14.4373 5.7796 14.7791 5.80416 15.1046 5.8683C15.4369 5.92493 15.7228 6.03069 15.9759 6.18353C16.2311 6.33022 16.433 6.54037 16.5852 6.80852C16.7326 7.07667 16.8063 7.4226 16.8063 7.84018C16.8063 8.59345 16.5852 9.14271 16.1301 9.47431Z" fill="white"/>
<path fill-rule="evenodd" clip-rule="evenodd" d="M29.4263 18.3532C28.424 18.3532 27.6502 18.0899 27.1153 17.5672C26.5783 17.0446 26.2304 16.0709 26.2304 15.0427H35.619C35.6865 14.0328 35.6039 13.0687 35.3706 12.1456C35.1345 11.2217 34.7572 10.3975 34.227 9.67628C33.6962 8.95439 33.0214 8.37784 32.1978 7.95276C31.3716 7.52086 30.4075 7.30934 29.3069 7.30934C28.31 7.30934 27.4101 7.48606 26.5933 7.83881C25.7773 8.19225 25.0766 8.67601 24.485 9.28941C23.8955 9.89939 23.4472 10.6267 23.1224 11.4694C22.8052 12.3093 22.6421 13.2182 22.6421 14.1911C22.6421 15.1975 22.799 16.1262 23.1095 16.9647C23.4233 17.8074 23.8634 18.5252 24.4304 19.1324C25.0124 19.737 25.7043 20.2009 26.5319 20.5318C27.3596 20.858 28.2821 21.0245 29.3069 21.0245C30.7773 21.0245 32.0396 20.6874 33.0739 20.0112C34.1213 19.3385 34.8889 18.2202 35.3945 16.6543H32.2477C32.1255 17.0568 31.8103 17.4451 31.2924 17.8074C30.7698 18.171 30.1468 18.3532 29.4263 18.3532ZM29.1998 10.0072C30.0772 10.0072 30.7964 10.2617 31.2215 10.7318C31.6479 11.2053 31.9597 11.8788 32.045 12.7903H26.2304C26.2474 12.5365 26.302 12.2493 26.3934 11.9327C26.4849 11.6079 26.6425 11.3043 26.8731 11.0163C27.1044 10.7332 27.408 10.4923 27.7778 10.2992C28.1558 10.1034 28.6287 10.0072 29.1998 10.0072Z" fill="white"/>
<path d="M40.6947 2.71875V9.4941H40.7765C41.2303 8.74014 41.8041 8.19225 42.5096 7.85246C43.2137 7.50994 43.9008 7.34072 44.5702 7.34072C45.5247 7.34072 46.3067 7.46627 46.9173 7.72487C47.5287 7.98824 48.0124 8.3444 48.3666 8.80769C48.7139 9.26894 48.9595 9.83184 49.1035 10.495C49.2447 11.1569 49.3177 11.887 49.3177 12.6921V20.6874H45.7267V13.341C45.7267 12.2697 45.5595 11.4646 45.2266 10.9379C44.8929 10.4104 44.3007 10.1457 43.4464 10.1457C42.4803 10.1457 41.7816 10.4384 41.349 11.0163C40.9082 11.5943 40.6947 12.5454 40.6947 13.8691V20.6874H37.105V2.71875H40.6947Z" fill="white"/>
<path fill-rule="evenodd" clip-rule="evenodd" d="M53.2717 8.24411C52.7013 8.57912 52.2325 9.0274 51.8689 9.58075C51.4936 10.1341 51.2862 10.8307 51.2343 11.6748H54.8192C54.8908 10.9679 55.1228 10.4616 55.5261 10.1539C55.9184 9.85504 56.4717 9.69948 57.1711 9.69948C57.4856 9.69948 57.7804 9.72199 58.0588 9.76225C58.3324 9.8066 58.5698 9.88984 58.7807 10.0167C58.986 10.1437 59.1539 10.3176 59.2781 10.5435C59.4016 10.7727 59.4698 11.0798 59.4698 11.4646C59.4855 11.8372 59.3743 12.1169 59.143 12.3093C58.9076 12.501 58.5869 12.6525 58.1864 12.7521C57.7804 12.8545 57.326 12.9275 56.8013 12.9787C56.278 13.0305 55.7539 13.0974 55.2156 13.1799C54.6854 13.2625 54.1505 13.3799 53.6238 13.5218C53.0922 13.6623 52.6228 13.8779 52.2141 14.1645C51.7986 14.449 51.4663 14.8332 51.2104 15.3108C50.9477 15.7884 50.8147 16.3984 50.8147 17.1394C50.8147 17.8108 50.9307 18.3921 51.1558 18.8807C51.3824 19.3665 51.6928 19.7677 52.0968 20.0911C52.4986 20.4083 52.9701 20.6431 53.5009 20.7945C54.04 20.946 54.6159 21.0245 55.234 21.0245C56.0405 21.0245 56.8259 20.9064 57.5962 20.6738C58.3727 20.4377 59.0393 20.0242 59.6076 19.4361C59.624 19.6551 59.6533 19.8686 59.6957 20.0761C59.7373 20.2883 59.826 20.5318 59.9331 20.6874L63.5835 20.6963C63.4102 20.4302 63.2266 20.0242 63.1557 19.4831C63.0929 18.9468 63.0574 18.3867 63.0574 17.7971V11.0163C63.0574 10.2249 62.8779 9.58621 62.5238 9.11473C62.1745 8.63098 61.7235 8.26048 61.1701 7.9896C60.6161 7.72009 60.0054 7.53928 59.3374 7.44717C58.6585 7.35437 57.9994 7.30934 57.3478 7.30934C56.6232 7.30934 55.9095 7.37825 55.1958 7.52495C54.4794 7.66755 53.8421 7.90568 53.2717 8.24411ZM58.1802 14.8332C58.4341 14.7793 58.6804 14.7172 58.9028 14.6435C59.1327 14.5684 59.3149 14.4627 59.4698 14.3255V15.6622C59.4698 15.8648 59.4487 16.135 59.4016 16.47C59.3654 16.803 59.2542 17.1333 59.07 17.4608C58.8892 17.7883 58.5999 18.0694 58.2157 18.3048C57.8295 18.5388 57.2878 18.6555 56.585 18.6555C56.3018 18.6555 56.0255 18.6357 55.758 18.5825C55.4947 18.5334 55.2579 18.4447 55.0559 18.3184C54.8533 18.1922 54.6991 18.0216 54.5811 17.8033C54.4664 17.5829 54.405 17.3147 54.405 16.9968C54.405 16.6638 54.4664 16.382 54.5811 16.1651C54.6991 15.9488 54.8533 15.7686 55.0471 15.6247C55.234 15.4827 55.4612 15.3702 55.7205 15.2856C55.975 15.2003 56.2425 15.1348 56.5099 15.0822C56.7904 15.0317 57.0797 14.9928 57.3608 14.9587C57.6446 14.9232 57.9182 14.883 58.1802 14.8332Z" fill="white"/>
<path d="M68.417 7.68051V9.4941H68.4968C68.9492 8.74014 69.5325 8.19225 70.2571 7.85246C70.9756 7.50994 71.72 7.34072 72.4747 7.34072C73.4333 7.34072 74.22 7.46627 74.8279 7.72486C75.4468 7.98824 75.9278 8.3444 76.2765 8.80769C76.634 9.26893 76.8797 9.83184 77.0229 10.495C77.1676 11.1569 77.2392 11.887 77.2392 12.6921V20.6874H73.6469V13.341C73.6469 12.2697 73.4783 11.4646 73.1433 10.9379C72.8035 10.4104 72.2174 10.072 71.357 10.072C70.3847 10.072 69.6765 10.4384 69.2412 11.0163C68.8031 11.5942 68.5862 12.5454 68.5862 13.8691V20.6874H65.0327V7.68051H68.417Z" fill="white"/>
<path d="M83.7608 10.3975C84.1422 10.1341 84.6164 10.0072 85.1909 10.0072C86.7186 10.0072 87.5988 10.7482 87.8307 12.2329H91.3351C91.2798 11.3984 91.0806 10.6684 90.7319 10.0591C90.3792 9.44975 89.9186 8.9387 89.3564 8.52863C88.7955 8.11583 88.1562 7.80811 87.4452 7.60887C86.7288 7.41373 85.9871 7.30934 85.2148 7.30934C84.1592 7.30934 83.219 7.48606 82.3961 7.83881C81.5699 8.19225 80.8712 8.68351 80.3001 9.31533C79.7235 9.94306 79.2909 10.6916 78.9982 11.5554C78.7041 12.4226 78.5561 13.3608 78.5561 14.3678C78.5561 15.3401 78.7158 16.236 79.033 17.0521C79.3578 17.8667 79.8013 18.5675 80.3731 19.157C80.9449 19.7451 81.6388 20.2009 82.4562 20.5318C83.275 20.858 84.1626 21.0245 85.1397 21.0245C86.8687 21.0245 88.2886 20.5666 89.3973 19.6639C90.502 18.7551 91.1734 17.4369 91.4101 15.7113H87.959C87.8389 16.5164 87.5544 17.1592 87.0945 17.6375C86.6326 18.1131 85.9735 18.3532 85.1131 18.3532C84.5584 18.3532 84.091 18.227 83.7069 17.9739C83.3207 17.7194 83.015 17.3973 82.785 17.0057C82.5585 16.6058 82.3982 16.1671 82.2938 15.6813C82.1962 15.1928 82.1416 14.7145 82.1416 14.2423C82.1416 13.7538 82.1962 13.2625 82.2938 12.7665C82.3982 12.2697 82.5667 11.816 82.8103 11.4059C83.0532 10.9931 83.3712 10.6602 83.7608 10.3975Z" fill="white"/>
<path d="M25.4996 3.92439H32.7833V5.69772H25.4996V3.92439Z" fill="white"/>
<path fill-rule="evenodd" clip-rule="evenodd" d="M99.1407 18.3532C98.1309 18.3532 97.3203 18.0899 96.7833 17.5672C96.245 17.0446 95.9018 16.0709 95.9018 15.0427H105.331C105.398 14.0328 105.309 13.0687 105.078 12.1456C104.844 11.2217 104.463 10.3975 103.933 9.67628C103.406 8.95439 102.728 8.37784 101.902 7.95276C101.084 7.52086 100.116 7.30934 99.0165 7.30934C98.0252 7.30934 97.1177 7.48606 96.3003 7.83881C95.4863 8.19225 94.7917 8.67601 94.1974 9.28941C93.6113 9.89939 93.1535 10.6267 92.8314 11.4694C92.5134 12.3093 92.3538 13.2182 92.3538 14.1911C92.3538 15.1975 92.508 16.1262 92.8184 16.9647C93.1309 17.8074 93.5703 18.5252 94.1435 19.1324C94.7228 19.737 95.4153 20.2009 96.2416 20.5318C97.0631 20.858 97.989 21.0245 99.0165 21.0245C100.492 21.0245 101.749 20.6874 102.788 20.0112C103.828 19.3385 104.601 18.2202 105.103 16.6543H101.957C101.842 17.0568 101.52 17.4451 101.001 17.8074C100.481 18.171 99.8599 18.3532 99.1407 18.3532ZM98.9122 10.0072C99.7787 10.0072 100.503 10.2617 100.934 10.7318C101.36 11.2053 101.665 11.8788 101.76 12.7903H95.9018C95.9175 12.5365 95.9769 12.2493 96.0615 11.9327C96.1563 11.6079 96.3194 11.3043 96.5466 11.0163C96.7738 10.7332 97.1122 10.4923 97.4827 10.2992C97.8675 10.1034 98.3417 10.0072 98.9122 10.0072Z" fill="white"/>
</svg>
