<svg width="95" height="26" viewBox="0 0 95 26" fill="none" xmlns="http://www.w3.org/2000/svg">
<path d="M56.863 14.6952L52.1468 20.495H55.8709L60.0682 15.1683V20.495H63.1207V5.23224H60.0682V14.2068L56.1914 9.81108H52.2994L56.863 14.6952ZM69.0732 9.50582C70.4299 9.52612 71.6904 10.2105 72.4463 11.3374V9.81108H75.331V20.495H72.2784V15.5041C72.3595 14.7718 72.1327 14.0388 71.6522 13.4802C71.1718 12.9217 70.481 12.5878 69.7448 12.5584C67.9743 12.5584 67.6996 14.2983 67.6996 15.5041V20.495H64.647V14.8325C64.647 11.4747 65.7612 9.50582 69.0122 9.50582H69.0732ZM41.7529 15.3973C41.7412 15.621 41.7412 15.8451 41.7529 16.0688H49.7658V16.1757C49.4972 17.4904 48.3134 18.4154 46.9727 18.3582C45.9324 18.4035 44.9185 18.0232 44.1644 17.3051L42.1344 18.8314C43.4354 20.159 45.2374 20.8743 47.0948 20.8003C48.6339 20.8976 50.1396 20.3231 51.2227 19.2254C52.3058 18.1276 52.86 16.6144 52.7421 15.0767C52.7737 13.5602 52.1734 12.0988 51.0851 11.0423C49.9967 9.9858 48.5181 9.42923 47.0033 9.50582C44.1339 9.50582 41.7529 11.5358 41.7529 15.3973ZM44.5917 14.0847C44.6144 13.4737 44.8871 12.8988 45.346 12.4948C45.8048 12.0908 46.4096 11.893 47.0185 11.9479C48.3607 11.8028 49.5761 12.7481 49.7658 14.0847H44.5917ZM87.5412 5.23224H90.5938V20.495H81.4361V17.4425H87.5412V5.23224ZM32.5952 5.23224H29.5426V20.495H32.4273V19.4266C33.1701 20.3418 34.3023 20.8513 35.4799 20.8003C36.9137 20.7635 38.2689 20.1365 39.2252 19.0675C40.1815 17.9985 40.6543 16.5822 40.5318 15.1531C40.6776 13.7213 40.215 12.2942 39.2571 11.2202C38.2992 10.1462 36.9341 9.52412 35.4951 9.50582C34.4244 9.45894 33.3796 9.84385 32.5952 10.5742V5.23224ZM32.3662 15.1531C32.2691 14.44 32.4855 13.7197 32.9597 13.1783C33.4338 12.6369 34.1191 12.3273 34.8388 12.3294C36.299 12.4355 37.4054 13.6912 37.3266 15.1531C37.4054 16.6149 36.299 17.8706 34.8388 17.9767C34.1191 17.9788 33.4338 17.6692 32.9597 17.1278C32.4855 16.5864 32.2691 15.8661 32.3662 15.1531ZM78.3835 4.92699C79.4019 4.94148 80.2353 5.7416 80.2914 6.75852C80.2914 7.8122 79.4372 8.66637 78.3835 8.66637C77.3299 8.66637 76.4757 7.8122 76.4757 6.75852C76.5317 5.7416 77.3652 4.94148 78.3835 4.92699ZM79.9098 20.495H76.8572V9.81108H79.9098V20.495ZM5.12218 3.70597V22.0213C5.12218 22.8642 5.80552 23.5476 6.64846 23.5476H24.9638C25.8067 23.5476 26.4901 22.8642 26.4901 22.0213V3.70597C26.4901 2.86303 25.8067 2.17969 24.9638 2.17969H6.64846C5.80552 2.17969 5.12218 2.86303 5.12218 3.70597ZM20.385 9.81108H23.4375V20.495H20.385V9.81108ZM20.0034 6.75852C20.0034 5.70485 20.8576 4.85067 21.9112 4.85067C22.9649 4.85067 23.8191 5.70485 23.8191 6.75852C23.8191 7.8122 22.9649 8.66637 21.9112 8.66637C20.8576 8.66637 20.0034 7.8122 20.0034 6.75852ZM8.17474 14.8325C8.17474 11.4747 9.28893 9.50582 12.5399 9.50582C13.9183 9.50599 15.206 10.1928 15.974 11.3374V9.81108H18.8587V20.495H15.8061V15.5041C15.8872 14.7718 15.6604 14.0388 15.1799 13.4802C14.6995 12.9217 14.0087 12.5878 13.2725 12.5584C11.502 12.5584 11.2273 14.2983 11.2273 15.5041V20.495H8.17474V14.8325Z" fill="white"/>
</svg>
