<svg width="95" height="26" viewBox="0 0 95 26" fill="none" xmlns="http://www.w3.org/2000/svg">
<path d="M38.5261 14.6946L43.2421 20.4942H39.5182L35.3211 15.1677V20.4942H32.2687V5.23211H35.3211V14.2062L39.1977 9.81074H43.0895L38.5261 14.6946ZM26.3164 9.5055C24.9598 9.52579 23.6994 10.2102 22.9435 11.337V9.81074H20.059V20.4942H23.1114V15.5035C23.0304 14.7713 23.2572 14.0383 23.7376 13.4797C24.218 12.9212 24.9088 12.5873 25.6449 12.5579C27.4153 12.5579 27.69 14.2978 27.69 15.5035V20.4942H30.7425V14.832C30.7425 11.4743 29.6283 9.5055 26.3775 9.5055H26.3164ZM53.6356 15.3967C53.6473 15.6204 53.6473 15.8445 53.6356 16.0682H45.623V16.175C45.8917 17.4897 47.0753 18.4147 48.416 18.3575C49.4563 18.4027 50.4702 18.0225 51.2242 17.3044L53.2541 18.8306C51.9531 20.1583 50.1512 20.8735 48.2939 20.7995C46.7549 20.8968 45.2493 20.3223 44.1662 19.2246C43.0831 18.1269 42.5289 16.6137 42.6469 15.0762C42.6153 13.5597 43.2155 12.0984 44.3038 11.0419C45.3921 9.98545 46.8706 9.42891 48.3854 9.5055C51.2547 9.5055 53.6356 11.5354 53.6356 15.3967ZM50.7969 14.0841C50.7742 13.4732 50.5015 12.8984 50.0427 12.4943C49.5838 12.0903 48.9791 11.8926 48.3702 11.9474C47.0281 11.8023 45.8127 12.7476 45.623 14.0841H50.7969ZM7.8493 5.23211H4.79688V20.4942H13.9541V17.4418H7.8493V5.23211ZM62.7929 5.23211H65.8453V20.4942H62.9608V19.4259C62.218 20.341 61.0858 20.8504 59.9083 20.7995C58.4745 20.7626 57.1195 20.1357 56.1632 19.0667C55.2069 17.9978 54.7341 16.5815 54.8566 15.1525C54.7108 13.7208 55.1734 12.2938 56.1312 11.2198C57.0891 10.1459 58.4541 9.5238 59.8931 9.5055C60.9638 9.45862 62.0085 9.84351 62.7929 10.5738V5.23211ZM63.0218 15.1525C63.1189 14.4394 62.9025 13.7192 62.4284 13.1778C61.9543 12.6364 61.269 12.3268 60.5493 12.329C59.0893 12.435 57.9829 13.6907 58.0616 15.1525C57.9829 16.6143 59.0893 17.87 60.5493 17.976C61.269 17.9781 61.9543 17.6686 62.4284 17.1271C62.9025 16.5857 63.1189 15.8655 63.0218 15.1525ZM17.0066 4.92687C15.9882 4.94136 15.1548 5.74145 15.0988 6.75832C15.0988 7.81195 15.9529 8.66608 17.0066 8.66608C18.0602 8.66608 18.9143 7.81195 18.9143 6.75832C18.8583 5.74145 18.0249 4.94136 17.0066 4.92687ZM15.4803 20.4942H18.5328V9.81074H15.4803V20.4942ZM90.2647 3.7059V22.0204C90.2647 22.8633 89.5814 23.5466 88.7385 23.5466H70.4239C69.581 23.5466 68.8977 22.8633 68.8977 22.0204V3.7059C68.8977 2.863 69.581 2.17969 70.4239 2.17969H88.7385C89.5814 2.17969 90.2647 2.863 90.2647 3.7059ZM75.0026 9.81074H71.9501V20.4942H75.0026V9.81074ZM75.3841 6.75832C75.3841 5.70469 74.53 4.85056 73.4763 4.85056C72.4227 4.85056 71.5686 5.70469 71.5686 6.75832C71.5686 7.81195 72.4227 8.66608 73.4763 8.66608C74.53 8.66608 75.3841 7.81195 75.3841 6.75832ZM87.2122 14.832C87.2122 11.4743 86.0981 9.5055 82.8473 9.5055C81.469 9.50567 80.1813 10.1924 79.4133 11.337V9.81074H76.5288V20.4942H79.5812V15.5035C79.5002 14.7713 79.727 14.0383 80.2074 13.4797C80.6878 12.9212 81.3786 12.5873 82.1147 12.5579C83.8851 12.5579 84.1598 14.2978 84.1598 15.5035V20.4942H87.2122V14.832Z" fill="white"/>
</svg>
