<svg width="107" height="24" viewBox="0 0 107 24" fill="none" xmlns="http://www.w3.org/2000/svg">
<path fill-rule="evenodd" clip-rule="evenodd" d="M81.6335 3.97922C83.2197 3.23709 84.9157 2.69774 86.6888 2.39062C86.9066 2.78433 87.161 3.31388 87.3364 3.73513C89.2213 3.45166 91.0889 3.45166 92.9391 3.73513C93.1145 3.31388 93.3747 2.78433 93.5944 2.39062C95.3694 2.69774 97.0674 3.23907 98.6536 3.98315C101.853 8.81778 102.72 13.5323 102.287 18.1799C100.165 19.7646 98.1082 20.7272 96.0864 21.3571C95.5872 20.6701 95.142 19.9398 94.7585 19.1701C95.4889 18.8925 96.1886 18.55 96.8496 18.1524C96.6742 18.0224 96.5027 17.8866 96.337 17.7468C92.305 19.6327 87.9242 19.6327 83.9405 17.7468C83.7728 17.8866 83.6013 18.0224 83.4278 18.1524C84.0908 18.552 84.7923 18.8945 85.5228 19.1721C85.1393 19.9398 84.696 20.672 84.1949 21.359C82.1712 20.7291 80.1128 19.7665 77.9909 18.1799C77.4821 12.7922 78.8601 8.12092 81.6335 3.97922ZM94.2092 15.3217C95.4195 15.3217 96.4121 14.1918 96.4121 12.8158C96.4121 11.4398 95.4407 10.3079 94.2092 10.3079C92.9776 10.3079 91.9851 11.4378 92.0063 12.8158C92.0044 14.1918 92.9776 15.3217 94.2092 15.3217ZM86.0682 15.3217C87.2786 15.3217 88.2712 14.1918 88.2712 12.8158C88.2712 11.4398 87.2998 10.3079 86.0682 10.3079C84.8367 10.3079 83.8441 11.4378 83.8653 12.8158C83.8653 14.1918 84.8367 15.3217 86.0682 15.3217Z" fill="white"/>
<path fill-rule="evenodd" clip-rule="evenodd" d="M69.4627 7.22958H64.2013C62.9329 7.22958 61.8614 7.43233 60.9824 7.83588C60.1057 8.23939 59.4483 8.80239 59.0127 9.52286C58.5773 10.2433 58.3577 11.0681 58.3577 11.9973C58.3577 12.9067 58.5851 13.7315 59.0399 14.4697C59.4947 15.2098 60.1866 15.7945 61.1174 16.2256C62.0482 16.6567 63.201 16.8732 64.5788 16.8732H69.4627V7.22958ZM64.6329 14.4225C63.7791 14.4225 63.1217 14.2039 62.6632 13.7689C62.2044 13.3319 61.975 12.7374 61.975 11.9835C61.975 11.2847 62.1795 10.7276 62.588 10.3102C62.9964 9.89292 63.6151 9.68231 64.4421 9.68231H66.088V14.4225H64.6329Z" fill="white"/>
<path d="M52.4503 16.0209C51.8665 16.389 51.2092 16.6685 50.4806 16.8615C49.752 17.0544 49.0006 17.1508 48.2277 17.1528C46.9133 17.1528 45.8996 16.9067 45.1845 16.4146C44.4693 15.9225 44.113 15.2591 44.113 14.4225C44.113 13.6587 44.3286 13.082 44.7606 12.6922C45.1922 12.3024 45.8492 12.0288 46.7303 11.8733L48.0793 11.6253C48.4283 11.5505 48.6691 11.4796 48.8001 11.4107C48.9311 11.3418 48.9966 11.2394 48.9966 11.1016C48.9966 10.8083 48.5747 10.6607 47.7286 10.6607C47.1424 10.6607 46.5741 10.7355 46.0209 10.8871C45.466 11.0406 44.9803 11.2434 44.556 11.5012V9.33786C44.9705 9.07999 45.4908 8.86938 46.121 8.70402C46.7514 8.53865 47.4434 8.45599 48.1988 8.45599C49.045 8.45599 49.7809 8.56425 50.4114 8.78077C51.0415 8.99534 51.5273 9.30047 51.8682 9.69613C52.2115 10.0918 52.3811 10.5544 52.3811 11.0879C52.3811 11.7217 52.1863 12.2335 51.795 12.6233C51.404 13.015 50.7466 13.3201 49.8195 13.5406L48.2005 13.9126C47.9405 13.9776 47.7652 14.0544 47.6745 14.1469C47.5838 14.2394 47.5395 14.3536 47.5395 14.4914C47.5395 14.6115 47.6224 14.7158 47.7884 14.8024C47.954 14.889 48.1988 14.9323 48.5226 14.9323C49.2163 14.9323 49.9334 14.8201 50.6754 14.5957C51.4174 14.3694 52.0089 14.0819 52.4503 13.7335V16.0209Z" fill="white"/>
<path d="M40.9285 16.572C41.7011 16.1862 42.2852 15.6626 42.6745 15.0012C43.0638 14.3397 43.2603 13.5957 43.2603 12.7689C43.2603 11.9421 43.0581 11.202 42.6533 10.5504C42.2486 9.89882 41.655 9.38701 40.8724 9.01497C40.0901 8.64293 39.1553 8.45788 38.0663 8.45788C36.7173 8.45788 35.5974 8.74726 34.707 9.32598V11.8476C35.021 11.6272 35.3875 11.448 35.8057 11.3102C36.2239 11.1724 36.671 11.1035 37.149 11.1035C37.9853 11.1035 38.6387 11.259 39.1109 11.572C39.5832 11.885 39.82 12.2925 39.82 12.7984C39.82 13.2945 39.5909 13.7 39.1321 14.0189C38.6733 14.3358 38.0085 14.4953 37.1355 14.4953C36.6864 14.4953 36.243 14.4283 35.8057 14.2964C35.37 14.1626 34.9942 13.9992 34.6801 13.8063V16.2452C35.6686 16.8515 36.8154 17.1547 38.1204 17.1547C39.2188 17.1507 40.1556 16.9578 40.9285 16.572Z" fill="white"/>
<path fill-rule="evenodd" clip-rule="evenodd" d="M33.1229 14.9875C32.7141 15.6587 32.1206 16.1863 31.3419 16.5721C30.5653 16.9579 29.646 17.1489 28.5839 17.1489C27.5221 17.1489 26.6027 16.956 25.8241 16.5701C25.0455 16.1843 24.4537 15.6567 24.0489 14.9855C23.6441 14.3142 23.4419 13.5662 23.4419 12.7395C23.4419 11.9028 23.6441 11.1647 24.0489 10.5209C24.4537 9.87726 25.0435 9.37331 25.8164 9.0052C26.5893 8.63708 27.5124 8.45402 28.5822 8.45402C29.6517 8.45402 30.5751 8.63708 31.3476 9.0052C32.1226 9.37331 32.7124 9.88119 33.1229 10.5288C33.5333 11.1764 33.7376 11.9147 33.7376 12.7414C33.7376 13.5682 33.5313 14.3162 33.1229 14.9875ZM26.7492 12.7985C26.7492 13.3497 26.9148 13.7926 27.2426 14.1272C27.5701 14.4619 28.0175 14.6292 28.5839 14.6312C29.1603 14.6312 29.6131 14.4619 29.9409 14.1272C30.2684 13.7926 30.4323 13.3497 30.4323 12.7985C30.4323 12.2473 30.2684 11.8103 29.9409 11.4835C29.6114 11.1568 29.1603 10.9934 28.5839 10.9934C28.0175 10.9934 27.5701 11.1568 27.2426 11.4835C26.9131 11.8083 26.7492 12.2473 26.7492 12.7985Z" fill="white"/>
<path d="M15.3357 8.96579V11.9422C15.6786 11.7118 16.122 11.5977 16.6712 11.5977C17.3904 11.5977 17.9453 11.8201 18.3309 12.265C18.7182 12.7099 18.911 13.4028 18.911 14.3398V16.8752H22.2163V8.81423H18.9782V11.3772C18.7992 10.4402 18.5079 9.74927 18.1072 9.30239C17.7082 8.85753 17.1919 8.63509 16.5634 8.63509C16.0874 8.63509 15.6786 8.74534 15.3357 8.96579Z" fill="white"/>
<path fill-rule="evenodd" clip-rule="evenodd" d="M4.3539 16.8752V6.95404H7.65948V10.5505C8.19893 9.15482 9.255 8.45601 10.8297 8.45601C11.5949 8.45601 12.2771 8.64499 12.8746 9.02096C13.4722 9.39696 13.9364 9.92056 14.2643 10.5918C14.5938 11.2631 14.7537 12.021 14.7443 12.8655C14.7443 13.6843 14.5918 14.4166 14.2911 15.0642C13.9885 15.7119 13.5589 16.2217 13.002 16.5938C12.4447 16.9658 11.7934 17.1509 11.0457 17.1509C10.2093 17.1509 9.50391 16.9737 8.93322 16.6213C8.36286 16.267 7.93894 15.7493 7.65948 15.0702V16.8752H4.3539ZM7.64773 12.771C7.64773 13.3025 7.81534 13.7375 8.15259 14.0721C8.49017 14.4068 8.93724 14.5741 9.49416 14.5761C10.0434 14.5761 10.4827 14.4107 10.8163 14.08C11.1498 13.7493 11.3154 13.3221 11.3154 12.7985C11.3154 12.2749 11.1498 11.8517 10.8163 11.5249C10.4827 11.1981 10.0376 11.0347 9.48073 11.0347C8.91608 11.0347 8.46699 11.1962 8.13914 11.517C7.81165 11.8379 7.64773 12.2572 7.64773 12.771Z" fill="white"/>
<path d="M55.5723 9.67241C54.6624 9.67241 53.9244 8.99554 53.9244 8.16059C53.9244 7.32565 54.6624 6.64882 55.5723 6.64882C56.4826 6.64882 57.2203 7.32565 57.2203 8.16059C57.2203 8.99554 56.4826 9.67241 55.5723 9.67241Z" fill="white"/>
<path d="M53.9261 10.7138C54.959 11.1783 56.2119 11.1587 57.2216 10.7138V16.9185H53.9261V10.7138Z" fill="white"/>
</svg>
