<svg width="136" height="21" viewBox="0 0 136 21" fill="none" xmlns="http://www.w3.org/2000/svg">
<path d="M59.0642 12.7632H67.7053L63.1362 5.41221L54.7503 18.7031H50.9338L61.1338 2.7379C61.5773 2.09284 62.3164 1.70312 63.1362 1.70312C63.929 1.70312 64.6681 2.07941 65.0982 2.71103L75.3385 18.7031H71.5219L69.7211 15.7332H60.9725L59.0642 12.7632ZM98.7085 15.7332V1.86439H95.4698V17.0905C95.4698 17.5071 95.6311 17.9102 95.9401 18.2193C96.2492 18.5284 96.6658 18.7031 97.1227 18.7031H111.892L113.8 15.7332H98.7085ZM45.1282 13.247C48.2729 13.247 50.8263 10.7071 50.8263 7.56241C50.8263 4.41775 48.2729 1.86439 45.1282 1.86439H30.9597V18.7031H34.1972V4.83435H44.9132C46.4184 4.83435 47.6279 6.05727 47.6279 7.56241C47.6279 9.06755 46.4184 10.2905 44.9132 10.2905L35.783 10.277L45.4507 18.7031H50.1544L43.65 13.247H45.1282ZM11.0302 18.7031C6.38165 18.7031 2.60938 14.9403 2.60938 10.2905C2.60938 5.64067 6.38165 1.86439 11.0302 1.86439H20.8175C25.4673 1.86439 29.2369 5.64067 29.2369 10.2905C29.2369 14.9403 25.4673 18.7031 20.8175 18.7031H11.0302ZM20.5998 15.7332C23.6115 15.7332 26.0506 13.3007 26.0506 10.2905C26.0506 7.2802 23.6115 4.83435 20.5998 4.83435H11.2465C8.2362 4.83435 5.79567 7.2802 5.79567 10.2905C5.79567 13.3007 8.2362 15.7332 11.2465 15.7332H20.5998ZM82.0982 18.7031C77.4484 18.7031 73.6721 14.9403 73.6721 10.2905C73.6721 5.64067 77.4484 1.86439 82.0982 1.86439H93.7227L91.8278 4.83435H82.3132C79.3029 4.83435 76.8571 7.2802 76.8571 10.2905C76.8571 13.3007 79.3029 15.7332 82.3132 15.7332H93.9914L92.0832 18.7031H82.0982ZM121.702 15.7332C119.216 15.7332 117.106 14.0668 116.461 11.7687H130.303L132.211 8.79877H116.461C117.106 6.51419 119.216 4.83435 121.702 4.83435H131.203L133.125 1.86439H121.487C116.837 1.86439 113.061 5.64067 113.061 10.2905C113.061 14.9403 116.837 18.7031 121.487 18.7031H131.472L133.38 15.7332H121.702Z" fill="#FF3737"/>
</svg>
