<svg width="74" height="34" viewBox="0 0 74 34" fill="none" xmlns="http://www.w3.org/2000/svg">
<path d="M58.1063 28.8155V30.7478H71.6328V28.8155H58.1063ZM36.9675 28.8154C38.3244 30.0628 40.1017 30.7528 41.9448 30.7477L56.1739 30.7286V28.8154H36.9675ZM16.8551 28.8154L17.5299 30.7478L18.1986 28.8154H16.8551ZM23.3239 28.8155V30.7478H32.9857V28.8155H23.3239ZM2.06801 28.8155V30.7478H11.7298V28.8155H2.06801ZM34.7789 25.1264C34.9447 25.8043 35.2064 26.455 35.5562 27.0588H56.1739V25.1264H34.7789ZM15.5601 25.1265L16.2384 27.0589H18.8153L19.4936 25.1265H15.5601ZM23.3239 25.1264V27.0588H32.9857V25.1264H23.3239ZM2.06801 25.1264V27.0588H11.7298V25.1264H2.06801ZM58.1063 25.1264V27.0588H71.6328V25.1264H58.1063ZM61.971 21.4374V23.3698H67.7681V21.4374H61.971ZM46.5122 21.4374V23.3698H52.3093V21.4374H46.5122ZM34.8252 21.4374C34.6539 22.0672 34.567 22.717 34.5667 23.3698H41.0665V21.4374H34.8252ZM14.2649 21.4374L14.9434 23.3698H20.1103L20.7888 21.4374H14.2649ZM23.3239 21.4374V23.3698H29.121V21.4374H23.3239ZM5.93272 21.4374V23.3698H11.7298V21.4374H5.93272ZM61.971 17.7484V19.6807H67.7681V17.7484H61.971ZM23.3239 17.7484V19.6807H29.121V17.7484H23.3239ZM5.93272 17.7484V19.6807H11.7298V17.7484H5.93272ZM37.1703 17.7483C36.5267 18.2957 35.9816 18.9493 35.5584 19.6806H52.3093V17.7483H37.1703ZM12.9699 17.7483L13.6482 19.6806H21.4055L22.0838 17.7483H12.9699ZM18.0701 14.0594L17.5268 15.6213L16.9838 14.0594H5.93277V15.9918H11.7297V14.2161L12.3532 15.9918H22.7005L23.324 14.2159V15.9918H29.1209V14.0594H18.0701ZM52.3093 14.0593L35.5583 14.0594C35.9814 14.7907 36.5266 15.4443 37.1702 15.9918H52.3093V14.0593ZM61.971 14.0593V15.9916H67.7681V14.0593H61.971ZM61.971 10.3703V12.3026H67.7681V10.3703H61.971ZM46.5122 10.3703V12.3026H52.3093V10.3703H46.5122ZM34.5667 10.3703C34.567 11.023 34.654 11.6728 34.8252 12.3026H41.0665V10.3703H34.5667ZM19.3529 10.3703L18.681 12.3026H29.1209V10.3703H19.3529ZM5.93277 10.3703V12.3026H16.3727L15.7008 10.3703H5.93277ZM58.1063 6.68122V8.61358H71.6328V6.68122H58.1063ZM35.5562 6.68122C35.2065 7.28504 34.9447 7.93571 34.7789 8.61354H56.1739V6.68122H35.5562ZM2.06801 6.68116V8.61354H15.0899L14.4179 6.68116H2.06801ZM20.6357 6.68116L19.9638 8.61354H32.9857V6.68116H20.6357ZM58.1063 2.9922V4.92456H71.6328V2.9922H58.1063ZM41.9448 2.99219C40.1022 2.98971 38.3258 3.67936 36.9675 4.92454H56.1739V2.99219H41.9448ZM2.06801 2.99227V4.92465H13.8071L13.1351 2.99227H2.06801ZM21.9185 2.99227L21.2466 4.92465H32.9857V2.99227H21.9185Z" fill="white"/>
</svg>
