<svg width="138" height="28" viewBox="0 0 138 28" fill="none" xmlns="http://www.w3.org/2000/svg">
<path fill-rule="evenodd" clip-rule="evenodd" d="M20.4159 2.58286C19.5263 2.3902 18.5527 2.29688 17.4747 2.29688H6.84375V24.8458H17.7727C18.7831 24.8458 19.7694 24.7191 20.7199 24.4665C21.6806 24.2139 22.5385 23.826 23.2851 23.2969C24.0258 22.7728 24.6269 22.093 25.0687 21.2547C25.5054 20.4268 25.7246 19.4429 25.7246 18.299C25.7246 16.8888 25.3898 15.6849 24.7048 14.6797C24.0232 13.6814 22.9957 12.9784 21.6078 12.5794C22.6267 12.0973 23.3896 11.4766 23.9085 10.7196C24.4239 9.96188 24.6817 9.01403 24.6817 7.87866C24.6817 6.82892 24.5087 5.94186 24.1653 5.2329C23.8134 4.51366 23.322 3.94256 22.6935 3.51358C22.0556 3.08375 21.3004 2.77037 20.4159 2.58286ZM18.4988 20.8643C18.0613 20.9619 17.5963 21.0056 17.1066 21.0056H11.8082V14.7962H17.2059C18.2745 14.7962 19.1435 15.0419 19.7951 15.536C20.445 16.0369 20.7721 16.8623 20.7721 18.0242C20.7721 18.6175 20.6762 19.1082 20.4758 19.4858C20.2755 19.8676 20.0006 20.1673 19.6684 20.3857C19.3362 20.6134 18.9423 20.7667 18.4988 20.8643ZM19.0168 10.7744C18.4397 11.1983 17.7119 11.4072 16.8326 11.4072H11.8082V6.13794H16.4533C16.8925 6.13794 17.3215 6.16876 17.7299 6.24925C18.1469 6.32032 18.5056 6.45303 18.8233 6.64483C19.1435 6.82892 19.397 7.09264 19.5879 7.42914C19.7729 7.76564 19.8653 8.19975 19.8653 8.72376C19.8653 9.66904 19.5879 10.3583 19.0168 10.7744Z" fill="black"/>
<path fill-rule="evenodd" clip-rule="evenodd" d="M35.7022 21.9166C34.4444 21.9166 33.4735 21.5861 32.8022 20.9302C32.1283 20.2744 31.6916 19.0525 31.6916 17.7622H43.4734C43.5582 16.4949 43.4546 15.2851 43.1617 14.1266C42.8655 12.9673 42.392 11.9329 41.7267 11.0279C41.0606 10.122 40.2137 9.39848 39.1803 8.86504C38.1434 8.32305 36.9335 8.05761 35.5524 8.05761C34.3014 8.05761 33.1721 8.27938 32.1472 8.72205C31.1231 9.16558 30.2438 9.77265 29.5014 10.5424C28.7616 11.3079 28.1991 12.2206 27.7915 13.2781C27.3934 14.3321 27.1887 15.4726 27.1887 16.6936C27.1887 17.9565 27.3857 19.1219 27.7752 20.1742C28.1691 21.2316 28.7214 22.1324 29.4329 22.8944C30.1633 23.653 31.0315 24.2353 32.0701 24.6506C33.1087 25.0598 34.2663 25.2688 35.5524 25.2688C37.3976 25.2688 38.9816 24.8458 40.2797 23.9973C41.594 23.153 42.5573 21.7496 43.1917 19.7846H39.2428C39.0895 20.2898 38.6939 20.777 38.044 21.2316C37.3882 21.688 36.6064 21.9166 35.7022 21.9166ZM35.418 11.4432C36.5191 11.4432 37.4216 11.7625 37.955 12.3525C38.4901 12.9467 38.8814 13.7918 38.9885 14.9357H31.6916C31.7131 14.6172 31.7816 14.2567 31.8963 13.8595C32.011 13.4519 32.2088 13.0709 32.4982 12.7095C32.7885 12.3542 33.1695 12.0519 33.6336 11.8096C34.1079 11.5639 34.7013 11.4432 35.418 11.4432Z" fill="black"/>
<path d="M49.8429 2.29688V10.7993H49.9457C50.5151 9.85314 51.2352 9.16558 52.1205 8.73918C53.0041 8.30935 53.8664 8.097 54.7063 8.097C55.9042 8.097 56.8854 8.25455 57.6518 8.57906C58.419 8.90957 59.026 9.35652 59.4704 9.9379C59.9062 10.5167 60.2145 11.2231 60.3951 12.0554C60.5724 12.8859 60.664 13.8021 60.664 14.8124V24.8458H56.1576V15.6267C56.1576 14.2824 55.9479 13.2721 55.53 12.6111C55.1113 11.9492 54.3681 11.617 53.2961 11.617C52.0837 11.617 51.2069 11.9843 50.6641 12.7095C50.1109 13.4348 49.8429 14.6283 49.8429 16.2894V24.8458H45.3383V2.29688H49.8429Z" fill="black"/>
<path fill-rule="evenodd" clip-rule="evenodd" d="M65.6259 9.23065C64.9101 9.65106 64.3218 10.2136 63.8655 10.908C63.3945 11.6024 63.1342 12.4766 63.0692 13.5358H67.5678C67.6577 12.6487 67.9488 12.0134 68.4549 11.6273C68.9472 11.2522 69.6416 11.057 70.5193 11.057C70.914 11.057 71.2839 11.0853 71.6332 11.1358C71.9766 11.1914 72.2745 11.2959 72.5391 11.4551C72.7968 11.6144 73.0075 11.8327 73.1633 12.1162C73.3183 12.4039 73.4039 12.7892 73.4039 13.2721C73.4236 13.7396 73.284 14.0906 72.9938 14.3321C72.6984 14.5727 72.2959 14.7628 71.7933 14.8878C71.2839 15.0162 70.7136 15.1078 70.0552 15.1721C69.3984 15.2371 68.7409 15.321 68.0653 15.4246C67.4 15.5283 66.7287 15.6755 66.0677 15.8536C65.4007 16.03 64.8116 16.3006 64.2987 16.6602C63.7773 17.0172 63.3603 17.4993 63.0392 18.0987C62.7095 18.698 62.5426 19.4635 62.5426 20.3934C62.5426 21.2359 62.6881 21.9654 62.9707 22.5785C63.255 23.1881 63.6446 23.6916 64.1514 24.0974C64.6558 24.4956 65.2474 24.7901 65.9136 24.9802C66.59 25.1703 67.3127 25.2688 68.0884 25.2688C69.1005 25.2688 70.086 25.1206 71.0527 24.8287C72.0271 24.5324 72.8636 24.0135 73.5769 23.2754C73.5974 23.5503 73.6342 23.8183 73.6873 24.0786C73.7395 24.3449 73.8509 24.6506 73.9853 24.8458L78.5661 24.8569C78.3486 24.523 78.1183 24.0135 78.0293 23.3345C77.9505 22.6615 77.906 21.9586 77.906 21.2188V12.7095C77.906 11.7163 77.6808 10.9149 77.2364 10.3232C76.798 9.71614 76.232 9.2512 75.5376 8.91128C74.8424 8.57307 74.076 8.34617 73.2378 8.23057C72.3858 8.11413 71.5587 8.05761 70.741 8.05761C69.8317 8.05761 68.9361 8.14409 68.0405 8.32818C67.1414 8.50714 66.3417 8.80596 65.6259 9.23065ZM71.7856 17.4993C72.1041 17.4317 72.4132 17.3537 72.6924 17.2613C72.9809 17.1671 73.2095 17.0344 73.4039 16.8623V18.5396C73.4039 18.7939 73.3774 19.133 73.3183 19.5534C73.2729 19.9712 73.1333 20.3857 72.9022 20.7967C72.6752 21.2076 72.3122 21.5604 71.8301 21.8558C71.3455 22.1495 70.6657 22.2959 69.7838 22.2959C69.4284 22.2959 69.0816 22.2711 68.746 22.2043C68.4155 22.1427 68.1184 22.0313 67.8649 21.8729C67.6106 21.7145 67.4171 21.5005 67.269 21.2265C67.1251 20.9499 67.0481 20.6134 67.0481 20.2144C67.0481 19.7966 67.1251 19.4429 67.269 19.1707C67.4171 18.8992 67.6106 18.6732 67.8538 18.4925C68.0884 18.3144 68.3735 18.1732 68.6989 18.067C69.0183 17.96 69.3539 17.8778 69.6896 17.8118C70.0415 17.7485 70.4045 17.6997 70.7573 17.6568C71.1135 17.6123 71.4568 17.5618 71.7856 17.4993Z" fill="black"/>
<path d="M84.6317 8.5234V10.7993H84.7319C85.2995 9.85313 86.0316 9.16558 86.9409 8.73917C87.8426 8.30934 88.7767 8.097 89.7237 8.097C90.9267 8.097 91.914 8.25455 92.6769 8.57906C93.4535 8.90956 94.0571 9.35652 94.4946 9.9379C94.9433 10.5167 95.2515 11.2231 95.4314 12.0554C95.6129 12.8859 95.7028 13.8021 95.7028 14.8124V24.8458H91.1947V15.6267C91.1947 14.2824 90.9832 13.2721 90.5628 12.6111C90.1364 11.9492 89.4009 11.5245 88.3212 11.5245C87.1011 11.5245 86.2123 11.9843 85.666 12.7095C85.1163 13.4348 84.844 14.6283 84.844 16.2894V24.8458H80.3848V8.5234H84.6317Z" fill="black"/>
<path d="M103.887 11.9329C104.365 11.6024 104.96 11.4432 105.681 11.4432C107.598 11.4432 108.703 12.373 108.994 14.2362H113.392C113.322 13.189 113.072 12.2729 112.635 11.5082C112.192 10.7436 111.614 10.1023 110.909 9.5877C110.205 9.06968 109.403 8.68352 108.51 8.4335C107.611 8.18862 106.681 8.05761 105.711 8.05761C104.387 8.05761 103.207 8.27938 102.174 8.72205C101.137 9.16558 100.261 9.78207 99.5438 10.5749C98.8203 11.3627 98.2775 12.302 97.9102 13.386C97.5411 14.4742 97.3553 15.6515 97.3553 16.9153C97.3553 18.1355 97.5557 19.2597 97.9538 20.2838C98.3614 21.3061 98.9179 22.1855 99.6355 22.9253C100.353 23.6633 101.224 24.2353 102.25 24.6506C103.277 25.0598 104.391 25.2688 105.617 25.2688C107.787 25.2688 109.569 24.6942 110.96 23.5614C112.346 22.4209 113.189 20.7667 113.486 18.6013H109.155C109.004 19.6116 108.647 20.4182 108.07 21.0184C107.491 21.6152 106.663 21.9166 105.584 21.9166C104.888 21.9166 104.301 21.7582 103.819 21.4405C103.334 21.1212 102.951 20.717 102.662 20.2255C102.378 19.7238 102.177 19.1732 102.046 18.5636C101.923 17.9505 101.855 17.3503 101.855 16.7578C101.855 16.1447 101.923 15.5283 102.046 14.9058C102.177 14.2824 102.388 13.713 102.694 13.1984C102.999 12.6804 103.398 12.2626 103.887 11.9329Z" fill="black"/>
<path d="M30.7746 3.80984H39.9149V6.03519H30.7746V3.80984Z" fill="black"/>
<path fill-rule="evenodd" clip-rule="evenodd" d="M123.187 21.9166C121.92 21.9166 120.903 21.5861 120.229 20.9302C119.553 20.2744 119.122 19.0525 119.122 17.7622H130.956C131.039 16.4949 130.927 15.2851 130.638 14.1266C130.344 12.9673 129.866 11.9329 129.2 11.0279C128.539 10.122 127.688 9.39848 126.652 8.86504C125.626 8.32305 124.411 8.05761 123.031 8.05761C121.787 8.05761 120.648 8.27938 119.623 8.72205C118.601 9.16558 117.729 9.77265 116.984 10.5424C116.248 11.3079 115.674 12.2206 115.269 13.2781C114.87 14.3321 114.67 15.4726 114.67 16.6936C114.67 17.9565 114.864 19.1219 115.253 20.1742C115.645 21.2316 116.197 22.1324 116.916 22.8944C117.643 23.653 118.512 24.2353 119.549 24.6506C120.58 25.0598 121.742 25.2688 123.031 25.2688C124.883 25.2688 126.46 24.8458 127.764 23.9973C129.069 23.153 130.039 21.7496 130.67 19.7846H126.721C126.577 20.2898 126.173 20.777 125.521 21.2316C124.87 21.688 124.089 21.9166 123.187 21.9166ZM122.9 11.4432C123.988 11.4432 124.897 11.7625 125.437 12.3525C125.972 12.9467 126.354 13.7918 126.474 14.9357H119.122C119.142 14.6172 119.217 14.2567 119.323 13.8595C119.442 13.4519 119.646 13.0709 119.932 12.7095C120.217 12.3542 120.641 12.0519 121.106 11.8096C121.589 11.5639 122.184 11.4432 122.9 11.4432Z" fill="black"/>
</svg>
