<svg width="92" height="42" viewBox="0 0 92 42" fill="none" xmlns="http://www.w3.org/2000/svg">
<path d="M19.2705 35.6621V38.0869H2.29688V35.6621H19.2705ZM45.7966 35.662C44.0939 37.2273 41.8636 38.0932 39.5508 38.0868L21.6954 38.0628V35.662H45.7966ZM71.0345 35.662L70.1878 38.0868L69.3487 35.662H71.0345ZM62.9172 35.6621V38.0869H50.7931V35.6621H62.9172ZM89.59 35.6621V38.0869H77.466V35.6621H89.59ZM48.5429 31.0329C48.3349 31.8835 48.0064 32.7 47.5674 33.4577H21.6954V31.0329H48.5429ZM72.6595 31.033L71.8084 33.4578H68.5748L67.7236 31.033H72.6595ZM62.9172 31.0329V33.4577H50.7931V31.0329H62.9172ZM89.59 31.0329V33.4577H77.466V31.0329H89.59ZM19.2705 31.0329V33.4577H2.29688V31.0329H19.2705ZM14.4209 26.4037V28.8285H7.14647V26.4037H14.4209ZM33.8194 26.4037V28.8285H26.545V26.4037H33.8194ZM48.4848 26.4037C48.6997 27.1941 48.8087 28.0095 48.8092 28.8285H40.653V26.4037H48.4848ZM74.2848 26.4037L73.4334 28.8285H66.9497L66.0984 26.4037H74.2848ZM62.9172 26.4037V28.8285H55.6427V26.4037H62.9172ZM84.7404 26.4037V28.8285H77.466V26.4037H84.7404ZM14.4209 21.7745V24.1994H7.14647V21.7745H14.4209ZM62.9172 21.7745V24.1994H55.6427V21.7745H62.9172ZM84.7404 21.7745V24.1994H77.466V21.7745H84.7404ZM45.5421 21.7744C46.3496 22.4614 47.0337 23.2815 47.5647 24.1992H26.5449V21.7744H45.5421ZM75.9098 21.7744L75.0587 24.1993H65.3245L64.4733 21.7744H75.9098ZM69.5099 17.1454L70.1916 19.1054L70.873 17.1454H84.7404V19.5703H77.4661V17.3421L76.6837 19.5703H63.6994L62.9171 17.3418V19.5703H55.6428V17.1454H69.5099ZM26.545 17.1453L47.5649 17.1455C47.0339 18.0632 46.3498 18.8833 45.5422 19.5703H26.545V17.1453ZM14.4209 17.1453V19.5701H7.14647V17.1453H14.4209ZM14.4209 12.5162V14.941H7.14647V12.5162H14.4209ZM33.8194 12.5162V14.941H26.545V12.5162H33.8194ZM48.8092 12.5162C48.8087 13.3353 48.6997 14.1506 48.4848 14.941H40.653V12.5162H48.8092ZM67.9001 12.5162L68.7433 14.941H55.6428V12.5162H67.9001ZM84.7404 12.5162V14.941H71.6398L72.483 12.5162H84.7404ZM19.2705 7.88699V10.3118H2.29688V7.88699H19.2705ZM47.5674 7.88699C48.0064 8.64468 48.3349 9.46118 48.5429 10.3117H21.6954V7.88699H47.5674ZM89.59 7.8869V10.3117H73.2496L74.0928 7.8869H89.59ZM66.2904 7.8869L67.1336 10.3117H50.7931V7.8869H66.2904ZM19.2705 3.25783V5.68264H2.29688V3.25783H19.2705ZM39.5508 3.25782C41.863 3.25471 44.0921 4.12011 45.7965 5.68262H21.6954V3.25782H39.5508ZM89.59 3.25791V5.68275H74.8593L75.7025 3.25791H89.59ZM64.6807 3.25791L65.5239 5.68275H50.7931V3.25791H64.6807Z" fill="#3680EA"/>
</svg>
