<svg width="106" height="24" viewBox="0 0 106 24" fill="none" xmlns="http://www.w3.org/2000/svg">
<path d="M86.8454 2.21094C85.0379 2.524 83.309 3.07381 81.692 3.83033C78.8649 8.05232 77.4601 12.8141 77.9788 18.3063C80.1419 19.9237 82.2402 20.9049 84.3031 21.5471C84.8139 20.8468 85.2658 20.1003 85.6567 19.3177C84.9121 19.0347 84.197 18.6856 83.5212 18.2782C83.698 18.1458 83.8728 18.0073 84.0438 17.8648C88.1047 19.7872 92.5705 19.7872 96.6805 17.8648C96.8495 18.0073 97.0244 18.1458 97.2031 18.2782C96.5293 18.6836 95.8161 19.0327 95.0715 19.3157C95.4625 20.1003 95.9163 20.8447 96.4251 21.5451C98.4861 20.9029 100.582 19.9217 102.745 18.3063C103.188 13.5686 102.303 8.76268 99.0421 3.83434C97.4251 3.07583 95.6943 2.524 93.8848 2.21094C93.6608 2.61228 93.3956 3.15209 93.2168 3.5815C91.3307 3.29254 89.427 3.29254 87.5055 3.5815C87.3267 3.15209 87.0674 2.61228 86.8454 2.21094ZM37.2803 8.39583C35.9052 8.39583 34.7636 8.69081 33.8559 9.28075V11.8513C34.176 11.6265 34.5496 11.4439 34.9759 11.3035C35.4022 11.163 35.858 11.0928 36.3452 11.0928C37.1978 11.0928 37.8638 11.2513 38.3452 11.5703C38.8267 11.8894 39.0681 12.3048 39.0681 12.8205C39.0681 13.3262 38.8345 13.7396 38.3668 14.0646C37.8991 14.3877 37.2214 14.5502 36.3315 14.5502C35.8737 14.5502 35.4217 14.482 34.9759 14.3476C34.5318 14.2111 34.1487 14.0446 33.8285 13.8479V16.3341C34.8362 16.9522 36.0052 17.2612 37.3355 17.2612C38.4551 17.2572 39.4101 17.0606 40.198 16.6673C40.9856 16.2739 41.581 15.7402 41.9779 15.0659C42.3747 14.3917 42.575 13.6332 42.575 12.7904C42.575 11.9476 42.3689 11.1931 41.9563 10.5289C41.5437 9.8647 40.9386 9.34297 40.1408 8.96371C39.3434 8.58446 38.3904 8.39583 37.2803 8.39583ZM47.6091 8.39391C46.8391 8.39391 46.1337 8.47818 45.491 8.64674C44.8486 8.81531 44.3182 9.03 43.8957 9.29287V11.4982C44.3282 11.2353 44.8233 11.0287 45.389 10.8721C45.9529 10.7176 46.5323 10.6414 47.1298 10.6414C47.9923 10.6414 48.4224 10.7918 48.4224 11.0908C48.4224 11.2313 48.3556 11.3357 48.2221 11.4059C48.0885 11.4761 47.843 11.5484 47.4872 11.6246L46.1121 11.8775C45.214 12.036 44.5442 12.3149 44.1042 12.7122C43.6639 13.1095 43.4441 13.6975 43.4441 14.4761C43.4441 15.3289 43.8074 16.0051 44.5364 16.5068C45.2653 17.0085 46.2987 17.2593 47.6386 17.2593C48.4265 17.2573 49.1924 17.159 49.9351 16.9623C50.6778 16.7657 51.3479 16.4807 51.943 16.1055V13.7738C51.4931 14.1289 50.8901 14.4219 50.1337 14.6527C49.3773 14.8814 48.6463 14.9958 47.9392 14.9958C47.6091 14.9958 47.3595 14.9516 47.1907 14.8633C47.0216 14.7751 46.937 14.6687 46.937 14.5463C46.937 14.4058 46.9822 14.2895 47.0746 14.1951C47.1671 14.1008 47.3458 14.0226 47.6109 13.9563L49.2613 13.5771C50.2063 13.3524 50.8764 13.0413 51.275 12.642C51.6739 12.2447 51.8725 11.7229 51.8725 11.0768C51.8725 10.533 51.6996 10.0614 51.3496 9.65809C51.0021 9.25476 50.507 8.94372 49.8646 8.72499C49.2219 8.50427 48.4717 8.39391 47.6091 8.39391ZM2.91433 6.86282V16.9764H6.28399V15.1363C6.56887 15.8286 7.001 16.3563 7.58241 16.7175C8.16417 17.0767 8.88322 17.2573 9.73582 17.2573C10.498 17.2573 11.162 17.0687 11.73 16.6894C12.2977 16.3102 12.7357 15.7905 13.0442 15.1302C13.3507 14.47 13.5061 13.7236 13.5061 12.8888C13.5157 12.028 13.3527 11.2554 13.0168 10.5711C12.6826 9.88685 12.2094 9.3531 11.6003 8.96981C10.9911 8.58655 10.2957 8.39391 9.51566 8.39391C7.93812 8.39391 6.87118 9.08191 6.3129 10.456L6.28409 10.5288L6.28399 6.86282H2.91433ZM27.6124 8.39189C26.5218 8.39189 25.5809 8.5785 24.793 8.95375C24.0051 9.329 23.4038 9.84272 22.9912 10.4989C22.5786 11.1551 22.3725 11.9076 22.3725 12.7604C22.3725 13.6032 22.5786 14.3657 22.9912 15.05C23.4038 15.7342 24.0071 16.272 24.8008 16.6653C25.5946 17.0586 26.5317 17.2553 27.6141 17.2553C28.6968 17.2553 29.634 17.0606 30.4256 16.6673C31.2193 16.274 31.8244 15.7362 32.2411 15.052C32.6575 14.3677 32.8677 13.6052 32.8677 12.7624C32.8677 11.9196 32.6595 11.1671 32.2411 10.5069C31.8227 9.84672 31.2214 9.329 30.4314 8.95375C29.6439 8.5785 28.7026 8.39189 27.6124 8.39189ZM53.4476 10.6955V17.0205H56.807V10.6955C55.7777 11.149 54.5005 11.169 53.4476 10.6955ZM15.3606 8.57648C14.8754 8.57648 14.4587 8.68886 14.1091 8.91359V11.9476C14.4587 11.7129 14.9107 11.5965 15.4705 11.5965C16.2036 11.5965 16.7693 11.8233 17.1624 12.2767C17.5572 12.7303 17.7537 13.4366 17.7537 14.3917V16.9763H21.123V8.75909H17.8222V11.3717C17.6397 10.4166 17.3428 9.71226 16.9343 9.25671C16.5275 8.80323 16.0013 8.57648 15.3606 8.57648ZM63.9219 7.14373C62.629 7.14373 61.5367 7.35041 60.6406 7.76179C59.7469 8.17312 59.0768 8.74704 58.6327 9.48147C58.1889 10.2159 57.965 11.0567 57.965 12.0038C57.965 12.9309 58.1968 13.7717 58.6604 14.5242C59.1241 15.2787 59.8294 15.8747 60.7782 16.3141C61.7271 16.7536 62.9022 16.9743 64.3068 16.9743H69.2853V7.14373H63.9219ZM94.5115 10.2817C95.767 10.2817 96.7572 11.4355 96.7572 12.8382C96.7572 14.2408 95.7454 15.3927 94.5115 15.3927C93.2561 15.3927 92.264 14.2408 92.2659 12.8382C92.2443 11.4335 93.2561 10.2817 94.5115 10.2817ZM86.2128 10.2817C87.4682 10.2817 88.4584 11.4355 88.4584 12.8382C88.4584 14.2408 87.4466 15.3927 86.2128 15.3927C84.9573 15.3927 83.9671 14.2408 83.9671 12.8382C83.9455 11.4335 84.9573 10.2817 86.2128 10.2817ZM27.6141 10.9805C28.2017 10.9805 28.6615 11.147 28.9974 11.4801C29.3313 11.8133 29.4984 12.2587 29.4984 12.8206C29.4984 13.3825 29.3313 13.834 28.9974 14.1751C28.6632 14.5162 28.2017 14.6888 27.6141 14.6888C27.0368 14.6868 26.5807 14.5162 26.2468 14.1751C25.9127 13.834 25.7439 13.3825 25.7439 12.8206C25.7439 12.2587 25.9109 11.8112 26.2468 11.4801C26.5807 11.147 27.0368 10.9805 27.6141 10.9805ZM8.14054 11.0226C8.70825 11.0226 9.16195 11.1892 9.50196 11.5223C9.84197 11.8554 10.0108 12.2868 10.0108 12.8206C10.0108 13.3544 9.84197 13.7898 9.50196 14.1269C9.16195 14.464 8.71407 14.6326 8.15424 14.6326C7.58652 14.6306 7.13077 14.46 6.78664 14.1189C6.44286 13.7778 6.272 13.3343 6.272 12.7925C6.272 12.2688 6.4391 11.8413 6.77295 11.5143C7.10715 11.1872 7.56495 11.0226 8.14054 11.0226ZM64.1674 9.64401H65.8452V14.476H64.3619C63.4915 14.476 62.8214 14.2533 62.354 13.8098C61.8863 13.3643 61.6524 12.7583 61.6524 11.9898C61.6524 11.2774 61.8609 10.7095 62.2773 10.2841C62.6937 9.85871 63.3244 9.64401 64.1674 9.64401ZM55.1257 6.55171C54.1981 6.55171 53.4459 7.24166 53.4459 8.09279C53.4459 8.94392 54.1981 9.63391 55.1257 9.63391C56.0537 9.63391 56.8056 8.94392 56.8056 8.09279C56.8056 7.24166 56.0537 6.55171 55.1257 6.55171Z" fill="white"/>
</svg>
