<svg width="84" height="30" viewBox="0 0 84 30" fill="none" xmlns="http://www.w3.org/2000/svg">
<path fill-rule="evenodd" clip-rule="evenodd" d="M12.1686 4.34375H6.02323C5.60264 4.34375 5.24503 4.64935 5.17941 5.06462L2.69395 20.8229C2.64452 21.1337 2.88539 21.4141 3.20074 21.4141H6.13462C6.55514 21.4141 6.91274 21.1086 6.97836 20.6926L7.64869 16.4424C7.71343 16.0263 8.07191 15.7207 8.49155 15.7207H10.437C14.4851 15.7207 16.8213 13.7618 17.4315 9.87998C17.7065 8.18165 17.4432 6.8473 16.6479 5.91279C15.7745 4.88651 14.2254 4.34375 12.1686 4.34375ZM12.8776 10.0993C12.5415 12.3044 10.8566 12.3044 9.2275 12.3044H8.30019L8.95074 8.1862C8.98941 7.93727 9.20502 7.75396 9.45666 7.75396H9.88164C10.9914 7.75396 12.0383 7.75396 12.5792 8.38649C12.9018 8.76395 13.0007 9.32463 12.8776 10.0993Z" fill="white"/>
<path fill-rule="evenodd" clip-rule="evenodd" d="M30.538 10.0283H27.5953C27.3446 10.0283 27.1281 10.2117 27.0893 10.4606L26.9592 11.2837L26.7533 10.9853C26.1162 10.0606 24.6955 9.75159 23.2776 9.75159C20.0257 9.75159 17.2482 12.2146 16.7072 15.6696C16.426 17.393 16.8259 19.041 17.8035 20.1903C18.7003 21.247 19.9834 21.6873 21.5102 21.6873C24.1304 21.6873 25.5834 20.0025 25.5834 20.0025L25.4522 20.8202C25.4027 21.1329 25.6436 21.4133 25.9573 21.4133H28.6079C29.0294 21.4133 29.3852 21.1077 29.4517 20.6918L31.0422 10.6196C31.0926 10.3096 30.8526 10.0283 30.538 10.0283ZM26.4361 15.7559C26.1522 17.437 24.8177 18.5658 23.116 18.5658C22.2614 18.5658 21.5784 18.2916 21.1399 17.7722C20.705 17.2565 20.5396 16.5223 20.6781 15.7046C20.9431 14.0378 22.3 12.8724 23.9758 12.8724C24.8116 12.8724 25.4908 13.15 25.9383 13.6738C26.3868 14.203 26.5645 14.9417 26.4361 15.7559Z" fill="white"/>
<path d="M43.2538 10.0283H46.211C46.6253 10.0283 46.867 10.4929 46.6315 10.8326L36.7958 25.0301C36.6368 25.2601 36.3744 25.3968 36.0941 25.3968H33.1405C32.7243 25.3968 32.4817 24.9284 32.7226 24.588L35.7849 20.2649L32.5276 10.7058C32.4153 10.3734 32.6605 10.0283 33.0137 10.0283H35.9197C36.2971 10.0283 36.6305 10.2763 36.7392 10.6376L38.468 16.411L42.5467 10.4031C42.7066 10.1685 42.9717 10.0283 43.2538 10.0283Z" fill="white"/>
<path d="M75.3202 20.8236L77.8426 4.77683C77.8812 4.52804 78.0968 4.3445 78.3475 4.34375H81.1871C81.5008 4.34375 81.7415 4.62497 81.692 4.93601L79.2049 20.6933C79.1402 21.1094 78.7825 21.4149 78.361 21.4149H75.8253C75.5117 21.4149 75.2709 21.1344 75.3202 20.8236Z" fill="white"/>
<path fill-rule="evenodd" clip-rule="evenodd" d="M56.0045 4.3445H49.8582C49.4387 4.3445 49.0809 4.6501 49.0153 5.06537L46.5299 20.8236C46.4806 21.1344 46.7213 21.4149 47.0349 21.4149H50.189C50.4818 21.4149 50.7327 21.2011 50.7784 20.9099L51.4837 16.4431C51.5484 16.027 51.907 15.7215 52.3266 15.7215H54.2712C58.3201 15.7215 60.6555 13.7626 61.2666 9.88072C61.5425 8.18239 61.2774 6.84805 60.4821 5.91354C59.6096 4.88726 58.0613 4.3445 56.0045 4.3445ZM56.7135 10.1C56.3783 12.3051 54.6936 12.3051 53.0634 12.3051H52.1371L52.7886 8.18695C52.8272 7.93801 53.0409 7.75471 53.2935 7.75471H53.7185C54.8275 7.75471 55.8751 7.75471 56.416 8.38724C56.7387 8.7647 56.8365 9.32538 56.7135 10.1Z" fill="white"/>
<path fill-rule="evenodd" clip-rule="evenodd" d="M74.3733 10.0291H71.4322C71.1797 10.0291 70.9648 10.2124 70.9271 10.4613L70.7968 11.2844L70.5902 10.986C69.9532 10.0614 68.5334 9.75234 67.1154 9.75234C63.8634 9.75234 61.0869 12.2153 60.5459 15.6703C60.2656 17.3938 60.6636 19.0418 61.6413 20.191C62.5399 21.2477 63.8212 21.688 65.3479 21.688C67.9681 21.688 69.4211 20.0033 69.4211 20.0033L69.2899 20.821C69.2406 21.1337 69.4813 21.414 69.7968 21.414H72.4467C72.8663 21.414 73.224 21.1085 73.2896 20.6925L74.881 10.6203C74.9293 10.3103 74.6886 10.0291 74.3733 10.0291ZM70.2711 15.7566C69.989 17.4378 68.6528 18.5665 66.951 18.5665C66.0982 18.5665 65.4135 18.2924 64.9749 17.773C64.5402 17.2572 64.3765 16.5231 64.5132 15.7053C64.78 14.0385 66.1351 12.8731 67.811 12.8731C68.6466 12.8731 69.3259 13.1507 69.7734 13.6745C70.2235 14.2038 70.4014 14.9425 70.2711 15.7566Z" fill="white"/>
</svg>
