<svg width="74" height="34" viewBox="0 0 74 34" fill="none" xmlns="http://www.w3.org/2000/svg">
<path d="M15.354 28.8144V30.7466H1.82812V28.8144H15.354ZM36.4919 28.8143C35.1351 30.0616 33.3579 30.7516 31.5148 30.7465L17.2863 30.7274V28.8143H36.4919ZM56.6034 28.8142L55.9287 30.7465L55.26 28.8142H56.6034ZM50.1349 28.8144V30.7466H40.4736V28.8144H50.1349ZM71.3899 28.8144V30.7466H61.7285V28.8144H71.3899ZM38.6805 25.1254C38.5147 25.8033 38.2529 26.4539 37.9031 27.0577H17.2863V25.1254H38.6805ZM57.8984 25.1255L57.2201 27.0578H54.6433L53.9651 25.1255H57.8984ZM50.1349 25.1254V27.0577H40.4736V25.1254H50.1349ZM71.3899 25.1254V27.0577H61.7285V25.1254H71.3899ZM15.354 25.1254V27.0577H1.82812V25.1254H15.354ZM11.4895 21.4366V23.3689H5.69265V21.4366H11.4895ZM26.9477 21.4366V23.3689H21.1508V21.4366H26.9477ZM38.6341 21.4366C38.8054 22.0664 38.8923 22.7162 38.8926 23.3689H32.3931V21.4366H38.6341ZM59.1935 21.4366L58.5151 23.3689H53.3484L52.6699 21.4366H59.1935ZM50.1349 21.4366V23.3689H44.3381V21.4366H50.1349ZM67.5253 21.4366V23.3689H61.7285V21.4366H67.5253ZM11.4895 17.7477V19.68H5.69265V17.7477H11.4895ZM50.1349 17.7477V19.68H44.3381V17.7477H50.1349ZM67.5253 17.7477V19.68H61.7285V17.7477H67.5253ZM36.2891 17.7476C36.9327 18.2951 37.4778 18.9486 37.901 19.6799H21.1508V17.7476H36.2891ZM60.4885 17.7476L59.8102 19.6799H52.0532L51.375 17.7476H60.4885ZM55.3885 14.0589L55.9317 15.6208L56.4747 14.0589H67.5253V15.9912H61.7286V14.2156L61.1052 15.9912H50.7583L50.1348 14.2154V15.9912H44.3382V14.0589H55.3885ZM21.1508 14.0588L37.9011 14.0589C37.4779 14.7902 36.9328 15.4437 36.2892 15.9912H21.1508V14.0588ZM11.4895 14.0588V15.9911H5.69265V14.0588H11.4895ZM11.4895 10.3699V12.3022H5.69265V10.3699H11.4895ZM26.9477 10.3699V12.3022H21.1508V10.3699H26.9477ZM38.8926 10.37C38.8923 11.0227 38.8054 11.6724 38.6341 12.3022H32.3931V10.37H38.8926ZM54.1057 10.3699L54.7777 12.3022H44.3382V10.3699H54.1057ZM67.5253 10.3699V12.3022H57.0858L57.7577 10.3699H67.5253ZM15.354 6.68106V8.61333H1.82812V6.68106H15.354ZM37.9031 6.68106C38.2529 7.28485 38.5146 7.93549 38.6805 8.61329H17.2863V6.68106H37.9031ZM71.3899 6.681V8.61329H58.3686L59.0405 6.681H71.3899ZM52.823 6.681L53.4949 8.61329H40.4736V6.681H52.823ZM15.354 2.9922V4.92447H1.82812V2.9922H15.354ZM31.5148 2.99219C33.3574 2.98971 35.1337 3.67933 36.4919 4.92445H17.2863V2.99219H31.5148ZM71.3899 2.99227V4.92456H59.6513L60.3232 2.99227H71.3899ZM51.5402 2.99227L52.2121 4.92456H40.4736V2.99227H51.5402Z" fill="white"/>
</svg>
