<svg width="88" height="44" viewBox="0 0 88 44" fill="none" xmlns="http://www.w3.org/2000/svg">
<path d="M33.6937 3.84034L22.8298 29.7588H15.7415L10.3948 9.07363C10.0711 7.80253 9.7892 7.33468 8.80263 6.79741C7.19031 5.92158 4.52783 5.10243 2.1875 4.59272L2.34539 3.84034H13.7567C15.209 3.84034 16.5167 4.80731 16.8489 6.48162L19.674 21.481L26.6484 3.84034H33.6937ZM43.276 3.84034L37.7317 29.7588H31.026L36.5703 3.84034H43.276ZM61.4656 21.2967C61.4937 14.4574 52.0089 14.078 52.0709 11.0219C52.0937 10.0931 52.9786 9.10383 54.9157 8.8511C55.8752 8.72711 58.5261 8.62803 61.5287 10.0115L62.7034 4.51219C61.09 3.92882 59.014 3.36719 56.4316 3.36719C49.8027 3.36719 45.1395 6.88802 45.1024 11.9337C45.0589 15.666 48.433 17.7462 50.9704 18.9892C53.5842 20.2587 54.4605 21.0746 54.4484 22.209C54.4298 23.948 52.3613 24.7179 50.4379 24.7465C47.0655 24.8 45.1103 23.8351 43.551 23.1087L42.334 28.7903C43.9028 29.5093 46.7942 30.134 49.7889 30.1658C56.8358 30.1658 61.445 26.6852 61.4656 21.2967ZM78.9702 29.7588H85.1699L79.7533 3.84034H74.0331C72.7429 3.84034 71.6588 4.58901 71.1777 5.74037L61.1159 29.7588H68.1576L69.5543 25.8872H78.1574L78.9702 29.7588ZM71.485 20.5761L75.0159 10.8428L77.0442 20.5761H71.485ZM51.8578 36.8931H49.1333V39.4289H52.181V40.1914H48.2151V33.1561H52.0247V33.9185H49.1333V36.1413H51.8578V36.8931ZM53.5885 32.7808H54.5067V40.1912H53.5885V32.7808ZM56.8231 37.8321C56.8437 39.0746 57.6269 39.5859 58.5551 39.5859C59.2132 39.5859 59.6201 39.471 59.9545 39.3253L60.1214 39.9828C59.7976 40.1285 59.2344 40.306 58.4301 40.306C56.8755 40.306 55.9467 39.2728 55.9467 37.749C55.9467 36.2251 56.8437 35.0351 58.3156 35.0351C59.9751 35.0351 60.4032 36.4757 60.4032 37.4046C60.4032 37.5921 60.3927 37.7278 60.3715 37.8321H56.8231ZM59.5157 37.1746C59.5263 36.6008 59.2757 35.6926 58.2425 35.6926C57.3031 35.6926 56.9063 36.5383 56.8331 37.1746H59.5157ZM65.4004 40.0137C65.1604 40.1287 64.6279 40.3062 63.9497 40.3062C62.4259 40.3062 61.4345 39.273 61.4345 37.728C61.4345 36.1729 62.4985 35.0353 64.1479 35.0353C64.6904 35.0353 65.1705 35.1704 65.4211 35.3066L65.2129 36.006C64.993 35.891 64.6486 35.7654 64.1479 35.7654C62.9891 35.7654 62.3634 36.6317 62.3634 37.6761C62.3634 38.8449 63.1147 39.565 64.1166 39.565C64.6385 39.565 64.9829 39.4399 65.2436 39.3249L65.4004 40.0137ZM67.9767 33.9288V35.1395H69.2913V35.8383H67.9767V38.5628C67.9767 39.1896 68.1542 39.5441 68.6655 39.5441C68.9156 39.5441 69.0624 39.5234 69.198 39.481L69.2399 40.181C69.0624 40.2435 68.7805 40.306 68.4255 40.306C67.9974 40.306 67.653 40.1598 67.4341 39.9203C67.1835 39.6379 67.0791 39.1896 67.0791 38.5946V35.8383H66.296V35.1395H67.0791V34.2001L67.9767 33.9288ZM70.5742 36.7157C70.5742 36.1206 70.5631 35.6093 70.5324 35.1394H71.3361L71.378 36.1413H71.4087C71.6387 35.4631 72.2019 35.035 72.8176 35.035C72.9119 35.035 72.985 35.0456 73.0687 35.0556V35.9225C72.9744 35.9013 72.8812 35.9013 72.7551 35.9013C72.1087 35.9013 71.6488 36.3813 71.5237 37.0707C71.503 37.1957 71.4924 37.352 71.4924 37.4988V40.1914H70.5742V36.7157ZM78.7139 37.6236C78.7139 39.4918 77.4089 40.3062 76.1982 40.3062C74.8412 40.3062 73.7773 39.3037 73.7773 37.7073C73.7773 36.0266 74.8937 35.0352 76.2819 35.0352C77.7326 35.0352 78.7139 36.0891 78.7139 37.6236ZM74.7162 37.676C74.7162 38.7823 75.3425 39.6174 76.24 39.6174C77.1169 39.6174 77.7739 38.7924 77.7739 37.6548C77.7739 36.7991 77.3464 35.7235 76.2607 35.7235C75.1862 35.7235 74.7162 36.726 74.7162 37.676ZM80.1213 36.5066C80.1213 35.9746 80.1101 35.5571 80.0794 35.1396H80.8932L80.9457 35.9746H80.9664C81.217 35.5046 81.8014 35.0352 82.6364 35.0352C83.3353 35.0352 84.421 35.4527 84.421 37.1848V40.1911H83.5027V37.2791C83.5027 36.4653 83.2002 35.7865 82.3339 35.7865C81.7389 35.7865 81.2689 36.2146 81.1025 36.7259C81.0601 36.8409 81.0395 36.9972 81.0395 37.1541V40.1911H80.1213V36.5066Z" fill="#039F00"/>
</svg>
