<svg width="84" height="30" viewBox="0 0 84 30" fill="none" xmlns="http://www.w3.org/2000/svg">
<path fill-rule="evenodd" clip-rule="evenodd" d="M72.2295 4.35156H78.3751C78.7957 4.35156 79.1533 4.65717 79.2189 5.07247L81.7045 20.8314C81.7539 21.1422 81.513 21.4227 81.1977 21.4227H78.2637C77.8431 21.4227 77.4855 21.1172 77.4199 20.7011L76.7495 16.4507C76.6848 16.0346 76.3263 15.729 75.9066 15.729H73.9611C69.9129 15.729 67.5765 13.77 66.9662 9.88803C66.6913 8.18963 66.9546 6.85522 67.7499 5.92067C68.6233 4.89435 70.1726 4.35156 72.2295 4.35156ZM71.5204 10.1073C71.8565 12.3125 73.5415 12.3125 75.1707 12.3125H76.098L75.4474 8.19419C75.4087 7.94524 75.1931 7.76193 74.9415 7.76193H74.5165C73.4067 7.76193 72.3598 7.76193 71.8188 8.39448C71.4962 8.77196 71.3973 9.33267 71.5204 10.1073Z" fill="white"/>
<path fill-rule="evenodd" clip-rule="evenodd" d="M53.8592 10.0364H56.802C57.0527 10.0364 57.2693 10.2197 57.3081 10.4687L57.4382 11.2918L57.6441 10.9934C58.2812 10.0687 59.702 9.75964 61.12 9.75964C64.372 9.75964 67.1496 12.2227 67.6906 15.6779C67.9718 17.4014 67.5719 19.0495 66.5943 20.1988C65.6975 21.2555 64.4143 21.6958 62.8874 21.6958C60.2671 21.6958 58.814 20.0111 58.814 20.0111L58.9452 20.8288C58.9947 21.1415 58.7538 21.4218 58.4401 21.4218H55.7894C55.3679 21.4218 55.0121 21.1163 54.9455 20.7003L53.355 10.6277C53.3046 10.3176 53.5446 10.0364 53.8592 10.0364ZM57.9613 15.7642C58.2452 17.4454 59.5797 18.5742 61.2816 18.5742C62.1362 18.5742 62.8192 18.3 63.2577 17.7806C63.6926 17.2648 63.858 16.5307 63.7196 15.7129C63.4545 14.046 62.0975 12.8806 60.4217 12.8806C59.5859 12.8806 58.9066 13.1582 58.4591 13.682C58.0106 14.2113 57.8329 14.95 57.9613 15.7642Z" fill="white"/>
<path d="M41.1428 10.0364H38.1855C37.7712 10.0364 37.5295 10.501 37.765 10.8407L47.6011 25.0388C47.7601 25.2689 48.0226 25.4055 48.3029 25.4055H51.2566C51.6729 25.4055 51.9155 24.9372 51.6745 24.5967L48.6121 20.2734L51.8695 10.7139C51.9818 10.3814 51.7366 10.0364 51.3834 10.0364H48.4773C48.0998 10.0364 47.7665 10.2844 47.6577 10.6457L45.9289 16.4193L41.85 10.4112C41.6901 10.1766 41.425 10.0364 41.1428 10.0364Z" fill="white"/>
<path d="M9.07693 20.8322L6.55443 4.78467C6.51581 4.53587 6.3002 4.35231 6.04952 4.35156H3.20979C2.89612 4.35156 2.65537 4.6328 2.70487 4.94384L5.19213 20.7019C5.25681 21.1179 5.61454 21.4234 6.03602 21.4234H8.57183C8.88551 21.4234 9.12625 21.143 9.07693 20.8322Z" fill="white"/>
<path fill-rule="evenodd" clip-rule="evenodd" d="M28.3935 4.35231H34.54C34.9597 4.35231 35.3174 4.65792 35.383 5.07321L37.8686 20.8322C37.9179 21.143 37.6771 21.4234 37.3635 21.4234H34.2093C33.9165 21.4234 33.6656 21.2096 33.6198 20.9184L32.9145 16.4515C32.8498 16.0353 32.4912 15.7298 32.0715 15.7298H30.1269C26.0778 15.7298 23.7423 13.7708 23.1312 9.88878C22.8553 8.19038 23.1204 6.85597 23.9157 5.92142C24.7883 4.8951 26.3366 4.35231 28.3935 4.35231ZM27.6845 10.1081C28.0197 12.3133 29.7045 12.3133 31.3347 12.3133H32.2611L31.6096 8.19493C31.5709 7.94598 31.3572 7.76267 31.1047 7.76267H30.6796C29.5706 7.76267 28.5229 7.76267 27.982 8.39523C27.6593 8.77271 27.5615 9.33341 27.6845 10.1081Z" fill="white"/>
<path fill-rule="evenodd" clip-rule="evenodd" d="M10.024 10.0371H12.9651C13.2177 10.0371 13.4325 10.2205 13.4702 10.4694L13.6005 11.2925L13.8071 10.9942C14.4442 10.0694 15.8641 9.76039 17.2821 9.76039C20.5343 9.76039 23.3109 12.2235 23.852 15.6786C24.1323 17.4022 23.7342 19.0503 22.7564 20.1995C21.8578 21.2563 20.5765 21.6966 19.0498 21.6966C16.4294 21.6966 14.9763 20.0118 14.9763 20.0118L15.1076 20.8295C15.1569 21.1422 14.9161 21.4226 14.6006 21.4226H11.9506C11.531 21.4226 11.1733 21.117 11.1076 20.7011L9.51622 10.6284C9.46785 10.3184 9.70859 10.0371 10.024 10.0371ZM14.1262 15.7649C14.4084 17.4462 15.7447 18.5749 17.4465 18.5749C18.2994 18.5749 18.9841 18.3008 19.4227 17.7814C19.8575 17.2656 20.0211 16.5314 19.8845 15.7136C19.6177 14.0467 18.2625 12.8813 16.5865 12.8813C15.7509 12.8813 15.0716 13.1589 14.624 13.6827C14.1739 14.212 13.9959 14.9507 14.1262 15.7649Z" fill="white"/>
</svg>
