<svg width="22" height="22" viewBox="0 0 22 22" fill="none" xmlns="http://www.w3.org/2000/svg">
<path fill-rule="evenodd" clip-rule="evenodd" d="M14.4624 14.2105C14.719 14.466 14.719 14.8852 14.4624 15.1407C14.2065 15.3961 13.7904 15.3961 13.5338 15.1407L10.7539 12.3634L7.95437 15.1602C7.69581 15.4157 7.27714 15.4157 7.01858 15.1602C6.76067 14.8982 6.76067 14.4791 7.01858 14.2236L9.81814 11.4267L7.03825 8.65604C6.78165 8.40059 6.78165 7.98135 7.03825 7.7259C7.29353 7.47045 7.70959 7.47045 7.96618 7.7259L10.7461 10.5031L13.5666 7.68664C13.8252 7.43119 14.2432 7.43119 14.5018 7.68664C14.7597 7.94865 14.7597 8.36126 14.5018 8.62326L11.6819 11.4398L14.4624 14.2105ZM10.75 0.953125C4.95072 0.953125 0.25 5.64299 0.25 11.4333C0.25 17.2236 4.95072 21.9134 10.75 21.9134C16.5493 21.9134 21.25 17.2236 21.25 11.4333C21.25 5.64299 16.5493 0.953125 10.75 0.953125Z" fill="url(#paint0_linear_4056_24308)"/>
<defs>
<linearGradient id="paint0_linear_4056_24308" x1="10.75" y1="0.953125" x2="10.75" y2="21.9134" gradientUnits="userSpaceOnUse">
<stop stop-color="#D97C48"/>
<stop offset="1" stop-color="#CE0000"/>
</linearGradient>
</defs>
</svg>
