<svg width="22" height="22" viewBox="0 0 22 22" fill="none" xmlns="http://www.w3.org/2000/svg">
<path fill-rule="evenodd" clip-rule="evenodd" d="M14.4624 13.7261C14.719 13.9816 14.719 14.4008 14.4624 14.6563C14.2065 14.9117 13.7904 14.9117 13.5338 14.6563L10.7539 11.879L7.95437 14.6759C7.69581 14.9313 7.27714 14.9313 7.01858 14.6759C6.76067 14.4139 6.76067 13.9947 7.01858 13.7392L9.81814 10.9423L7.03825 8.17167C6.78165 7.91621 6.78165 7.49698 7.03825 7.24153C7.29353 6.98607 7.70959 6.98607 7.96618 7.24153L10.7461 10.0188L13.5666 7.20227C13.8252 6.94681 14.2432 6.94681 14.5018 7.20227C14.7597 7.46427 14.7597 7.87688 14.5018 8.13889L11.6819 10.9555L14.4624 13.7261ZM10.75 0.46875C4.95072 0.46875 0.25 5.15862 0.25 10.9489C0.25 16.7392 4.95072 21.4291 10.75 21.4291C16.5493 21.4291 21.25 16.7392 21.25 10.9489C21.25 5.15862 16.5493 0.46875 10.75 0.46875Z" fill="url(#paint0_linear_4056_24314)"/>
<defs>
<linearGradient id="paint0_linear_4056_24314" x1="10.75" y1="0.46875" x2="10.75" y2="21.4291" gradientUnits="userSpaceOnUse">
<stop stop-color="#D97C48"/>
<stop offset="1" stop-color="#CE0000"/>
</linearGradient>
</defs>
</svg>
