<svg width="22" height="22" viewBox="0 0 22 22" fill="none" xmlns="http://www.w3.org/2000/svg">
<path fill-rule="evenodd" clip-rule="evenodd" d="M14.4624 13.9605C14.719 14.216 14.719 14.6352 14.4624 14.8907C14.2065 15.1461 13.7904 15.1461 13.5338 14.8907L10.7539 12.1134L7.95437 14.9102C7.69581 15.1657 7.27714 15.1657 7.01858 14.9102C6.76067 14.6482 6.76067 14.2291 7.01858 13.9736L9.81814 11.1767L7.03825 8.40604C6.78165 8.15059 6.78165 7.73135 7.03825 7.4759C7.29353 7.22045 7.70959 7.22045 7.96618 7.4759L10.7461 10.2531L13.5666 7.43664C13.8252 7.18119 14.2432 7.18119 14.5018 7.43664C14.7597 7.69865 14.7597 8.11126 14.5018 8.37326L11.6819 11.1898L14.4624 13.9605ZM10.75 0.703125C4.95072 0.703125 0.25 5.39299 0.25 11.1833C0.25 16.9736 4.95072 21.6634 10.75 21.6634C16.5493 21.6634 21.25 16.9736 21.25 11.1833C21.25 5.39299 16.5493 0.703125 10.75 0.703125Z" fill="url(#paint0_linear_4056_24311)"/>
<defs>
<linearGradient id="paint0_linear_4056_24311" x1="10.75" y1="0.703125" x2="10.75" y2="21.6634" gradientUnits="userSpaceOnUse">
<stop stop-color="#D97C48"/>
<stop offset="1" stop-color="#CE0000"/>
</linearGradient>
</defs>
</svg>
