<svg width="232" height="150" viewBox="0 0 232 150" fill="none" xmlns="http://www.w3.org/2000/svg">
<g filter="url(#filter0_d_4056_24491)">
<rect x="30" y="120" width="90" height="172" rx="4" transform="rotate(-90 30 120)" fill="white"/>
<path fill-rule="evenodd" clip-rule="evenodd" d="M74.0639 60.5938H65.5254C64.941 60.5938 64.4441 61.0184 64.353 61.5954L60.8996 83.4904C60.8309 83.9223 61.1656 84.3119 61.6037 84.3119H65.6802C66.2645 84.3119 66.7613 83.8875 66.8525 83.3094L67.7839 77.404C67.8738 76.8258 68.3719 76.4013 68.955 76.4013H71.658C77.2826 76.4013 80.5287 73.6795 81.3765 68.286C81.7585 65.9263 81.3927 64.0723 80.2877 62.7738C79.0742 61.3479 76.9217 60.5938 74.0639 60.5938ZM75.049 68.5906C74.5821 71.6545 72.2411 71.6545 69.9775 71.6545H68.6891L69.593 65.9326C69.6467 65.5867 69.9463 65.332 70.2959 65.332H70.8864C72.4283 65.332 73.8829 65.332 74.6345 66.2109C75.0827 66.7353 75.2201 67.5144 75.049 68.5906Z" fill="#2E5DA0"/>
<path fill-rule="evenodd" clip-rule="evenodd" d="M99.5871 68.4921H95.4984C95.1501 68.4921 94.8492 68.7468 94.7953 69.0927L94.6145 70.2363L94.3285 69.8217C93.4433 68.537 91.4693 68.1076 89.4992 68.1076C84.9809 68.1076 81.1217 71.5297 80.3701 76.3303C79.9794 78.7249 80.535 81.0147 81.8933 82.6114C83.1393 84.0796 84.9222 84.6914 87.0435 84.6914C90.6842 84.6914 92.703 82.3506 92.703 82.3506L92.5207 83.4867C92.4519 83.9212 92.7866 84.3107 93.2224 84.3107H96.9053C97.4909 84.3107 97.9853 83.8862 98.0778 83.3082L100.288 69.3136C100.358 68.8828 100.024 68.4921 99.5871 68.4921ZM93.8877 76.4501C93.4933 78.786 91.6391 80.3543 89.2746 80.3543C88.0873 80.3543 87.1383 79.9734 86.529 79.2517C85.9248 78.5351 85.695 77.5151 85.8873 76.3789C86.2556 74.0629 88.141 72.4437 90.4693 72.4437C91.6305 72.4437 92.5743 72.8294 93.1961 73.5572C93.8192 74.2926 94.0662 75.3189 93.8877 76.4501Z" fill="#2E5DA0"/>
<path d="M117.255 68.4921H121.364C121.939 68.4921 122.275 69.1376 121.948 69.6096L108.282 89.3361C108.061 89.6557 107.696 89.8456 107.307 89.8456H103.203C102.625 89.8456 102.288 89.1948 102.622 88.7218L106.877 82.7151L102.351 69.4335C102.195 68.9715 102.536 68.4921 103.027 68.4921H107.065C107.589 68.4921 108.052 68.8367 108.203 69.3386L110.605 77.3603L116.272 69.0128C116.494 68.6869 116.863 68.4921 117.255 68.4921Z" fill="#2E5DA0"/>
<path d="M161.808 83.4914L165.313 61.1955C165.366 60.8498 165.666 60.5948 166.014 60.5938H169.96C170.396 60.5938 170.73 60.9845 170.661 61.4167L167.206 83.3104C167.116 83.8885 166.619 84.3129 166.033 84.3129H162.51C162.074 84.3129 161.74 83.9233 161.808 83.4914Z" fill="#2E5DA0"/>
<path fill-rule="evenodd" clip-rule="evenodd" d="M134.97 60.5948H126.43C125.847 60.5948 125.35 61.0194 125.259 61.5964L121.806 83.4914C121.737 83.9233 122.072 84.3129 122.508 84.3129H126.89C127.297 84.3129 127.645 84.0159 127.709 83.6113L128.689 77.405C128.779 76.8269 129.277 76.4023 129.86 76.4023H132.562C138.188 76.4023 141.433 73.6806 142.281 68.287C142.665 65.9273 142.297 64.0733 141.192 62.7749C139.979 61.3489 137.828 60.5948 134.97 60.5948ZM135.955 68.5917C135.49 71.6555 133.149 71.6555 130.884 71.6555H129.597L130.502 65.9336C130.556 65.5877 130.853 65.3331 131.203 65.3331H131.794C133.335 65.3331 134.79 65.3331 135.542 66.2119C135.99 66.7364 136.126 67.5154 135.955 68.5917Z" fill="#2E5DA0"/>
<path fill-rule="evenodd" clip-rule="evenodd" d="M160.492 68.4931H156.406C156.055 68.4931 155.757 68.7479 155.704 69.0937L155.523 70.2373L155.236 69.8228C154.351 68.538 152.378 68.1086 150.408 68.1086C145.89 68.1086 142.032 71.5308 141.28 76.3313C140.891 78.7259 141.444 81.0157 142.802 82.6125C144.051 84.0807 145.831 84.6925 147.952 84.6925C151.593 84.6925 153.612 82.3517 153.612 82.3517L153.429 83.4878C153.361 83.9223 153.695 84.3118 154.134 84.3118H157.816C158.399 84.3118 158.896 83.8872 158.987 83.3093L161.198 69.3146C161.265 68.8839 160.931 68.4931 160.492 68.4931ZM154.793 76.4512C154.401 78.787 152.544 80.3553 150.18 80.3553C148.995 80.3553 148.043 79.9744 147.434 79.2528C146.83 78.5361 146.603 77.5161 146.792 76.3799C147.163 74.064 149.046 72.4447 151.375 72.4447C152.536 72.4447 153.479 72.8305 154.101 73.5582C154.727 74.2936 154.974 75.3199 154.793 76.4512Z" fill="#2E5DA0"/>
</g>
<defs>
<filter id="filter0_d_4056_24491" x="0" y="0" width="232" height="150" filterUnits="userSpaceOnUse" color-interpolation-filters="sRGB">
<feFlood flood-opacity="0" result="BackgroundImageFix"/>
<feColorMatrix in="SourceAlpha" type="matrix" values="0 0 0 0 0 0 0 0 0 0 0 0 0 0 0 0 0 0 127 0" result="hardAlpha"/>
<feOffset/>
<feGaussianBlur stdDeviation="15"/>
<feColorMatrix type="matrix" values="0 0 0 0 0 0 0 0 0 0 0 0 0 0 0 0 0 0 0.16 0"/>
<feBlend mode="normal" in2="BackgroundImageFix" result="effect1_dropShadow_4056_24491"/>
<feBlend mode="normal" in="SourceGraphic" in2="effect1_dropShadow_4056_24491" result="shape"/>
</filter>
</defs>
</svg>
