<svg width="130" height="130" viewBox="0 0 130 130" fill="none" xmlns="http://www.w3.org/2000/svg">
<path d="M41.4286 19C25.3182 19 12.1786 32.6787 12.1786 49.45C12.1786 51.2852 12.4887 52.9844 12.7988 54.6836C9.95871 59.0336 8 64.1312 8 69.8406C8 84.8277 19.6706 97.0111 34.0181 97.232C39.274 102.449 46.1458 106 53.9643 106C61.995 106 68.9973 102.262 74.2859 96.8072C74.5307 96.8242 74.5633 96.8412 74.8571 96.8412C81.5331 96.8412 86.9685 93.0519 90.69 87.9033C92.3549 88.2092 93.9872 88.6 95.75 88.6C111.86 88.6 125 74.9213 125 58.15C125 41.3787 111.86 27.7 95.75 27.7C92.8446 27.7 90.1677 28.4816 87.5234 29.2973C82.7409 25.7119 77.0117 23.35 70.6786 23.35C66.7285 23.35 63.1702 24.7094 59.7098 26.2047C54.6825 21.9057 48.4473 19 41.4286 19ZM41.4286 27.7C47.1251 27.7 52.2178 30.0449 55.9883 33.8852L58.1755 36.0941L60.8687 34.5988C63.7905 32.9676 67.1203 32.05 70.6786 32.05C75.8039 32.05 80.4558 33.9531 84.0794 37.1307L85.9728 38.7789L88.2743 37.8613C90.6247 36.9268 93.1221 36.4 95.75 36.4C107.339 36.4 116.643 46.0855 116.643 58.15C116.643 70.2145 107.339 79.9 95.75 79.9C93.9055 79.9 92.0937 79.6111 90.3309 79.1354L87.0827 78.2178L85.5484 81.3273C83.5081 85.3885 79.5417 88.1412 74.8571 88.1412C74.8245 88.1412 74.4328 88.0902 73.6003 87.9883L71.3968 87.7674L69.9604 89.5346C66.1246 94.2754 60.4117 97.3 53.9643 97.3C47.7291 97.3 42.1957 94.4623 38.3599 89.9594L37.0378 88.4131L35.0628 88.515C34.165 88.549 33.9528 88.6 34.3772 88.6C24.3715 88.6 16.3571 80.2568 16.3571 69.8406C16.3571 65.4566 17.8588 61.4805 20.3398 58.235L21.613 56.5867L21.1233 54.5307C20.7479 52.8484 20.5357 51.1662 20.5357 49.45C20.5357 37.3855 29.8396 27.7 41.4286 27.7ZM46.7171 49.45C46.6355 49.45 46.5702 49.518 46.5702 49.6199V62.3131C46.5702 62.415 46.6355 62.5 46.7171 62.5H48.1371C48.2351 62.5 48.284 62.415 48.284 62.3131V49.6199C48.284 49.535 48.2187 49.45 48.1371 49.45H46.7171ZM71.511 49.45C70.499 49.45 69.7155 49.7389 69.1606 50.3336C68.6056 50.9113 68.2139 51.8969 68.018 53.0523L67.9201 53.8H66.6632C66.6632 53.8 66.5 53.851 66.4837 54.0209L66.2715 55.2273C66.2552 55.3293 66.3041 55.4143 66.451 55.4143H67.6752L66.451 62.517C66.3531 63.1117 66.2388 63.5875 66.1083 63.9443C65.994 64.3012 65.8797 64.573 65.7328 64.76C65.5859 64.9639 65.4554 65.0998 65.2268 65.1678C65.031 65.2357 64.8188 65.2697 64.5739 65.2697C64.4434 65.2697 64.2638 65.2527 64.1332 65.2188C64.0027 65.1848 63.9374 65.1678 63.8231 65.1168C63.8231 65.1168 63.6925 65.0658 63.6272 65.2188C63.5783 65.3377 63.2518 66.2723 63.2192 66.3742C63.1865 66.4932 63.2355 66.5781 63.3008 66.6121C63.464 66.6801 63.5946 66.7141 63.8231 66.765C64.1169 66.85 64.3781 66.85 64.6066 66.85C65.1289 66.85 65.5859 66.765 65.9777 66.6291C66.3694 66.4762 66.6959 66.2383 67.006 65.8984C67.3161 65.5246 67.5283 65.1338 67.7242 64.607C67.9201 64.0803 68.067 63.4176 68.1975 62.6529L69.4381 55.4143H71.2662C71.2662 55.4143 71.4294 55.4143 71.4621 55.2273L71.6579 54.0379C71.6742 53.9189 71.6253 53.8 71.4784 53.8H69.7155C69.7319 53.766 69.8461 52.6445 70.0583 52.0328C70.1399 51.7779 70.3032 51.557 70.4337 51.4211C70.5806 51.2682 70.7439 51.1662 70.9071 51.1152C71.0866 51.0643 71.2825 51.0303 71.511 51.0303C71.6742 51.0303 71.8375 51.0473 71.9681 51.0812C72.1313 51.1152 72.1966 51.1322 72.2455 51.1492C72.4251 51.2002 72.4414 51.1492 72.4904 51.0643L72.8984 49.8578C72.9474 49.7219 72.8495 49.6709 72.8168 49.6539C72.6373 49.5859 72.4741 49.552 72.2619 49.518C72.0497 49.467 71.7885 49.45 71.511 49.45ZM33.1694 53.8C31.3576 53.8 30.1007 54.8535 30.1007 56.3488V56.3828C30.1007 57.9461 31.4881 58.4729 32.7939 58.8297L33.0061 58.8977C33.9528 59.1695 34.769 59.4074 34.769 60.0531V60.0701C34.769 60.6648 34.2303 61.0896 33.3816 61.0896C33.0551 61.0896 31.9941 61.0896 30.8516 60.393C30.7047 60.325 30.623 60.274 30.5251 60.2061C30.4598 60.1721 30.3292 60.1211 30.264 60.291L29.8722 61.3275C29.8069 61.4805 29.8885 61.5145 29.9049 61.5484C30.1007 61.6674 30.2803 61.7523 30.4598 61.8543C31.4392 62.3471 32.3696 62.5 33.3326 62.5C35.3076 62.5 36.5318 61.4975 36.5318 59.8662V59.8492C36.5318 58.3369 35.1444 57.7932 33.8549 57.4023L33.6917 57.3514C32.7123 57.0455 31.8636 56.7906 31.8636 56.1789V56.1279C31.8636 55.6012 32.3532 55.2273 33.1204 55.2273C33.9692 55.2273 34.9648 55.4822 35.6177 55.8391C35.6177 55.8391 35.8136 55.941 35.8789 55.7711C35.9279 55.6691 36.2543 54.8195 36.287 54.7346C36.3196 54.6326 36.2543 54.5646 36.189 54.5307C35.4545 54.0889 34.4262 53.8 33.3652 53.8H33.1694ZM41.3796 53.8C40.9552 53.8 40.3023 53.851 39.8943 53.9359C39.8943 53.9359 38.6701 54.1568 38.1641 54.5477C38.1641 54.5477 38.0661 54.5986 38.1314 54.7516L38.5232 55.7711C38.5721 55.907 38.7027 55.8561 38.7027 55.8561C38.7027 55.8561 38.7354 55.8391 38.7843 55.8221C39.8616 55.2443 41.2164 55.2783 41.2164 55.2783C41.8203 55.2783 42.2773 55.3803 42.6038 55.6182C42.8976 55.8391 43.0608 56.1959 43.0608 56.9096V57.1305C42.5875 57.0625 42.1468 57.0115 42.1468 57.0115C41.9182 56.9945 41.6244 56.9945 41.2653 56.9945C40.792 56.9945 40.335 57.0455 39.8943 57.1645C39.4535 57.2834 39.0618 57.4533 38.7354 57.6912C38.3926 57.9291 38.1314 58.218 37.9356 58.5748C37.7234 58.9316 37.6254 59.3564 37.6254 59.8152C37.6254 60.291 37.707 60.6988 37.8703 61.0387C38.0498 61.3785 38.2946 61.6674 38.6048 61.8883C38.9149 62.0922 39.3066 62.2621 39.731 62.3641C40.1717 62.449 40.6777 62.5 41.2164 62.5C41.7877 62.5 42.359 62.449 42.9139 62.3641C43.4689 62.2791 44.1218 62.1432 44.3177 62.0922C44.4972 62.0582 44.6931 62.0072 44.6931 62.0072C44.84 61.9732 44.8237 61.8373 44.8237 61.8373V56.9266C44.8237 55.8391 44.5299 55.0404 43.9422 54.5477C43.3546 54.0549 42.4895 53.8 41.3796 53.8ZM53.9153 53.8C53.2298 53.8 52.5932 53.902 52.0872 54.1398C51.5812 54.3777 51.1405 54.7006 50.814 55.0914C50.4713 55.4822 50.2101 55.958 50.0469 56.4848C49.8836 57.0115 49.802 57.5893 49.802 58.201C49.802 58.8297 49.9 59.4074 50.0632 59.9172C50.2264 60.4439 50.5039 60.9027 50.8793 61.2766C51.2384 61.6674 51.6954 61.9732 52.2667 62.1771C52.8217 62.398 53.5073 62.5 54.2907 62.5C55.9067 62.483 56.7391 62.1432 57.0982 61.9562C57.1472 61.9223 57.2125 61.8713 57.1472 61.7014L56.7718 60.7158C56.7228 60.5629 56.5596 60.6139 56.5596 60.6139C56.1515 60.7668 55.5965 61.0217 54.2744 61.0217C53.4093 61.0217 52.7727 60.7838 52.381 60.393C51.9566 60.0021 51.7607 59.4244 51.7281 58.6088H57.2941C57.2941 58.6088 57.441 58.6088 57.4573 58.4729C57.4573 58.4049 57.6532 57.3514 57.2941 56.1449C57.1635 55.6352 56.8044 55.1254 56.5759 54.8875C56.2168 54.5137 55.874 54.2588 55.5312 54.1228C55.0742 53.9189 54.5193 53.8 53.9153 53.8ZM61.8644 53.8C60.0689 53.8 58.7958 54.8535 58.7958 56.3488V56.3828C58.7958 57.9461 60.1995 58.4729 61.489 58.8297L61.7175 58.8977C62.6642 59.1695 63.4803 59.4074 63.4803 60.0531V60.0701C63.4803 60.6648 62.9417 61.0896 62.0766 61.0896C61.7501 61.0896 60.6892 61.0896 59.5466 60.393C59.416 60.325 59.3181 60.274 59.2201 60.2061C59.1875 60.1891 59.0243 60.1211 58.959 60.291L58.5836 61.3275C58.5183 61.4805 58.5999 61.5145 58.6162 61.5484C58.7958 61.6674 58.9753 61.7523 59.1712 61.8543C60.1505 62.3471 61.0646 62.5 62.0439 62.5C64.0027 62.5 65.2432 61.4975 65.2432 59.8662V59.8492C65.2432 58.3369 63.8558 57.7932 62.5663 57.4023L62.3867 57.3514C61.4074 57.0455 60.5586 56.7906 60.5586 56.1789V56.1279C60.5586 55.6012 61.0646 55.2273 61.8154 55.2273C62.6642 55.2273 63.6762 55.4822 64.3291 55.8391C64.3291 55.8391 64.525 55.941 64.5903 55.7711C64.6229 55.6691 64.9494 54.8195 64.9983 54.7346C65.031 54.6326 64.9657 54.5646 64.8841 54.5307C64.1496 54.0889 63.1212 53.8 62.0603 53.8H61.8644ZM75.5264 53.8C74.8571 53.8 74.2532 53.9189 73.7472 54.1398C73.2575 54.3607 72.8331 54.6836 72.5067 55.0744C72.1639 55.4652 71.9028 55.924 71.7395 56.4508C71.5926 56.9775 71.511 57.5553 71.511 58.167C71.511 58.7787 71.5926 59.3564 71.7395 59.8662C71.9028 60.393 72.1639 60.8687 72.5067 61.2596C72.8331 61.6334 73.2575 61.9562 73.7635 62.1771C74.2695 62.398 74.8571 62.5 75.5264 62.5C76.1956 62.5 76.7832 62.398 77.2892 62.1602C77.7952 61.9393 78.2196 61.6334 78.5624 61.2426C78.8888 60.8518 79.15 60.393 79.2969 59.8662C79.4601 59.3395 79.5417 58.7617 79.5417 58.15C79.5417 57.5553 79.4601 56.9775 79.2969 56.4508C79.15 55.924 78.8888 55.4652 78.5624 55.0744C78.2196 54.6836 77.7952 54.3607 77.2892 54.1398C76.7832 53.9189 76.1956 53.8 75.5264 53.8ZM90.0861 53.8C89.4005 53.8 88.7803 53.9189 88.2416 54.1398C87.7193 54.3607 87.2786 54.6836 86.9358 55.0744C86.5767 55.4482 86.2992 55.924 86.136 56.4508C85.9401 56.9605 85.8585 57.5553 85.8585 58.15C85.8585 59.4754 86.2176 60.5459 86.9521 61.3275C87.6867 62.1092 88.7639 62.5 90.2003 62.5C91.0491 62.5 91.9142 62.3301 92.5345 62.0922C92.5345 62.0922 92.6487 62.0412 92.5997 61.9053L92.1917 60.8348C92.1427 60.6818 91.9795 60.7328 91.9795 60.7328C91.751 60.8348 91.4898 60.9027 91.2287 60.9367C90.9512 60.9877 90.641 61.0047 90.3146 61.0047C89.5148 61.0047 88.8782 60.7838 88.4375 60.325C87.9805 59.8832 87.7193 59.1525 87.7193 58.15C87.7356 57.2664 87.9478 56.5867 88.3559 56.06C88.7639 55.5502 89.3679 55.2953 90.184 55.2953C90.8532 55.2953 91.3756 55.3803 91.9142 55.5332C91.9142 55.5332 92.0611 55.5842 92.1101 55.4312C92.257 55.0404 92.3712 54.7686 92.5181 54.3438C92.5671 54.2078 92.4528 54.1568 92.4202 54.1398C92.1917 54.0719 91.702 53.9359 91.3103 53.868C90.9675 53.817 90.5431 53.8 90.0861 53.8ZM96.9089 53.8C96.2233 53.8 95.5868 53.902 95.0808 54.1398C94.5584 54.3777 94.1341 54.7006 93.7913 55.0914C93.4485 55.4822 93.1874 55.958 93.0241 56.4848C92.8772 57.0115 92.7956 57.5893 92.7956 58.201C92.7956 58.8297 92.8772 59.4074 93.0568 59.9172C93.22 60.4439 93.4812 60.9027 93.8566 61.2766C94.232 61.6674 94.689 61.9732 95.244 62.1771C95.8153 62.398 96.5008 62.5 97.268 62.5C98.8839 62.483 99.7327 62.1432 100.075 61.9562C100.141 61.9223 100.206 61.8713 100.124 61.7014L99.749 60.7158C99.7001 60.5629 99.5368 60.6139 99.5368 60.6139C99.1451 60.7668 98.5738 61.0217 97.2517 61.0217C96.4029 61.0217 95.7663 60.7838 95.3583 60.393C94.9502 60.0021 94.7543 59.4244 94.7054 58.6088H100.271C100.271 58.6088 100.418 58.6088 100.451 58.4729C100.451 58.4049 100.63 57.3514 100.271 56.1449C100.141 55.6352 99.7817 55.1254 99.5531 54.8875C99.1941 54.5137 98.8513 54.2588 98.5085 54.1228C98.0515 53.9189 97.5128 53.8 96.9089 53.8ZM84.8302 53.8C84.112 53.766 83.7203 53.885 83.3775 54.0379C83.0347 54.1908 82.6593 54.4457 82.4308 54.7346V54.0549C82.4308 53.9529 82.3818 53.885 82.2839 53.885H80.8638C80.7659 53.885 80.6843 53.9529 80.6843 54.0549V62.3301C80.6843 62.415 80.7659 62.5 80.8638 62.5H82.3165C82.4145 62.5 82.4961 62.415 82.4961 62.3301V58.201C82.4961 57.6402 82.5614 57.0795 82.6756 56.7227C82.7899 56.3828 82.9531 56.1109 83.1653 55.907C83.3775 55.7201 83.606 55.5842 83.8672 55.4992C84.112 55.4143 84.4058 55.3973 84.6017 55.3973C84.8955 55.3973 85.222 55.4822 85.222 55.4822C85.3199 55.4822 85.3852 55.4143 85.4178 55.3123C85.5158 55.0744 85.7769 54.3098 85.8259 54.1568C85.8749 54.0379 85.7932 53.9699 85.7606 53.9529C85.6627 53.9189 85.1893 53.834 84.8302 53.8ZM53.7847 55.2273C54.5193 55.2273 55.0089 55.4992 55.3517 56.009C55.5802 56.3488 55.6782 56.7736 55.7271 57.2664H51.7444C51.826 56.7566 51.9729 56.3488 52.2014 56.009C52.5279 55.4992 53.0502 55.2273 53.7847 55.2273ZM96.7783 55.2273C97.5128 55.2273 97.9862 55.4992 98.3453 56.009C98.5738 56.3488 98.6717 56.7736 98.7044 57.2664H94.738C94.8196 56.7566 94.9665 56.3488 95.1787 56.009C95.5215 55.4992 96.0438 55.2273 96.7783 55.2273ZM75.5264 55.2613C76.2609 55.2613 76.7832 55.4992 77.126 56.009C77.4851 56.5187 77.6646 57.2324 77.6646 58.15C77.6646 59.0846 77.4851 59.7982 77.1423 60.325C76.7832 60.8178 76.2609 61.0727 75.5264 61.0727C74.7918 61.0727 74.2695 60.8178 73.9431 60.325C73.584 59.7982 73.4208 59.0846 73.4208 58.15C73.4208 57.2324 73.584 56.5187 73.9268 56.009C74.2695 55.5162 74.7918 55.2613 75.5264 55.2613ZM41.5428 58.3539C42.3426 58.3709 43.0608 58.4898 43.0608 58.4898V60.9367C43.0608 60.9367 42.3426 61.0727 41.5592 61.1236C40.4166 61.1746 39.9106 60.8008 39.9269 60.8008C39.6984 60.6309 39.6821 60.5799 39.6004 60.4779C39.4862 60.308 39.4372 60.0871 39.4372 59.7812C39.4372 59.3055 39.6004 58.9656 39.9269 58.7447C39.9269 58.7447 40.4002 58.3369 41.5428 58.3539Z" fill="#290293"/>
</svg>
