<svg width="68" height="68" viewBox="0 0 68 68" fill="none" xmlns="http://www.w3.org/2000/svg">
<g filter="url(#filter0_d_4056_24556)">
<rect width="60" height="60" rx="30" transform="matrix(-1 0 0 1 64 4)" fill="white" fill-opacity="0.8" shape-rendering="crispEdges"/>
<path d="M33.1922 36.125C32.0206 34.9534 32.0206 33.0539 33.1922 31.8824L41.6775 23.397C42.6539 22.4207 42.6538 20.8378 41.6775 19.8615C40.7012 18.8852 39.1183 18.8852 38.142 19.8615L26.1212 31.8824C24.9496 33.0539 24.9496 34.9534 26.1212 36.125L38.142 48.1457C39.1183 49.122 40.7012 49.122 41.6775 48.1457C42.6538 47.1694 42.6538 45.5865 41.6775 44.6102L33.1922 36.125Z" fill="black"/>
</g>
<defs>
<filter id="filter0_d_4056_24556" x="0" y="0" width="68" height="68" filterUnits="userSpaceOnUse" color-interpolation-filters="sRGB">
<feFlood flood-opacity="0" result="BackgroundImageFix"/>
<feColorMatrix in="SourceAlpha" type="matrix" values="0 0 0 0 0 0 0 0 0 0 0 0 0 0 0 0 0 0 127 0" result="hardAlpha"/>
<feOffset/>
<feGaussianBlur stdDeviation="2"/>
<feComposite in2="hardAlpha" operator="out"/>
<feColorMatrix type="matrix" values="0 0 0 0 0 0 0 0 0 0 0 0 0 0 0 0 0 0 0.25 0"/>
<feBlend mode="normal" in2="BackgroundImageFix" result="effect1_dropShadow_4056_24556"/>
<feBlend mode="normal" in="SourceGraphic" in2="effect1_dropShadow_4056_24556" result="shape"/>
</filter>
</defs>
</svg>
