<svg width="63" height="20" viewBox="0 0 63 20" fill="none" xmlns="http://www.w3.org/2000/svg">
<path d="M62.0156 0.632812H58.3037L51.9925 12.0506L45.6803 0.632812H42.049V19.3938H45.077V5.0152L50.6123 14.9722H53.4533L58.9876 5.0152V19.3938H62.0156V0.632812ZM32.5611 7.6279C34.7326 7.6279 36.0405 9.26225 36.3535 11.2861H28.9835C29.1353 9.2013 30.3378 7.6279 32.5611 7.6279ZM39.3557 12.439C39.3557 8.1806 36.6036 5.08132 32.5084 5.08132C28.4803 5.08132 26.0753 8.14134 26.0753 12.6663V13.4979H36.3535C35.9889 15.6995 34.5281 17.183 32.1726 17.183C30.2934 17.183 29.1188 16.6096 28.0051 15.561L26.3966 17.5311C27.9121 18.9248 29.8399 19.7285 32.2801 19.7285C36.7131 19.7285 39.3557 16.496 39.3557 12.439ZM22.4037 7.8965H25.191V5.41707H22.4037V1.31672H19.4821V5.41707H15.2474V7.8965H19.4821V14.1808C19.4821 16.3266 18.7961 17.089 17.1101 17.089C16.3404 17.089 15.8993 17.0229 15.2474 16.9144V19.367C16.0594 19.5963 16.8343 19.7017 17.6731 19.7017C20.8272 19.7017 22.4037 17.9785 22.4037 14.529V7.8965ZM2.94534 10.3077C3.53214 8.82629 4.84106 7.73534 6.76469 7.73534C9.26477 7.73534 10.865 9.50916 10.865 12.3987C10.865 15.216 9.39184 17.0755 6.88452 17.0755C4.91338 17.0755 3.50631 15.9288 2.94534 14.5021V10.3077ZM0.0237427 19.3938H2.89161V17.4371C3.69329 18.589 5.15202 19.7285 7.51471 19.7285C11.3144 19.7285 13.8538 16.5476 13.8538 12.3987C13.8538 8.21056 11.2535 5.08132 7.35355 5.08132C5.4258 5.08132 3.91335 5.85201 2.89161 7.21259V5.41707H0.0237427V19.3938Z" fill="white"/>
</svg>
