<svg width="63" height="20" viewBox="0 0 63 20" fill="none" xmlns="http://www.w3.org/2000/svg">
<path d="M0.390625 0.625H4.10237L10.4133 12.0423L16.7252 0.625H20.3564V19.3852H17.3285V5.00719L11.7934 14.9637H8.95254L3.41849 5.00719V19.3852H0.390625V0.625ZM29.8439 7.61978C27.6724 7.61978 26.3646 9.25406 26.0516 11.2778H33.4213C33.2695 9.19311 32.067 7.61978 29.8439 7.61978ZM23.0495 12.4307C23.0495 8.17246 25.8016 5.07331 29.8966 5.07331C33.9244 5.07331 36.3294 8.1332 36.3294 12.658V13.4896H26.0516C26.4162 15.691 27.877 17.1744 30.2323 17.1744C32.1114 17.1744 33.286 16.6011 34.3996 15.5526L36.0081 17.5226C34.4926 18.9162 32.5649 19.7199 30.1249 19.7199C25.6921 19.7199 23.0495 16.4875 23.0495 12.4307ZM40.0008 7.88837H37.2137V5.40905H40.0008V1.30888H42.9223V5.40905H47.1568V7.88837H42.9223V14.1724C42.9223 16.3181 43.6082 17.0804 45.2942 17.0804C46.0638 17.0804 46.5049 17.0143 47.1568 16.9059V19.3583C46.3448 19.5877 45.57 19.693 44.7312 19.693C41.5773 19.693 40.0008 17.9699 40.0008 14.5205V7.88837ZM59.4583 10.2995C58.8715 8.81811 57.5627 7.72721 55.6391 7.72721C53.1392 7.72721 51.539 9.50096 51.539 12.3904C51.539 15.2075 53.0121 17.067 55.5193 17.067C57.4904 17.067 58.8974 15.9203 59.4583 14.4937V10.2995ZM62.3798 19.3852H59.512V17.4286C58.7104 18.5804 57.2517 19.7199 54.8891 19.7199C51.0896 19.7199 48.5503 16.5391 48.5503 12.3904C48.5503 8.20242 51.1505 5.07331 55.0503 5.07331C56.978 5.07331 58.4903 5.84397 59.512 7.20449V5.40905H62.3798V19.3852Z" fill="white"/>
</svg>
