<svg width="63" height="20" viewBox="0 0 63 20" fill="none" xmlns="http://www.w3.org/2000/svg">
<path d="M0.953125 0.625H4.66487L10.9758 12.0423L17.2877 0.625H20.9189V19.3852H17.891V5.00719L12.3559 14.9637H9.51504L3.98099 5.00719V19.3852H0.953125V0.625ZM30.4064 7.61978C28.2349 7.61978 26.9271 9.25406 26.6141 11.2778H33.9838C33.832 9.19311 32.6295 7.61978 30.4064 7.61978ZM23.612 12.4307C23.612 8.17246 26.3641 5.07331 30.4591 5.07331C34.4869 5.07331 36.8919 8.1332 36.8919 12.658V13.4896H26.6141C26.9787 15.691 28.4395 17.1744 30.7948 17.1744C32.6739 17.1744 33.8485 16.6011 34.9621 15.5526L36.5706 17.5226C35.0551 18.9162 33.1274 19.7199 30.6874 19.7199C26.2546 19.7199 23.612 16.4875 23.612 12.4307ZM40.5633 7.88837H37.7762V5.40905H40.5633V1.30888H43.4848V5.40905H47.7193V7.88837H43.4848V14.1724C43.4848 16.3181 44.1707 17.0804 45.8567 17.0804C46.6263 17.0804 47.0674 17.0143 47.7193 16.9059V19.3583C46.9073 19.5877 46.1325 19.693 45.2937 19.693C42.1398 19.693 40.5633 17.9699 40.5633 14.5205V7.88837ZM60.0208 10.2995C59.434 8.81811 58.1252 7.72721 56.2016 7.72721C53.7017 7.72721 52.1015 9.50096 52.1015 12.3904C52.1015 15.2075 53.5746 17.067 56.0818 17.067C58.0529 17.067 59.4599 15.9203 60.0208 14.4937V10.2995ZM62.9423 19.3852H60.0745V17.4286C59.2729 18.5804 57.8142 19.7199 55.4516 19.7199C51.6521 19.7199 49.1128 16.5391 49.1128 12.3904C49.1128 8.20242 51.713 5.07331 55.6128 5.07331C57.5405 5.07331 59.0528 5.84397 60.0745 7.20449V5.40905H62.9423V19.3852Z" fill="white"/>
</svg>
