<svg width="63" height="20" viewBox="0 0 63 20" fill="none" xmlns="http://www.w3.org/2000/svg">
<path d="M62.4766 0.632812H58.7647L52.4535 12.0506L46.1413 0.632812H42.5099V19.3938H45.5379V5.0152L51.0733 14.9722H53.9143L59.4486 5.0152V19.3938H62.4766V0.632812ZM33.022 7.6279C35.1936 7.6279 36.5015 9.26225 36.8145 11.2861H29.4444C29.5963 9.2013 30.7988 7.6279 33.022 7.6279ZM39.8167 12.439C39.8167 8.1806 37.0645 5.08132 32.9693 5.08132C28.9413 5.08132 26.5362 8.14134 26.5362 12.6663V13.4979H36.8145C36.4498 15.6995 34.989 17.183 32.6336 17.183C30.7544 17.183 29.5797 16.6096 28.466 15.561L26.8575 17.5311C28.3731 18.9248 30.3008 19.7285 32.741 19.7285C37.174 19.7285 39.8167 16.496 39.8167 12.439ZM22.8646 7.8965H25.6519V5.41707H22.8646V1.31672H19.943V5.41707H15.7084V7.8965H19.943V14.1808C19.943 16.3266 19.257 17.089 17.571 17.089C16.8014 17.089 16.3602 17.0229 15.7084 16.9144V19.367C16.5204 19.5963 17.2952 19.7017 18.1341 19.7017C21.2881 19.7017 22.8646 17.9785 22.8646 14.529V7.8965ZM3.40627 10.3077C3.99307 8.82629 5.302 7.73534 7.22562 7.73534C9.72571 7.73534 11.326 9.50916 11.326 12.3987C11.326 15.216 9.85278 17.0755 7.34546 17.0755C5.37431 17.0755 3.96724 15.9288 3.40627 14.5021V10.3077ZM0.48468 19.3938H3.35255V17.4371C4.15423 18.589 5.61296 19.7285 7.97565 19.7285C11.7754 19.7285 14.3147 16.5476 14.3147 12.3987C14.3147 8.21056 11.7144 5.08132 7.81449 5.08132C5.88673 5.08132 4.37428 5.85201 3.35255 7.21259V5.41707H0.48468V19.3938Z" fill="white"/>
</svg>
