<svg width="78" height="25" viewBox="0 0 78 25" fill="none" xmlns="http://www.w3.org/2000/svg">
<path d="M0.0390625 0.257812H4.69694L12.6165 14.5854L20.5374 0.257812H25.0941V23.8H21.2944V5.75704L14.3485 18.2515H10.7834L3.83874 5.75704V23.8H0.0390625V0.257812ZM37 9.03557C34.275 9.03557 32.6338 11.0864 32.241 13.626H41.4894C41.2988 11.01 39.7898 9.03557 37 9.03557ZM28.4738 15.0728C28.4738 9.72913 31.9273 5.84001 37.0661 5.84001C42.1207 5.84001 45.1387 9.67987 45.1387 15.358V16.4016H32.241C32.6987 19.1642 34.5317 21.0258 37.4875 21.0258C39.8456 21.0258 41.3196 20.3063 42.717 18.9904L44.7355 21.4626C42.8337 23.2114 40.4147 24.22 37.3526 24.22C31.7899 24.22 28.4738 20.1637 28.4738 15.0728ZM49.746 9.37263H46.2484V6.26133H49.746V1.11601H53.4121V6.26133H58.726V9.37263H53.4121V17.2585C53.4121 19.9511 54.2729 20.9078 56.3886 20.9078C57.3544 20.9078 57.908 20.8248 58.726 20.6887V23.7663C57.707 24.0541 56.7347 24.1863 55.6821 24.1863C51.7243 24.1863 49.746 22.024 49.746 17.6954V9.37263ZM74.1632 12.3984C73.4269 10.5394 71.7844 9.17039 69.3705 9.17039C66.2333 9.17039 64.2252 11.3963 64.2252 15.0222C64.2252 18.5574 66.0738 20.8909 69.2201 20.8909C71.6936 20.8909 73.4593 19.4519 74.1632 17.6617V12.3984ZM77.8294 23.8H74.2306V21.3447C73.2246 22.7901 71.3942 24.22 68.4294 24.22C63.6613 24.22 60.4748 20.2285 60.4748 15.0222C60.4748 9.76673 63.7378 5.84001 68.6316 5.84001C71.0506 5.84001 72.9485 6.8071 74.2306 8.51443V6.26133H77.8294V23.8Z" fill="#67A5FF"/>
</svg>
