<svg width="349" height="74" viewBox="0 0 349 74" fill="none" xmlns="http://www.w3.org/2000/svg">
<path d="M161.977 33.7972C161.408 32.7794 160.616 31.9844 159.599 31.4156C158.581 30.8468 157.393 30.5641 156.036 30.5641C154.792 30.5641 153.701 30.8202 152.773 31.3358C152.198 31.6518 151.722 32.0775 151.346 32.6064V24.0312H146.423V48.8753H151.346V38.4075C151.346 37.7089 151.479 37.1069 151.755 36.6013C152.028 36.099 152.417 35.7065 152.919 35.4205C153.422 35.1377 153.99 34.9947 154.626 34.9947C155.284 34.9947 155.856 35.1377 156.349 35.4205C156.841 35.7065 157.224 36.099 157.496 36.6013C157.772 37.1069 157.909 37.7089 157.909 38.4075V48.8753H162.832V37.3564C162.832 36.0026 162.546 34.8151 161.977 33.7972ZM137.725 44.0522C137.003 44.5777 136.148 44.8405 135.164 44.8405C134.312 44.8405 133.55 44.6309 132.885 44.2152C132.217 43.7994 131.691 43.2206 131.309 42.4755C130.926 41.7337 130.733 40.8789 130.733 39.9176C130.733 38.953 130.926 38.1014 131.309 37.3564C131.691 36.6146 132.217 36.0325 132.885 35.6167C133.55 35.2009 134.312 34.9947 135.164 34.9947C136.128 34.9947 136.976 35.2575 137.708 35.783C138.44 36.3086 138.962 37.0171 139.268 37.9152L143.533 36.0791C143.183 34.9614 142.605 33.9935 141.793 33.1719C140.985 32.3536 140.01 31.7116 138.872 31.2526C137.735 30.7936 136.501 30.5641 135.164 30.5641C133.371 30.5641 131.751 30.9699 130.307 31.7782C128.864 32.5865 127.726 33.6974 126.895 35.1078C126.063 36.5215 125.647 38.1114 125.647 39.8843C125.647 41.6572 126.07 43.2539 126.911 44.6742C127.753 46.0978 128.89 47.2188 130.324 48.0404C131.758 48.8587 133.371 49.2711 135.164 49.2711C136.521 49.2711 137.768 49.0349 138.906 48.5659C140.043 48.0936 141.018 47.445 141.826 46.6134C142.638 45.7818 143.207 44.8405 143.533 43.7894L139.268 41.92C138.962 42.8148 138.447 43.5266 137.725 44.0522ZM112.422 35.1244C113.034 34.7086 113.766 34.5024 114.621 34.5024C115.495 34.5024 116.234 34.7153 116.836 35.141C117.438 35.5668 117.86 36.1489 118.1 36.8807C118.183 37.1368 118.23 37.4062 118.256 37.6857H110.835C110.892 37.4329 110.958 37.19 111.045 36.9639C111.351 36.1556 111.81 35.5402 112.422 35.1244ZM122.89 35.9294C122.497 34.8683 121.922 33.9336 121.167 33.1253C120.415 32.3137 119.49 31.685 118.396 31.236C117.302 30.7869 116.044 30.5641 114.621 30.5641C112.914 30.5641 111.381 30.9699 110.027 31.7782C108.67 32.5865 107.592 33.6941 106.794 35.0912C105.995 36.4915 105.596 38.0881 105.596 39.8843C105.596 41.614 105.979 43.1873 106.744 44.611C107.509 46.0313 108.593 47.1656 109.994 48.0071C111.394 48.8487 113.044 49.2711 114.95 49.2711C116.174 49.2711 117.302 49.0915 118.329 48.7289C119.357 48.3664 120.249 47.8608 121.004 47.2022C121.759 46.5469 122.311 45.7818 122.66 44.907L118.722 43.0343C118.373 43.6464 117.887 44.1287 117.262 44.4779C116.64 44.8272 115.888 45.0035 115.016 45.0035C114.052 45.0035 113.23 44.7906 112.552 44.3648C111.873 43.9357 111.371 43.3403 111.045 42.5753C110.875 42.1828 110.762 41.7537 110.705 41.2947H123.252C123.339 41.0552 123.399 40.7658 123.432 40.4265C123.465 40.0872 123.482 39.7413 123.482 39.392C123.482 38.1447 123.286 36.9905 122.89 35.9294ZM89.0547 24.4271V28.8577H95.2582V48.8753H100.344V28.8577H106.448V24.4271H89.0547Z" fill="#3EDBF0"/>
<path d="M347.439 33.792C346.87 32.7742 346.088 31.9792 345.09 31.4104C344.096 30.8416 342.955 30.5589 341.661 30.5589C340.197 30.5589 338.917 30.9081 337.822 31.61C337.167 32.0291 336.605 32.5879 336.129 33.2798C335.76 32.6644 335.248 32.1322 334.589 31.6898C333.461 30.9347 332.154 30.5589 330.667 30.5589C329.267 30.5589 328.063 30.8882 327.058 31.5435C326.453 31.9393 325.984 32.4682 325.648 33.1234V30.9514H321.051V48.8701H325.974V38.4023C325.974 37.7037 326.1 37.1017 326.353 36.5961C326.603 36.0938 326.965 35.7013 327.434 35.4153C327.907 35.1325 328.459 34.9895 329.094 34.9895C329.749 34.9895 330.308 35.1325 330.767 35.4153C331.226 35.7013 331.582 36.0938 331.832 36.5961C332.084 37.1017 332.211 37.7037 332.211 38.4023V48.8701H337.134V38.4023C337.134 37.7037 337.26 37.1017 337.51 36.5961C337.762 36.0938 338.125 35.7013 338.594 35.4153C339.063 35.1325 339.618 34.9895 340.25 34.9895C340.906 34.9895 341.464 35.1325 341.924 35.4153C342.386 35.7013 342.738 36.0938 342.991 36.5961C343.244 37.1017 343.367 37.7037 343.367 38.4023V48.8701H348.29V37.3511C348.29 35.9974 348.007 34.8099 347.439 33.792ZM312.519 30.9514V41.4225C312.519 42.1011 312.383 42.6965 312.11 43.2087C311.837 43.7243 311.451 44.1235 310.959 44.4095C310.467 44.6923 309.895 44.8353 309.236 44.8353C308.604 44.8353 308.035 44.6923 307.53 44.4095C307.027 44.1235 306.638 43.7243 306.366 43.2087C306.093 42.6965 305.956 42.1011 305.956 41.4225V30.9514H301.033V41.815C301.033 43.3019 301.296 44.6058 301.822 45.7201C302.344 46.8377 303.116 47.7059 304.134 48.3312C305.151 48.9532 306.382 49.2659 307.826 49.2659C309.073 49.2659 310.161 49.0098 311.092 48.4942C311.847 48.0751 312.433 47.4697 312.848 46.6814V48.8701H317.442V30.9514H312.519ZM298.506 35.219V30.9514H294.304V26.8833H289.382V28.1939C289.382 29.1153 289.135 29.8038 288.643 30.2628C288.151 30.7219 287.446 30.9514 286.528 30.9514H286.365V35.219H289.382V42.4071C289.382 44.506 289.98 46.1425 291.171 47.3134C292.362 48.4842 294.042 49.0697 296.207 49.0697C296.58 49.0697 296.975 49.0464 297.391 49.0031C297.807 48.9599 298.18 48.9133 298.506 48.8701V44.7022C298.286 44.7255 298.08 44.7488 297.883 44.7688C297.684 44.7921 297.511 44.802 297.358 44.802C296.679 44.802 296.111 44.7022 295.652 44.506C295.193 44.3097 294.853 44.007 294.634 43.6046C294.414 43.1988 294.304 42.6898 294.304 42.0778V35.219H298.506ZM283.474 33.792C282.905 32.7742 282.114 31.9792 281.096 31.4104C280.078 30.8416 278.89 30.5589 277.537 30.5589C276.289 30.5589 275.198 30.815 274.27 31.3306C273.512 31.7497 272.93 32.3551 272.514 33.1401V30.9514H267.92V48.8701H272.843V38.4023C272.843 37.7037 272.98 37.1017 273.252 36.5961C273.525 36.0938 273.914 35.7013 274.417 35.4153C274.922 35.1325 275.491 34.9895 276.123 34.9895C276.758 34.9895 277.327 35.1325 277.829 35.4153C278.335 35.7013 278.721 36.0938 278.997 36.5961C279.27 37.1017 279.406 37.7037 279.406 38.4023V48.8701H284.329V37.3844C284.329 36.0073 284.043 34.8099 283.474 33.792ZM253.973 35.1192C254.585 34.7034 255.317 34.4972 256.172 34.4972C257.047 34.4972 257.785 34.7101 258.387 35.1358C258.986 35.5616 259.408 36.1437 259.648 36.8755C259.731 37.1316 259.778 37.401 259.808 37.6805H252.383C252.44 37.4277 252.506 37.1848 252.593 36.9586C252.899 36.1504 253.358 35.535 253.973 35.1192ZM264.441 35.9242C264.049 34.8631 263.473 33.9284 262.718 33.1201C261.963 32.3085 261.038 31.6798 259.944 31.2308C258.85 30.7817 257.592 30.5589 256.172 30.5589C254.465 30.5589 252.932 30.9647 251.575 31.773C250.221 32.5813 249.143 33.6889 248.342 35.0859C247.543 36.4863 247.144 38.0829 247.144 39.8791C247.144 41.6088 247.527 43.1821 248.295 44.6058C249.06 46.0261 250.145 47.1604 251.542 48.0019C252.942 48.8435 254.595 49.2659 256.498 49.2659C257.722 49.2659 258.85 49.0863 259.877 48.7237C260.909 48.3612 261.8 47.8556 262.555 47.197C263.31 46.5417 263.862 45.7766 264.212 44.9018L260.273 43.0291C259.924 43.6412 259.435 44.1235 258.813 44.4727C258.188 44.822 257.439 44.9983 256.564 44.9983C255.603 44.9983 254.781 44.7854 254.103 44.3596C253.424 43.9305 252.922 43.3351 252.593 42.5701C252.423 42.1776 252.313 41.7485 252.254 41.2895H264.8C264.89 41.05 264.95 40.7606 264.983 40.4213C265.016 40.082 265.03 39.7361 265.03 39.3868C265.03 38.1395 264.834 36.9853 264.441 35.9242ZM243.765 33.792C243.196 32.7742 242.414 31.9792 241.42 31.4104C240.422 30.8416 239.281 30.5589 237.99 30.5589C236.524 30.5589 235.243 30.9081 234.149 31.61C233.493 32.0291 232.931 32.5879 232.455 33.2798C232.086 32.6644 231.574 32.1322 230.915 31.6898C229.791 30.9347 228.484 30.5589 226.994 30.5589C225.593 30.5589 224.393 30.8882 223.385 31.5435C222.779 31.9393 222.31 32.4682 221.974 33.1234V30.9514H217.377V48.8701H222.304V38.4023C222.304 37.7037 222.427 37.1017 222.68 36.5961C222.932 36.0938 223.292 35.7013 223.764 35.4153C224.233 35.1325 224.785 34.9895 225.42 34.9895C226.076 34.9895 226.634 35.1325 227.093 35.4153C227.553 35.7013 227.908 36.0938 228.161 36.5961C228.411 37.1017 228.537 37.7037 228.537 38.4023V48.8701H233.46V38.4023C233.46 37.7037 233.586 37.1017 233.839 36.5961C234.089 36.0938 234.451 35.7013 234.92 35.4153C235.393 35.1325 235.945 34.9895 236.577 34.9895C237.235 34.9895 237.794 35.1325 238.253 35.4153C238.712 35.7013 239.065 36.0938 239.318 36.5961C239.57 37.1017 239.697 37.7037 239.697 38.4023V48.8701H244.62V37.3511C244.62 35.9974 244.334 34.8099 243.765 33.792ZM208.829 42.4703C208.446 43.2154 207.921 43.7942 207.256 44.21C206.587 44.6257 205.805 44.8353 204.907 44.8353C204.012 44.8353 203.224 44.6257 202.545 44.21C201.867 43.7942 201.338 43.2154 200.952 42.4703C200.57 41.7285 200.38 40.8737 200.38 39.9124C200.38 38.9478 200.57 38.1029 200.952 37.3678C201.338 36.636 201.867 36.0539 202.545 35.6281C203.224 35.2024 204.012 34.9895 204.907 34.9895C205.805 34.9895 206.587 35.2024 207.256 35.6281C207.921 36.0539 208.446 36.636 208.829 37.3678C209.215 38.1029 209.404 38.9478 209.404 39.9124C209.404 40.8737 209.215 41.7285 208.829 42.4703ZM213.196 35.0859C212.331 33.6889 211.177 32.5813 209.734 31.773C208.29 30.9647 206.68 30.5589 204.907 30.5589C203.138 30.5589 201.521 30.9647 200.067 31.773C198.614 32.5813 197.453 33.6889 196.588 35.0859C195.727 36.4863 195.294 38.0962 195.294 39.9124C195.294 41.7053 195.727 43.3085 196.588 44.7189C197.453 46.1292 198.614 47.2402 200.067 48.0518C201.521 48.8601 203.138 49.2659 204.907 49.2659C206.68 49.2659 208.29 48.8601 209.734 48.0518C211.177 47.2402 212.331 46.1292 213.196 44.7189C214.058 43.3085 214.49 41.7053 214.49 39.9124C214.49 38.0962 214.058 36.4863 213.196 35.0859ZM187.122 24.4219L179.358 35.0194L171.368 24.4219H166.445V48.8701H171.531V32.7742L178.916 42.6366H179.574L186.955 33.1168V48.8701H192.044V24.4219H187.122Z" fill="white"/>
<path fill-rule="evenodd" clip-rule="evenodd" d="M36.6623 39.8722L71.1958 19.9378L36.6623 0L2.13215 19.9378L36.6623 39.8722ZM34.5335 43.561L0 23.6266V33.7685L8.78805 38.841L12.9126 41.2227V60.8078L21.6974 65.8804V46.2952L25.7488 48.6336L34.5335 53.7062V43.561ZM10.235 39.6759L12.9126 41.2227ZM38.7945 43.561V73.298L47.5792 68.2288V48.6336L57.6678 52.9778L64.5399 42.8259V58.4329L73.3246 53.3636V23.6266L64.5798 28.6726L55.1598 43.1153L47.3829 38.6182L38.7945 43.561ZM36.6623 29.7303L53.6264 19.9378L36.6623 10.1452L19.7016 19.9378L36.6623 29.7303Z" fill="white"/>
</svg>
