<svg width="349" height="74" viewBox="0 0 349 74" fill="none" xmlns="http://www.w3.org/2000/svg">
<path d="M162.696 33.7972C162.127 32.7794 161.335 31.9844 160.317 31.4156C159.299 30.8468 158.112 30.5641 156.755 30.5641C155.511 30.5641 154.42 30.8202 153.492 31.3358C152.916 31.6518 152.441 32.0775 152.065 32.6064V24.0312H147.142V48.8753H152.065V38.4075C152.065 37.7089 152.198 37.1069 152.474 36.6013C152.747 36.099 153.136 35.7065 153.638 35.4205C154.14 35.1377 154.709 34.9947 155.345 34.9947C156.003 34.9947 156.575 35.1377 157.068 35.4205C157.56 35.7065 157.942 36.099 158.215 36.6013C158.491 37.1069 158.628 37.7089 158.628 38.4075V48.8753H163.55V37.3564C163.55 36.0026 163.264 34.8151 162.696 33.7972ZM138.444 44.0522C137.722 44.5777 136.867 44.8405 135.882 44.8405C135.031 44.8405 134.269 44.6309 133.604 44.2152C132.935 43.7994 132.41 43.2206 132.027 42.4755C131.645 41.7337 131.452 40.8789 131.452 39.9176C131.452 38.953 131.645 38.1014 132.027 37.3564C132.41 36.6146 132.935 36.0325 133.604 35.6167C134.269 35.2009 135.031 34.9947 135.882 34.9947C136.847 34.9947 137.695 35.2575 138.427 35.783C139.159 36.3086 139.681 37.0171 139.987 37.9152L144.251 36.0791C143.902 34.9614 143.323 33.9935 142.512 33.1719C141.703 32.3536 140.729 31.7116 139.591 31.2526C138.454 30.7936 137.22 30.5641 135.882 30.5641C134.09 30.5641 132.47 30.9699 131.026 31.7782C129.582 32.5865 128.445 33.6974 127.613 35.1078C126.782 36.5215 126.366 38.1114 126.366 39.8843C126.366 41.6572 126.788 43.2539 127.63 44.6742C128.471 46.0978 129.609 47.2188 131.043 48.0404C132.476 48.8587 134.09 49.2711 135.882 49.2711C137.24 49.2711 138.487 49.0349 139.624 48.5659C140.762 48.0936 141.737 47.445 142.545 46.6134C143.357 45.7818 143.925 44.8405 144.251 43.7894L139.987 41.92C139.681 42.8148 139.165 43.5266 138.444 44.0522ZM113.141 35.1244C113.753 34.7086 114.484 34.5024 115.339 34.5024C116.214 34.5024 116.953 34.7153 117.555 35.141C118.157 35.5668 118.579 36.1489 118.819 36.8807C118.902 37.1368 118.948 37.4062 118.975 37.6857H111.554C111.611 37.4329 111.677 37.19 111.764 36.9639C112.07 36.1556 112.529 35.5402 113.141 35.1244ZM123.608 35.9294C123.216 34.8683 122.64 33.9336 121.885 33.1253C121.134 32.3137 120.209 31.685 119.115 31.236C118.02 30.7869 116.763 30.5641 115.339 30.5641C113.633 30.5641 112.099 30.9699 110.746 31.7782C109.389 32.5865 108.311 33.6941 107.513 35.0912C106.714 36.4915 106.315 38.0881 106.315 39.8843C106.315 41.614 106.698 43.1873 107.463 44.611C108.228 46.0313 109.312 47.1656 110.712 48.0071C112.113 48.8487 113.763 49.2711 115.669 49.2711C116.893 49.2711 118.02 49.0915 119.048 48.7289C120.076 48.3664 120.967 47.8608 121.722 47.2022C122.477 46.5469 123.03 45.7818 123.379 44.907L119.441 43.0343C119.091 43.6464 118.606 44.1287 117.98 44.4779C117.358 44.8272 116.607 45.0035 115.735 45.0035C114.77 45.0035 113.949 44.7906 113.27 44.3648C112.592 43.9357 112.089 43.3403 111.764 42.5753C111.594 42.1828 111.481 41.7537 111.424 41.2947H123.971C124.057 41.0552 124.117 40.7658 124.151 40.4265C124.184 40.0872 124.201 39.7413 124.201 39.392C124.201 38.1447 124.004 36.9905 123.608 35.9294ZM89.7734 24.4271V28.8577H95.977V48.8753H101.063V28.8577H107.167V24.4271H89.7734Z" fill="#3EDBF0"/>
<path d="M348.157 33.792C347.588 32.7742 346.807 31.9792 345.809 31.4104C344.814 30.8416 343.673 30.5589 342.38 30.5589C340.916 30.5589 339.635 30.9081 338.541 31.61C337.886 32.0291 337.324 32.5879 336.848 33.2798C336.479 32.6644 335.966 32.1322 335.308 31.6898C334.18 30.9347 332.873 30.5589 331.386 30.5589C329.986 30.5589 328.782 30.8882 327.777 31.5435C327.172 31.9393 326.703 32.4682 326.367 33.1234V30.9514H321.77V48.8701H326.693V38.4023C326.693 37.7037 326.819 37.1017 327.072 36.5961C327.321 36.0938 327.684 35.7013 328.153 35.4153C328.625 35.1325 329.177 34.9895 329.813 34.9895C330.468 34.9895 331.027 35.1325 331.486 35.4153C331.945 35.7013 332.301 36.0938 332.55 36.5961C332.803 37.1017 332.93 37.7037 332.93 38.4023V48.8701H337.852V38.4023C337.852 37.7037 337.979 37.1017 338.228 36.5961C338.481 36.0938 338.844 35.7013 339.313 35.4153C339.782 35.1325 340.337 34.9895 340.969 34.9895C341.624 34.9895 342.183 35.1325 342.642 35.4153C343.105 35.7013 343.457 36.0938 343.71 36.5961C343.963 37.1017 344.086 37.7037 344.086 38.4023V48.8701H349.009V37.3511C349.009 35.9974 348.726 34.8099 348.157 33.792ZM313.238 30.9514V41.4225C313.238 42.1011 313.102 42.6965 312.829 43.2087C312.556 43.7243 312.17 44.1235 311.678 44.4095C311.186 44.6923 310.613 44.8353 309.955 44.8353C309.323 44.8353 308.754 44.6923 308.248 44.4095C307.746 44.1235 307.357 43.7243 307.084 43.2087C306.812 42.6965 306.675 42.1011 306.675 41.4225V30.9514H301.752V41.815C301.752 43.3019 302.015 44.6058 302.541 45.7201C303.063 46.8377 303.835 47.7059 304.852 48.3312C305.87 48.9532 307.101 49.2659 308.545 49.2659C309.792 49.2659 310.88 49.0098 311.811 48.4942C312.566 48.0751 313.151 47.4697 313.567 46.6814V48.8701H318.161V30.9514H313.238ZM299.224 35.219V30.9514H295.023V26.8833H290.1V28.1939C290.1 29.1153 289.854 29.8038 289.362 30.2628C288.87 30.7219 288.164 30.9514 287.246 30.9514H287.083V35.219H290.1V42.4071C290.1 44.506 290.699 46.1425 291.89 47.3134C293.081 48.4842 294.76 49.0697 296.926 49.0697C297.298 49.0697 297.694 49.0464 298.11 49.0031C298.526 48.9599 298.898 48.9133 299.224 48.8701V44.7022C299.005 44.7255 298.798 44.7488 298.602 44.7688C298.403 44.7921 298.23 44.802 298.077 44.802C297.398 44.802 296.829 44.7022 296.37 44.506C295.911 44.3097 295.572 44.007 295.352 43.6046C295.133 43.1988 295.023 42.6898 295.023 42.0778V35.219H299.224ZM284.193 33.792C283.624 32.7742 282.832 31.9792 281.814 31.4104C280.797 30.8416 279.609 30.5589 278.255 30.5589C277.008 30.5589 275.917 30.815 274.989 31.3306C274.231 31.7497 273.648 32.3551 273.233 33.1401V30.9514H268.639V48.8701H273.562V38.4023C273.562 37.7037 273.698 37.1017 273.971 36.5961C274.244 36.0938 274.633 35.7013 275.135 35.4153C275.641 35.1325 276.21 34.9895 276.842 34.9895C277.477 34.9895 278.046 35.1325 278.548 35.4153C279.054 35.7013 279.44 36.0938 279.716 36.5961C279.988 37.1017 280.125 37.7037 280.125 38.4023V48.8701H285.048V37.3844C285.048 36.0073 284.762 34.8099 284.193 33.792ZM254.692 35.1192C255.304 34.7034 256.036 34.4972 256.891 34.4972C257.765 34.4972 258.504 34.7101 259.106 35.1358C259.705 35.5616 260.127 36.1437 260.367 36.8755C260.45 37.1316 260.496 37.401 260.526 37.6805H253.102C253.159 37.4277 253.225 37.1848 253.312 36.9586C253.618 36.1504 254.077 35.535 254.692 35.1192ZM265.16 35.9242C264.767 34.8631 264.192 33.9284 263.437 33.1201C262.682 32.3085 261.757 31.6798 260.663 31.2308C259.568 30.7817 258.311 30.5589 256.891 30.5589C255.184 30.5589 253.651 30.9647 252.294 31.773C250.94 32.5813 249.862 33.6889 249.061 35.0859C248.262 36.4863 247.863 38.0829 247.863 39.8791C247.863 41.6088 248.246 43.1821 249.014 44.6058C249.779 46.0261 250.863 47.1604 252.26 48.0019C253.661 48.8435 255.314 49.2659 257.217 49.2659C258.441 49.2659 259.568 49.0863 260.596 48.7237C261.627 48.3612 262.519 47.8556 263.274 47.197C264.029 46.5417 264.581 45.7766 264.93 44.9018L260.992 43.0291C260.643 43.6412 260.154 44.1235 259.532 44.4727C258.906 44.822 258.158 44.9983 257.283 44.9983C256.322 44.9983 255.5 44.7854 254.822 44.3596C254.143 43.9305 253.641 43.3351 253.312 42.5701C253.142 42.1776 253.032 41.7485 252.972 41.2895H265.519C265.609 41.05 265.669 40.7606 265.702 40.4213C265.735 40.082 265.749 39.7361 265.749 39.3868C265.749 38.1395 265.552 36.9853 265.16 35.9242ZM244.484 33.792C243.915 32.7742 243.133 31.9792 242.139 31.4104C241.141 30.8416 240 30.5589 238.709 30.5589C237.242 30.5589 235.962 30.9081 234.867 31.61C234.212 32.0291 233.65 32.5879 233.174 33.2798C232.805 32.6644 232.293 32.1322 231.634 31.6898C230.51 30.9347 229.203 30.5589 227.712 30.5589C226.312 30.5589 225.111 30.8882 224.103 31.5435C223.498 31.9393 223.029 32.4682 222.693 33.1234V30.9514H218.096V48.8701H223.022V38.4023C223.022 37.7037 223.145 37.1017 223.398 36.5961C223.651 36.0938 224.01 35.7013 224.483 35.4153C224.952 35.1325 225.504 34.9895 226.139 34.9895C226.794 34.9895 227.353 35.1325 227.812 35.4153C228.271 35.7013 228.627 36.0938 228.88 36.5961C229.129 37.1017 229.256 37.7037 229.256 38.4023V48.8701H234.179V38.4023C234.179 37.7037 234.305 37.1017 234.558 36.5961C234.807 36.0938 235.17 35.7013 235.639 35.4153C236.111 35.1325 236.663 34.9895 237.295 34.9895C237.954 34.9895 238.513 35.1325 238.972 35.4153C239.431 35.7013 239.784 36.0938 240.036 36.5961C240.289 37.1017 240.416 37.7037 240.416 38.4023V48.8701H245.338V37.3511C245.338 35.9974 245.052 34.8099 244.484 33.792ZM209.548 42.4703C209.165 43.2154 208.64 43.7942 207.974 44.21C207.306 44.6257 206.524 44.8353 205.626 44.8353C204.731 44.8353 203.943 44.6257 203.264 44.21C202.586 43.7942 202.057 43.2154 201.671 42.4703C201.288 41.7285 201.099 40.8737 201.099 39.9124C201.099 38.9478 201.288 38.1029 201.671 37.3678C202.057 36.636 202.586 36.0539 203.264 35.6281C203.943 35.2024 204.731 34.9895 205.626 34.9895C206.524 34.9895 207.306 35.2024 207.974 35.6281C208.64 36.0539 209.165 36.636 209.548 37.3678C209.933 38.1029 210.123 38.9478 210.123 39.9124C210.123 40.8737 209.933 41.7285 209.548 42.4703ZM213.915 35.0859C213.05 33.6889 211.896 32.5813 210.452 31.773C209.009 30.9647 207.399 30.5589 205.626 30.5589C203.856 30.5589 202.24 30.9647 200.786 31.773C199.333 32.5813 198.172 33.6889 197.307 35.0859C196.445 36.4863 196.013 38.0962 196.013 39.9124C196.013 41.7053 196.445 43.3085 197.307 44.7189C198.172 46.1292 199.333 47.2402 200.786 48.0518C202.24 48.8601 203.856 49.2659 205.626 49.2659C207.399 49.2659 209.009 48.8601 210.452 48.0518C211.896 47.2402 213.05 46.1292 213.915 44.7189C214.777 43.3085 215.209 41.7053 215.209 39.9124C215.209 38.0962 214.777 36.4863 213.915 35.0859ZM187.84 24.4219L180.077 35.0194L172.087 24.4219H167.164V48.8701H172.25V32.7742L179.634 42.6366H180.293L187.674 33.1168V48.8701H192.763V24.4219H187.84Z" fill="white"/>
<path fill-rule="evenodd" clip-rule="evenodd" d="M37.3811 39.8722L71.9146 19.9378L37.3811 0L2.8509 19.9378L37.3811 39.8722ZM35.2522 43.561L0.71875 23.6266V33.7685L9.5068 38.841L13.6314 41.2227V60.8078L22.4161 65.8804V46.2952L26.4675 48.6336L35.2522 53.7062V43.561ZM10.9537 39.6759L13.6314 41.2227L10.9537 39.6759ZM39.5132 43.561V73.298L48.2979 68.2288V48.6336L58.3866 52.9778L65.2587 42.8259V58.4329L74.0434 53.3636V23.6266L65.2986 28.6726L55.8785 43.1153L48.1017 38.6182L39.5132 43.561ZM37.3811 29.7303L54.3451 19.9378L37.3811 10.1452L20.4203 19.9378L37.3811 29.7303Z" fill="white"/>
</svg>
