<svg width="129" height="126" viewBox="0 0 129 126" fill="none" xmlns="http://www.w3.org/2000/svg">
<path d="M114.845 30.4794C114.966 29.2815 113.954 28.0187 112.728 27.3965L58.5923 0.337948C58.1633 0.120904 57.6894 0.0078125 57.2087 0.0078125C56.728 0.0078125 56.254 0.120904 55.8251 0.337948L1.71726 27.3965C-0.297741 28.7151 0.0179731 31.6401 0.0179731 31.9465V89.7037C0.0179731 90.7715 0.575116 91.7744 1.50369 92.3408C1.50369 92.3408 54.4508 124.339 55.3608 124.748C57.218 125.667 58.388 125.417 59.2608 124.971L76.8851 114.775C78.3894 113.893 78.5101 112.556 78.3151 110.244C78.1201 107.941 76.1051 106.687 74.6287 107.542C73.143 108.387 61.4894 115.407 61.4894 115.407V62.6637L108.178 35.4751L113.09 32.5037C114.065 31.8722 114.706 31.0644 114.836 30.4794H114.845ZM53.0951 114.766L8.09654 87.3358V36.8494L53.0858 62.6822V114.757L53.0951 114.766ZM57.2087 54.2694L14.4108 30.0058L57.2087 8.62081L99.9973 30.0058L57.2087 54.2694ZM127.576 96.9094L103.526 111.349C102.179 112.287 100.759 111.237 100.759 111.237C100.629 111.209 76.8108 96.9094 76.8108 96.9094C76.4683 96.7052 76.1847 96.4156 75.9878 96.0689C75.7908 95.7222 75.6873 95.3303 75.6873 94.9315V69.1172C75.6873 68.2815 76.1144 66.8237 77.823 66.1644L101.158 53.2572C101.477 53.1067 101.826 53.0286 102.179 53.0286C102.533 53.0286 102.881 53.1067 103.201 53.2572L126.564 66.1644H126.378C126.443 66.1644 126.536 66.1644 126.601 66.2015L127.204 66.5079C127.966 66.8701 128.672 67.5294 128.672 68.458V94.9222C128.672 95.3192 128.572 95.7099 128.381 96.0575C128.189 96.4051 127.912 96.6983 127.576 96.9094ZM84.7037 68.6622L102.049 78.403L119.646 68.6622L102.049 58.968L84.7037 68.6622ZM105.504 103.948L123.239 93.2508V73.9922L105.504 84.0487V103.939V103.948ZM99.2173 103.632V84.1415L81.8251 74.2987V93.1487L99.2173 103.642V103.632Z" fill="#290293"/>
</svg>
