<svg width="70" height="36" viewBox="0 0 70 36" fill="none" xmlns="http://www.w3.org/2000/svg">
<path d="M43.0408 3.53331L51.6984 24.188H57.3471L61.6079 7.70377C61.8659 6.69082 62.0906 6.31798 62.8768 5.88983C64.1616 5.19187 66.2834 4.53909 68.1484 4.13289L68.0226 3.53331H58.9288C57.7715 3.53331 56.7294 4.3039 56.4646 5.63818L54.2133 17.5914L48.6553 3.53331H43.0408ZM35.4046 3.53331L39.8229 24.188H45.1668L40.7485 3.53331H35.4046ZM20.9091 17.4444C20.8867 11.9942 28.4452 11.6918 28.3958 9.25635C28.3777 8.51616 27.6725 7.72784 26.1288 7.52643C25.3641 7.42763 23.2517 7.34867 20.8588 8.45114L19.9227 4.06871C21.2085 3.60382 22.8628 3.15625 24.9208 3.15625C30.2034 3.15625 33.9196 5.96203 33.9491 9.98302C33.9837 12.9573 31.2949 14.615 29.2728 15.6056C27.1899 16.6173 26.4915 17.2675 26.5012 18.1715C26.516 19.5573 28.1644 20.1708 29.6972 20.1936C32.3847 20.2363 33.9428 19.4674 35.1854 18.8885L36.1553 23.4162C34.9051 23.9891 32.6009 24.487 30.2144 24.5123C24.5986 24.5123 20.9256 21.7386 20.9091 17.4444ZM6.95956 24.188H2.01893L6.33549 3.53331H10.894C11.9221 3.53331 12.786 4.12993 13.1694 5.04746L21.1878 24.188H15.5762L14.4632 21.1027H7.60727L6.95956 24.188ZM12.9245 16.8702L10.1107 9.11363L8.4944 16.8702H12.9245ZM28.5657 29.8734H30.7369V31.8942H28.3081V32.5018H31.4686V26.8953H28.4327V27.5029H30.7369V29.2742H28.5657V29.8734ZM27.1864 26.5962H26.4547V32.5017H27.1864V26.5962ZM24.6088 30.6217C24.5923 31.6119 23.9683 32.0193 23.2285 32.0193C22.7041 32.0193 22.3798 31.9277 22.1134 31.8116L21.9804 32.3356C22.2383 32.4517 22.6872 32.5932 23.3281 32.5932C24.567 32.5932 25.3072 31.7698 25.3072 30.5554C25.3072 29.3411 24.5923 28.3927 23.4194 28.3927C22.0969 28.3927 21.7557 29.5408 21.7557 30.281C21.7557 30.4304 21.7642 30.5385 21.7811 30.6217H24.6088ZM22.463 30.0977C22.4545 29.6404 22.6543 28.9167 23.4776 28.9167C24.2263 28.9167 24.5425 29.5906 24.6008 30.0977H22.463ZM17.7734 32.3603C17.9647 32.4519 18.389 32.5933 18.9295 32.5933C20.1439 32.5933 20.9339 31.77 20.9339 30.5387C20.9339 29.2994 20.086 28.3929 18.7716 28.3929C18.3392 28.3929 17.9567 28.5006 17.7569 28.6091L17.9229 29.1664C18.0981 29.0748 18.3726 28.9747 18.7716 28.9747C19.695 28.9747 20.1937 29.6651 20.1937 30.4973C20.1937 31.4288 19.595 32.0026 18.7965 32.0026C18.3806 32.0026 18.1061 31.903 17.8984 31.8113L17.7734 32.3603ZM15.7204 27.5111V28.4759H14.6728V29.0328H15.7204V31.204C15.7204 31.7035 15.5789 31.986 15.1714 31.986C14.9721 31.986 14.8552 31.9695 14.7471 31.9357L14.7137 32.4935C14.8552 32.5433 15.0798 32.5932 15.3627 32.5932C15.7039 32.5932 15.9783 32.4766 16.1527 32.2858C16.3525 32.0607 16.4356 31.7035 16.4356 31.2293V29.0328H17.0597V28.4759H16.4356V27.7273L15.7204 27.5111ZM13.6504 29.732C13.6504 29.2578 13.6592 28.8503 13.6837 28.4758H13.0432L13.0098 29.2743H12.9853C12.8021 28.7338 12.3532 28.3926 11.8626 28.3926C11.7874 28.3926 11.7292 28.4011 11.6625 28.4091V29.0999C11.7376 29.083 11.8119 29.083 11.9124 29.083C12.4276 29.083 12.7941 29.4655 12.8937 30.0149C12.9102 30.1145 12.9186 30.2391 12.9186 30.3561V32.5019H13.6504V29.732ZM7.1638 30.4555C7.1638 31.9443 8.20377 32.5933 9.16859 32.5933C10.2499 32.5933 11.0978 31.7944 11.0978 30.5222C11.0978 29.1829 10.2081 28.3928 9.10187 28.3928C7.94578 28.3928 7.1638 29.2327 7.1638 30.4555ZM10.3496 30.4973C10.3496 31.3789 9.85051 32.0444 9.13523 32.0444C8.43642 32.0444 7.91285 31.3869 7.91285 30.4804C7.91285 29.7985 8.25359 28.9413 9.11876 28.9413C9.97506 28.9413 10.3496 29.7402 10.3496 30.4973ZM6.04224 29.5654C6.04224 29.1414 6.05111 28.8087 6.0756 28.476H5.42704L5.38523 29.1414H5.36877C5.16905 28.7669 4.70332 28.3928 4.03787 28.3928C3.48093 28.3928 2.61577 28.7255 2.61577 30.1058V32.5016H3.3475V30.181C3.3475 29.5324 3.58861 28.9915 4.27896 28.9915C4.75314 28.9915 5.12767 29.3327 5.26025 29.7402C5.29403 29.8318 5.3105 29.9564 5.3105 30.0813V32.5016H6.04224V29.5654Z" fill="white"/>
</svg>
