<svg width="84" height="30" viewBox="0 0 84 30" fill="none" xmlns="http://www.w3.org/2000/svg">
<path d="M81.3203 9.25459H76.6175L73.8874 16.2491L71.1175 9.25459H66.5342L73.4291 25.8341H78.0323L76.1392 21.4501L81.3203 9.25459ZM61.7716 8.97561C65.2987 8.97561 67.5306 12.1441 67.5306 15.2926C67.5306 18.8396 65.0795 21.6494 61.8314 21.6494C59.4002 21.6494 58.4836 20.1748 58.4836 20.1748V21.3306H54.3786V9.25459H58.4836V10.3506C58.5035 10.3506 59.5198 8.97561 61.7716 8.97561ZM60.8948 12.8614C59.2608 12.8614 58.4238 14.1567 58.4238 15.3125C58.4238 16.5679 59.3205 17.8034 60.8948 17.8034C62.1901 17.8034 63.3658 16.7473 63.3658 15.3723C63.3658 13.9774 62.4292 12.8614 60.8948 12.8614ZM52.9836 21.3306V3.91406H48.6993V10.3904C48.6993 10.3904 47.683 8.97561 45.5507 8.97561C42.9403 8.97561 41.4059 10.9285 41.4059 13.6984V21.3306H45.6703V14.7346C45.6703 13.798 46.1087 12.8814 47.125 12.8814C48.1612 12.8814 48.6993 13.798 48.6993 14.7346V21.3306H52.9836ZM34.0925 8.97561C38.1378 8.97561 40.549 12.0444 40.549 15.3524C40.549 19.0987 37.6396 21.6693 34.0726 21.6693C30.6252 21.6693 27.6161 19.2183 27.6161 15.4121C27.6161 11.2473 30.7846 8.97561 34.0925 8.97561ZM34.0527 12.8814C32.6179 12.8814 31.6415 14.077 31.6415 15.3324C31.6415 16.4085 32.5581 17.7436 34.0527 17.7436C35.4277 17.7436 36.444 16.6476 36.444 15.3125C36.444 14.0571 35.607 12.8814 34.0527 12.8814ZM20.4822 8.97561C24.5274 8.97561 26.9386 12.0444 26.9386 15.3524C26.9386 19.0987 24.0292 21.6693 20.4622 21.6693C17.0148 21.6693 14.0058 19.2183 14.0058 15.4121C14.0058 11.2473 17.1543 8.97561 20.4822 8.97561ZM20.4423 12.8814C19.0075 12.8814 18.0311 14.077 18.0311 15.3324C18.0311 16.4085 18.9478 17.7436 20.4423 17.7436C21.8173 17.7436 22.8336 16.6476 22.8336 15.3125C22.8336 14.0571 21.9767 12.8814 20.4423 12.8814ZM10.6181 15.8904C9.04387 15.8904 7.76852 17.1657 7.76852 18.74C7.76852 20.3143 9.04387 21.5896 10.6181 21.5896C12.1924 21.5896 13.4677 20.3143 13.4677 18.74C13.4677 17.1657 12.1924 15.8904 10.6181 15.8904ZM6.83193 14.8542H11.9533L7.40982 3.91406H2.30843L6.83193 14.8542Z" fill="white"/>
</svg>
