<svg width="131" height="46" viewBox="0 0 131 46" fill="none" xmlns="http://www.w3.org/2000/svg">
<path d="M3.25 13.9777H10.6054L14.8752 24.9172L19.2074 13.9777H26.3758L15.5921 39.9085H8.39252L11.3534 33.0518L3.25 13.9777ZM33.8246 13.5414C28.3081 13.5414 24.8174 18.4969 24.8174 23.4212C24.8174 28.9689 28.6509 33.3635 33.7311 33.3635C37.5335 33.3635 38.9672 31.0571 38.9672 31.0571V32.8648H45.3875V13.9777H38.9672V15.6919C38.936 15.6919 37.3465 13.5414 33.8246 13.5414ZM35.196 19.6189C37.7517 19.6189 39.0607 21.6447 39.0607 23.4524C39.0607 25.4159 37.6582 27.3483 35.196 27.3483C33.1701 27.3483 31.3313 25.6964 31.3313 23.5459C31.3313 21.3642 32.7961 19.6189 35.196 19.6189ZM47.5692 32.8648V5.625H54.2701V15.7542C54.2701 15.7542 55.8596 13.5414 59.1944 13.5414C63.2773 13.5414 65.6771 16.5957 65.6771 20.9279V32.8648H59.0074V22.5486C59.0074 21.0837 58.3217 19.6501 56.7322 19.6501C55.1116 19.6501 54.2701 21.0837 54.2701 22.5486V32.8648H47.5692ZM77.1153 13.5414C70.7885 13.5414 67.0173 18.3411 67.0173 23.5147C67.0173 29.3741 71.5676 33.3946 77.1465 33.3946C82.5384 33.3946 87.2445 29.5611 87.2445 23.6082C87.2445 17.0944 82.289 13.5414 77.1153 13.5414ZM77.1777 19.6501C79.4217 19.6501 80.9488 21.5201 80.9488 23.4836C80.9488 25.1666 79.5152 27.2548 77.1777 27.2548C75.0271 27.2548 73.4376 25.5406 73.4376 23.4524C73.4376 21.4889 74.7466 19.6501 77.1777 19.6501ZM98.4023 13.5414C92.0754 13.5414 88.3042 18.3411 88.3042 23.5147C88.3042 29.3741 92.8546 33.3946 98.4334 33.3946C103.825 33.3946 108.531 29.5611 108.531 23.6082C108.531 17.0944 103.607 13.5414 98.4023 13.5414ZM98.4646 19.6501C100.709 19.6501 102.236 21.5201 102.236 23.4836C102.236 25.1666 100.802 27.2548 98.4646 27.2548C96.3141 27.2548 94.7246 25.5406 94.7246 23.4524C94.7246 21.4889 96.0647 19.6501 98.4646 19.6501ZM113.83 24.3562C116.292 24.3562 118.287 26.3509 118.287 28.8131C118.287 31.2753 116.292 33.27 113.83 33.27C111.368 33.27 109.373 31.2753 109.373 28.8131C109.373 26.3509 111.368 24.3562 113.83 24.3562ZM119.752 22.7356H111.742L118.848 5.625H126.826L119.752 22.7356Z" fill="#A704C2"/>
</svg>
