<svg width="84" height="30" viewBox="0 0 84 30" fill="none" xmlns="http://www.w3.org/2000/svg">
<path d="M2.10156 9.24654H6.80421L9.53413 16.2407L12.3039 9.24654H16.887L9.99244 25.8254H5.38943L7.28244 21.4415L2.10156 9.24654ZM21.6494 8.96757C18.1224 8.96757 15.8907 12.1359 15.8907 15.2843C15.8907 18.8312 18.3416 21.6408 21.5896 21.6408C24.0207 21.6408 24.9373 20.1662 24.9373 20.1662V21.322H29.0421V9.24654H24.9373V10.3425C24.9174 10.3425 23.9011 8.96757 21.6494 8.96757ZM22.5262 12.8532C24.1602 12.8532 24.9971 14.1484 24.9971 15.3042C24.9971 16.5596 24.1004 17.795 22.5262 17.795C21.231 17.795 20.0553 16.7389 20.0553 15.364C20.0553 13.9691 20.9918 12.8532 22.5262 12.8532ZM30.437 21.322V3.90625H34.7212V10.3823C34.7212 10.3823 35.7374 8.96757 37.8696 8.96757C40.4799 8.96757 42.0143 10.9204 42.0143 13.6901V21.322H37.75V14.7263C37.75 13.7898 37.3116 12.8732 36.2954 12.8732C35.2592 12.8732 34.7212 13.7898 34.7212 14.7263V21.322H30.437ZM49.3273 8.96757C45.2822 8.96757 42.8711 12.0362 42.8711 15.344C42.8711 19.0902 45.7804 21.6607 49.3472 21.6607C52.7945 21.6607 55.8034 19.2098 55.8034 15.4038C55.8034 11.2392 52.6351 8.96757 49.3273 8.96757ZM49.3671 12.8732C50.8018 12.8732 51.7782 14.0687 51.7782 15.3241C51.7782 16.4001 50.8616 17.7352 49.3671 17.7352C47.9922 17.7352 46.9759 16.6393 46.9759 15.3042C46.9759 14.0488 47.8129 12.8732 49.3671 12.8732ZM62.937 8.96757C58.892 8.96757 56.4809 12.0362 56.4809 15.344C56.4809 19.0902 59.3901 21.6607 62.957 21.6607C66.4042 21.6607 69.4131 19.2098 69.4131 15.4038C69.4131 11.2392 66.2648 8.96757 62.937 8.96757ZM62.9769 12.8732C64.4116 12.8732 65.388 14.0687 65.388 15.3241C65.388 16.4001 64.4714 17.7352 62.9769 17.7352C61.602 17.7352 60.5857 16.6393 60.5857 15.3042C60.5857 14.0488 61.4426 12.8732 62.9769 12.8732ZM72.8006 15.8821C74.3748 15.8821 75.6501 17.1573 75.6501 18.7315C75.6501 20.3057 74.3748 21.581 72.8006 21.581C71.2264 21.581 69.9511 20.3057 69.9511 18.7315C69.9511 17.1573 71.2264 15.8821 72.8006 15.8821ZM76.5867 14.8459H71.4656L76.0088 3.90625H81.11L76.5867 14.8459Z" fill="white"/>
</svg>
