<svg width="79" height="32" viewBox="0 0 79 32" fill="none" xmlns="http://www.w3.org/2000/svg">
<path d="M76.7202 8.55469V26.0663L74.2969 28.4319V11.2954L76.7202 8.55469Z" fill="white"/>
<path d="M60.838 8.56911L58.3281 11.2954L58.4579 11.4685L74.1953 11.4108L74.3395 11.2954L76.7196 8.55469L60.838 8.56911Z" fill="white"/>
<path d="M71.9004 17.4746C71.5831 16.6812 71.107 15.96 70.4868 15.3397C69.8954 14.7339 69.2318 14.2723 68.4817 13.9694C67.7461 13.6665 66.9527 13.5078 66.0872 13.5078C65.2218 13.5078 64.414 13.6665 63.6783 13.9694C62.9282 14.2723 62.2647 14.7339 61.6733 15.3397C61.053 15.96 60.5914 16.6812 60.2741 17.4746C59.9567 18.268 59.8125 19.1334 59.8125 20.0855C59.8125 21.0087 59.9712 21.8741 60.2885 22.6819C60.6059 23.4897 61.0674 24.2109 61.6877 24.8456C62.2647 25.437 62.9282 25.8842 63.6639 26.1871C64.3996 26.49 65.2218 26.6487 66.1017 26.6487C66.9527 26.6487 67.7461 26.49 68.4817 26.1871C69.2174 25.8842 69.8954 25.437 70.4868 24.8456C71.107 24.2109 71.5831 23.4897 71.9004 22.6963C72.2177 21.903 72.3764 21.0231 72.3764 20.0999C72.3764 19.1334 72.2177 18.268 71.9004 17.4746ZM68.5971 23.1291C67.9769 23.8647 67.1547 24.2398 66.0872 24.2398C65.0198 24.2398 64.1832 23.8647 63.5629 23.1291C62.9427 22.3934 62.6397 21.3693 62.6397 20.0711C62.6397 18.744 62.9571 17.7198 63.5629 16.9697C64.1832 16.2197 65.0054 15.859 66.0872 15.859C67.1547 15.859 67.9769 16.2341 68.5971 16.9697C69.203 17.7198 69.5203 18.744 69.5203 20.0711C69.5203 21.3693 69.2174 22.3934 68.5971 23.1291Z" fill="white"/>
<path d="M56.7574 7.13281V7.21936L58.8057 22.9567L57.6084 26.2744L57.4498 26.159L55.3438 11.0708L55.387 10.8688L56.6997 7.21936L56.7574 7.13281Z" fill="white"/>
<path d="M40.9826 9.32537L56.7488 7.13281L55.4218 10.9121L55.2342 11.114L40.4922 13.2777L40.5643 10.5803L40.9826 9.32537Z" fill="white"/>
<path d="M52.7817 13.8547C52.7096 13.3787 52.5509 13.0181 52.2913 12.7729C52.0749 12.5853 51.8153 12.4844 51.5124 12.4844C51.4402 12.4844 51.3537 12.4844 51.2671 12.4988C50.8633 12.5565 50.5603 12.744 50.3728 13.0469C50.2286 13.2633 50.1709 13.5374 50.1709 13.8547C50.1709 13.9701 50.1853 14.0999 50.1997 14.2298L50.7623 18.2254L46.2906 18.8889L45.7281 14.8933C45.6559 14.4317 45.4973 14.0711 45.2376 13.8259C45.0212 13.6239 44.7616 13.523 44.4731 13.523C44.401 13.523 44.3289 13.523 44.2567 13.5374C43.8384 13.5951 43.5211 13.7826 43.3191 14.0855C43.1749 14.3019 43.1172 14.576 43.1172 14.8933C43.1172 15.0087 43.1316 15.1385 43.146 15.2828L44.6751 25.683C44.7472 26.159 44.9059 26.5196 45.1943 26.7648C45.4107 26.9523 45.6704 27.0389 45.9877 27.0389C46.0743 27.0389 46.1608 27.0389 46.2473 27.0245C46.6368 26.9668 46.9253 26.7793 47.1128 26.4763C47.2427 26.26 47.3004 26.0003 47.3004 25.6974C47.3004 25.582 47.2859 25.4522 47.2715 25.3224L46.6512 21.2113L51.1229 20.5478L51.7432 24.6588C51.8153 25.1348 51.974 25.4955 52.248 25.7262C52.4644 25.9138 52.724 26.0147 53.027 26.0147C53.0991 26.0147 53.1856 26.0147 53.2722 26.0003C53.6761 25.9426 53.979 25.7551 54.1665 25.4522C54.2963 25.2358 54.3685 24.9762 54.3685 24.6588C54.3685 24.5434 54.354 24.4136 54.3396 24.2838L52.7817 13.8547Z" fill="white"/>
<path d="M26.2206 3.125L20.6094 16.4534L21.3739 22.3099L21.4172 22.2954L27.7208 8.11595L27.6919 7.81303L26.336 3.31252L26.2206 3.125Z" fill="white"/>
<path d="M26.2188 3.125L27.6756 8.01497L27.7045 8.11595L41.5811 14.333L41.6243 14.3041L40.4415 9.63054L26.2188 3.125Z" fill="white"/>
<path d="M37.3938 15.4536C37.0909 14.6458 36.6726 13.9534 36.1244 13.3764C35.5763 12.7994 34.9128 12.3378 34.1338 12.0061C33.3549 11.6743 32.576 11.5156 31.7826 11.5156H31.7393C30.9315 11.5156 30.1382 11.7031 29.3592 12.0493C28.537 12.41 27.8302 12.9004 27.2244 13.5495C26.6186 14.1842 26.1281 14.9631 25.7531 15.8575C25.378 16.7374 25.1761 17.6317 25.1328 18.5116V18.8145C25.1328 19.5935 25.2626 20.358 25.5367 21.1081C25.8252 21.9014 26.2435 22.5794 26.7917 23.1564C27.3398 23.7333 28.0178 24.1949 28.8255 24.5267C29.59 24.8585 30.369 25.0171 31.1623 25.0171H31.1768C31.9701 25.0171 32.7635 24.844 33.5424 24.5123C34.3646 24.1517 35.0859 23.6468 35.6917 22.9977C36.2975 22.363 36.8024 21.5985 37.1774 20.7042C37.5525 19.8098 37.7544 18.9299 37.7977 18.05V17.7904C37.8121 16.997 37.6823 16.2181 37.3938 15.4536ZM34.6098 19.6079C34.0906 20.8484 33.3837 21.6995 32.5327 22.1611C32.0711 22.4063 31.5951 22.5361 31.1191 22.5361C30.7007 22.5361 30.2536 22.4351 29.8064 22.2476C28.8255 21.8293 28.2197 21.1657 27.9601 20.2137C27.8735 19.8964 27.8302 19.5646 27.8302 19.2184C27.8302 18.526 28.0033 17.7615 28.3495 16.9393C28.8832 15.6699 29.59 14.8045 30.4411 14.3284C30.9027 14.0688 31.3787 13.9534 31.8547 13.9534C32.2875 13.9534 32.7202 14.0544 33.1818 14.2419C34.1483 14.6602 34.7541 15.3237 35.0137 16.2758C35.1003 16.5787 35.1436 16.9105 35.1436 17.2567C35.1436 17.9779 34.9705 18.7568 34.6098 19.6079Z" fill="white"/>
<path d="M19.5079 5.39062L21.787 20.652L20.7485 26.0179L20.6042 25.8304L18.3828 11.0884V10.7999L19.3637 5.65027L19.5079 5.39062Z" fill="white"/>
<path d="M2.85938 13.2809L3.94123 7.8861L19.5055 5.39062L18.4525 10.8864V11.2471L3.0469 13.4252L2.85938 13.2809Z" fill="white"/>
<path d="M16.7932 23.613C16.6778 23.4688 16.5047 23.3678 16.3028 23.2957C16.1008 23.2235 15.8556 23.1947 15.5527 23.1947C15.2786 23.1947 14.9613 23.2235 14.6151 23.2812L10.5473 23.9736C10.5906 23.6563 10.7493 23.2524 11.0233 22.7475C11.3263 22.185 11.7878 21.507 12.3793 20.7281C12.5812 20.454 12.7399 20.252 12.8553 20.1078C12.9274 20.0068 13.0428 19.877 13.187 19.6895C14.1246 18.4634 14.6872 17.4681 14.918 16.6891C15.0478 16.242 15.1199 15.7948 15.1488 15.3476C15.1632 15.2178 15.1632 15.1024 15.1632 14.987C15.1632 14.6697 15.1344 14.3523 15.0767 14.035C15.0334 13.7465 14.9613 13.5157 14.8603 13.3282C14.7593 13.1407 14.6439 12.9964 14.4997 12.9099C14.341 12.8089 14.0958 12.7656 13.7929 12.7656C13.5477 12.7656 13.2447 12.7945 12.8841 12.8522L8.18167 13.66C7.6191 13.7609 7.18636 13.9196 6.92672 14.1792C6.71035 14.3812 6.60938 14.6408 6.60938 14.9293C6.60938 15.0015 6.60938 15.088 6.6238 15.1746C6.69592 15.5784 6.89787 15.8669 7.22964 16.0112C7.43158 16.0977 7.66238 16.141 7.95087 16.141C8.13839 16.141 8.35476 16.1266 8.58556 16.0833L12.5091 15.3909C12.5091 15.463 12.5235 15.5352 12.5235 15.5929C12.5235 15.8381 12.4802 16.0833 12.3937 16.3141C12.2783 16.6459 11.9898 17.1075 11.5138 17.6989C11.384 17.8575 11.182 18.1172 10.9079 18.449C9.84051 19.7328 9.09042 20.829 8.62883 21.7378C8.29707 22.3725 8.08069 22.9783 7.95087 23.5986C7.87875 23.9592 7.83547 24.291 7.83547 24.6227C7.83547 24.8535 7.8499 25.0843 7.89317 25.3007C7.95087 25.618 8.023 25.8777 8.12397 26.0796C8.22494 26.2816 8.36919 26.4402 8.52786 26.5268C8.68653 26.6133 8.9029 26.6422 9.22025 26.6422C9.60971 26.6422 10.1434 26.5845 10.8214 26.4691L15.0911 25.7334C15.8412 25.6036 16.3749 25.4161 16.6778 25.1709C16.923 24.9689 17.0529 24.6949 17.0529 24.3775C17.0529 24.291 17.0384 24.2044 17.024 24.1179C16.9952 23.9303 16.923 23.7572 16.7932 23.613Z" fill="white"/>
</svg>
