<svg width="79" height="32" viewBox="0 0 79 32" fill="none" xmlns="http://www.w3.org/2000/svg">
<path d="M2.70154 8.5625V26.0749L5.125 28.4406V11.3033L2.70154 8.5625Z" fill="white"/>
<path d="M18.5837 8.57693L21.0938 11.3033L20.9639 11.4764L5.22588 11.4187L5.08163 11.3033L2.70145 8.5625L18.5837 8.57693Z" fill="white"/>
<path d="M7.52094 17.4826C7.8383 16.6892 8.31433 15.9679 8.93462 15.3476C9.52606 14.7418 10.1896 14.2802 10.9397 13.9772C11.6754 13.6743 12.4688 13.5156 13.3344 13.5156C14.1999 13.5156 15.0077 13.6743 15.7434 13.9772C16.4935 14.2802 17.1571 14.7418 17.7485 15.3476C18.3688 15.9679 18.8304 16.6892 19.1478 17.4826C19.4651 18.276 19.6094 19.1415 19.6094 20.0936C19.6094 21.0168 19.4507 21.8823 19.1333 22.6901C18.816 23.498 18.3544 24.2192 17.7341 24.8539C17.1571 25.4454 16.4935 25.8926 15.7578 26.1955C15.0221 26.4984 14.1999 26.6571 13.3199 26.6571C12.4688 26.6571 11.6754 26.4984 10.9397 26.1955C10.2041 25.8926 9.52606 25.4454 8.93462 24.8539C8.31433 24.2192 7.8383 23.498 7.52094 22.7046C7.20358 21.9112 7.0449 21.0312 7.0449 20.108C7.0449 19.1415 7.20358 18.276 7.52094 17.4826ZM10.8243 23.1373C11.4446 23.873 12.2669 24.2481 13.3344 24.2481C14.4018 24.2481 15.2385 23.873 15.8588 23.1373C16.4791 22.4016 16.782 21.3774 16.782 20.0792C16.782 18.752 16.4647 17.7278 15.8588 16.9777C15.2385 16.2276 14.4163 15.867 13.3344 15.867C12.2669 15.867 11.4446 16.242 10.8243 16.9777C10.2185 17.7278 9.90112 18.752 9.90112 20.0792C9.90112 21.3774 10.2041 22.4016 10.8243 23.1373Z" fill="white"/>
<path d="M22.6644 7.13281V7.21936L20.616 22.9574L21.8133 26.2752L21.972 26.1598L24.0781 11.0709L24.0348 10.869L22.7221 7.21936L22.6644 7.13281Z" fill="white"/>
<path d="M38.4392 9.32546L22.6723 7.13281L23.9995 10.9123L24.187 11.1142L38.9297 13.278L38.8576 10.5805L38.4392 9.32546Z" fill="white"/>
<path d="M26.6397 13.8548C26.7118 13.3787 26.8705 13.0181 27.1302 12.7729C27.3466 12.5854 27.6062 12.4844 27.9091 12.4844C27.9813 12.4844 28.0678 12.4844 28.1544 12.4988C28.5583 12.5565 28.8612 12.744 29.0487 13.047C29.193 13.2633 29.2507 13.5374 29.2507 13.8548C29.2507 13.9702 29.2363 14.1 29.2218 14.2298L28.6593 18.2257L33.1311 18.8892L33.6937 14.8934C33.7658 14.4318 33.9245 14.0712 34.1842 13.8259C34.4005 13.624 34.6602 13.523 34.9487 13.523C35.0208 13.523 35.093 13.523 35.1651 13.5374C35.5834 13.5951 35.9008 13.7827 36.1027 14.0856C36.247 14.302 36.3047 14.576 36.3047 14.8934C36.3047 15.0088 36.2903 15.1386 36.2758 15.2829L34.7468 25.6836C34.6746 26.1596 34.5159 26.5202 34.2274 26.7655C34.0111 26.953 33.7514 27.0395 33.434 27.0395C33.3475 27.0395 33.2609 27.0395 33.1744 27.0251C32.7849 26.9674 32.4964 26.7799 32.3089 26.4769C32.179 26.2606 32.1213 26.0009 32.1213 25.698C32.1213 25.5826 32.1358 25.4528 32.1502 25.3229L32.7705 21.2117L28.2986 20.5481L27.6783 24.6594C27.6062 25.1354 27.4475 25.496 27.1734 25.7268C26.9571 25.9144 26.6974 26.0153 26.3945 26.0153C26.3224 26.0153 26.2358 26.0153 26.1493 26.0009C25.7453 25.9432 25.4424 25.7557 25.2549 25.4528C25.1251 25.2364 25.0529 24.9767 25.0529 24.6594C25.0529 24.544 25.0674 24.4141 25.0818 24.2843L26.6397 13.8548Z" fill="white"/>
<path d="M53.1854 3.125L58.7969 16.454L58.0323 22.3107L57.9891 22.2963L51.6852 8.11617L51.714 7.81323L53.07 3.31253L53.1854 3.125Z" fill="white"/>
<path d="M53.1875 3.125L51.7305 8.01519L51.7017 8.11617L37.8245 14.3335L37.7812 14.3046L38.9641 9.63083L53.1875 3.125Z" fill="white"/>
<path d="M42.0119 15.4537C42.3148 14.6459 42.7332 13.9535 43.2813 13.3765C43.8295 12.7995 44.4931 12.3379 45.272 12.0061C46.051 11.6743 46.83 11.5156 47.6234 11.5156H47.6666C48.4745 11.5156 49.2678 11.7032 50.0468 12.0494C50.8691 12.41 51.5759 12.9005 52.1818 13.5496C52.7876 14.1843 53.2781 14.9633 53.6531 15.8577C54.0282 16.7376 54.2302 17.632 54.2734 18.5119V18.8148C54.2734 19.5938 54.1436 20.3584 53.8695 21.1085C53.581 21.9019 53.1627 22.5799 52.6145 23.1569C52.0664 23.7339 51.3884 24.1955 50.5806 24.5273C49.816 24.8591 49.037 25.0177 48.2436 25.0177H48.2292C47.4358 25.0177 46.6424 24.8446 45.8635 24.5129C45.0412 24.1522 44.32 23.6473 43.7141 22.9982C43.1082 22.3635 42.6033 21.5989 42.2283 20.7046C41.8532 19.8102 41.6513 18.9302 41.608 18.0503V17.7906C41.5936 16.9973 41.7234 16.2183 42.0119 15.4537ZM44.796 19.6082C45.3153 20.8488 46.0221 21.6999 46.8732 22.1615C47.3348 22.4068 47.8109 22.5366 48.2869 22.5366C48.7053 22.5366 49.1524 22.4356 49.5996 22.2481C50.5806 21.8297 51.1864 21.1662 51.4461 20.2141C51.5326 19.8967 51.5759 19.565 51.5759 19.2188C51.5759 18.5263 51.4028 17.7618 51.0566 16.9396C50.5228 15.6701 49.816 14.8046 48.9649 14.3286C48.5033 14.0689 48.0273 13.9535 47.5512 13.9535C47.1185 13.9535 46.6857 14.0545 46.2241 14.242C45.2576 14.6603 44.6517 15.3239 44.3921 16.276C44.3055 16.5789 44.2623 16.9107 44.2623 17.2569C44.2623 17.9782 44.4354 18.7571 44.796 19.6082Z" fill="white"/>
<path d="M59.9139 5.39062L57.6347 20.6526L58.6733 26.0189L58.8176 25.8313L61.0391 11.0886V10.8001L60.0581 5.65028L59.9139 5.39062Z" fill="white"/>
<path d="M76.5625 13.2813L75.4806 7.88621L59.9157 5.39062L60.9687 10.8867V11.2473L76.375 13.4255L76.5625 13.2813Z" fill="white"/>
<path d="M62.6282 23.6135C62.7436 23.4692 62.9167 23.3682 63.1187 23.2961C63.3206 23.224 63.5659 23.1951 63.8688 23.1951C64.1429 23.1951 64.4602 23.224 64.8064 23.2817L68.8744 23.9741C68.8311 23.6568 68.6724 23.2528 68.3983 22.748C68.0954 22.1854 67.6338 21.5074 67.0424 20.7284C66.8404 20.4543 66.6817 20.2524 66.5663 20.1081C66.4942 20.0071 66.3788 19.8773 66.2345 19.6898C65.2969 18.4636 64.7343 17.4683 64.5035 16.6893C64.3737 16.2421 64.3016 15.7949 64.2727 15.3478C64.2583 15.2179 64.2583 15.1025 64.2583 14.9871C64.2583 14.6698 64.2871 14.3524 64.3448 14.0351C64.3881 13.7465 64.4602 13.5157 64.5612 13.3282C64.6622 13.1407 64.7776 12.9964 64.9218 12.9099C65.0805 12.8089 65.3257 12.7656 65.6287 12.7656C65.8739 12.7656 66.1768 12.7945 66.5375 12.8522L71.2401 13.66C71.8027 13.761 72.2355 13.9197 72.4951 14.1793C72.7115 14.3813 72.8125 14.6409 72.8125 14.9294C72.8125 15.0016 72.8125 15.0881 72.7981 15.1747C72.7259 15.5786 72.524 15.8671 72.1922 16.0113C71.9903 16.0979 71.7595 16.1412 71.4709 16.1412C71.2834 16.1412 71.067 16.1267 70.8362 16.0835L66.9125 15.391C66.9125 15.4632 66.8981 15.5353 66.8981 15.593C66.8981 15.8382 66.9414 16.0835 67.0279 16.3143C67.1433 16.646 67.4318 17.1077 67.9079 17.6991C68.0377 17.8578 68.2397 18.1174 68.5137 18.4492C69.5812 19.7331 70.3313 20.8294 70.793 21.7382C71.1247 22.3729 71.3411 22.9788 71.4709 23.5991C71.5431 23.9597 71.5863 24.2915 71.5863 24.6233C71.5863 24.8541 71.5719 25.0849 71.5286 25.3012C71.4709 25.6186 71.3988 25.8783 71.2978 26.0802C71.1969 26.2822 71.0526 26.4408 70.8939 26.5274C70.7353 26.6139 70.5189 26.6428 70.2015 26.6428C69.812 26.6428 69.2783 26.5851 68.6003 26.4697L64.3304 25.734C63.5803 25.6042 63.0465 25.4166 62.7436 25.1714C62.4984 24.9695 62.3686 24.6954 62.3686 24.378C62.3686 24.2915 62.383 24.2049 62.3974 24.1184C62.4263 23.9308 62.4984 23.7577 62.6282 23.6135Z" fill="white"/>
</svg>
