<svg width="99" height="26" viewBox="0 0 99 26" fill="none" xmlns="http://www.w3.org/2000/svg">
<path fill-rule="evenodd" clip-rule="evenodd" d="M33.8646 2.60938C36.4771 2.60938 39.0892 3.63151 41.0769 5.61905C45.0519 9.62256 45.0519 16.0963 41.0482 20.0713C37.0732 24.0464 30.5996 24.0464 26.6246 20.0713C22.6496 16.0678 22.6496 9.62256 26.6246 5.61905C28.6118 3.60315 31.2244 2.60938 33.8364 2.60938H33.8646ZM29.5208 17.1752C31.9056 19.5603 35.7954 19.5603 38.1807 17.1752C40.5942 14.7901 40.5942 10.9003 38.1807 8.51522C35.7954 6.13018 31.9056 6.13018 29.5208 8.51522C27.1355 10.9003 27.1355 14.7901 29.5208 17.1752Z" fill="white"/>
<path fill-rule="evenodd" clip-rule="evenodd" d="M55.302 2.60938C57.914 2.63774 60.5266 3.63151 62.5138 5.61905C66.4893 9.62256 66.4893 16.0963 62.5138 20.0713C58.5388 24.0464 52.0652 24.0464 48.0902 20.0713C44.1152 16.0678 44.1152 9.62256 48.0902 5.61905C50.0774 3.60315 52.69 2.60938 55.302 2.60938ZM50.9577 17.1752C53.343 19.5603 57.2328 19.5603 59.6181 17.1752C62.0311 14.7901 62.0311 10.9003 59.6181 8.51522C57.2328 6.13018 53.343 6.13018 50.9577 8.51522C48.5729 10.9003 48.5729 14.7901 50.9577 17.1752Z" fill="white"/>
<path d="M8.33865 23.0247L9.36085 23.0814H24.6651L24.6081 22.0592C24.466 20.3841 23.2734 19.1631 21.5986 19.0496L20.5762 18.9928H11.3768L23.6427 6.75523L23.5858 5.73304C23.5006 4.02943 22.2516 2.80851 20.5762 2.72336L19.5539 2.66658H4.25L4.30678 3.68871C4.44877 5.36391 5.64127 6.61324 7.31652 6.69845L8.33865 6.75523H17.5379L5.27219 19.0211L5.32898 20.0433C5.41413 21.6902 6.63509 22.9111 8.33865 23.0247Z" fill="white"/>
<path d="M78.6979 10.8146C78.6697 10.0481 78.5564 9.36659 78.2152 8.77032C77.5058 7.5494 76.1993 6.72599 74.6947 6.78277C73.1897 6.78277 71.8837 7.60619 71.1737 8.8271C70.8049 9.42338 70.691 10.1049 70.6628 10.8714L70.6059 11.8936V19.0487L70.5495 20.0709C70.4925 21.7745 69.2429 22.967 67.5394 23.0806L66.5175 23.1374V2.69412C67.5394 2.69412 69.2999 3.20524 70.095 4.08544C71.401 3.20524 72.9624 2.69412 74.666 2.69412C77.1083 2.69412 79.3227 3.74468 80.799 5.44829C82.3041 3.7731 84.4904 2.69412 86.9321 2.69412C91.4467 2.69412 95.1093 6.35691 95.1093 10.8714V23.109L94.0875 23.0522C92.4121 22.967 91.1912 21.7178 91.0779 20.0425L91.021 19.0204V11.8652L90.964 10.8431C90.9358 10.1049 90.8219 9.39501 90.4813 8.79874C89.7713 7.57782 88.4371 6.75441 86.9321 6.75441C85.4276 6.75441 84.121 7.5494 83.4116 8.77032C83.0423 9.36659 82.9289 10.0481 82.9001 10.8146L82.8438 11.8368V23.0806L81.8214 23.0238C80.146 22.9103 78.9252 21.6893 78.8118 20.0141L78.7549 18.992V11.8368L78.6979 10.8146Z" fill="white"/>
</svg>
