<svg width="99" height="26" viewBox="0 0 99 26" fill="none" xmlns="http://www.w3.org/2000/svg">
<path fill-rule="evenodd" clip-rule="evenodd" d="M65.5404 2.60938C62.9277 2.60938 60.3155 3.63156 58.3277 5.61919C54.3526 9.62287 54.3526 16.0968 58.3565 20.0721C62.3316 24.0474 68.8055 24.0474 72.7807 20.0721C76.7558 16.0684 76.7558 9.62287 72.7807 5.61919C70.7934 3.60319 68.1807 2.60938 65.5686 2.60938H65.5404ZM69.8843 17.1758C67.4995 19.561 63.6095 19.561 61.224 17.1758C58.8104 14.7907 58.8104 10.9006 61.224 8.51548C63.6095 6.13033 67.4995 6.13033 69.8843 8.51548C72.2698 10.9006 72.2698 14.7907 69.8843 17.1758Z" fill="white"/>
<path fill-rule="evenodd" clip-rule="evenodd" d="M44.102 2.60938C41.4899 2.63774 38.8772 3.63156 36.8899 5.61919C32.9142 9.62287 32.9142 16.0968 36.8899 20.0721C40.865 24.0474 47.339 24.0474 51.3141 20.0721C55.2893 16.0684 55.2893 9.62287 51.3141 5.61919C49.3268 3.60319 46.7141 2.60938 44.102 2.60938ZM48.4465 17.1758C46.0611 19.561 42.1711 19.561 39.7857 17.1758C37.3726 14.7907 37.3726 10.9006 39.7857 8.51548C42.1711 6.13033 46.0611 6.13033 48.4465 8.51548C50.8314 10.9006 50.8314 14.7907 48.4465 17.1758Z" fill="white"/>
<path d="M91.0674 23.0255L90.0452 23.0823H74.7403L74.7972 22.0601C74.9393 20.3848 76.132 19.1639 77.8069 19.0503L78.8293 18.9935H88.0292L75.7627 6.75541L75.8196 5.73318C75.9048 4.02949 77.1539 2.80852 78.8293 2.72337L79.8517 2.66658H95.1562L95.0995 3.68876C94.9575 5.36403 93.7649 6.61342 92.0896 6.69863L91.0674 6.75541H81.8678L94.134 19.0219L94.0772 20.0441C93.9921 21.691 92.7711 22.912 91.0674 23.0255Z" fill="white"/>
<path d="M20.705 10.815C20.7332 10.0484 20.8466 9.36689 21.1878 8.77059C21.8972 7.54962 23.2038 6.72617 24.7084 6.78296C26.2135 6.78296 27.5196 7.60641 28.2296 8.82737C28.5984 9.42368 28.7123 10.1052 28.7405 10.8718L28.7975 11.894V19.0495L28.8539 20.0717C28.9108 21.7754 30.1605 22.9679 31.8641 23.0815L32.886 23.1383V2.69412C31.8641 2.69412 30.1035 3.20527 29.3084 4.08551C28.0023 3.20527 26.4408 2.69412 24.7372 2.69412C22.2948 2.69412 20.0802 3.74473 18.6039 5.44842C17.0987 3.77315 14.9124 2.69412 12.4705 2.69412C7.95571 2.69412 4.29298 6.35708 4.29298 10.8718V23.1099L5.31483 23.0531C6.99026 22.9679 8.21118 21.7186 8.32453 20.0433L8.38148 19.0211V11.8656L8.43843 10.8434C8.46663 10.1052 8.58054 9.39531 8.92115 8.79901C9.63114 7.57804 10.9654 6.75459 12.4705 6.75459C13.9751 6.75459 15.2817 7.54962 15.9912 8.77059C16.3605 9.36689 16.4739 10.0484 16.5026 10.815L16.559 11.8372V23.0815L17.5814 23.0247C19.2569 22.9111 20.4778 21.6902 20.5911 20.0149L20.6481 18.9927V11.8372L20.705 10.815Z" fill="white"/>
</svg>
