<svg width="124" height="31" viewBox="0 0 124 31" fill="none" xmlns="http://www.w3.org/2000/svg">
<path fill-rule="evenodd" clip-rule="evenodd" d="M41.9837 2.57812C45.2622 2.57812 48.5401 3.86081 51.0345 6.35498C56.0227 11.379 56.0227 19.5028 50.9984 24.4912C46.0102 29.4795 37.8864 29.4795 32.8982 24.4912C27.91 19.4672 27.91 11.379 32.8982 6.35498C35.392 3.82521 38.6705 2.57812 41.9483 2.57812H41.9837ZM36.5327 20.8568C39.5253 23.8498 44.4067 23.8498 47.4 20.8568C50.4288 17.8638 50.4288 12.9824 47.4 9.98938C44.4067 6.99639 39.5253 6.99639 36.5327 9.98938C33.5394 12.9824 33.5394 17.8638 36.5327 20.8568Z" fill="#4A94FF"/>
<path fill-rule="evenodd" clip-rule="evenodd" d="M68.8856 2.57812C72.1634 2.61372 75.4419 3.86081 77.9357 6.35498C82.9246 11.379 82.9246 19.5028 77.9357 24.4912C72.9475 29.4795 64.8237 29.4795 59.8355 24.4912C54.8473 19.4672 54.8473 11.379 59.8355 6.35498C62.3293 3.82521 65.6078 2.57812 68.8856 2.57812ZM63.4339 20.8568C66.4272 23.8498 71.3086 23.8498 74.3019 20.8568C77.3299 17.8638 77.3299 12.9824 74.3019 9.98938C71.3086 6.99639 66.4272 6.99639 63.4339 9.98938C60.4412 12.9824 60.4412 17.8638 63.4339 20.8568Z" fill="#4A94FF"/>
<path d="M9.95117 28.1973L11.2339 28.2686H30.4392L30.3678 26.9858C30.1894 24.8836 28.6928 23.3515 26.591 23.209L25.3081 23.1377H13.7637L29.1563 7.78077L29.0848 6.49802C28.978 4.36015 27.4105 2.82802 25.3081 2.72117L24.0251 2.64991H4.82031L4.89157 3.93259C5.06976 6.0348 6.56622 7.60259 8.66849 7.70951L9.95117 7.78077H21.4953L6.10306 23.1733L6.17432 24.456C6.28118 26.5226 7.81337 28.0548 9.95117 28.1973Z" fill="#4A94FF"/>
<path d="M98.2452 12.8749C98.2098 11.913 98.0675 11.0578 97.6394 10.3095C96.7492 8.77738 95.1096 7.74407 93.2216 7.81533C91.3329 7.81533 89.694 8.84864 88.803 10.3808C88.3402 11.129 88.1973 11.9842 88.1619 12.9462L88.0904 14.2289V23.2079L88.0196 24.4907C87.9482 26.6285 86.3801 28.125 84.2422 28.2675L82.96 28.3388V2.68447C84.2422 2.68447 86.4515 3.32588 87.4493 4.43044C89.0882 3.32588 91.0477 2.68447 93.1855 2.68447C96.2503 2.68447 99.0292 4.00282 100.882 6.14069C102.771 4.03848 105.514 2.68447 108.578 2.68447C114.244 2.68447 118.84 7.28092 118.84 12.9462V28.3032L117.558 28.2319C115.455 28.125 113.923 26.5573 113.781 24.455L113.709 23.1723V14.1933L113.638 12.9106C113.603 11.9842 113.46 11.0934 113.032 10.3452C112.141 8.81304 110.467 7.77974 108.578 7.77974C106.69 7.77974 105.051 8.77738 104.16 10.3095C103.697 11.0578 103.555 11.913 103.519 12.8749L103.448 14.1577V28.2675L102.165 28.1963C100.062 28.0537 98.5303 26.5216 98.3881 24.4194L98.3166 23.1367V14.1577L98.2452 12.8749Z" fill="#4A94FF"/>
</svg>
